<?xml version="1.0" encoding="utf-8"?>
<!-- Generator: Adobe Illustrator 18.1.0, SVG Export Plug-In . SVG Version: 6.00 Build 0)  -->
<!DOCTYPE svg PUBLIC "-//W3C//DTD SVG 1.1//EN" "http://www.w3.org/Graphics/SVG/1.1/DTD/svg11.dtd">
<svg version="1.1" id="Layer_1" xmlns="http://www.w3.org/2000/svg" xmlns:xlink="http://www.w3.org/1999/xlink" x="0px" y="0px"
	 viewBox="0 0 720 720" enable-background="new 0 0 720 720" xml:space="preserve">
<g>
	<circle fill="#C6DDE0" cx="359.6" cy="360" r="294.4"/>
	<g>
		<defs>
			<circle id="SVGID_1_" cx="359.6" cy="360" r="294.4"/>
		</defs>
		<clipPath id="SVGID_2_">
			<use xlink:href="#SVGID_1_"  overflow="visible"/>
		</clipPath>
		<polygon clip-path="url(#SVGID_2_)" fill="#BDCFD0" points="555.8,363.3 582.8,330.4 661.2,441 634.1,509.2 580.6,517.5 
			560.8,415 		"/>
	</g>
	<polyline fill="#BDCFD0" points="261.6,394 267.8,336.7 291.5,330.4 333.4,390.2 	"/>
	<polyline fill="#BDCFD0" points="329,394 335.2,336.7 358.8,330.4 400.7,390.2 	"/>
	<polyline fill="#BDCFD0" points="369.1,398.2 375.3,340.9 399,334.6 440.9,394.3 	"/>
	<polyline fill="#BDCFD0" points="419.4,394 425.6,336.7 449.2,330.4 491.1,390.2 	"/>
	<polyline fill="#BDCFD0" points="462.8,394 469,336.7 492.6,330.4 534.5,390.2 	"/>
	<polyline fill="#BDCFD0" points="489.1,394 518.9,330.4 560.8,390.2 	"/>
	<polyline fill="#BDCFD0" points="553,345.3 554.8,330.4 596.7,390.2 	"/>
	<polygon fill="#BDCFD0" points="158.6,330.4 200.5,390.2 144.4,386.6 	"/>
	<polygon fill="#BDCFD0" points="199.9,330.4 241.8,390.2 185.7,386.6 	"/>
	<polygon fill="#BDCFD0" points="222.1,330.4 264,390.2 207.9,386.6 	"/>
	<polygon fill="#BDCFD0" points="252.5,330.4 294.4,390.2 219.7,385.7 	"/>
	<g>
		
			<text transform="matrix(1 0 0 1 136.3417 379.294)" fill="#FFFFFF" font-family="'OpenSans-BoldItalic'" font-size="68.4039" letter-spacing="6">LIVE FREELY</text>
	</g>
	<circle fill="none" cx="359.6" cy="360" r="294.4"/>
	<g>
		<defs>
			<circle id="SVGID_3_" cx="359.6" cy="360" r="294.4"/>
		</defs>
		<clipPath id="SVGID_4_">
			<use xlink:href="#SVGID_3_"  overflow="visible"/>
		</clipPath>
		<polygon clip-path="url(#SVGID_4_)" fill="#BDCFD0" points="716.2,672.8 331.3,672.8 136.3,379.3 557.9,379.3 		"/>
	</g>
	<circle fill="none" cx="359.6" cy="360" r="294.4"/>
</g>
</svg>
