<?xml version="1.0" encoding="utf-8"?>
<!-- Generator: Adobe Illustrator 18.1.0, SVG Export Plug-In . SVG Version: 6.00 Build 0)  -->
<!DOCTYPE svg PUBLIC "-//W3C//DTD SVG 1.1//EN" "http://www.w3.org/Graphics/SVG/1.1/DTD/svg11.dtd">
<svg version="1.1" id="Layer_1" xmlns="http://www.w3.org/2000/svg" xmlns:xlink="http://www.w3.org/1999/xlink" x="0px" y="0px"
	 viewBox="-1023.4 -484 1743.4 2908" enable-background="new -1023.4 -484 1743.4 2908" xml:space="preserve">
<polyline fill="none" stroke="#102B38" stroke-width="9" stroke-miterlimit="10" points="246.6,-4.5 -518.6,618 257.2,1264.1 
	-507.4,1842 "/>
<g>
	<circle fill="#E9AE21" cx="246.6" cy="1235.1" r="294.4"/>
	<polygon fill="#D79729" points="120.5,1265.2 78.6,1205.5 60.9,1208.1 48.9,1262.5 	"/>
	<polygon fill="#D79729" points="155.8,1265.2 113.8,1205.5 99.6,1214.7 77.9,1262.5 	"/>
	<polygon fill="#D79729" points="187,1265.2 145,1205.5 143.7,1224.7 145.5,1261.2 	"/>
	<polygon fill="#D79729" points="215.2,1265.2 173.3,1205.5 153.6,1226 173.7,1261.2 	"/>
	<polygon fill="#D79729" points="284.7,1267.7 242.8,1208 210.9,1216.1 205.3,1262.3 	"/>
	<polygon fill="#D79729" points="334.1,1269.5 292.2,1209.8 260.3,1215.8 254.7,1264.1 	"/>
	<polygon fill="#D79729" points="369.8,1265.5 327.9,1205.8 316.8,1222.1 309.2,1263.9 	"/>
	<polygon fill="#D79729" points="428.4,1270.4 386.5,1210.6 364,1211.6 353.9,1264 	"/>
	<polygon fill="#D79729" points="480.5,1265.3 438.6,1205.6 416.1,1206.5 406,1258.9 	"/>
	<polygon fill="#D79729" points="508.5,1265.3 466.5,1205.6 459.1,1206.5 449,1258.9 	"/>
	<circle fill="none" cx="246.6" cy="1235.1" r="294.4"/>
	<circle fill="none" cx="246.6" cy="1235.1" r="294.4"/>
	<polyline fill="#D79729" points="6.1,1211.5 32.2,1208.1 74.2,1267.8 9,1260.2 11.5,1250.6 19.6,1242.3 17.4,1232.2 8,1216.5 
		17.5,1208.1 	"/>
	<g>
		<g>
			<defs>
				<circle id="SVGID_1_" cx="246.6" cy="1235.1" r="294.4"/>
			</defs>
			<clipPath id="SVGID_2_">
				<use xlink:href="#SVGID_1_"  overflow="visible"/>
			</clipPath>
			<polygon clip-path="url(#SVGID_2_)" fill="#D79729" points="642.7,1547.9 193.8,1547.9 -3.5,1252.1 484.4,1254.4 			"/>
		</g>
	</g>
	<circle fill="none" cx="246.6" cy="1235.1" r="294.4"/>
	<g>
		<defs>
			<circle id="SVGID_3_" cx="246.6" cy="1235.1" r="294.4"/>
		</defs>
		<clipPath id="SVGID_4_">
			<use xlink:href="#SVGID_3_"  overflow="visible"/>
		</clipPath>
		<polygon clip-path="url(#SVGID_4_)" fill="#D79729" points="603,1360.2 494.4,1205.6 489.4,1208.1 463.3,1343.7 		"/>
	</g>
	<g>
		
			<text transform="matrix(1 0 0 1 -4.9678 1254.426)" fill="#FFFFFF" font-family="'OpenSans-BoldItalic'" font-size="68.4039" letter-spacing="5">STAY GOLDEN</text>
	</g>
</g>
<g>
	<circle fill="#E1513C" cx="-518.6" cy="1826.1" r="294.4"/>
	<circle fill="#E9AE21" cx="-482.9" cy="1673" r="18.1"/>
	<circle fill="none" cx="-518.6" cy="1826.1" r="294.4"/>
	<polygon fill="#C6DDE0" points="-723,1924.1 -579.8,1680.5 -436.6,1924.1 	"/>
	<polygon fill="#C6DDE0" points="-600.7,1924.1 -433.7,1745.2 -314.3,1924.1 	"/>
	<polygon fill="#FFFFFF" points="-624.3,1756.3 -600.7,1745.2 -597.6,1811 -570.3,1774.9 -507.4,1842 -474.2,1811 -457.5,1834.7 
		-436.6,1785.7 -404.7,1842 -398.9,1826.3 -365,1848.2 -433.7,1745.2 -500,1816.3 -579.8,1680.5 	"/>
	<g>
		<g>
			<defs>
				<circle id="SVGID_5_" cx="-518.6" cy="1826.1" r="294.4"/>
			</defs>
			<clipPath id="SVGID_6_">
				<use xlink:href="#SVGID_5_"  overflow="visible"/>
			</clipPath>
			<polygon clip-path="url(#SVGID_6_)" fill="#C64237" points="-128.7,2219.9 -525.7,2219.9 -723,1924.1 -314.3,1924.1 			"/>
		</g>
	</g>
</g>
<g>
	<circle fill="#102B38" cx="-513.2" cy="632.5" r="294.4"/>
	<circle fill="#B5C6C6" cx="-630.3" cy="487.5" r="4.5"/>
	<circle fill="#B5C6C6" cx="-508.1" cy="788.1" r="4.5"/>
	<circle fill="#B5C6C6" cx="-453" cy="637.3" r="5.5"/>
	<circle fill="#B5C6C6" cx="-409.5" cy="688.3" r="2.7"/>
	<circle fill="#B5C6C6" cx="-344.1" cy="545.1" r="2.7"/>
	<circle fill="#E9AE21" cx="-379.2" cy="615.3" r="2.7"/>
	<circle fill="#E9AE21" cx="-623.1" cy="736" r="2.7"/>
	<circle fill="#E9AE21" cx="-425.3" cy="458.4" r="5.8"/>
	<circle fill="#B5C6C6" cx="-701" cy="730.7" r="2.7"/>
	<circle fill="#B5C6C6" cx="-381.9" cy="780.9" r="2.7"/>
	<circle fill="#B5C6C6" cx="-662.6" cy="683" r="2.7"/>
	<circle fill="#B5C6C6" cx="-635.8" cy="808.5" r="1.7"/>
	<circle fill="#B5C6C6" cx="-440" cy="749.6" r="1.7"/>
	<circle fill="#B5C6C6" cx="-503.6" cy="438.9" r="1.7"/>
	<circle fill="#B5C6C6" cx="-458.5" cy="839.9" r="2.7"/>
	<circle fill="#B5C6C6" cx="-317.5" cy="651.4" r="4.5"/>
	<circle fill="#B5C6C6" cx="-417.3" cy="537.2" r="8"/>
</g>
<g>
	<circle fill="#C6DDE0" cx="246.6" cy="-4.5" r="294.4"/>
	<g>
		<defs>
			<circle id="SVGID_7_" cx="246.6" cy="-4.5" r="294.4"/>
		</defs>
		<clipPath id="SVGID_8_">
			<use xlink:href="#SVGID_7_"  overflow="visible"/>
		</clipPath>
		<polygon clip-path="url(#SVGID_8_)" fill="#BCCFD0" points="442.7,-1.2 469.7,-34 548.2,76.5 521,144.7 467.5,153 447.7,50.5 		
			"/>
	</g>
	<polyline fill="#BCCFD0" points="148.6,29.6 154.8,-27.7 178.4,-34 220.3,25.7 	"/>
	<polyline fill="#BCCFD0" points="215.9,29.6 222.1,-27.7 245.7,-34 287.7,25.7 	"/>
	<polyline fill="#BCCFD0" points="256.1,33.7 262.3,-23.6 285.9,-29.9 327.8,29.8 	"/>
	<polyline fill="#BCCFD0" points="306.3,29.6 312.5,-27.7 336.1,-34 378,25.7 	"/>
	<polyline fill="#BCCFD0" points="349.7,29.6 355.9,-27.7 379.5,-34 421.5,25.7 	"/>
	<polyline fill="#BCCFD0" points="376,29.6 405.8,-34 447.7,25.7 	"/>
	<polyline fill="#BCCFD0" points="439.9,-19.2 441.7,-34 483.6,25.7 	"/>
	<polygon fill="#BCCFD0" points="45.5,-34 87.4,25.7 31.3,22.2 	"/>
	<polygon fill="#BCCFD0" points="86.8,-34 128.8,25.7 72.6,22.2 	"/>
	<polygon fill="#BCCFD0" points="109,-34 150.9,25.7 94.8,22.2 	"/>
	<polygon fill="#BCCFD0" points="139.4,-34 181.3,25.7 106.6,21.3 	"/>
	<g>
		
			<text transform="matrix(1 0 0 1 23.2575 14.8286)" fill="#FFFFFF" font-family="'OpenSans-BoldItalic'" font-size="68.4039" letter-spacing="6">LIVE FREELY</text>
	</g>
	<circle fill="none" cx="246.6" cy="-4.5" r="294.4"/>
	<g>
		<defs>
			<circle id="SVGID_9_" cx="246.6" cy="-4.5" r="294.4"/>
		</defs>
		<clipPath id="SVGID_10_">
			<use xlink:href="#SVGID_9_"  overflow="visible"/>
		</clipPath>
		<polygon clip-path="url(#SVGID_10_)" fill="#BCCFD0" points="603.1,308.4 218.3,308.4 23.3,14.8 444.8,14.8 		"/>
	</g>
	<circle fill="none" cx="246.6" cy="-4.5" r="294.4"/>
</g>
</svg>
