<?xml version="1.0" encoding="utf-8"?>
<!-- Generator: Adobe Illustrator 18.1.0, SVG Export Plug-In . SVG Version: 6.00 Build 0)  -->
<!DOCTYPE svg PUBLIC "-//W3C//DTD SVG 1.1//EN" "http://www.w3.org/Graphics/SVG/1.1/DTD/svg11.dtd">
<svg version="1.1" id="Layer_1" xmlns="http://www.w3.org/2000/svg" xmlns:xlink="http://www.w3.org/1999/xlink" x="0px" y="0px"
	 viewBox="-1023.4 0 1743.4 1664.1" enable-background="new -1023.4 0 1743.4 1664.1" xml:space="preserve">
<circle fill="#E1513C" cx="248.3" cy="1199.8" r="294.4"/>
<circle fill="#E9AE21" cx="284" cy="1046.7" r="18.1"/>
<circle fill="none" cx="248.3" cy="1199.8" r="294.4"/>
<g>
	<circle fill="#E9AE21" cx="-514.8" cy="1199.8" r="294.4"/>
	<polygon fill="#D79729" points="-640.9,1229.9 -682.8,1170.2 -700.5,1172.8 -712.5,1227.2 	"/>
	<polygon fill="#D79729" points="-605.6,1229.9 -647.6,1170.2 -661.8,1179.4 -683.5,1227.2 	"/>
	<polygon fill="#D79729" points="-573.7,1229.9 -615.7,1170.2 -617,1189.4 -615.2,1225.9 	"/>
	<polygon fill="#D79729" points="-545.4,1229.9 -587.3,1170.2 -607,1190.7 -586.9,1225.9 	"/>
	<polygon fill="#D79729" points="-475.3,1232.4 -517.2,1172.7 -549.1,1180.8 -554.7,1227 	"/>
	<polygon fill="#D79729" points="-424.8,1234.2 -466.7,1174.5 -498.6,1180.5 -504.2,1228.8 	"/>
	<polygon fill="#D79729" points="-389.9,1230.2 -431.8,1170.5 -442.9,1186.8 -450.5,1228.6 	"/>
	<polygon fill="#D79729" points="-331,1235.1 -372.9,1175.3 -395.4,1176.3 -405.5,1228.7 	"/>
	<polygon fill="#D79729" points="-278.7,1230.2 -320.6,1170.5 -343.1,1171.4 -353.2,1223.8 	"/>
	<polygon fill="#D79729" points="-250.9,1230.2 -292.9,1170.5 -300.3,1171.4 -310.4,1223.8 	"/>
	<circle fill="none" cx="-514.8" cy="1199.8" r="294.4"/>
	<circle fill="none" cx="-514.8" cy="1199.8" r="294.4"/>
	<polyline fill="#D79729" points="-755.3,1176.2 -729.2,1172.8 -687.2,1232.5 -752.4,1224.9 -749.9,1215.3 -741.8,1207 -744,1196.9 
		-753.4,1181.2 -743.9,1172.8 	"/>
	<g>
		<g>
			<defs>
				<circle id="SVGID_1_" cx="-514.8" cy="1199.8" r="294.4"/>
			</defs>
			<clipPath id="SVGID_2_">
				<use xlink:href="#SVGID_1_"  overflow="visible"/>
			</clipPath>
			<polygon clip-path="url(#SVGID_2_)" fill="#D79729" points="-118.7,1512.6 -567.6,1512.6 -764.9,1216.8 -277,1219.1 			"/>
		</g>
	</g>
	<g>
		<g>
			<defs>
				<circle id="SVGID_3_" cx="-514.8" cy="1199.8" r="294.4"/>
			</defs>
			<clipPath id="SVGID_4_">
				<use xlink:href="#SVGID_3_"  overflow="visible"/>
			</clipPath>
			<polygon clip-path="url(#SVGID_4_)" fill="#D79729" points="-155.9,1325.1 -264.5,1170.5 -269.5,1173 -295.6,1308.6 			"/>
		</g>
	</g>
	<g>
		
			<text transform="matrix(1 0 0 1 -766.339 1219.126)" fill="#FFFFFF" font-family="'OpenSans-BoldItalic'" font-size="68.4039" letter-spacing="5">STAY GOLDEN</text>
	</g>
</g>
<polygon fill="#C6DDE0" points="43.9,1297.8 187.1,1054.2 330.3,1297.8 "/>
<polygon fill="#C6DDE0" points="166.2,1297.8 333.2,1118.9 452.6,1297.8 "/>
<polygon fill="#FFFFFF" points="142.6,1130 166.2,1118.9 169.3,1184.7 196.6,1148.6 259.5,1215.7 292.7,1184.7 309.4,1208.4 
	330.3,1159.4 362.2,1215.7 368,1200 401.9,1221.9 333.2,1118.9 266.9,1190 187.1,1054.2 "/>
<g>
	<g>
		<defs>
			<circle id="SVGID_5_" cx="248.3" cy="1199.8" r="294.4"/>
		</defs>
		<clipPath id="SVGID_6_">
			<use xlink:href="#SVGID_5_"  overflow="visible"/>
		</clipPath>
		<polygon clip-path="url(#SVGID_6_)" fill="#C64237" points="638.2,1593.6 241.2,1593.6 43.9,1297.8 452.6,1297.8 		"/>
	</g>
</g>
<g>
	<circle fill="#102B38" cx="-513.2" cy="456.5" r="294.4"/>
	<circle fill="#B5C6C6" cx="-630.3" cy="311.5" r="4.5"/>
	<circle fill="#B5C6C6" cx="-508.1" cy="612.1" r="4.5"/>
	<circle fill="#B5C6C6" cx="-453" cy="461.3" r="5.5"/>
	<circle fill="#B5C6C6" cx="-409.5" cy="512.3" r="2.7"/>
	<circle fill="#B5C6C6" cx="-344.1" cy="369.1" r="2.7"/>
	<circle fill="#E9AE21" cx="-379.2" cy="439.3" r="2.7"/>
	<circle fill="#E9AE21" cx="-623.1" cy="560" r="2.7"/>
	<circle fill="#E9AE21" cx="-425.3" cy="282.4" r="5.8"/>
	<circle fill="#B5C6C6" cx="-701" cy="554.7" r="2.7"/>
	<circle fill="#B5C6C6" cx="-381.9" cy="604.9" r="2.7"/>
	<circle fill="#B5C6C6" cx="-662.6" cy="507" r="2.7"/>
	<circle fill="#B5C6C6" cx="-635.8" cy="632.5" r="1.7"/>
	<circle fill="#B5C6C6" cx="-440" cy="573.6" r="1.7"/>
	<circle fill="#B5C6C6" cx="-503.6" cy="262.9" r="1.7"/>
	<circle fill="#B5C6C6" cx="-458.5" cy="663.9" r="2.7"/>
	<circle fill="#B5C6C6" cx="-317.5" cy="475.4" r="4.5"/>
	<circle fill="#B5C6C6" cx="-417.3" cy="361.2" r="8"/>
</g>
<g>
	<circle fill="#C6DDE0" cx="246.6" cy="455.9" r="294.4"/>
	<g>
		<defs>
			<circle id="SVGID_7_" cx="246.6" cy="455.9" r="294.4"/>
		</defs>
		<clipPath id="SVGID_8_">
			<use xlink:href="#SVGID_7_"  overflow="visible"/>
		</clipPath>
		<polygon clip-path="url(#SVGID_8_)" fill="#BCCFD0" points="442.7,459.2 469.7,426.3 548.2,536.9 521,605.1 467.5,613.4 
			447.7,510.9 		"/>
	</g>
	<polyline fill="#BCCFD0" points="148.6,489.9 154.8,432.6 178.4,426.3 220.3,486.1 	"/>
	<polyline fill="#BCCFD0" points="215.9,489.9 222.1,432.6 245.7,426.3 287.7,486.1 	"/>
	<polyline fill="#BCCFD0" points="256.1,494.1 262.3,436.8 285.9,430.5 327.8,490.2 	"/>
	<polyline fill="#BCCFD0" points="306.3,489.9 312.5,432.6 336.1,426.3 378,486.1 	"/>
	<polyline fill="#BCCFD0" points="349.7,489.9 355.9,432.6 379.5,426.3 421.5,486.1 	"/>
	<polyline fill="#BCCFD0" points="376,489.9 405.8,426.3 447.7,486.1 	"/>
	<polyline fill="#BCCFD0" points="439.9,441.2 441.7,426.3 483.6,486.1 	"/>
	<polygon fill="#BCCFD0" points="45.5,426.3 87.4,486.1 31.3,482.5 	"/>
	<polygon fill="#BCCFD0" points="86.8,426.3 128.8,486.1 72.6,482.5 	"/>
	<polygon fill="#BCCFD0" points="109,426.3 150.9,486.1 94.8,482.5 	"/>
	<polygon fill="#BCCFD0" points="139.4,426.3 181.3,486.1 106.6,481.7 	"/>
	<g>
		
			<text transform="matrix(1 0 0 1 23.2575 475.1965)" fill="#FFFFFF" font-family="'OpenSans-BoldItalic'" font-size="68.4039" letter-spacing="6">LIVE FREELY</text>
	</g>
	<circle fill="none" cx="246.6" cy="455.9" r="294.4"/>
	<g>
		<defs>
			<circle id="SVGID_9_" cx="246.6" cy="455.9" r="294.4"/>
		</defs>
		<clipPath id="SVGID_10_">
			<use xlink:href="#SVGID_9_"  overflow="visible"/>
		</clipPath>
		<polygon clip-path="url(#SVGID_10_)" fill="#BCCFD0" points="603.1,768.7 218.3,768.7 23.3,475.2 444.8,475.2 		"/>
	</g>
	<circle fill="none" cx="246.6" cy="455.9" r="294.4"/>
</g>
</svg>
