<?xml version="1.0" encoding="utf-8"?>
<!-- Generator: Adobe Illustrator 18.1.0, SVG Export Plug-In . SVG Version: 6.00 Build 0)  -->
<!DOCTYPE svg PUBLIC "-//W3C//DTD SVG 1.1//EN" "http://www.w3.org/Graphics/SVG/1.1/DTD/svg11.dtd">
<svg version="1.1" id="Layer_1" xmlns="http://www.w3.org/2000/svg" xmlns:xlink="http://www.w3.org/1999/xlink" x="0px" y="0px"
	 viewBox="0 0 576 576" enable-background="new 0 0 576 576" xml:space="preserve">
<g>
	<path d="M374.6,202.1c-0.3,1.4,1.6,2.3,2.4,1.1c2.9-3.8,6.7-8.8,9.7-10.1c5.7-2.5,11.8-3.3,17.3,0.9c2.7,2.1,5,4.6,7.6,6.8
		c0,0,0,0,0.1,0c21.4,15.5,53.1-4.4,42.3-35.2c0-0.1,0-0.2-0.1-0.3c-0.1-2.6,1.7-4.3,4.5-5.2c2.3-0.7,3.6-0.2,5.2,2.3
		c0,0.1,0.1,0.1,0.1,0.2c9.9,26.7-15,72.5-62.5,41.8c-6.6-4.2-13.2-2.6-17,3.6c-4.1,6.6-7.6,13.6-10,21.1
		c-4.1,12.4-9.5,13-11.1,11.4c-1.6-1.6-2.5-3.4-2-5.7c0.7-3.3,3.4-13.4,4.4-19.6c0.2-1.4-1.5-2.2-2.4-1.1
		c-4.7,5.5-13.8,16.6-16.7,20.5c-6.1,8.3-14.4,7.6-20.8,0.6c-0.8-0.8-2.2-2.4-3.3-3.4c-0.7,0-1.1,0-1.9,0
		c-2.6,2.6-10.3,10.4-14.1,13.2c-6.4,4.7-14.3,1.1-15.7-6.8c-0.4-2.5-0.3-4.9,0.2-7.4c1.1-4.9,8.3-27.7,25.5-39.5
		c1.8-1.2,3.6-2.3,5.6-3c4.5-1.8,8.7,0.8,8.5,5.6c-0.3,6.8-1.4,29.5,0.8,33.5c2,3.7,7.2,4,10.1,0.6c4.1-4.8,8.3-9.5,12-14.7
		c3.2-4.5,6.2-9.1,9.4-13.6c4.7-6.5,6.3-14.2,7.5-22c1.1-7.2,2.1-14.4,2.5-21.6c0.4-7.1,2.3-13.8,4.3-20.5c0.7-2.4,1.8-4.7,2.7-7
		c0.6-1.4,1.5-2.1,3.1-1.9c1.6,0.2,2.9,0.9,3,2.6c0.2,3,0.4,6.1,0,9.1c-0.6,5.1-1.5,10.2-2.4,15.2c-0.4,2.5-1,4.9-1.4,7.4
		c-1.7,9.9-3.4,19.8-5.1,29.7C376.2,194.6,375.3,198.3,374.6,202.1C374.6,202.1,374.6,202.1,374.6,202.1z M317.2,199.3
		c-5,3.7-16.6,14.8-19,32.5c0,0.1,0,0.2,0,0.3c0.1,1.8,0.6,4.2,1.8,5.1c0.9,0.8,3.7,0.2,5.1-0.7c4.9-3.1,9.3-6.9,12.8-11.6
		c2.3-3.1,2.8-6.4,2-10.1c-0.4-1.8-0.5-9.6-0.6-14.5C319.4,199.3,318.1,198.7,317.2,199.3z"/>
	<path d="M287.7,247.1c-4.1-1.4-6.6-4.5-7.7-8.6c-1.4-5.4-2.6-10.9-3.9-16.4c-1.3-5.7-2.4-11.5-4.2-17.1c-0.6-1.8-2.9-3.8-4.9-4.2
		c-1-0.3-3.3,2.3-4,4c-2.6,6-4.9,12.2-7,18.4c-3.4,9.9-8.6,18.6-15.8,26.3c-6.8,8-14.8,7.7-18-3.6c-2.5-6.8-2.9-13.7-2.7-20.8
		c0.1-4.6,0-9.4-1.1-13.9c-1.5-6.1-5.2-7.3-10.5-3.6c-3.8,2.7-7.1,6.1-10.8,9.1c-9.5,7.7-15,17.9-19.1,29.1
		c-1.3,3.5-1.8,7.1-1.6,10.7c-0.1,0.2-0.3,0.5-0.4,0.8c-0.9,2.3-3.9,3.4-6.8,4.1c-0.7-3.6-1.6-7.4-2.8-11.2
		c-3.4-11.3-8.1-22.3-9.9-34.1c-1-6.8-1.3-13.6-1.6-20.5c-0.1-1.6,0.4-3.4,1.2-4.8c3.5-5.8,4.2-12.2,5.2-18.7
		c0.3-1.8,0.1-3.7-0.3-5.5c-0.8-3.5-3-5.2-6.2-5.4c-3.4-0.2-6.6,1.6-7.8,4.3c-4.2,9.8-0.3,20.7-3.8,30.5
		c-27.4,77.2-85.1,106.6-95.8,104.5c-2.7-0.5-5.5,3.2-5.4,5.9c0.1,2.4,2.2,4.2,5.5,4.5c6.6,0.5,13-0.2,18.7-3.9
		c3.6-2.3,7.4-4.4,10.6-7.1c56.6-47.8,64.7-80,68.5-81.8c2.8,4.5,13.5,39.7,14.1,41.6c0.7,2.4,0.2,4.6-2.3,5.5
		c-4.4,1.7-42.1,13.6-34,33.9c1.6,4,4.5,7.1,8.4,9.4c10.1,6.1,24.3,5,30.8-5.4c6.9-10.8,9-22.1,7.9-34.4c3-0.8,5.9-1.7,8.3-3.4
		c2.3,3.9,6.6,5.4,11.2,3.3c3.8-1.7,7.3-4.2,10.4-6.9c3.6-3.2,6.9-6.9,10.1-10.4c0.7-0.7,1.8-0.7,2.4,0.1c2.9,3.4,5.4,6.6,8.4,9.4
		c5.6,5.5,14.3,6.1,20.6-0.2c8.2-8.1,13.5-18,18.1-28.3c1.7-3.7,3-7.6,4.9-12.3c3.3,4.4,3.4,8.7,3.8,12.8c0.8,7.1,4,13.1,8.7,18.1
		c1.9,2,5.2,3.3,8,3.6c1.7,0.1,4.2-2.1,5.2-3.8C291.8,248.7,289.5,247.7,287.7,247.1z M163.2,274.9c-0.6,7.7-2.4,15.1-6.7,21.7
		c-6.7,10.5-17.3,3.5-20.6,1.9c-4.7-2.2-5.9-6.5-2.6-10.5c7.6-9.1,17.7-14.4,21.1-16.6c1.8-1.1,5.1-1.7,6.1-1.3
		C162.5,270.8,163.4,272.9,163.2,274.9z M190.4,257.9c-2,0.9-4.3-0.4-4.6-2.6c-0.2-1.5-0.2-3,0.2-4.3c3.9-15.4,11.9-24.3,22-31.4
		c0.1-0.1-1.1,3.1,0.5,17.9C209.2,242.7,198.6,254.1,190.4,257.9z"/>
	<g>
		<path d="M223.6,338.8c7.8-0.8,8.9-6.4,10.9-10.7c8.4-18,20.9-32.6,35.5-45.7c1.4-1.3,3-2.4,4.6-3.4c0.6-0.4,1.5-0.1,2.8-0.2
			c4.9,4,4.4,10.2,5,15.8c1.9,16.2,2.8,32.5,5,48.7c3.5,25.8,5.9,51.8,14.7,76.6c2.4,6.9,4.7,13.2,13.4,15.1c-0.5,3-0.3,5.9-1.5,8
			c-3.9,6.7-9.8,6.7-13-0.4c-3.5-7.8-6.9-15.8-8.6-24.1c-5.6-27.8-10.4-55.8-15.4-83.7c-1.6-9.2-2.2-18.5-3.9-27.7
			c-0.6-3-2.7-7.6-4.9-8.1c-2.4-0.6-6.5,2.1-8.5,4.5c-11,13.8-19.2,29.1-25.3,45.7c-2.5,6.9-5.3,13.8-8.4,20.4
			c-0.8,1.7-3.6,3.6-5.2,3.4c-1.6-0.2-3.9-2.8-4.2-4.6c-1.4-8.4-2.4-16.9-3.3-25.4c-1.5-13.5-2.9-27.1-4.2-40.6
			c-0.3-3.4-0.2-6.8-0.2-10.3c7.2-1.9,8.3,2.5,9,6.7c1.5,9.6,2.6,19.2,4,28.9C222.5,331.3,223,334.9,223.6,338.8z"/>
		<g>
			<path d="M395.7,336.7c-2.3,1-4.3,1.7-6.1,2.6c-6.5,3.1-14.4,2-19.4-3.1c-5.2-5.3-7.1-11.4-7.5-17.8c0.2,0,0.4,0,0.5-0.1
				c8.8-2.1,16.1-10.4,20.4-18c2.5-4.4,3-10.3,0.4-14.8c-2.2-3.7-6.8-3.1-10.3-1.6c-8.6,3.2-13.8,12.3-30.6,14.4
				c-7.4,1.1-13.9,0.7-18.3-6.8c-2.1-3.6-5.8-3.8-9-1c-2,1.7-3.7,4-4.9,6.3c-6.1,11.1-9.4,23-9.5,35.7c0,4.3,1,8.8,2.7,12.8
				c2.5,5.8,9.1,8.6,15,6.4c9.8-3.6,16.2-10.6,18.1-20.6c1.3-7,0.9-14.4,1.4-23c2.2-0.9,4.9-2.1,7.7-2.9c8-2.4,9.2-1.3,10.1,7
				c0.7,6.9,1.7,14,3.6,20.6c1.9,6.7,6.4,11.8,13.1,14.6C381.6,351,393.3,345.8,395.7,336.7z M315,343.1c-5-1.3-6.2-5.8-7.1-10.1
				c-2-9.7,2-31.6,11.2-29.5C342.1,308.6,328.9,346.8,315,343.1z M378.7,291.8c0,3.3-1.7,6-3.6,8.5c-3,4-7.3,9.2-12.3,10.7
				c0-0.7,0.2-1.5,0.2-2.2c0-14,9.9-17.6,13.8-18.5C377.7,290.1,378.6,290.8,378.7,291.8C378.7,291.8,378.7,291.8,378.7,291.8z"/>
			<path d="M362.1,275.3c-4.3-1.8-7.1,4.9-2.7,6.7C363.7,283.8,366.4,277,362.1,275.3z"/>
			<path d="M375.2,268.3c-4.7-1.9-7.6,5.3-3,7.2S379.8,270.2,375.2,268.3z"/>
		</g>
		<path d="M427.8,244.6C427.8,244.7,427.8,244.7,427.8,244.6c-2.2,17.1-0.7,34,2.6,50.6c1.7,8.4,5.3,16.7,9.4,24.4
			c4.9,9.2,14.9,10.9,23.3,5.3c4.9-3.3,6.1-5.9,4.1-11.5c-3.4-9.3-3.8-18.8-3.3-28.5c0.4-6.2,1.6-12.4,6.1-17.3
			c5.2-5.7,10.1-5,13,1.9c6.9,13.5,1,28.8-0.5,38.5c-0.6,4.6-1.9,8.9,2.7,12.2c4.8,3.4,9.9,4.1,15.2,1.6c6.8-3.3,12-8.5,16.1-14.8
			c6.4-10,7.9-29.1,8.3-39.7c0,0,0,0,0-0.1c0.4-3.2,2.4-5.4,5.8-4.6c3,0.7,3.6,3.4,3.1,6.1c-5.3,35-14,46.2-23.7,55.6
			c-8.8,8.6-17.5,10-28.7,4.8c-4.5-2.1-7.9-2.7-12.1,1.4c-16.9,16.2-31.6,5.2-38-8.6c-6.8-14.6-9.6-30.1-10.6-46
			c-0.6-8.7-0.4-17.5-0.1-26.3c0.1-3.3,1.2-6.6,2.4-9.8c0,0,0-0.1,0.1-0.1C426,234.9,428.9,240.8,427.8,244.6z M475.7,304.1
			c5.3-7.4,6-17.1,2.2-23.5c-1.1-1.9-3.9-1.7-4.8,0.3c-2.9,7.1-2.4,17.6,1.7,23.2C475,304.4,475.5,304.4,475.7,304.1z"/>
		<path d="M425.3,334.2c1,0.6,1.5,1.7,1.1,2.8c-1.6,5.1-3.3,5.9-8.1,4.3c-7.6-2.5-11.1-8.7-12.3-15.9c-3.1-18-6.1-36-8.3-54.1
			c-1.6-13-2-26.2-2.5-39.3c-0.1-3.7-1.3-9.8,4.8-9.5c5.1,0.3,4.1,6.1,3.9,9.5c-2,26.3,3.2,51.9,6.7,77.6c0.1,1,0.4,2.6,0.6,3.5
			C413.9,325.9,415.6,328.8,425.3,334.2z"/>
	</g>
</g>
</svg>
