<?xml version="1.0" encoding="utf-8"?>
<!-- Generator: Adobe Illustrator 18.1.0, SVG Export Plug-In . SVG Version: 6.00 Build 0)  -->
<!DOCTYPE svg PUBLIC "-//W3C//DTD SVG 1.1//EN" "http://www.w3.org/Graphics/SVG/1.1/DTD/svg11.dtd">
<svg version="1.1" id="Layer_1" xmlns="http://www.w3.org/2000/svg" xmlns:xlink="http://www.w3.org/1999/xlink" x="0px" y="0px"
	 viewBox="0 0 356 259.4" enable-background="new 0 0 356 259.4" xml:space="preserve">
<g>
	<path fill="#414042" d="M108.1,126.1l14.6-2.8c0.1,0,0.2-0.1,0.2-0.2c0.5-4.1,8.1-66.3,28.6-70.2c20.2-3.9-14.1,61.6-17.5,68
		c-0.1,0.2,0.1,0.5,0.3,0.4l16.4-2.3c0.1,0,0.2-0.1,0.2-0.2c1.6-3.6,33.8-76.6,0.8-70.3c-33.1,6.3-44.2,71-44,77.4
		C107.7,126,107.9,126.2,108.1,126.1z"/>
	<path fill="#414042" d="M122.3,140.3C122.3,140.3,122.3,140.3,122.3,140.3c-1.4,1.8-22.2,69.1-52.9,75.5
		c-48.6,10.1-48.6-74.7,44.8-85.9c60.5-7.2,173.2-12.3,195-44.4c11.2-16.5,30.6,16.1-65,34.4c-54.5,10.4-92.2,11.1-128.9,15.7
		c-90.4,11.2-53.9,129.1-6.8,7.2L122.3,140.3z"/>
	<path fill="#414042" d="M177.9,53.2c0.7-2.6,2.9-4.8,5.7-5c2.2-0.2,4,1.2,2.5,7c-2.6,10.3-7.8,26.7-11.6,40.5
		c-0.8,2.9-2.8,10.4-0.5,12.3c3.1,2.5,9.5-1.4,18.4-15.9l2-0.4c-0.1,0-12.6,29.3-27.6,23.4c-3.2-1.3-4.8-4.9-3.9-8.3L177.9,53.2z"/>
	<path fill="#414042" d="M193.9,72.5c0.7-2.6,2.9-4.8,5.7-5c2.2-0.2,4,1.2,2.5,7c-2.6,10.3-1,4.4-4.9,18.2
		c-0.8,2.9-2.8,10.4-0.5,12.3c3.1,2.5,9.5-1.4,18.4-15.9l2-0.4c-0.1,0-12.6,29.3-27.6,23.4c-3.2-1.3-4.8-4.9-3.9-8.3L193.9,72.5z"/>
	
		<ellipse transform="matrix(0.9746 0.2238 -0.2238 0.9746 17.4189 -43.9992)" fill="#414042" cx="202.8" cy="54.9" rx="4.7" ry="5.7"/>
	<path fill="#414042" d="M275.1,48.9c0.5,3.3-0.6,6-1.4,7.5c-0.3,0.7-1.2,0.8-1.7,0.2c-1.2-1.2-3-3.6-3.5-6.9c-0.8-4.9,1-6.8,2.3-7
		S274.3,44,275.1,48.9z"/>
	<path fill="#414042" d="M287.1,44.2c-1.6-2.2-4.1,8.9-3,9.8c0.8,0.7,1.5,1.6,1.2,2.7c-7.9,23.7-17.1,37.2-29.1,40.6
		c-5.5,1.6-11.2-2.4-8.9-10.8c0,0,8.6-3.9,13.4-10.3c0,0,0.1-0.1,0.1-0.1l0-0.1c7.6-9.6,6.4-15.8,3.7-17.9
		c-2.7-2.1-8.9-2.2-16.5,7.4c-0.3,0.4-0.7,0.8-1,1.3c0,0,0,0.1-0.1,0.1c-0.8,1-1.4,1.9-1.8,2.6c0,0-14.6,22.2-5.7,31.5
		c7.3,7.6,36.9-0.3,48.2-42.6c20.7,20.6-2.2,32.2-9.9,35.3c-0.4,0.2-0.3,0.8,0.2,0.8c9.9-0.9,25.7-7.7,27.7-16.1
		C308.6,66.9,293,52.4,287.1,44.2z M253.1,68.4c4.2-5.2,7.2-5.5,8.5-4.5c1.3,1,1.6,4.2-2.6,9.4c-4.2,5.2-10.7,6.9-10.7,6.9
		S248.9,73.7,253.1,68.4z"/>
	<path fill="#414042" d="M228.8,100.9c-4.4,1.8-9.2-1.1-9.4-6.9c-0.7-3.3,2.3-17.1,6.2-22c4.2-5.2,7.2-5.5,8.5-4.5
		c0.8,0.7,1.2,2.3,0.2,4.8c0,0,0,0,0,0.1c0,0,0,0,0.1,0c1.7,0.7,3.7-0.1,4.3-1.9c1.4-4.4,0.3-7.4-1.4-8.8c-2.7-2.1-8.9-2.2-16.5,7.4
		c-0.3,0.4-0.7,0.8-1,1.3c0,0,0,0.1-0.1,0.1c-0.8,1-1.4,1.9-1.8,2.6c0,0-14.6,22.2-5.7,31.5c8.9,9.2,22.3,1.9,28.2-13.3
		c0,0,0-0.1,0-0.1l-3,0.6c0,0,0,0,0,0C237.2,92.1,233.9,98.8,228.8,100.9z"/>
	<path fill="#414042" d="M130.6,156.1"/>
	<g>
		<path fill="#414042" d="M146.3,153.3l-6.9,0.4c-0.4,0-0.8-0.3-0.8-0.8c0-0.4,0.3-0.8,0.7-0.8l15.4-0.9c0.4,0,0.8,0.3,0.8,0.7
			c0,0.5-0.3,0.8-0.7,0.9l-6.9,0.4l1.2,20.5c0,0.4-0.3,0.8-0.7,0.8c-0.4,0-0.8-0.3-0.8-0.7L146.3,153.3z"/>
		<path fill="#414042" d="M163.7,151.4c0-0.4,0.3-0.8,0.7-0.9l0.1,0l11.7-1c0.5,0,0.8,0.3,0.9,0.7c0,0.5-0.3,0.8-0.7,0.9l-10.9,0.9
			l0.8,9l9.6-0.8c0.4,0,0.8,0.3,0.9,0.7c0,0.4-0.3,0.8-0.7,0.9l-9.6,0.8l0.8,9l10.9-0.9c0.5,0,0.8,0.3,0.9,0.7
			c0,0.4-0.3,0.8-0.7,0.9l-11.7,1l-0.1,0l-0.1,0c-0.4,0-0.8-0.3-0.8-0.7L163.7,151.4z"/>
		<path fill="#414042" d="M199.5,164l-10.4,1.2l-1.4,5.6c-0.1,0.3-0.4,0.6-0.7,0.6c-0.1,0-0.2,0-0.3,0c-0.4-0.1-0.7-0.6-0.6-1
			l5.4-22c0.1-0.3,0.4-0.5,0.7-0.6c0.4,0,0.7,0.1,0.8,0.4l10.4,20.2c0.2,0.4,0.1,0.9-0.3,1.1c-0.1,0-0.2,0.1-0.3,0.1
			c-0.3,0-0.6-0.1-0.8-0.4L199.5,164z M189.5,163.6l9.2-1.1l-6-11.7L189.5,163.6z"/>
		<path fill="#414042" d="M221.1,162.7c0.2-0.4,0.6-0.5,1-0.3c1.9,1.1,5,2.2,7.9,1.6c2-0.3,3.6-1.2,4.7-2.4c1.1-1.1,1.6-2.4,1.4-3.7
			c-0.2-1.3-1-2.2-2.4-2.8c-1.4-0.6-3.3-0.9-5.5-0.9l-0.1,0c-2.2,0-4.1-0.3-5.7-1c-1.5-0.7-2.7-1.9-3-3.5c-0.3-1.7,0.4-3.4,1.6-4.6
			c1.2-1.3,3-2.2,5.2-2.6c3-0.5,5.4,0.5,7.4,1.4c0.4,0.2,0.5,0.6,0.4,1c-0.1,0.4-0.6,0.5-0.9,0.4c-2-0.9-4.1-1.7-6.6-1.3
			c-1.8,0.3-3.4,1.2-4.4,2.2c-1,1-1.4,2.2-1.2,3.4c0.2,1.1,0.9,1.9,2.2,2.5c1.3,0.6,3,0.8,5.1,0.9l0.1,0c2.3,0,4.4,0.3,6.1,1.1
			c1.7,0.7,2.9,2,3.2,3.8c0.3,1.8-0.4,3.6-1.8,5c-1.3,1.4-3.2,2.4-5.5,2.8c-3.5,0.6-6.8-0.6-8.9-1.8
			C221,163.5,220.9,163,221.1,162.7z"/>
		<path fill="#414042" d="M258.7,148.7l-11.5,2.7l2.2,9.6c0.1,0.4-0.2,0.8-0.6,1c-0.4,0.1-0.8-0.2-0.9-0.6l-4.8-20.8
			c-0.1-0.4,0.2-0.8,0.6-0.9c0.4-0.1,0.9,0.2,1,0.6l2.2,9.6l11.5-2.7l-2.2-9.6c-0.1-0.4,0.2-0.8,0.6-0.9c0.4-0.1,0.9,0.2,1,0.6
			l4.8,20.8c0.1,0.4-0.2,0.8-0.6,1c-0.4,0.1-0.8-0.2-0.9-0.6L258.7,148.7z"/>
		<path fill="#414042" d="M274.8,131c5.8-1.9,12,1.6,14,7.7c1.9,6.1-1,12.6-6.9,14.4c-5.9,1.9-12.1-1.6-14.1-7.7
			C265.9,139.4,269,132.9,274.8,131z M281.5,151.6c4.8-1.5,7.5-7.1,5.8-12.4c-1.8-5.4-7.1-8.2-12-6.6c-5,1.6-7.7,7-5.9,12.4
			C271.1,150.3,276.5,153.2,281.5,151.6z"/>
		<path fill="#414042" d="M292.5,125.9c-0.2-0.4,0-0.9,0.4-1l0.1,0l5.8-2.8c3.3-1.6,7.2-0.2,8.7,3.1c1.6,3.3,0.2,7.1-3.1,8.7
			l-5.1,2.5l3.9,8.1c0.2,0.4,0,0.9-0.4,1.1c-0.4,0.2-0.9,0-1-0.4L292.5,125.9z M303.7,132.4c2.4-1.2,3.5-4.2,2.3-6.6
			c-1.2-2.5-4.1-3.5-6.6-2.3l-5.1,2.4l4.3,9L303.7,132.4z"/>
	</g>
</g>
</svg>
