<?xml version="1.0" encoding="utf-8"?>
<!-- Generator: Adobe Illustrator 18.1.0, SVG Export Plug-In . SVG Version: 6.00 Build 0)  -->
<!DOCTYPE svg PUBLIC "-//W3C//DTD SVG 1.1//EN" "http://www.w3.org/Graphics/SVG/1.1/DTD/svg11.dtd">
<svg version="1.1" id="Layer_1" xmlns="http://www.w3.org/2000/svg" xmlns:xlink="http://www.w3.org/1999/xlink" x="0px" y="0px"
	 viewBox="0 0 576 576" enable-background="new 0 0 576 576" xml:space="preserve">
<g>
	<path fill="#515360" d="M214.3,84c-1.3-1.1-3.1-1.7-5.2-1.7c-5.3,0-11.1,3.7-16.1,10.1c-2,2.6-2.9,5.1-4.4,8.8
		c-0.2,0.6-0.5,1.2-0.7,1.9c-3.6,0.5-8.7,0.8-15,0.8c-4.3,0-8.3-0.1-10.9-0.2c-1.2-0.1-2.8-0.1-4.5-0.1c-14.7,0-24.6,4.5-29.3,13.5
		c-1,1.9-0.4,4.3,1.3,5.5l1,0.7c2,1.4,4.9,0.7,6.1-1.3c2.1-3.5,7.7-9.5,21.3-8.9c3.3,0.1,6.6,0.2,9.8,0.2c6.9,0,12.5-0.3,16.6-0.7
		c-2.1,5.6-4.4,11.9-6.7,18.1c-5.1,14-10.9,29.9-12.9,32.6c-2.7,3.5-6.8,5.6-10.9,5.6c-2.4,0-4.7-0.7-6.7-2.1
		c-5.8-3.9-7.3-11.7-3.5-17.5c2.4-3.5,6.3-5.6,10.5-5.6c2.5,0,4.9,0.7,7,2.1c0.5,0.4,1,0.8,1.5,1.2c0.7,0.6,1.5,1,2.5,1
		c1.5,0,2.9-1,3.4-2.4l0.5-1.3c0.7-2,0-4.3-1.7-5.5c-4.9-3.6-11.2-5.1-17.2-3.9c-6,1.2-11.2,4.9-14.4,10.1c-3.2,5.3-4,11.5-2.3,17.4
		c2.7,9.2,11.3,15.7,21,15.7c1.2,0,2.4-0.1,3.6-0.3c10.4-1.8,15.1-10.8,17.7-17.5c6.5-15.5,16-42.7,18-48.4
		c17.5-4.6,21.5-14.2,22.4-18.2C217.1,89.6,216.3,85.6,214.3,84z M197.9,101.3c0.9-2.2,2.5-5.3,5.1-8.2c1.5-1.6,3.2-2.4,4.1-2.4
		c0.3,0,0.4,0.1,0.4,0.1c0.4,0.4,0.3,3-1.8,4.9C202.5,98.8,199.8,100.4,197.9,101.3z"/>
</g>
<g>
	<path fill="#515360" d="M270.8,137.4c-0.5-1.1-1.5-1.9-2.7-2.3c-2.1-0.7-4.4,0.5-5.4,2.5c-5.7,12.1-9.1,14.8-13.9,15.8
		c-0.6,0.1-1.1,0.2-1.7,0.2c-3.2,0-5.6-2-7-3.7c21-6.3,21.9-16.7,21.3-20.9c-0.8-5.6-5.4-10.1-10.3-10.1c-0.2,0-0.3,0-0.5,0
		c-5.1,0.3-17.5,3.5-20.6,26.1c-0.3,1.9-0.7,3.1-1.5,4.2c-2.9,3.8-5,5.9-6.1,6.7c-0.7-2.8-1.8-8.2-2.7-12.6c-0.4-1.8-0.7-3.5-1-4.9
		c-0.5-2.3-2.5-4-4.9-4c-1.1,0-2.1,0.3-3,1c-4.1,3.1-9.4,9.3-15.9,18.5c2.3-8.7,6.1-22.7,8.7-28.8c0.5-1.1,0.4-2.4-0.1-3.5
		c-0.5-1.1-1.5-1.9-2.7-2.2c-0.6-0.2-1.3-0.2-1.9-0.1c-1.3,0.3-2.5,1.2-3,2.5c-2.1,4.9-9.1,22.6-12.7,43.9c-0.1,0.7-0.1,1.4,0,2.1
		c0.6,2.7,3,4.7,5.8,4.7c0.3,0,0.7,0,1.1-0.1c1.5-0.3,2.8-1.1,3.7-2.4c2.8-3.9,8.5-11.6,16.9-21.7c3,18,7.3,18,9.2,18
		c6-0.2,10.6-4.6,14.6-9.7c3.3,3.6,7.9,5.5,13.3,5.5l0.3,0c13.1-0.1,20.3-15.1,22.8-21.5C271.3,139.8,271.3,138.5,270.8,137.4z
		 M252.6,130.7c0,1.2-0.9,2.8-2.6,4.5c-2.4,2.3-7.2,4.6-10.3,5.8c1.3-3.5,4-9.2,5.8-10.8c1.2-1.1,3-1.9,4.4-1.9
		c0.6,0,1.1,0.2,1.5,0.5C252.6,129.6,252.6,130.4,252.6,130.7z"/>
</g>
<g>
	<path fill="#515360" d="M270.2,352.2l-0.2,0.5l0-0.1C270.1,352.4,270.1,352.3,270.2,352.2C270.2,352.1,270.2,352.1,270.2,352.2z"/>
</g>
<g>
	<path fill="#515360" d="M330.4,204.8c-0.8-19.1-11.2-35.2-25.2-39.2c-2.5-0.7-5.1-1-7.8-0.9c-5.9,0.3-11.4,2.6-16.1,6.8
		c-0.7-1.9-2.8-3.2-5-2.7l-0.8,0.2c-2.6,0.6-4.3,2.8-4.3,5.5c0,3.3-0.8,13.7-1.8,24.7c-0.2,2.6-0.5,5.2-0.7,7.8
		c0,0.3-0.1,0.7-0.1,1.1c-0.5,5.5-1,10.7-1.4,14.8c-2.8,8.2-5.5,14.6-7,15.4c-0.5,0.1-1,0.1-1.8-0.8c-5.1-5.6-4.8-31.2-3-51.3
		c0.2-2.6-1.3-5-3.9-5.8l-0.8-0.3c-2.1-0.7-4.3,0.4-5.2,2.2c-4.3-4.5-9.6-7.3-15.4-8.1c-2.6-0.3-5.3-0.2-7.8,0.3
		c-12.8,2.6-23.6,15.1-27.3,31.3c-2.5,2.1-5.6,4.4-8.9,6.6c-0.9-3.3-2.2-6.2-3.8-8.8c-5.3-8.6-14.1-13.1-26.1-13.3l-0.8,0h-0.4
		c-0.5,0-0.9,0-1.4,0c-2,0.1-3.9,0.3-5.6,0.7c-11.2,2.2-24.7,10.9-25.2,39.6c-0.3,13.5,3.8,25.5,11.1,32.9c5.5,5.6,12.8,8.6,21,8.6
		h0.1c2.2,0,4.4-0.2,6.4-0.6c16.3-3.2,26.6-18.4,27-39.6c0.1-3.1,0-6-0.3-8.8c2-1.2,3.9-2.4,5.6-3.6c0.1,7.9,1.9,15.3,5.3,21.6
		c4.8,8.9,12.2,14.5,20.8,15.6c1,0.1,2,0.2,3.1,0.2c1.6,0,3.2-0.2,4.8-0.5c8.3-1.6,15.9-7.5,21.2-16.2c3.2,6.9,7.4,8.5,10.6,8.5
		c0.7,0,1.4-0.1,2.1-0.2c1.7-0.3,3.2-1.2,4.6-2.6c-1.2,15.9-2.4,31.8-3,39c-0.3,3,1.8,5.6,4.8,6c0.3,0,0.5,0.1,0.8,0.1
		c2.9,0,5.3-2.3,5.6-5.2l3.6-50.3c4.3,5.6,9.7,9.5,15.6,11.3c2.2,0.6,4.5,0.9,6.7,0.9c0.4,0,0.8,0,1.1,0c8.7-0.4,16.5-5.3,22-13.8
		C328.2,225.9,330.9,215.6,330.4,204.8z M151.8,208.4c0.5-3.6,3.2-6.5,4.9-8c8,0.3,13.6,3.1,17,8.5c1.5,2.4,2.6,5.2,3.3,8.7
		c-4.9,2.4-9.7,4-13.7,4c-3.2,0-5.6-1-7.3-3C152.7,215,151.3,211.6,151.8,208.4z M178,231.6c-0.3,16.2-7.6,27.7-19,30
		c-1.4,0.3-2.9,0.4-4.6,0.4c-5.5,0-10.1-1.9-13.8-5.6c-5.4-5.5-8.4-14.9-8.2-25.7c0.3-13.4,3.6-22.4,10.1-26.9
		c-0.3,1-0.6,2.1-0.7,3.2c-0.9,6.2,1.3,12.3,6.5,18.2c3.7,4.3,8.7,6.4,14.7,6.4c1.9,0,3.8-0.2,5.8-0.6c3.1-0.6,6.2-1.6,9.2-2.9
		C178,229.3,178,230.4,178,231.6z M236.3,239.3c-3.4,4.1-7,6.5-10.9,7.2c-1.6,0.3-3.1,0.4-4.6,0.2c-5.3-0.7-10-4.4-13.2-10.4
		c-3.5-6.6-4.9-14.9-3.8-23.6c1.8-14.5,10.4-26.4,20.4-28.4c0.9-0.2,1.9-0.3,2.8-0.3c0.6,0,1.2,0,1.8,0.1c5.3,0.7,10,4.4,13.3,10.4
		c1.3,2.5,2,5.4,1.9,8.5c-0.1,4.4-0.1,8.5,0.1,12.3C244.5,224.3,241.7,232.8,236.3,239.3z M314.6,228.4c-3.7,5.7-8.7,9-14.1,9.2
		c-1.5,0.1-4.1-0.4-5.6-1c-22.5-9.3-14.2-40-13.9-44.4c0.2-3.1,1.1-6,2.7-8.4c3.7-5.7,8.7-9,14.1-9.2c0.2,0,0.4,0,0.6,0
		c1.3,0,2.7,0.2,4,0.6c9.8,2.8,17.3,15.4,18,30C320.7,213.9,318.7,222.2,314.6,228.4z"/>
</g>
<g>
	<path fill="#515360" d="M246.8,223.9C246.8,223.9,246.8,223.9,246.8,223.9c0.1,0.6,0.1,1.1,0.2,1.7
		C247,225.1,246.9,224.5,246.8,223.9C246.8,223.9,246.8,223.9,246.8,223.9z"/>
</g>
<g>
	<g>
		<path fill="#515360" d="M466.8,336.9C466.8,337,466.7,337,466.8,336.9C466.7,337,466.7,336.9,466.8,336.9L466.8,336.9z"/>
		<path fill="#515360" d="M367.3,282.8c0.2-0.1,0.4-0.1,0.7-0.2"/>
		<path fill="#515360" d="M536.9,342.7c-1.1-2.4-4.3-3.6-6.7-2.4c-7.4,3.6-14.5,7.3-20.9,11c3.4-11.7,5.6-20.3,5.6-20.4l0.1-0.5
			c5.7-14.9,9.3-30.8,10.9-39c0.3-1.3,0-2.7-0.8-3.8c-0.8-1.1-1.9-1.9-3.3-2.1c-2.7-0.5-5.3,1.3-5.8,4c-1.4,7.3-5.5,26-12,41.6
			c-6.7,15.9-13.9,24.3-20.6,23.5c-4.2-0.5-7-1.9-8.7-4.5c-2-3.1-2.5-7.8-2-13.2l0,0c0.8-9.7,4.5-21.9,7.5-31.8
			c1.8-5.8,3.5-11.3,4.6-16.2c0.3-1.3,0.1-2.8-0.7-3.9c-0.8-1.2-1.9-1.9-3.3-2.2c-2.7-0.5-5.2,1.2-5.8,3.8
			c-1.1,4.5-2.8,10.1-4.4,15.5c-3,10-6.3,20.6-7.6,30.3c-13.1,15.1-17.9,16.8-19.4,16.8c-0.4,0-0.5-0.1-0.7-0.4
			c-2.7-4.3,3.3-26.9,16.5-53.6c0.8-1.6,0.7-3.4-0.2-4.9c-1-1.6-2.8-2.5-4.8-2.3c-2.1,0.2-4,0.3-5.9,0.3c-9,0-12.2-2.8-12.6-3.2
			c-0.9-1.3-2.4-2-4-2c-2,0-3.7,1.1-4.6,2.9c-0.7,1.6-5.6,6.8-10.5,11.1c-2.3,1.8-5.7,4.2-9.6,6.5c-3.5-11.9-11.9-21.7-29.7-22h-0.8
			c-2.6,0-5.2,0.2-7.5,0.7c-0.4,0.1-0.8,0.2-1.1,0.3c-0.2,0.1-0.4,0.1-0.7,0.2c-10.8,2.8-22.9,12-23.4,39.2
			c-0.3,13.5,3.8,25.5,11.1,32.9c5.5,5.6,12.8,8.6,21,8.6h0.1c2.2,0,4.4-0.2,6.4-0.6c16.3-3.2,26.6-18.4,27-39.6c0.1-3,0-6-0.3-9.1
			c7.8-4.3,13.5-8.7,14-9.1l0.2-0.2c1.2-1.1,5.3-4.8,8.7-8.5c0.6-0.6,1.4-0.8,2.2-0.4c2.9,1.3,6.2,2.1,10,2.4
			c0.6,0.1,1.1,0.4,1.4,0.9c0.3,0.5,0.3,1.2,0.1,1.7c-3,6.7-5.7,13-7.9,18.8c-10.3,26.6-5.4,34.6,0.1,38.5c1.5,1.1,3.2,1.7,5.1,1.7
			c0.7,0,1.4-0.1,2.2-0.2c4.5-0.9,8.4-4,17.7-13.1c0.6,3.4,1.6,6.5,3.4,9.1c3.4,5.1,8.7,8.1,16,8.9c1.8,0.2,3.7,0.1,5.5-0.2
			c1-0.2,2-0.5,3-0.9c-24.2,18-36.2,37.2-32.2,52.2c1.8,6.7,6.9,11,13.1,11c0.3,0,0.7,0,1,0c0.4,0,0.8-0.1,1.1-0.2
			c5.9-1.2,13.7-8,27.6-49.6c1.2-3.5,2.4-7.2,3.5-11c8.6-5.6,18.6-11.2,29.6-16.5C537,348.2,538,345.2,536.9,342.7z M372.6,292
			c1.3-0.2,2.6-0.3,4-0.3h0.7c11.7,0.2,18.4,5.4,21,16.7c-5.1,2.3-10.4,4-15,4c-2.9,0-5.3-0.7-7.1-2.1c-4-3.2-6.1-6.5-6.3-10
			C369.7,296.8,371.5,293.6,372.6,292z M380.5,353c-1.4,0.3-3,0.4-4.6,0.4c-5.5,0-10.1-1.9-13.8-5.6c-5.4-5.5-8.4-14.9-8.2-25.7
			c0.2-10.1,2.2-17.8,6-22.9c0,0.5,0,1,0,1.6c0.4,6.4,3.8,12.2,10,17.2c3.6,2.9,8,4.3,13.3,4.3c5.3,0,10.9-1.5,16.2-3.6
			c0,1.4,0,2.8,0,4.2C399.1,339.3,391.9,350.8,380.5,353z M466.7,337c0,0,0-0.1,0-0.1V337C466.8,337,466.7,337,466.7,337z
			 M471.6,416.7c-1.5,0-2.8-1.3-3.4-3.6c-1.6-6.1,2.3-15.6,10.1-24.8c3.5-4.1,7.8-8.3,12.9-12.5c-10.9,31.9-17.8,40.4-19.3,40.8
			L471.6,416.7z"/>
	</g>
</g>
<g>
	<path fill="#515360" d="M269.4,199.1 M268.7,206.9 M269,202.6"/>
</g>
<g>
	<g>
		<path fill="#515360" d="M461.7,336.9c0,0,0,0.1,0,0.1C461.7,337,461.8,337,461.7,336.9L461.7,336.9z"/>
	</g>
</g>
<g>
	<path fill="#515360" d="M403.9,249c-0.9-1.1-2.3-1.7-3.7-1.7h-1.1c-7.9,0-24.5,1.3-47.4,10.4c-1.6,0.6-3.2,1.2-4.8,1.8
		c1.5-5.9,2.8-10.3,3.5-12.8c0.7-2.4-0.7-5-3.2-5.7l-0.7-0.2c-2.4-0.7-5.1,0.8-5.8,3.2c-1,3.5-2.9,10.2-5.1,19.1
		c-17.3,4.7-32.3,5.9-39.1,6.1c-2.7,0.1-4.8,2.3-4.8,5c0,1.3,0.5,2.6,1.5,3.5c0.9,1,2.2,1.5,3.5,1.5h0.2c5.1-0.2,15.5-0.9,28.5-3.5
		c2.5-0.5,5.1-1.1,7.5-1.7c-0.8,3.5-1.6,7.1-2.4,10.9c-4,18.8-6.6,35.6-7.7,49.8c-0.8,9.3-5.6,17.5-13.1,22.1
		c-2.9,1.8-5.9,2.9-8.8,3.2c-1.8,0.2-3.6,0.2-5.4-0.1c-6.5-0.9-12.2-5-16.1-11.4c-4.1-6.7-5.7-15.2-4.6-23.7
		c1.2-9.4,5.4-25.4,19.6-27.2c1.8-0.2,3.6-0.2,5.3,0.1c2.7,0.4,5.2,1.3,7.7,2.8c1.8,1.1,4.3,0.9,5.9-0.5c1.2-1,1.8-2.6,1.6-4.1
		c-0.1-1.6-1-2.9-2.3-3.8c-3.6-2.2-7.4-3.6-11.5-4.2c-2.6-0.4-5.3-0.4-7.9-0.1c-15.4,1.9-25.4,14.6-28.2,35.8
		c-0.3,2.1-0.4,4.2-0.4,6.3c0,6.7-1,12.8-2.9,18.2c-4.9,14.4-7.2,16.9-7.8,17.4c0,0-0.1,0-0.1,0c-0.4,0-0.9-0.1-1.5-0.8
		c-5.1-5.6-4.8-31.2-3-51.3c0.2-2.6-1.3-5-3.9-5.8l-0.8-0.2c-2-0.7-4.3,0.4-5.1,2.3c-4.3-4.6-9.6-7.3-15.4-8.1
		c-2.6-0.3-5.3-0.3-7.8,0.3c-14.2,2.8-25.9,17.9-28.4,36.8c-1.5,3.9-11.1,9.5-24,15.1c4.3-10.3,8.9-21.7,14.1-34.4
		c2-4.9,4-9.5,6-13.8c1.4-0.2,2.8-0.4,4.1-0.6c30.4-5.1,36.8-20.2,38.1-26.5c1-4.7,1.7-11.5-4-16.9c-3.6-3.3-8.5-4.3-14-2.6
		c-10,2.9-20.6,15.3-31.3,36.8c-3.5,0.3-7.1,0.4-10.7,0.4c-9.1,0-17.9-0.9-25.6-2.2c-8-19.2-22.4-38.6-35.5-56.1
		c-6.3-8.5-12.3-16.6-17.2-24.1l-6.7-10.3c-1.4-2.1-2.4-4.3-3-6.6c-2.7-10.9,4-21.9,14.8-24.6c1.6-0.4,3.3-0.6,4.9-0.6
		c9.4,0,17.5,6.3,19.7,15.4c1.5,5.9,0.2,12.1-3.4,17c-0.9,1.3-1.1,2.9-0.4,4.3c0.7,1.4,2.1,2.3,3.7,2.3l2.2,0c1.4,0,2.7-0.7,3.4-1.8
		c4.7-7.1,6.3-15.9,4.2-24.1c-3.4-13.6-15.5-23.1-29.4-23.1c-2.4,0-4.9,0.3-7.3,0.9c-7.9,2-14.6,6.9-18.8,13.9
		c-4.1,6.9-5.3,15.1-3.4,22.8c2.4,9.4,18.7,31.3,27.5,43l1.1,1.5c10.7,14.4,22.5,31.3,30.6,47.6c-8.3-1.9-14.5-4-17.4-5
		c-2.1-0.7-4.5,0.3-5.3,2.4l-0.8,1.9c-0.4,1.1-0.4,2.2,0.1,3.3c0.5,1.1,1.3,1.9,2.4,2.3c3.9,1.4,13.5,4.6,26.3,7.1
		c2.2,5.9,3.8,11.6,4.4,17v0l0,0.3c0,0.2,0,0.5,0,0.8c0.6,18.3-11.4,34.4-29.1,39.2c-3.3,0.9-6.7,1.3-10.1,1.3h0
		c-17.8,0-33.4-12-37.9-29.1c-5.1-19.2,4.9-39.2,23.3-46.6c1.4-0.6,2.5-1.9,2.7-3.4l0.2-1.6c0.2-1.3-0.2-2.5-1-3.4
		c-1.2-1.3-3.1-1.8-4.7-1.2c-23.7,9-36.7,34.3-30.1,58.8c5.8,21.5,25.4,36.6,47.7,36.6c4.3,0,8.5-0.6,12.7-1.7
		c12.7-3.4,23.3-11.5,29.9-23c6.6-11.4,8.4-24.7,5-37.4c-0.1-0.5-0.3-1-0.4-1.3c-0.3-1.1-0.5-2.3-0.9-3.4c6.7,0.9,14,1.5,21.5,1.5
		c2,0,4,0,5.9-0.1c-1.2,2.7-2.5,5.7-3.7,8.8c-6.6,16.1-12.6,30.7-18,43.8c-8.4,3.1-17.3,6-26,8.4c-2.6,0.7-4.1,3.4-3.5,6
		c0.6,2.2,2.5,3.7,4.8,3.7c0.5,0,1-0.1,1.5-0.3c2.5-0.8,9.6-3.1,18.2-6.1c-9.3,22.2-16.7,39.4-22.1,51.3l-5.5,11.3
		c-2.9,6-6.7,11.2-11.2,15.4c-4.9,4.6-9.9,7.5-14.5,8.4c-7.8,1.6-15.8,0.1-22.7-4.2c-4.7-3-8.5-7.1-11-12c-4.5-9-4.5-19.3,0-28.1
		c4.3-8.5,12.2-14.5,21.6-16.4l0.6-0.1c1.9-0.3,3.3-1.9,3.4-3.8l0.1-2.3c0.1-1.1-0.3-2.2-1.1-3.1c-0.9-0.9-2.2-1.4-3.5-1.3
		c-0.5,0.1-1,0.2-1.5,0.3c-12.7,2.5-23.4,10.7-29.1,22.3c-4.6,9.4-5.6,20.1-2.6,30.1c3.3,11.1,10.7,20.1,21,25.3
		c5.9,3,12.2,4.5,18.7,4.5c2.7,0,5.5-0.3,8.2-0.8c11.9-2.4,22-9.7,28-20.2c2.9-3.9,10-17.6,36.5-81.2v0c12.8-4.8,22.6-9.4,29-13.8
		c0.7,5.9,2.4,11.4,5,16.2c4.8,8.9,12.2,14.5,20.8,15.6c2.6,0.3,5.2,0.2,7.8-0.3c8.3-1.6,15.9-7.5,21.2-16.2
		c3.2,6.9,7.4,8.5,10.6,8.5c0.7,0,1.4-0.1,2.1-0.2c4.8-0.9,9.2-7.9,14.6-23.1c0.1-0.1,0.1-0.3,0.2-0.4c0,0,0,0,0,0.1
		c0.3,0.6,0.6,1.1,0.9,1.7c5.5,9,13.7,14.7,23.1,16.1c2.6,0.4,5.3,0.4,7.9,0.1c8-1,14.9-4.7,20.2-10.9c0.1,1,0.1,2,0.2,3
		c2.4,27,15,37.3,26,38c0.4,0,0.9,0,1.3,0c1.3,0,2.6-0.1,3.9-0.4c11.7-2.4,19.1-14.9,22.1-25.8c0.3-1.2,0.1-2.6-0.5-3.6
		c-0.7-1.1-1.8-1.9-3-2.2l-0.7-0.1c-2.4-0.5-4.9,1-5.5,3.4c-3.6,13.8-11.1,18.7-16.4,18.7c-0.2,0-0.4,0-0.5,0
		c-8.4-0.5-15.1-12.1-16.6-28.9c-2.3-26,5.3-64.7,11.4-90.3v0c3.9-1.2,7.7-2.5,11.4-4c22.1-8.7,38.1-9.6,43.9-9.6h0.7
		c2.4,0,4.5-1.7,4.9-4l0.1-0.4C405.3,251.4,404.8,250,403.9,249z M211.2,268.9l0.5-0.1l0,0c2.2-0.4,4.2,1.4,4.3,3.6
		c0,1.4-0.1,3.5-1.1,5.9c-2.1,5.3-8.3,12-25,15.5C200.4,274.5,207.8,269.9,211.2,268.9z M230.4,366.5c-3.4,4.1-7,6.5-10.9,7.2
		c-1.6,0.3-3.1,0.4-4.6,0.2c-5.3-0.7-10-4.4-13.3-10.4c-3.5-6.6-4.9-14.9-3.8-23.6c1.8-14.5,10.4-26.5,20.4-28.4
		c0.9-0.2,1.9-0.3,2.8-0.3c0.6,0,1.2,0,1.8,0.1c5.3,0.7,10,4.4,13.3,10.4l0.1,0.2c1.3,2.5,1.9,5.4,1.9,8.4c-0.1,4.3,0,8.5,0.1,12.3
		C238.6,351.5,235.8,360,230.4,366.5z"/>
</g>
<g>
	<path fill="#515360" d="M178.1,417.3l14.1-3.7l0.7,2.8l-11.2,2.9l1.7,6.5l10.4-2.7l0.7,2.8l-10.4,2.7l1.8,7l11.7-3.1l0.7,2.8
		l-14.7,3.8L178.1,417.3z"/>
	<path fill="#515360" d="M202.1,429.7c0.7,0.7,1.5,1.2,2.4,1.4c0.9,0.2,1.8,0.2,2.7,0c0.5-0.1,1-0.3,1.5-0.5c0.5-0.3,0.9-0.6,1.3-1
		c0.4-0.4,0.6-0.9,0.8-1.4c0.2-0.5,0.2-1.1,0.1-1.7c-0.2-0.9-0.6-1.5-1.2-1.8c-0.6-0.3-1.4-0.6-2.2-0.7c-0.9-0.1-1.8-0.3-2.8-0.3
		c-1-0.1-2-0.3-2.9-0.6c-0.9-0.3-1.7-0.9-2.4-1.6c-0.7-0.7-1.2-1.8-1.5-3.3c-0.1-0.6-0.1-1.4,0-2.2c0.1-0.8,0.4-1.5,0.9-2.3
		c0.5-0.7,1.2-1.4,2-2c0.9-0.6,2-1,3.3-1.3c1.2-0.2,2.4-0.3,3.6-0.2c1.2,0.1,2.3,0.6,3.3,1.4l-2,2.7c-0.5-0.5-1.1-0.9-1.9-1.1
		c-0.8-0.2-1.6-0.2-2.5-0.1c-0.8,0.2-1.5,0.4-2,0.8c-0.5,0.3-0.9,0.7-1.2,1.1c-0.3,0.4-0.4,0.8-0.5,1.3c-0.1,0.4,0,0.8,0,1.1
		c0.2,0.9,0.6,1.6,1.3,2c0.6,0.4,1.4,0.7,2.3,0.8c0.9,0.2,1.8,0.3,2.8,0.3c1,0.1,1.9,0.2,2.8,0.5c0.9,0.3,1.7,0.8,2.4,1.4
		c0.7,0.7,1.2,1.6,1.5,3c0.2,1.1,0.2,2.1,0,3c-0.2,0.9-0.6,1.8-1.2,2.5c-0.6,0.7-1.3,1.3-2.2,1.8c-0.9,0.5-1.8,0.9-2.9,1.1
		c-1.4,0.3-2.8,0.3-4.2,0.1c-1.4-0.2-2.5-0.8-3.5-1.7L202.1,429.7z"/>
	<path fill="#515360" d="M221.3,411l-7.2,1.1l-0.4-2.8l17.4-2.6l0.4,2.8l-7.2,1.1l2.9,19.5l-3,0.4L221.3,411z"/>
	<path fill="#515360" d="M235.5,429.1c-0.6,0.1-1.1-0.1-1.5-0.4c-0.5-0.4-0.7-0.8-0.8-1.4c-0.1-0.6,0.1-1.1,0.4-1.5
		c0.4-0.5,0.8-0.7,1.4-0.8c0.6-0.1,1.1,0.1,1.5,0.4c0.5,0.4,0.7,0.8,0.8,1.4c0.1,0.6-0.1,1.1-0.4,1.5
		C236.6,428.8,236.1,429.1,235.5,429.1z"/>
	<path fill="#515360" d="M249.6,424.3l8.6-9.5c0.3-0.3,0.6-0.7,0.9-1c0.3-0.4,0.5-0.7,0.7-1.1c0.2-0.4,0.4-0.8,0.5-1.2
		c0.1-0.4,0.2-0.9,0.1-1.3c0-0.6-0.2-1-0.4-1.5c-0.2-0.4-0.5-0.8-0.9-1.1c-0.4-0.3-0.8-0.5-1.3-0.7c-0.5-0.1-1-0.2-1.5-0.2
		c-1.1,0.1-2,0.4-2.7,1.1c-0.7,0.7-1.1,1.5-1.2,2.6l-3.3-0.1c0.1-1,0.3-1.9,0.7-2.6c0.4-0.8,0.9-1.4,1.5-1.9
		c0.6-0.5,1.3-0.9,2.2-1.2c0.8-0.3,1.7-0.4,2.7-0.5c1,0,1.9,0,2.8,0.3c0.9,0.2,1.6,0.6,2.3,1.1c0.7,0.5,1.2,1.1,1.6,1.9
		c0.4,0.8,0.6,1.7,0.7,2.7c0,0.7,0,1.4-0.2,2.1s-0.5,1.3-0.8,1.9c-0.3,0.6-0.7,1.2-1.2,1.7c-0.4,0.5-0.9,1.1-1.4,1.6l-7.1,7.6
		l11.4-0.6l0.1,2.7l-14.8,0.8L249.6,424.3z"/>
	<path fill="#515360" d="M266.8,415.4c0-0.8,0-1.7,0.1-2.6c0.1-0.9,0.2-1.8,0.5-2.6c0.2-0.9,0.5-1.7,0.9-2.5
		c0.4-0.8,0.9-1.5,1.4-2.1c0.6-0.6,1.3-1.1,2.1-1.4c0.8-0.4,1.7-0.5,2.8-0.5c1.1,0,2,0.2,2.8,0.5c0.8,0.4,1.5,0.8,2.1,1.4
		c0.6,0.6,1.1,1.3,1.4,2.1c0.4,0.8,0.7,1.6,0.9,2.5s0.4,1.7,0.5,2.6c0.1,0.9,0.1,1.8,0.1,2.6c0,1.2-0.1,2.5-0.3,3.8
		c-0.2,1.4-0.6,2.6-1.2,3.8c-0.6,1.2-1.4,2.1-2.4,2.9c-1,0.8-2.3,1.1-3.9,1.1c-1.6,0-2.9-0.4-3.9-1.2c-1-0.8-1.8-1.7-2.4-2.9
		c-0.6-1.2-1-2.4-1.2-3.8S266.8,416.6,266.8,415.4z M269.9,415.4c0,0.7,0,1.6,0.1,2.7s0.3,2,0.6,3c0.3,0.9,0.8,1.8,1.4,2.4
		c0.6,0.7,1.5,1,2.5,1c1.1,0,1.9-0.3,2.5-1c0.6-0.7,1.1-1.5,1.4-2.4c0.3-0.9,0.5-1.9,0.6-3s0.1-1.9,0.1-2.7c0-0.5,0-1.1,0-1.7
		c0-0.6-0.1-1.3-0.2-2c-0.1-0.7-0.3-1.3-0.5-1.9c-0.2-0.6-0.5-1.2-0.8-1.7c-0.4-0.5-0.8-0.9-1.3-1.2c-0.5-0.3-1.1-0.4-1.8-0.4
		s-1.3,0.1-1.8,0.4c-0.5,0.3-0.9,0.7-1.3,1.2c-0.4,0.5-0.6,1.1-0.8,1.7c-0.2,0.6-0.4,1.3-0.5,1.9s-0.2,1.3-0.2,2
		C269.9,414.3,269.9,414.9,269.9,415.4z"/>
	<path fill="#515360" d="M292.8,408.1l-4.4,3.6l-1.7-2.2l6.6-4.9l2.7,0.1l-1.2,22.6l-3.1-0.2L292.8,408.1z"/>
	<path fill="#515360" d="M311.8,423.8l-9.6-1l0.3-3.1l10.5-13.5l3.7,0.4l-1.6,14.9l3.2,0.3l-0.3,2.7l-3.2-0.3l-0.5,5l-3.1-0.3
		L311.8,423.8z M313.3,409.9L313.3,409.9l-8.1,10.5l6.9,0.7L313.3,409.9z"/>
</g>
<g>
	<path fill="#515360" d="M132.6,469.6l2.9-1l6.2,18.7l9.8-3.3l0.9,2.7l-12.8,4.3L132.6,469.6z"/>
	<path fill="#515360" d="M149,464.2l14-4.1l0.8,2.8l-11.1,3.2l1.9,6.5l10.3-3l0.8,2.8l-10.3,3l2,7L169,479l0.8,2.8l-14.6,4.2
		L149,464.2z"/>
	<path fill="#515360" d="M173.7,460.4l-7.1,1.7l-0.7-2.8l17.1-4.2l0.7,2.8l-7.1,1.7l4.7,19.2l-3,0.7L173.7,460.4z"/>
	<path fill="#515360" d="M189.8,461.8l-2.6,0.5l0.5-8.1l3-0.6L189.8,461.8z"/>
	<path fill="#515360" d="M199.8,470c0.7,0.7,1.5,1.2,2.4,1.4c0.9,0.2,1.8,0.3,2.7,0.1c0.5-0.1,1-0.3,1.5-0.5c0.5-0.3,0.9-0.6,1.3-1
		c0.4-0.4,0.6-0.8,0.8-1.4c0.2-0.5,0.2-1.1,0.1-1.7c-0.2-0.9-0.6-1.5-1.2-1.8c-0.6-0.3-1.4-0.6-2.2-0.8c-0.9-0.2-1.8-0.3-2.8-0.4
		c-1-0.1-2-0.3-2.9-0.7c-0.9-0.4-1.7-0.9-2.4-1.7c-0.7-0.7-1.2-1.8-1.5-3.3c-0.1-0.6-0.1-1.4,0-2.2c0.1-0.8,0.5-1.5,1-2.3
		c0.5-0.7,1.2-1.4,2.1-2c0.9-0.6,2-1,3.3-1.2c1.2-0.2,2.4-0.3,3.6-0.1c1.2,0.1,2.3,0.6,3.3,1.5l-2,2.7c-0.5-0.5-1.1-0.9-1.9-1.1
		c-0.8-0.2-1.6-0.3-2.5-0.1c-0.8,0.2-1.5,0.4-2,0.7c-0.5,0.3-0.9,0.7-1.2,1.1c-0.3,0.4-0.4,0.8-0.5,1.2c-0.1,0.4-0.1,0.8,0,1.1
		c0.2,0.9,0.6,1.6,1.2,2c0.6,0.4,1.4,0.7,2.3,0.9c0.9,0.2,1.8,0.3,2.8,0.4c1,0.1,1.9,0.3,2.8,0.6c0.9,0.3,1.7,0.8,2.4,1.4
		c0.7,0.7,1.2,1.7,1.4,3c0.2,1.1,0.2,2.1-0.1,3c-0.2,0.9-0.7,1.8-1.3,2.5c-0.6,0.7-1.3,1.3-2.2,1.8c-0.9,0.5-1.9,0.8-2.9,1
		c-1.4,0.3-2.8,0.3-4.2,0c-1.4-0.3-2.5-0.9-3.5-1.8L199.8,470z"/>
	<path fill="#515360" d="M243.5,455.4l1.3,11.1c-0.5,0.4-1.1,0.8-1.8,1.1c-0.7,0.3-1.4,0.6-2.1,0.9c-0.7,0.3-1.5,0.5-2.2,0.7
		c-0.8,0.2-1.5,0.3-2.2,0.4c-1.9,0.2-3.6,0.1-5.2-0.3c-1.6-0.5-2.9-1.2-4.1-2.1c-1.2-1-2.1-2.1-2.8-3.5c-0.7-1.4-1.2-2.8-1.4-4.4
		c-0.2-1.7-0.1-3.3,0.3-4.8c0.4-1.5,1.1-2.9,2-4c0.9-1.2,2-2.2,3.4-2.9c1.4-0.8,2.9-1.3,4.6-1.5c2.1-0.3,3.8-0.2,5.2,0.2
		c1.4,0.4,2.6,0.9,3.6,1.7l-1.9,2.6c-1-0.8-2.1-1.3-3.2-1.5c-1.1-0.2-2.2-0.3-3.3-0.1c-1.3,0.2-2.4,0.5-3.4,1.1
		c-1,0.6-1.8,1.4-2.4,2.2c-0.6,0.9-1.1,1.9-1.4,3c-0.3,1.1-0.3,2.3-0.2,3.5c0.2,1.3,0.5,2.4,1.1,3.5c0.6,1,1.3,1.9,2.2,2.6
		c0.9,0.7,1.9,1.2,3,1.6c1.1,0.3,2.3,0.4,3.5,0.3c1.1-0.1,2.1-0.4,3-0.7c0.9-0.3,1.7-0.7,2.4-1.2l-0.8-6.2l-5,0.6l-0.3-2.9
		L243.5,455.4z"/>
	<path fill="#515360" d="M248.6,444.9l14.6-1.1l0.2,2.9l-11.5,0.9l0.5,6.7l10.7-0.8l0.2,2.9l-10.7,0.8l0.5,7.2l12.1-0.9l0.2,2.9
		l-15.1,1.1L248.6,444.9z"/>
	<path fill="#515360" d="M273.5,446.3l-7.3,0.3l-0.1-2.9l17.6-0.7l0.1,2.9l-7.3,0.3l0.7,19.7l-3.1,0.1L273.5,446.3z"/>
	<path fill="#515360" d="M297.1,460.9c0.5,0.8,1.2,1.5,2.1,1.9c0.9,0.4,1.7,0.6,2.7,0.6c0.5,0,1-0.1,1.6-0.2c0.5-0.2,1-0.4,1.5-0.7
		c0.4-0.3,0.8-0.7,1.1-1.2c0.3-0.5,0.4-1,0.4-1.6c0-0.9-0.2-1.5-0.8-2c-0.5-0.5-1.2-0.9-2-1.2c-0.8-0.3-1.7-0.6-2.7-0.9
		c-1-0.3-1.8-0.7-2.7-1.2c-0.8-0.5-1.5-1.2-2-2.1c-0.5-0.9-0.8-2-0.8-3.5c0-0.7,0.2-1.4,0.5-2.1c0.3-0.7,0.8-1.4,1.4-2
		c0.6-0.6,1.4-1.1,2.4-1.5c1-0.4,2.1-0.6,3.5-0.6c1.2,0,2.4,0.2,3.5,0.6c1.1,0.4,2.1,1.1,2.9,2.1l-2.5,2.2c-0.4-0.6-0.9-1.1-1.6-1.5
		c-0.7-0.4-1.5-0.6-2.4-0.6c-0.9,0-1.6,0.1-2.1,0.3c-0.6,0.2-1,0.5-1.4,0.8c-0.3,0.3-0.6,0.7-0.7,1.1c-0.1,0.4-0.2,0.8-0.2,1.1
		c0,1,0.2,1.7,0.8,2.2c0.5,0.5,1.2,0.9,2,1.3c0.8,0.3,1.7,0.6,2.7,0.9c1,0.3,1.9,0.6,2.7,1.1c0.8,0.5,1.5,1.1,2,1.9
		c0.5,0.8,0.8,1.9,0.8,3.2c0,1.1-0.2,2.1-0.7,2.9c-0.4,0.9-1,1.6-1.7,2.2c-0.7,0.6-1.6,1-2.5,1.3c-1,0.3-2,0.4-3.1,0.4
		c-1.5,0-2.8-0.3-4.1-0.8c-1.3-0.5-2.3-1.3-3.1-2.4L297.1,460.9z"/>
	<path fill="#515360" d="M317.9,443.5l-0.8,13.8c0,0.7,0,1.4,0.2,2.2c0.1,0.8,0.4,1.5,0.8,2.1c0.4,0.7,1,1.2,1.7,1.7
		c0.7,0.4,1.6,0.7,2.6,0.8c1.1,0.1,2-0.1,2.7-0.4c0.7-0.4,1.4-0.8,1.8-1.5c0.5-0.6,0.8-1.3,1.1-2c0.2-0.7,0.4-1.5,0.4-2.2l0.8-13.8
		l3.1,0.2l-0.9,14.3c-0.1,1.3-0.4,2.5-0.9,3.5c-0.5,1-1.2,1.9-2,2.7c-0.8,0.7-1.8,1.3-2.9,1.6c-1.1,0.4-2.2,0.5-3.5,0.4
		c-1.2-0.1-2.4-0.4-3.4-0.8c-1-0.5-1.9-1.2-2.7-2c-0.7-0.8-1.3-1.8-1.7-2.9c-0.4-1.1-0.5-2.3-0.5-3.6l0.9-14.3L317.9,443.5z"/>
	<path fill="#515360" d="M338,444.9l7.8,0.9c1.6,0.2,3,0.5,4.1,1c1.2,0.5,2.1,1.1,3,1.8c0.8,0.7,1.5,1.5,2,2.3
		c0.5,0.8,0.9,1.7,1.1,2.6c0.2,0.9,0.4,1.7,0.5,2.6c0.1,0.8,0,1.6,0,2.3c-0.2,1.4-0.6,2.8-1.3,4.1c-0.7,1.3-1.6,2.4-2.7,3.3
		c-1.2,0.9-2.5,1.6-4.1,2.1c-1.6,0.5-3.4,0.6-5.4,0.4l-7.3-0.8L338,444.9z M338.9,464.8l3.8,0.4c1.3,0.1,2.5,0.1,3.7-0.1
		c1.2-0.2,2.3-0.6,3.2-1.2c0.9-0.6,1.7-1.4,2.4-2.4c0.6-1,1-2.2,1.2-3.6c0.1-0.7,0.1-1.6-0.1-2.6c-0.1-1-0.5-2-1-2.9
		c-0.6-0.9-1.4-1.8-2.4-2.5c-1.1-0.7-2.5-1.2-4.3-1.4l-4.6-0.5L338.9,464.8z"/>
	<path fill="#515360" d="M360.6,465.6c0.4,0.9,1,1.6,1.8,2.1c0.8,0.5,1.6,0.9,2.5,1c0.5,0.1,1,0.1,1.6,0c0.6-0.1,1.1-0.2,1.5-0.5
		c0.5-0.2,0.9-0.6,1.2-1c0.3-0.4,0.6-0.9,0.7-1.5c0.1-0.9,0-1.6-0.5-2.1c-0.5-0.5-1.1-1-1.9-1.5c-0.8-0.4-1.6-0.9-2.5-1.3
		c-0.9-0.4-1.7-1-2.5-1.6c-0.7-0.6-1.3-1.4-1.7-2.4c-0.4-0.9-0.5-2.1-0.3-3.6c0.1-0.7,0.4-1.3,0.8-2c0.4-0.7,1-1.3,1.7-1.8
		c0.7-0.5,1.6-0.9,2.6-1.2c1-0.3,2.2-0.3,3.6-0.1c1.2,0.2,2.4,0.5,3.4,1.1c1.1,0.5,1.9,1.4,2.6,2.5l-2.8,1.9
		c-0.3-0.6-0.7-1.2-1.4-1.7c-0.6-0.5-1.4-0.8-2.3-0.9c-0.8-0.1-1.6-0.1-2.2,0c-0.6,0.1-1.1,0.3-1.5,0.6c-0.4,0.3-0.7,0.6-0.9,1
		c-0.2,0.4-0.3,0.7-0.4,1.1c-0.1,0.9,0,1.7,0.5,2.3c0.5,0.6,1.1,1.1,1.8,1.6c0.8,0.4,1.6,0.9,2.5,1.3c0.9,0.4,1.7,0.9,2.5,1.5
		c0.7,0.6,1.3,1.3,1.7,2.2c0.4,0.9,0.5,2,0.3,3.3c-0.2,1.1-0.5,2-1.1,2.8c-0.5,0.8-1.2,1.4-2,1.9c-0.8,0.5-1.7,0.8-2.7,1
		c-1,0.2-2,0.2-3.1,0c-1.4-0.2-2.7-0.7-4-1.4c-1.2-0.7-2.1-1.6-2.7-2.8L360.6,465.6z"/>
	<path fill="#515360" d="M383.6,464.6l-5.8-14.4l3.9,0.8l4.1,11l8.2-8.5l3.7,0.7l-11,11l-1.9,9.5l-3-0.6L383.6,464.6z"/>
</g>
</svg>
