<?xml version="1.0" encoding="utf-8"?>
<!-- Generator: Adobe Illustrator 18.1.0, SVG Export Plug-In . SVG Version: 6.00 Build 0)  -->
<!DOCTYPE svg PUBLIC "-//W3C//DTD SVG 1.1//EN" "http://www.w3.org/Graphics/SVG/1.1/DTD/svg11.dtd">
<svg version="1.1" id="Layer_1" xmlns="http://www.w3.org/2000/svg" xmlns:xlink="http://www.w3.org/1999/xlink" x="0px" y="0px"
	 viewBox="2.1 142.9 926.7 284.1" enable-background="new 2.1 142.9 926.7 284.1" xml:space="preserve">
<g id="Layer_1_1_">
	<rect x="2.1" y="138.9" fill="#4F5462" width="926.7" height="291.9"/>
</g>
<g id="New_Symbol_19_1_">
</g>
<g id="New_Symbol_36_1_">
</g>
<g id="New_Symbol_8_1_">
</g>
<g id="New_Symbol_15_11_">
</g>
<g id="New_Symbol_15_10_">
</g>
<g id="New_Symbol_15_9_">
</g>
<g id="New_Symbol_15_8_">
</g>
<g id="New_Symbol_15_7_">
</g>
<g id="New_Symbol_16_13_">
</g>
<g id="New_Symbol_16_12_">
</g>
<g id="New_Symbol_16_11_">
</g>
<g id="New_Symbol_16_10_">
</g>
<g id="New_Symbol_37_3_">
</g>
<g id="New_Symbol_37_2_">
</g>
<g id="New_Symbol_15_6_">
</g>
<g id="New_Symbol_16_9_">
</g>
<g id="New_Symbol_16_8_">
</g>
<g id="New_Symbol_16_7_">
</g>
<g id="New_Symbol_22_3_">
</g>
<g id="New_Symbol_22_2_">
</g>
<g id="New_Symbol_1_">
</g>
<g opacity="0.61">
	<path fill="#FFFFFF" d="M775,499.5L775,499.5L775,499.5L775,499.5z"/>
	<path fill="#FFFFFF" d="M576.3,367.4c0.3,0.6,0.8,1.3,1.6,1.9c0.2,0.2,0.3,0.2,0.5,0.2c0.3,0.3,0.8,0.3,1.1,0
		c-1-0.6-1.9-1.1-2.7-1.8C576.6,367.5,576.5,367.5,576.3,367.4z"/>
	<path fill="#FFFFFF" d="M552.3,346.3c0.3,0.5,1.1,1.4,1.9,2.7c1.6,2.1,4.2,5,7.7,8.4c3.7,3.4,8.4,7.2,14.2,10.9
		c3.4,2.3,6.9,4.5,10.9,6.8c-6.4-1.4-12.9-3.5-19.5-3.5c-3.2,0-10.8-0.2-11.9,3.9c0,0.2,0,0.5,0.2,0.6c1.3,1.3,3.4,1.1,5,1.3
		c3.9,0.2,7.7,0.3,11.4,0.5c3.7,0.2,7.6,0.5,11.3,0.5c3.2,0,6.6-0.3,9.8,0.3h0.2l0,0c0.8,0.5,1.6,1,2.6,1.3
		c7.6,4,15.6,8.2,24.5,12.4c-14.8-3.9-39.6-9.5-40.4-2.4c-0.6,4.8,15.9,5.5,18.3,5.6c11.6,1,23.3,1.1,34.8,4c2.1,0.6,3.4,0.6,4,0.5
		c3.7,1.6,7.4,3.4,11.1,5.1c2.3,1,4.3,1.9,6.6,2.9c-10-0.6-20.1-1-29.9,1.8c-3.1,0.8-14.8,6-12.4,10.9c3.4,6.9,14.8,3.5,20.4,2.3
		c6.1-1.3,12.2-2.6,18.3-3.7c4.2-0.8,8.5-2.1,12.9-2.6l0,0c3.1,0.2,6.1,0.2,9.3,0.3c1.4,0.2,2.4,0.2,3.2,0.2l0,0
		c0.5,0.2,1,0.5,1.6,0.6c9.5,3.9,19,7.7,28.3,12.2c0.2,0.3,0.3,0.6,0.5,1c-10.1-1.8-20.8-1.6-30.7-1.3c-8.8,0.2-24-0.8-30.1,6.9
		c-0.8,1.1-0.6,3.2,0.6,3.9c10.6,5.6,23.8,4.5,35.6,3.9c6.1-0.3,12.4-0.6,18.5-1.6c4.7-0.6,9.3-1.9,14-2.3c4.2,0.5,8.4,0.8,12.5,1
		l0,0c3.4,2.3,6.8,4.5,10,7.1c0.8,0.6,1.4,1.1,2.3,1.8c-8.8-1.6-17.7-4-27.2-2.6c-4.8,0.8-16.1,1.9-18.7,10.6
		c-0.2,0.5-0.2,1.1,0,1.4c1.6,2.4,4.7,1.6,7.2,1.3c5.6-0.5,11.4-1.1,17.1-1.6c5.5-0.5,11.1-0.8,16.6-1.6c3.9-0.6,7.7-1.6,11.6-1.6
		l0.2,0.2c1,1,1.9,1.9,2.7,2.9c3.5,3.9,6.8,8,9.5,12.4c2.7,4.2,5,8.5,7.1,12.9c-6.1-3.9-17.2-10.6-22.5-13
		c-7.9-3.4-18.3-8.2-26.7-3.9c-1.4,0.8-1.9,2.9-0.6,4c7.1,7.4,17.7,10,26.9,13.5c8.5,3.4,19,7.1,27.8,11.6c0.2,0.5,0.3,1.1,0.5,1.6
		c1.4,4.5,2.6,9,3.5,13.4c0.3,1.8,0.6,3.4,1,5c0,0,0-0.2-0.2-0.2c-9.7-9.2-20.4-16.9-32.7-22.2c-6.9-3.1-14-5.6-21.4-7.2
		c-3.2-0.6-7.1-1.8-9.3,1.4c-5.6,8.2,15.4,15.4,20,17.2c15,5.8,30.1,11.3,43.4,20.4c0.6,0.3,1.1,0.6,1.6,0.6
		c0.6,6.1,1,11.9,1.1,17.2c-8.7-4.3-17.5-8.5-27-10.6c-4.2-1-17.7-5.3-20,1c-0.8,2.3,0.2,4.5,2.3,5.5c4.8,2.3,10.1,3.7,15.1,5.3
		c9.8,3.4,19.8,6.6,29.6,9.7c0,3.5-0.2,6.9-0.2,9.8c-0.2,4.8-0.5,8.7-0.5,11.4c0,0.2,0,0.3,0,0.5c-0.2,1.9,1.4,3.7,3.4,3.7l2.3,0.2
		c1.9,0.2,3.7-1.4,3.7-3.4c0-0.2,0-0.3,0-0.5c0-2.7,0.2-6.6,0.3-11.6c0-5,0-11.1-0.3-18c-0.2-2.6-0.3-5.3-0.5-8
		c11.1-8.2,23.5-14.6,36.7-18.8c5.1-1.6,21.2-4.5,14.3-12.9c-6.8-8.2-21.7-6.3-30.2-3.2c-9.8,3.4-16.1,12.5-22.2,20.9
		c0-0.5-0.2-1-0.2-1.4c-0.6-4.3-1.4-8.7-2.6-13.4c-0.5-2.1-1.1-4.2-1.6-6.4c4.2-10.6,10.9-19.6,16.7-29.3c3.2-5.5,9.5-14.2,6.1-20.8
		c-1-1.9-3.7-3.2-5.5-1.6c-10.5,9.2-18.7,20.3-24,33c-1.4-3.4-3.2-6.6-5.1-10c4.5-16.3,14.3-33.3,22.2-48.1c1.9-3.5,5.6-8.7,4.2-13
		c-1.3-3.7-4.5-5.8-8.5-5.3c-11.4,1.6-18.2,13-21.7,23s-4.3,20.6-4.2,31.2c-2.1-2.7-4.5-5.5-6.9-8c-1-1-1.9-1.9-2.9-2.9
		c0-0.2,0-0.3,0.2-0.5c1.3-18.8,4-37.5,7.6-56.2c1.6-7.9-0.5-18.5-10.8-14.6c-11.6,4.3-11.3,24.8-10,34.3c1.1,8.5,2.1,17.2,3.5,25.7
		c0.2,1.3,0.5,2.6,0.8,3.9c-0.3-0.3-0.6-0.5-1-0.8c-4.5-3.5-9.5-6.4-14.5-9.3c-3.9-2.3-7.9-4.2-11.7-6.1c-3.2-11.7-4.3-24-4.7-36.2
		c-0.3-8.8,0.8-18.5-4.3-26.2c-1.1-1.6-3.4-1-4.3,0.2c-12.4,15.4-5.6,39.4,2.4,57.3c-7.9-3.4-15.9-6.4-23.8-9.3l0,0
		c0-0.2-0.2-0.5-0.3-1c-4-10.3-2.7-23.7-3.7-34.6c-0.5-4.8-3.1-14.6-10.3-11.3c-6.6,3.2-6,14.3-4,20c1,2.9,2.3,5.5,3.7,7.9
		c1,1.8,1.9,3.5,2.7,5.5c1.8,4.2,4,8,6.4,11.4c-8.5-3.2-16.9-6.6-25.1-10c-2.3-1-4.5-1.8-6.6-2.7v-0.2c-0.5-10,0-20,1-29.8
		c0.5-4.2-1.4-9.8-7.4-7.7c-6.6,2.4-5.1,13.2-3.9,18.2c1.1,4.5,2.4,9.2,3.7,13.7c0.5,1.4,1,2.7,1.8,4c-9.3-4-18.3-8-26.5-12.1v-0.2
		c-2.6-7.7-1-15.8-1-23.7c0-2.7-0.5-11.6-5.6-9c-6,3.1-4.5,10.9-3.4,16.4c0.6,3.1,3.2,11.6,3.7,13.4c-2.9-1.4-5.6-2.7-8.4-4.2
		c-6.4-3.2-12.4-6.3-17.5-9.3c-0.3,0.3-0.8,0.3-1.1,0c-0.2,0-0.3,0-0.5-0.2c-0.8-0.6-1.3-1.1-1.6-1.9c0.2,0.2,0.3,0.2,0.5,0.3
		c1,0.6,1.8,1.1,2.7,1.8c0.2-0.2,0.2-0.3,0.2-0.5c0-7.6,0.6-15,1.6-22.5c0.5-3.2-0.6-7.4-4.7-5.6c-4.5,1.9-3.9,10.1-3.2,13.8
		c0.6,3.4,1.3,6.8,2.1,10.1c0.2,1,0.5,1.8,0.8,2.6c-5.6-3.5-10.3-7.1-13.8-10.3c-3.7-3.2-6.3-6.1-8-8.2
		C553.5,347.7,552.8,346.8,552.3,346.3z M775,499.5L775,499.5L775,499.5L775,499.5z M749,453.6c0.3,0,0.6,0,1,0
		C749.6,453.8,749.3,453.8,749,453.6z M676.1,414.5c0.2,0.2,0.3,0.3,0.5,0.5C676.2,414.8,676.2,414.7,676.1,414.5z"/>
	<path fill="#FFFFFF" d="M749,453.6c0.3,0.2,0.6,0.2,1,0C749.6,453.8,749.3,453.6,749,453.6z"/>
	<path fill="#FFFFFF" d="M749,453.6c0.3,0.2,0.6,0.2,1,0C749.6,453.8,749.3,453.6,749,453.6z"/>
</g>
<g opacity="0.61">
	<path fill="#FFFFFF" d="M826.8,354.2L826.8,354.2l2.3-2.4c5.5,5.1,5,14.6-1.3,21.4c-6.1,6.6-15.8,7.9-21.2,2.7l2.3-2.4l0,0
		l-3.2,3.5c6.1,5.6,16.4,4.3,23.2-2.9c6.8-7.2,7.2-17.7,1.3-23.3L826.8,354.2z"/>
	<path fill="#FFFFFF" d="M828.4,352.4c5.1,4.7,4.5,13.7-1.4,20c-5.8,6.3-14.8,7.6-19.8,2.9L828.4,352.4z"/>
</g>
<circle opacity="0.61" fill="#FFFFFF" enable-background="new    " cx="899.7" cy="255.6" r="2.7"/>
<circle opacity="0.61" fill="#FFFFFF" enable-background="new    " cx="848.2" cy="392.9" r="1.1"/>
<circle opacity="0.61" fill="#FFFFFF" enable-background="new    " cx="913.2" cy="329.4" r="1.1"/>
<circle opacity="0.61" fill="#FFFFFF" enable-background="new    " cx="834.4" cy="269.7" r="1.1"/>
<circle opacity="0.61" fill="#FFFFFF" enable-background="new    " cx="913.1" cy="300.6" r="1"/>
<circle opacity="0.61" fill="#FFFFFF" enable-background="new    " cx="849.4" cy="219.7" r="1"/>
<circle opacity="0.61" fill="#FFFFFF" enable-background="new    " cx="830.1" cy="412.9" r="1"/>
<circle opacity="0.61" fill="#FFFFFF" enable-background="new    " cx="859.5" cy="408.1" r="2.1"/>
<circle opacity="0.61" fill="#FFFFFF" enable-background="new    " cx="897.6" cy="317" r="2.1"/>
<circle opacity="0.61" fill="#FFFFFF" enable-background="new    " cx="865.6" cy="227.4" r="2.1"/>
<g id="New_Symbol_8">
</g>
<path opacity="0.61" fill="#FFFFFF" enable-background="new    " d="M829.7,237.7c2.4,0.2,4,1.8,4.2,3.5c0,0.2,0,0.2-0.2,0.2
	c0,0.2,0,0.2,0,0.3c-1.3,1.3-3.1,1.8-5,1.6c-2.4-0.2-4.2-2.4-5.8-3.5c-0.2-0.2-0.2-0.3,0-0.5C825.1,238.2,827.2,237.5,829.7,237.7z"
	/>
<path opacity="0.61" fill="#FFFFFF" enable-background="new    " d="M858,263.3c-1.3-2.7-0.6-5.6,1.1-7.1c0.2-0.2,0.2-0.2,0.3,0
	c0.2-0.2,0.2-0.2,0.3-0.2c2.3,0.5,4,2.1,5.1,4.5c1.4,2.9,0.2,6.1-0.2,8.7c0,0.3-0.3,0.5-0.6,0.3C861.6,268.1,859.3,266.3,858,263.3z
	"/>
<path opacity="0.61" fill="#FFFFFF" enable-background="new    " d="M860.6,245.1c-1.3-2.1-4.7-3.1-6.8-3.7c1-1,2.9-2.9,3.4-4.3
	c0.5-1.8-0.5-3.9-1.9-5c-3.2-2.4-5.6,1.8-7.1,5.6c-2.4-2.9-5.8-5.5-8-1.3c-1.3,2.4,0,4.8,2.3,6.6c-1.4,0.8-2.9,1.8-4.2,3.1
	c-1,0.8-0.6,2.4,0.2,3.1c2.6,2.4,5.5,1.4,7.9-0.3c-0.3,1.8-0.2,2.7,0.2,4.7c0.3,1.8,3.2,3.1,4.7,1.3c2.1-2.7,1.4-4.3,1.3-7.4
	c2.4,1.3,5,1.9,7.6,0.5C861.1,247.5,861.3,246,860.6,245.1z M850,244.4c0.8,0.6,1.8,1.8,0.8,2.3c-0.3,0.3-1,0.3-1.4,0
	c-0.3-0.2-0.6-1-0.8-1.3c-0.3,0.5-1,1.3-1.6,1.4c-0.3,0-0.6-0.2-0.6-0.5c-0.2-0.8,0.3-1.4,0.8-1.9c-0.8-0.3-1.3-0.2-1.8-1
	c-0.3-0.5,0.3-1.1,0.8-1.1c0.5,0.2,0.8,0.2,1.1,0.5c-0.2-0.8-0.2-1.6,0.6-2.1c0.3-0.2,0.6,0,0.8,0.3c0.2,0.5,0.3,1,0.3,1.3
	c0.6-0.3,1.4-0.5,1.9,0C851.9,243.5,851,244.1,850,244.4z"/>
<g opacity="0.61">
	<path fill="#FFFFFF" d="M849.5,243.6c0.5,1.4-1.8,2.1-2.3,0.6C846.9,242.8,849.2,242.2,849.5,243.6L849.5,243.6z"/>
</g>
<g id="New_Symbol_15">
</g>
<g id="New_Symbol_16_2_">
</g>
<g id="New_Symbol_16_1_">
</g>
<g id="New_Symbol_16">
</g>
<g opacity="0.61">
	<path fill="#FFFFFF" d="M920.6,229c-0.5-0.6-1-1.1-1.4-1.6c0.2-0.2,0.3-0.3,0.5-0.5c1.6-1.3,3.2-5,0.5-6.3c-1.6-0.6-3.2-0.6-4.7,0
		c-0.5-1.3-1.3-2.6-2.4-3.1c-1.4-0.8-3.7-0.3-4.2,1.4c-0.2,1-0.2,1.9,0,2.9h-0.2c-1.9-0.2-4.8,0.5-5.8,2.3c-1,1.8,0.8,3.9,2.1,4.8
		c0.8,0.6,1.9,1,2.9,1.1c-1.3,2.6-1.9,5.8,0.8,7.1c1.4,0.6,2.6,0.6,4-0.3c0.6-0.3,1.1-1.1,1.4-1.6c0.3-0.5,0.5-1.4,0.8-2.3
		c1.1,1,2.6,1.4,4,1.6C922.4,234.9,921.7,230.7,920.6,229z M915.9,230.2c-0.5-0.3-1-0.8-1.4-1.1c-0.3-0.3-0.8-0.5-1.1-0.8
		c-0.2,0.5-0.5,0.8-0.6,1.3c-0.3,0.6-0.6,1.4-1,2.1c-0.6,0.8-2.1,0-1.4-1c0.5-0.6,0.6-1.4,1-2.1c0.3-0.5,0.5-1,0.8-1.4
		c-1.1,0-2.3,0.3-3.4,0.3c-1.1,0.2-1-1.6,0-1.8c1.1-0.2,2.4-0.3,3.5-0.3c-0.3-0.8-0.6-1.6-0.8-2.6c-0.2-1.1,1.4-1.4,1.6-0.3
		c0.2,1,0.6,1.9,1,2.7c0.8-0.5,1.4-1,2.1-1.6c0.8-0.8,1.9,0.5,1.1,1.3c-0.8,0.8-1.8,1.4-2.7,1.9c0.2,0.2,0.5,0.3,0.6,0.5
		c0.5,0.5,1,1,1.6,1.3C917.9,229.4,916.9,230.9,915.9,230.2z"/>
	<path fill="#FFFFFF" d="M915,228.1c0.2-0.2,0.3-0.5,0.5-0.6c0.3-0.3,0.3-0.8,0.2-1.3c-0.2-0.3-0.2-0.6-0.3-0.8
		c-0.2-0.5-0.6-0.6-1.1-0.8c-0.2,0-0.3,0-0.5,0l0,0c-0.2,0-0.3,0-0.5,0.2l0,0c-0.3,0-0.6,0.2-1,0.3c-0.8,0.5-1,1.4-0.8,2.3
		s0.6,1.4,1.4,1.6C913.5,229,914.3,228.8,915,228.1z"/>
</g>
<g opacity="0.61">
	<path fill="#FFFFFF" d="M883.3,250.3c0.5-0.2,0.8-0.5,1.1-0.8c0.2,0.2,0.2,0.3,0.3,0.3c0.8,1.1,3.1,2.4,4,0.6
		c0.5-1,0.6-2.1,0.3-3.1c1-0.3,1.8-0.6,2.3-1.4c0.6-1,0.5-2.4-0.6-2.7c-0.6-0.2-1.3-0.2-1.8-0.2l0,0c0.2-1.3,0-3.2-1.1-3.9
		c-1.1-0.8-2.6,0.3-3.2,1.1c-0.5,0.5-0.8,1.1-1,1.8c-1.6-1-3.5-1.6-4.7,0.2c-0.5,1-0.5,1.6,0,2.6c0.2,0.5,0.6,0.8,1,1.1
		c0.3,0.2,1,0.5,1.4,0.6c-0.6,0.6-1.1,1.6-1.3,2.4C879.3,250.9,882,250.9,883.3,250.3z M882.7,247c0.2-0.3,0.5-0.5,0.8-0.8
		c0.2-0.2,0.3-0.5,0.5-0.6c-0.3-0.2-0.5-0.3-0.8-0.5c-0.5-0.3-1-0.5-1.3-0.8c-0.5-0.5,0.2-1.4,0.6-1c0.3,0.3,0.8,0.5,1.3,0.8
		c0.3,0.2,0.6,0.5,0.8,0.6c0-0.8,0-1.4,0-2.3c0-0.6,1.1-0.6,1.1,0.2s0.2,1.6,0,2.3c0.6-0.2,1.1-0.3,1.8-0.5c0.6-0.2,0.8,1,0.2,1.1
		c-0.6,0-1.3,0.3-1.9,0.5c0.2,0.5,0.5,1,0.8,1.4c0.5,0.6-0.5,1.3-1,0.6c-0.5-0.6-0.8-1.1-1.1-1.8c-0.2,0.2-0.2,0.3-0.3,0.3
		c-0.3,0.3-0.6,0.6-1,1C883.2,248.3,882.4,247.7,882.7,247z"/>
	<path fill="#FFFFFF" d="M884.1,246.6c0.2,0.2,0.3,0.2,0.5,0.3c0.2,0.2,0.5,0.3,0.8,0.2c0.2,0,0.3-0.2,0.6-0.2
		c0.3-0.2,0.5-0.3,0.6-0.6c0-0.2,0-0.2,0-0.3l0,0c0-0.2,0-0.2,0-0.3l0,0c0-0.2,0-0.5-0.2-0.6c-0.3-0.5-0.8-0.6-1.4-0.6
		c-0.5,0-1,0.3-1.1,0.8S883.8,246.1,884.1,246.6z"/>
</g>
<g opacity="0.61">
	<path fill="#FFFFFF" d="M886.5,282.9c0.2,0.5,0.5,0.8,0.8,1.1c-0.2,0-0.3,0.2-0.3,0.2c-1.1,0.6-2.7,2.7-1.1,4
		c1,0.6,1.9,0.8,3.1,0.6c0.2,1,0.5,1.8,1.1,2.3c0.8,0.6,2.4,0.6,2.9-0.5c0.3-0.6,0.3-1.1,0.3-1.8l0,0c1.3,0.3,3.1,0.3,4-0.8
		c0.8-1.1,0-2.6-0.8-3.4c-0.5-0.5-1.1-1-1.8-1.1c1.1-1.4,1.9-3.4,0.3-4.7c-0.8-0.6-1.6-0.6-2.6-0.3c-0.5,0.2-0.8,0.5-1.1,0.8
		c-0.3,0.3-0.5,1-0.8,1.3c-0.6-0.8-1.4-1.3-2.4-1.4C886.2,278.9,886,281.6,886.5,282.9z M889.7,282.6c0.3,0.3,0.5,0.6,0.8,1
		c0.2,0.2,0.5,0.5,0.6,0.6c0.2-0.2,0.3-0.5,0.6-0.6c0.3-0.3,0.6-0.8,1-1.1c0.5-0.5,1.3,0.3,0.8,0.8c-0.3,0.3-0.6,0.8-1,1.1
		c-0.2,0.3-0.5,0.5-0.6,0.8c0.6,0.2,1.4,0.2,2.3,0.2c0.6,0.2,0.5,1.1-0.3,1.1c-0.8-0.2-1.6,0-2.3-0.2c0,0.6,0.2,1.1,0.2,1.8
		s-1.1,0.8-1.1,0c0-0.6-0.2-1.3-0.3-1.9c-0.5,0.2-1,0.5-1.4,0.6c-0.6,0.3-1.1-0.6-0.6-1c0.6-0.3,1.3-0.6,1.9-1
		c-0.2-0.2-0.3-0.2-0.3-0.3c-0.3-0.3-0.5-0.8-0.8-1C888.4,282.9,889.2,282.1,889.7,282.6z"/>
	<path fill="#FFFFFF" d="M890.1,284.2c-0.2,0.2-0.3,0.2-0.3,0.3c-0.2,0.2-0.3,0.5-0.3,0.8c0,0.2,0,0.5,0.2,0.6
		c0.2,0.3,0.3,0.5,0.6,0.6c0.2,0,0.2,0,0.3,0.2l0,0c0.2,0,0.2,0,0.3,0l0,0c0.2,0,0.5,0,0.6-0.2c0.5-0.2,0.8-0.8,0.8-1.3
		s-0.2-1-0.6-1.3C891,283.9,890.5,283.9,890.1,284.2z"/>
</g>
<g opacity="0.61">
	<path fill="#FFFFFF" d="M818.8,327.1c-0.8,0-1.4,0.2-2.1,0.5c0-0.3,0-0.5-0.2-0.6c-0.3-2.1-2.4-5.5-5-3.7c-1.4,1-2.3,2.4-2.4,4
		c-1.4-0.3-2.9-0.3-3.9,0.3c-1.4,0.8-2.3,3.1-1,4.3c0.6,0.6,1.4,1.1,2.4,1.4c0,0,0,0-0.2,0.2c-1.1,1.6-2.3,4.3-1.1,6.1
		c1,1.8,3.7,1.4,5.1,0.8c1-0.3,1.9-1,2.6-1.8c1.4,2.4,3.7,4.7,6.4,3.1c1.4-0.8,1.9-1.9,1.9-3.5c0-0.6-0.3-1.4-0.6-2.1
		c-0.3-0.5-1-1.3-1.4-1.9c1.4-0.5,2.7-1.3,3.5-2.4C824.6,328.9,820.9,327.1,818.8,327.1z M817.3,331.8c-0.5,0.3-1.1,0.3-1.8,0.5
		c-0.5,0.2-0.8,0.3-1.3,0.5c0.2,0.5,0.5,0.8,0.6,1.3c0.3,0.6,1,1.3,1.1,1.9c0.3,1-1.1,1.8-1.6,0.8c-0.3-0.6-0.8-1.3-1.1-1.9
		c-0.3-0.5-0.5-1-0.8-1.4c-0.6,1-1,2.1-1.4,3.1s-1.9,0-1.4-1c0.5-1,1-2.1,1.6-3.2c-0.8-0.2-1.8-0.3-2.6-0.6c-1-0.3-0.5-1.9,0.6-1.6
		c1,0.3,1.9,0.5,2.9,0.6c0-0.8,0-1.6-0.2-2.6c-0.2-1.1,1.4-1.4,1.6-0.3c0.2,1.1,0.3,2.3,0.2,3.2c0.2-0.2,0.5-0.2,0.6-0.3
		c0.6-0.3,1.3-0.3,1.9-0.6C817.7,329.7,818.3,331.3,817.3,331.8z"/>
	<path fill="#FFFFFF" d="M814.9,331.5c0-0.3-0.2-0.5-0.3-0.6c-0.2-0.3-0.5-0.8-1-0.8c-0.3-0.2-0.6-0.2-1-0.2c-0.5,0-1,0.2-1.3,0.5
		c-0.2,0.2-0.2,0.2-0.3,0.3l0,0c-0.2,0.2-0.2,0.3-0.2,0.5l0,0c-0.2,0.3-0.2,0.6-0.2,1c0,1,0.6,1.6,1.4,1.9c0.8,0.3,1.6,0.3,2.1-0.3
		C814.9,333.1,815.1,332.3,814.9,331.5z"/>
</g>
<g opacity="0.61">
	<path fill="#FFFFFF" d="M795,354.6c0,0.5,0.2,0.8,0.3,1.3c-0.2,0-0.3,0-0.3,0.2c-1.1,0.3-3.1,1.8-1.9,3.2c0.6,0.8,1.6,1.1,2.4,1.3
		c-0.2,0.8,0,1.8,0.5,2.3c0.5,0.8,1.9,1.1,2.6,0.3c0.3-0.5,0.6-1,0.8-1.4l0,0c1,0.6,2.6,1.1,3.7,0.3c1-0.6,0.6-2.3,0.2-3.1
		c-0.3-0.6-0.6-1-1.1-1.4c1.3-1,2.6-2.4,1.4-3.9c-0.6-0.8-1.3-1-2.1-1c-0.5,0-0.8,0.3-1.3,0.5c-0.3,0.2-0.6,0.6-1,1
		c-0.3-0.8-1-1.4-1.6-1.9C795.6,351.1,794.8,353.4,795,354.6z M797.7,355.1c0.2,0.3,0.3,0.6,0.5,1c0.2,0.2,0.3,0.5,0.3,0.6
		c0.2-0.2,0.5-0.3,0.6-0.5c0.3-0.3,0.6-0.6,1.1-0.8c0.6-0.3,1.1,0.6,0.5,0.8c-0.3,0.2-0.8,0.5-1.1,0.8c-0.3,0.2-0.5,0.3-0.8,0.5
		c0.6,0.3,1.3,0.5,1.8,0.6c0.6,0.3,0.2,1.1-0.5,0.8s-1.3-0.5-1.9-0.8c-0.2,0.5-0.2,1.1-0.2,1.6c-0.2,0.6-1.1,0.3-1-0.3
		c0.2-0.5,0.2-1.1,0.3-1.8c-0.5,0-1,0.2-1.4,0.3c-0.6,0.2-1-0.8-0.3-1c0.6-0.2,1.3-0.3,1.9-0.3c-0.2-0.2-0.2-0.3-0.2-0.3
		c-0.2-0.3-0.3-0.8-0.5-1.1C796.6,355.1,797.4,354.6,797.7,355.1z"/>
	<path fill="#FFFFFF" d="M797.7,356.6c-0.2,0-0.3,0.2-0.3,0.2c-0.2,0.2-0.3,0.3-0.5,0.6c0,0.2,0,0.3,0,0.5c0,0.3,0.2,0.5,0.3,0.8
		l0.2,0.2l0,0c0,0,0.2,0,0.3,0.2l0,0c0.2,0,0.3,0.2,0.6,0c0.5,0,0.8-0.5,1-1c0.2-0.5,0-1-0.3-1.3
		C798.5,356.6,798.2,356.4,797.7,356.6z"/>
</g>
<g opacity="0.61">
	<path fill="#FFFFFF" d="M993.2,127.5l-1.6,5.1c-0.6,2.1-2.9,3.4-5.1,2.6l0,0c-1.3-0.5-2.9-1-4.7-1.4s-3.9-1.1-6.3-1.6
		c-4.7-1.1-10.5-2.4-17.2-3.4c-6.1-0.8-13.2-1.6-20.8-1.6c1.4,3.7,2.1,7.2,2.1,11.1c0.3,1,0.5,1.8,0.5,2.6c0.2,3.9,0.5,7.7-0.3,11.6
		c-2.1,10-6.4,19.6-11.4,29.3c-1.4,2.9-7.9,3.7-8.4,0.3c-1.9-16.7-9.2-37.6,2.9-54.7c-4.7,0.3-9.5,0.8-14.5,1.6
		c-2.4,0.3-4.8,0.8-7.2,1.3c-1.1,0.3-2.4,0.5-3.5,0.8c-1.3,0.3-2.6,0.6-3.7,1c-5.1,1.1-10,2.7-15,4.2c-1.8,0.6-3.7,1.3-5.5,1.9
		c12.5,5,20.4,17.9,23.3,31.1c1.6,7.2,2.6,14.6,0.2,21.9c-2.9,8.2-6.6,15.9-5.1,24.8c0.5,3.2-4.7,4-5.5,1
		c-6.8-22.8-32.7-51.3-19-76.4c-6.3,2.4-12.5,5-18.8,7.7c-3.2,1.4-6.6,2.9-10,4.5c5.3,11.4,8.7,22.2,6.1,35.1
		c-2.6,12.7-10.3,21.9-17.7,32.3c-0.6,1-2.4,0.6-2.6-0.6c-0.5-19.6-7.7-43.6,2.3-61.3c-3.2,1.4-6.3,2.9-9.5,4.3
		c-5.8,2.6-11.4,5.1-17.4,7.7c1.8,9.2,2.6,18.8,0.6,28.2c-2.4,10.9-8,19.1-15.9,27c-0.6,0.6-2.1,0.5-2.4-0.6
		c-3.9-18-5.1-36.2,6-49.9c-10.3,4-20.8,7.4-31.1,9.8c5.3,6.3,6.4,13,4.8,18c-1.8,5.3-6.4,9.3-10.9,13c-3.9,3.4-7.9,6.8-10,11.1
		c-0.2,0.5-1,0.3-1-0.2c-0.3-3.4-0.6-6.9-1-10.3c-0.6-6.9-1.3-13.8,0.6-19.8c1.1-3.9,3.4-7.2,7.1-9.7c-8.5,1.4-16.9,2.3-24.9,2.4
		c-2.1,0-4.3,0.2-6.4,0.2c0.2,0.2,0.3,0.3,0.3,0.6c1.1,6,2.6,12.5,1.3,18.5c-1.6,7.7-9.3,13.5-8.7,21.7c0,1.3-1.6,1.3-2.1,0.3
		c-6.1-13.4-8.7-32.2,5.1-41.2c-6.3-0.2-12.2-0.5-17.7-1c-0.3,0-0.6,0-1-0.2c-1.6,2.9-3.2,5.8-4.8,8.8c-0.8,1.4-1.6,2.9-2.7,4.2
		c-1.4,1.6-3.2,3.1-5,4.3c-1.8,1.3-3.5,2.6-5.3,3.7c-0.3,0.3-0.8,0.5-1.3,0.5c-0.3-5.3,2.3-10.6,6.1-14.5c3.1-3.1,6.8-5.3,10.5-7.4
		c-7.2-0.8-14-1.8-20.1-2.9c-0.5,0-0.8-0.2-1.3-0.2c-0.2,2.6-1.8,5-3.9,6.6c-2.3,1.6-4.8,2.7-7.4,3.7c-2.6,1-5.1,1.9-7.4,3.7
		c1.1-1.4,2.3-2.9,3.4-4.3c1.9-2.4,3.7-4.8,6.1-6.8c1.9-1.6,4.5-2.9,6.9-3.2c-5.6-0.8-10.8-1-14.8-1.9c-5-1.1-8.8-2.9-11.4-3.5
		c-2.6-0.6-3.5-1.6-3.5-1.6s1.3,0,4,0.6c2.7,0.6,6.6,1.1,11.6,2.1c0.6,0.2,1.3,0.3,1.9,0.3l-0.2-0.2c-1.4-1.3-2.7-2.7-3.9-4.3
		c-1.1-1.6-2.4-3.2-3.1-5.1c-0.8-2.3-1-4.8-1.1-7.2c-0.2-2.3-0.2-4.5-0.3-6.8c0.5,2.4,2.4,4.3,4.2,6.1c3.9,4,7.1,8.7,9.2,13.8
		c0.6,1.6,1.3,3.2,1.3,5c3.1,0.6,6.3,1.1,9.8,1.6c2.4,0.3,5,0.6,7.6,1.1c-8.8-5.6-9.7-18.3-7.6-28.2c0.2-0.8,1.4-1,1.6,0
		c0.8,6.1,7.6,9,10,14.6c1.9,4.3,1.9,9.3,2.1,13.8c0,0.2,0,0.3-0.2,0.5c3.2,0.3,6.4,0.6,9.8,0.8c8.5,0.5,18,0.6,27.8,0
		c1.9-0.2,4-0.3,6.1-0.5c-2.4-1.3-4.3-3.4-5.6-5.6c-1.9-3.4-3.1-7.1-4.2-10.8c-2.6-8.2-5.6-16.1-9.5-23.8c0.6-0.3,1.3,0,1.9,0.3
		c4,2.3,8,4.5,11.6,7.4c3.5,3.1,6.4,6.8,8,10.9c2.4,6.6,1.1,14.2,3.5,20.8c6.1-0.8,12.4-1.9,18.8-3.5c7.1-1.8,14.3-4,21.4-6.8
		c-9.7-3.1-17.9-6.9-24-15.4c-6-8.4-7.1-17.7-9-27.5c-0.2-0.8,1-1.8,1.8-1.1c13.5,12.1,35.4,21.7,35.2,42.6
		c8.4-3.4,16.7-7.1,25.1-11.1c-6.3-1.6-11.6-4.5-16.1-9.7c-6.1-7.1-9.3-16.1-15.1-23.5c-0.5-0.6,0-1.6,0.8-1.6
		c13.5-0.6,24.9,5.5,31.4,17.4c1.9,3.4,3.5,6.9,5,10.6c0.3,0.8,1,1.9,1.4,3.2c1.4-0.6,2.9-1.4,4.5-2.3c8.4-4.2,16.6-8.5,24.9-12.5
		c-6.9-1-14-3.2-18.7-8.4c-8.8-9.5-14.6-21.9-22.5-32.2c-0.5-0.6,0-1.6,0.6-1.9c9-2.7,22.7-1.1,29.1,6.4c8.2,9.3,14,20.9,19.1,32.2
		c9.7-4.7,19.5-9,29.1-12.5c1.6-0.5,3.2-1.1,4.8-1.6c-32.7-3.2-41.8-37.5-53.4-59.5c-1.3-2.4,2.1-5.6,5.1-5
		c15.1,3.4,28.8,9.8,37.5,20.4c9.3,11.4,12.2,26.4,20.4,38.5c1,0.3,1.3,1.3,1.1,2.3l0,0c1.3-0.3,2.4-0.8,3.7-1.1
		c1.3-0.3,2.6-0.6,4-1c2.6-0.6,5.1-1.1,7.6-1.6c1-0.2,1.9-0.3,2.9-0.5c-13.5-9.8-16.3-29-23.7-43.4c-1.3-2.4,1.9-5.1,4.2-4
		c10.3,5,18.7,10.3,24.5,20.4c4.5,7.7,7.2,16.4,9.2,25.1c4-0.3,7.9-0.6,11.6-0.6c9-0.3,17.2,0.2,24.5,1c7.2,0.8,13.5,1.8,18.7,2.9
		c2.6,0.5,4.8,1.1,6.9,1.6s3.7,1,5,1.3l0,0C992.7,123,993.8,125.2,993.2,127.5z"/>
</g>
<path opacity="0.61" fill="#FFFFFF" enable-background="new    " d="M802.2,301.4c-1.6-0.3-3.1-1-4.5-1.4c-0.6-0.2-1.1-0.3-1.8-0.3
	c1.6-1.9,3.1-4,4-6.4c1.1-2.3-2.6-4-3.5-1.6c-0.8,1.8-1.8,3.4-3.1,5c-1.4-1.8-3.1-3.2-4.3-5.1c-1.4-2.1-4.7,0.2-3.2,2.3
	c1.1,1.8,2.7,3.2,4,4.8c-2.6,1-4.8,2.6-7.2,3.9c-2.3,1.1-1,4.8,1.3,3.7s4.5-2.6,6.8-3.7c0,1.3-0.3,2.4-0.5,3.7
	c-0.3,1.8,0,3.7-0.5,5.3c-0.6,2.4,3.2,3.1,3.9,0.6c0.5-1.6,0.2-3.5,0.5-5.3c0.2-1.1,0.3-2.1,0.3-3.2c1,0.2,2.1,0.3,3.1,0.6
	c1.3,0.3,2.6,1,3.9,1.3C804,305.7,804.6,301.9,802.2,301.4z"/>
<path opacity="0.61" fill="#FFFFFF" enable-background="new    " d="M785.5,401c0-1.1,0.2-2.3,0.3-3.4c0-0.5,0-0.8,0-1.3
	c1.6,0.8,3.4,1.4,5.1,1.8c1.8,0.3,2.4-2.4,0.6-2.7c-1.4-0.3-2.7-0.8-3.9-1.3c1-1.3,1.8-2.7,2.9-3.9c1.3-1.3-0.8-3.2-2.1-1.9
	c-1,1.1-1.8,2.4-2.7,3.5c-1.1-1.6-2.6-2.9-3.7-4.3c-1.1-1.4-3.5,0.2-2.4,1.4c1.1,1.4,2.6,2.7,3.5,4.2c-0.8,0.2-1.8,0.2-2.7,0.3
	c-1.3,0.2-2.6,0.5-3.7,0.5c-1.8,0-1.6,2.7,0.2,2.7c1.3,0,2.6-0.5,3.7-0.5c0.8,0,1.6-0.2,2.3-0.2c0,0.8,0.2,1.4,0,2.3
	c0,1-0.3,1.9-0.3,2.9C782.7,402.9,785.5,402.8,785.5,401z"/>
<path opacity="0.61" fill="#FFFFFF" enable-background="new    " d="M760.4,367.4c1.3,0,2.7,0.3,4,0.5c0.5,0,1,0,1.4,0
	c-1,1.9-1.8,4-2.3,6.1s2.7,2.9,3.4,0.8c0.3-1.6,1-3.2,1.8-4.7c1.4,1.3,3.2,2.3,4.7,3.5c1.6,1.6,3.9-1,2.4-2.4
	c-1.3-1.3-2.9-2.3-4.3-3.4c1.9-1.3,3.5-3.1,5.5-4.5c1.8-1.3,0-4.2-1.8-2.9c-1.8,1.3-3.4,3.1-5.1,4.2c-0.2-1.1-0.2-2.1-0.3-3.2
	c0-1.4-0.6-3.1-0.5-4.5c0.2-2.3-3.2-2.1-3.4,0.2c-0.2,1.4,0.5,3.1,0.5,4.5c0,1,0.2,1.9,0.2,2.7c-0.8,0-1.8,0-2.7,0
	c-1.1,0-2.3-0.5-3.5-0.3C758.1,364,758.3,367.4,760.4,367.4z"/>
<path opacity="0.61" fill="#FFFFFF" enable-background="new    " d="M927.7,463.2L927.7,463.2c0,1.6-1.3,2.7-2.7,2.7h-3.5
	c-1.4,0-2.7-1.3-2.7-2.7l0,0c0-1.8,0.3-4.7,0-7.7c0-1.6,0-3.4-0.2-5.5c-0.2-1.9-0.3-4.2-0.5-6.4c-0.2-1.1-0.3-2.3-0.5-3.4
	c-0.2-1.3-0.3-2.6-0.5-4c-0.5-2.6-1-5.3-1.6-8c0,0,0-0.2,0-0.3c2.1,1,4,2.1,5.8,3.1c0.8,0.5,1.3,1.1,1.4,1.9c0.6,0.2,1,0.6,1.3,1
	c0.2-0.2,0.3-0.3,0.5-0.6c0.2,0.5,0.2,1.1,0.3,1.6c0.5,2.7,1,5.3,1.3,7.7c0.2,0.8,0.2,1.4,0.3,2.1c0.2,1.6,0.3,3.2,0.5,4.7
	c0.3,2.1,0.3,4.2,0.5,6C927.7,458.7,927.6,461.3,927.7,463.2z"/>
<path opacity="0.61" fill="#FFFFFF" enable-background="new    " d="M801.3,272.3c-0.2-0.2-0.3-0.2-0.3-0.3c0,0,0,0,0.2,0
	C801.1,272.1,801.1,272.1,801.3,272.3z"/>
<path opacity="0.61" fill="#FFFFFF" enable-background="new    " d="M931.3,411.1c-2.9,2.7-6.6,6.3-10.6,7.4
	c0.8,2.6,1.4,5.1,2.3,7.7c0.6,2.4,1.1,4.7,1.6,6.8c-0.2,0.2-0.3,0.3-0.5,0.6c-0.3-0.5-0.8-0.8-1.3-1c-0.2-0.8-0.5-1.4-1.4-1.9
	c-1.8-1-3.7-2.1-5.8-3.1c-1.3-5.5-2.7-11.4-5-17.7c-0.3-0.8-0.5-1.6-0.8-2.3c0,0-0.2,0-0.2,0.2c-7.1,2.9-14.6,5.6-22.4,6
	c-4.3,0.2-13.2-2.3-11.6-8.4c2.9-11.9,20.3-9.3,30.9-5.8c-1.1-2.9-2.4-5.8-3.9-8.8c-2.1-4.5-4.3-9-6.8-13.5
	c-6.3,2.4-12.5,4.8-19.1,6c-4.7,0.8-12.7-0.6-13-6.6c-0.8-12.5,18-9.2,27.8-6.9c-3.7-6.1-7.7-12.1-11.9-18l0,0
	c-5.8,1.8-20.1,11.4-23,1c-1.3-4.5,1.9-8.4,6-9.7c3.1-1,6.6-0.8,10.1-0.2c-2.3-2.7-4.5-5.5-6.8-8.2c-4.8,2.1-17.5,7.6-17.7-0.6
	c-0.2-3.2,3.2-4.8,6-5.1c2.3-0.3,4.8-0.2,7.1,0.5c-3.4-3.9-6.9-7.6-10.3-11.1c-2.1,2.3-4.8,5-7.9,5.8c-2.6,0.8-5.1-1-6.1-3.2
	c-1-2.1,0.5-5,2.6-5.8c2.7-1,5.1-1.1,7.7-0.3c-3.5-3.5-6.9-6.9-10.3-10c0,0-0.2,0-0.2,0.2c-3.2,0.8-12.7,6.1-14.5,1.1
	c-0.8-2.4,2.6-4,4.3-4.7c2.1-0.6,4.5-0.5,6.6,0c-2.7-2.6-5.3-5-7.9-7.2c-0.2,0.3-0.3,0.6-0.8,0.8c-1.9,0.5-3.4,2.3-5.3,3.1
	c-1.6,0.6-3.9,0.5-4.7-1.4c-0.8-1.8,0.6-3.4,2.3-4c2.1-0.8,4.2-0.6,6.3-0.2l0,0c-0.8-0.8-1.6-1.4-2.4-2.3c-1.4-1.3-2.7-2.4-4-3.5
	c-1.6,1.8-3.9,3.1-6.3,3.4c-1.8,0.3-4-0.2-4.3-2.3c-0.3-2.1,1.8-3.5,3.5-4c1.1-0.2,2.6-0.2,3.9,0.2c-1.9-1.6-3.7-3.2-5.3-4.7
	l-0.2,0.2c-1.1,0.8-2.4,1.4-3.7,1.9h-0.2c-0.5,0.3-1,0.5-1.4,0.8c-1.4,0.6-2.6-0.3-3.1-1.6c-0.5-1.4,0.3-2.7,1.6-3.2
	c0.8-0.3,1.6-0.5,2.6-0.5c0.8,0,1.4,0.3,2.3,0.3c-1-0.8-1.9-1.6-2.7-2.4l-0.2-0.2l0,0c-0.6-0.5-1.3-1.1-1.8-1.6
	c0,0.2-0.2,0.3-0.3,0.5c-1.1,0.3-2.6,1.1-3.9,1.1c-1,0-1.9-0.8-1.8-1.8c0.2-1.1,1.1-1.6,2.1-1.9c0.5-0.2,0.8,0,1.3,0c0,0,0,0,0-0.2
	c-1.3-1.1-2.4-2.1-3.2-2.7c0,0,0,0-0.2,0c-3.1,0.6-7.4,1.6-10.6,1c-1.4-0.3-5.3-1.6-4.7-3.7c1.4-4.8,9.3-1.8,12.4,0.2l0,0
	c0,0,0.2,0.2,0.3,0.3l0,0l0,0c0.3,0.3,0.8,0.6,1.6,1.1l0.2,0.2c0.2,0,0.2,0.2,0.3,0.3c0,0,0.2,0,0.2,0.2c0.8,0.6,1.8,1.3,2.9,2.3
	c0,0,0-0.2-0.2-0.2c-0.2-0.2-0.2-0.5-0.3-0.6c-1.6-3.2-3.7-7.7,0.2-9.3c3.5-1.6,3.1,10.5,3.1,11.9c0,0.2,0,0.3-0.2,0.3
	c0,0,0,0,0,0.2l0,0l0.2,0.2l0,0c0.2,0.2,0.3,0.2,0.3,0.3c0.5,0.3,1,0.8,1.4,1.3c-0.3-1.4-0.2-2.7,0.2-4.2c0.3-1.1,1.3-3.4,2.9-3.1
	c1.8,0.3,1.9,2.1,1.6,3.7c-0.3,1.6-1,4.2-2.6,5h-0.2c1.8,1.4,3.9,3.1,6,4.8c-0.5-1.4,0-3.2,0.3-4.8c0.3-1.8,1.4-4,3.4-4.2
	c1.8-0.2,1.9,2.9,1.8,4c-0.3,2.3-1.8,4.8-3.7,6.1c0,0-0.2,0-0.3,0.2c2.3,1.8,4.5,3.5,6.9,5.6c-0.5-1.6-0.3-3.2,0.2-4.8
	c0.8-2.1,2.9-5,5.5-4.5c2.1,0.3,1.6,4,1.3,5.5c-0.6,2.4-2.1,4.8-4.2,6.1c2.1,1.8,4.2,3.5,6.4,5.3c-0.2-2.7,1.3-5.3,2.9-7.6
	c0.8-1,2.4-1.3,3.4-0.5c1.1,1,1.1,2.4,1,3.9c-0.3,1.8-1.1,3.5-1.9,5c-0.5,0.8-1,1.8-1.6,2.3c2.4,2.1,4.8,4.2,7.4,6.4
	c0-0.2,0-0.3,0-0.6c-0.3-1.4-0.3-2.7,0.2-4.2c0.6-2.1,2.6-3.7,4.8-3.4c2.3,0.3,3.2,3.1,3.2,5c0,2.9-1,6-2.1,8.5
	c2.1,1.9,4.3,4,6.6,6.1c1.1,1,2.1,2.1,3.2,3.1c-0.2-1.8,0.2-3.4,1-5.1c0.8-2.1,3.1-5,5.6-3.7c2.6,1.3,1.9,5.3,1.6,7.6
	c-0.3,1.6-1,5.1-2.4,6.9c2.4,2.4,4.8,4.8,7.1,7.4c0.3,0.3,0.6,0.6,1,1.1c0.2-1.9,0.6-3.9,1.6-6c1-2.1,2.6-5.1,5-6.1
	c1-0.6,2.4-0.6,3.4,0.3c0.2,0.2,0.2,0.3,0.3,0.5c1.4,1.3,1.9,3.5,1.6,5.5c-0.6,4-4.5,8.2-6.9,11.4c3.2,3.7,6.3,7.4,9.3,11.3
	c0.6,0.8,1.3,1.6,1.8,2.4c0.5-3.2,1.8-6.3,3.7-9.2c2.1-3.2,4.7-7.6,8.5-8.5c3.7-1,6,2.9,6.8,5.8c1.1,4.2-0.6,8.5-2.6,12.1
	c-1.8,3.4-4.8,9.2-8.7,10.3l0,0c1.4,2.1,2.9,4.2,4.3,6.3c2.3,3.5,4.3,7.1,6.3,10.5c3.1-9.8,10.6-23.5,20.4-18.8
	c12.7,6.1-6.8,24.9-14,31.1c2.4,5,4.7,9.8,6.4,14.6c2.6-4.2,5.5-8,9-11.4c2.7-2.7,6.6-6.1,10.9-5.1
	C949,391.7,935.6,407.1,931.3,411.1z"/>
<path opacity="0.61" fill="#FFFFFF" enable-background="new    " d="M938.3,436.2c-1.8,2.6-4,4.7-6.8,6.3c-1.3,0.8-3.2,1.8-5.1,2.1
	c-1.3,0.3-2.4,0.3-3.4-0.2c-0.5-0.2-0.8-0.5-1-0.6c-1.1-0.5-1.9-1.6-1.6-3.1c0-0.5,0.2-1.1,0.3-1.6c-1,0.5-2.1,0.8-3.2,1
	c-2.7,0.6-5.6,0.5-8.4,0c-4-0.6-10.6-1.8-10.8-6.8c-0.2-4.2,6.1-6.8,9.3-7.2c2.6-0.3,5.3,0.5,7.7,1.6c2.1,1,4,2.1,5.8,3.1
	c0.8,0.5,1.3,1.1,1.4,1.9c0.6,0.2,1,0.6,1.3,1c0.2-0.2,0.3-0.3,0.5-0.6s0.5-0.5,0.6-0.8c2.4-2.7,4.8-5.8,8.2-7.2
	c2.6-1.1,5.1,0.5,6.6,2.3C942,429.9,939.6,434.1,938.3,436.2z"/>
</svg>
