<?xml version="1.0" encoding="utf-8"?>
<!-- Generator: Adobe Illustrator 18.1.0, SVG Export Plug-In . SVG Version: 6.00 Build 0)  -->
<!DOCTYPE svg PUBLIC "-//W3C//DTD SVG 1.1//EN" "http://www.w3.org/Graphics/SVG/1.1/DTD/svg11.dtd">
<svg version="1.1" id="Layer_1" xmlns="http://www.w3.org/2000/svg" xmlns:xlink="http://www.w3.org/1999/xlink" x="0px" y="0px"
	 viewBox="0 288.2 576 287.8" enable-background="new 0 288.2 576 287.8" xml:space="preserve">
<g id="Layer_1_1_">
	<rect x="2.1" y="284.3" fill="#4F5462" width="930.1" height="293"/>
</g>
<g id="New_Symbol_19_1_">
</g>
<g id="New_Symbol_36_1_">
</g>
<g id="New_Symbol_8_1_">
</g>
<g id="New_Symbol_15_11_">
</g>
<g id="New_Symbol_15_10_">
</g>
<g id="New_Symbol_15_9_">
</g>
<g id="New_Symbol_15_8_">
</g>
<g id="New_Symbol_15_7_">
</g>
<g id="New_Symbol_16_13_">
</g>
<g id="New_Symbol_16_12_">
</g>
<g id="New_Symbol_16_11_">
</g>
<g id="New_Symbol_16_10_">
</g>
<g id="New_Symbol_37_3_">
</g>
<g id="New_Symbol_37_2_">
</g>
<g id="New_Symbol_15_6_">
</g>
<g id="New_Symbol_16_9_">
</g>
<g id="New_Symbol_16_8_">
</g>
<g id="New_Symbol_16_7_">
</g>
<g id="New_Symbol_22_3_">
</g>
<g id="New_Symbol_22_2_">
</g>
<g id="New_Symbol_1_">
</g>
<g opacity="0.61">
	<path fill="#FFFFFF" d="M-44.5,317.5L-44.5,317.5L-44.5,317.5L-44.5,317.5z"/>
	<path fill="#FFFFFF" d="M144,336.3c-0.5,0.2-1.1,0.3-1.9,0.3c-0.1,0-0.2-0.1-0.4-0.1c-0.4,0-0.7-0.2-0.7-0.5
		c0.9,0.1,1.7,0.2,2.6,0.3C143.7,336.2,143.8,336.2,144,336.3z"/>
	<path fill="#FFFFFF" d="M166.5,336.2c-2,0.2-5,0.6-8.9,0.7c-3.8,0.1-8.4-0.2-13.7-0.7c0.5-0.2,1.2-0.5,1.7-1c2-1.4,4-2.9,5.9-4.3
		c2.1-1.7,6.2-5.5,4.1-8.5c-1.8-2.6-4.4-1-5.5,0.9c-2.6,4.3-5.5,8.5-8.8,12.4c0,0.1-0.1,0.2-0.1,0.3c0.9,0.1,1.7,0.2,2.6,0.3
		c0.1,0,0.2,0.1,0.4,0c-0.5,0.2-1.1,0.3-1.9,0.3c-0.1,0-0.2-0.1-0.4-0.1c-0.4,0-0.7-0.2-0.7-0.5c-4.8-0.7-9.9-1.7-15.6-2.8
		c-2.4-0.5-4.8-1-7.3-1.5c1.2-0.7,6.7-4,8.4-5.3c3.1-2.4,7.6-5.8,5-10c-2.2-3.7-6.5,0.8-7.7,2.2c-3.5,4.2-6.1,8.9-11.2,11.9
		l-0.2,0.1c-7.2-1.6-14.8-3.4-22.7-5.4c1.1-0.3,2-0.7,2.8-1.3c2.9-1.7,5.7-3.5,8.4-5.5c3.1-2,8.9-7,5.5-11.1
		c-2.9-3.6-6.7-1.6-8.2,0.8c-3.8,5.6-7.7,10.9-12.5,15.9c0,0.1,0,0.1-0.1,0.2c-1.8-0.5-3.7-1-5.5-1.5c-6.8-1.8-13.7-3.8-20.8-5.9
		c3-0.7,6.3-1.8,9.3-3.2c1.4-0.6,2.7-1.2,4.2-1.6c2-0.7,4-1.4,5.9-2.5c3.7-2.2,9-7.6,6.2-12.2c-3.2-5-9.3-1-11.7,1.3
		c-5.6,4.9-10.7,12.4-18,16c-0.3,0.1-0.5,0.2-0.6,0.4l0,0c-6.5-1.9-13-3.9-19.7-5.6c13.2-5.8,28.2-15.3,26.9-28.7
		c-0.1-1-1.4-2.4-2.8-2c-6.8,1.8-10.4,7.2-14.5,11.7c-5.6,6.2-11.8,12-19,16.8c-3.4-0.8-6.9-1.5-10.4-2c-4.5-0.8-9-1.2-13.6-1.5
		c-0.4,0-0.6,0-0.9-0.1c0.8-0.5,1.4-1.1,2.3-1.6c4.6-3.8,9.2-7.9,13.6-11.8c5-4.4,14.2-14.9,8.5-22.2c-5-6.5-11-1.9-13.5,2.9
		c-5.8,11.2-12.3,22-19.8,32.4c0,0.1-0.1,0.2-0.1,0.3c-1.1,0-2.1,0.1-3.2,0.2c-2.7,0.3-5.4,0.6-8.2,1.1c4.9-5.3,9.1-11.3,11.2-18
		c2-6.8,2.7-15.6-4.1-21.5c-2.4-2.1-5.5-2.4-7.9-1c-2.9,1.6-2.7,6-3,8.6c-1.4,11.1-2.6,24.3-6.9,34.7c-2.7,0.8-5.2,1.9-7.6,2.9
		c2-8.9,1.6-18.2-1.2-27.6c-0.5-1.7-2.9-2.1-4.3-1.6c-5.1,1.8-4.9,9.1-5.1,13.4c-0.5,7.6-0.1,15.2-2,22.6c-1.3,0.8-2.6,1.7-3.9,2.6
		c-2.6,1.9-5.2,3.8-7.6,5.8c-0.3,0.2-0.5,0.5-0.8,0.6c-0.3-7-0.5-14.6-5.4-20.6c-4.3-5.4-13.1-12.9-21.2-11.6
		c-8.2,1.2,1.1,9.9,3.7,13c6.8,8,11.9,16.7,15.6,25.9c-1.4,1.4-2.7,2.7-3.8,3.9c-3.3,3.5-6,6.6-8.2,9.3c-2.2,2.6-3.9,4.8-5,6.1
		c0,0.1-0.2,0.1-0.2,0.2c-0.8,1.1-0.4,2.6,0.9,3.5l1.5,0.9c1.3,0.8,3.1,0.6,3.9-0.4c0-0.1,0.2-0.1,0.2-0.2c1-1.4,2.6-3.5,4.6-6.2
		c1.3-1.6,2.7-3.3,4.2-5.2c7.9,2.7,15.7,5.4,23.7,8c4.1,1.3,8.1,2.9,12.4,3.8c1.8,0.4,3.4-0.4,3.8-1.8c1.4-4.2-9.5-7.9-12.5-9.3
		c-7.1-3-14.9-4.8-22.4-6.3c2.5-2.7,5.2-5.5,8.5-8.5c0.4,0.2,0.9,0.4,1.3,0.3c12.8,1.1,25.1,4.9,37.4,8.5c3.7,1.1,20.8,6.5,20.6-0.2
		c0-2.6-3-3.8-5.4-4.9c-5.6-2.4-11.3-4.1-17.2-5.7c-10.4-2.5-21-3.2-31.2-2.8c0,0-0.1,0-0.2,0.1c1-0.7,1.9-1.4,2.9-2.2
		c2.6-1.8,5.2-3.7,8.2-5.4c0.3-0.2,0.7-0.4,1-0.6c7.8,1.6,16.3,4.2,23.4,6.3c7.6,2.2,15.7,5.5,23.6,4.8c1.2-0.1,2-1.4,1.4-2.4
		c-3.5-6-12.5-8-19.1-9.8c-4.5-1.1-14.8-2.5-20.5-3.1c3.3-1.4,6.7-2.7,10.3-3.6c3.7-1,7.6-1.8,11.7-2.2c1-0.1,2.1-0.2,3.1-0.3
		c0,0,0.1,0,0.2-0.1c2.5,1.7,4.6,3.9,6.9,6c3.3,2.9,6.8,5.4,10.2,8.1c3.5,2.8,6.9,5.4,10.4,8.3c1.6,1.2,3.2,3,5.3,2.5
		c0.3-0.1,0.5-0.5,0.6-0.7c2.1-5.7-4.7-11.2-7.6-13.8c-5.5-4.9-12.5-7.5-18.9-10.6c0.7,0,1.5,0,2.3,0.1c3.1,0.1,6.3,0.3,9.6,0.7l0,0
		c2.9,1.7,5.6,3.4,8.6,5c2.9,2.3,5.5,5,8.1,7.4c3.6,3.2,7.5,6.1,11.3,8.9c7.4,5.4,15.4,11.8,24.9,13.6c1.2,0.2,2.2-0.7,2.1-1.7
		c-0.4-6.7-10.8-12.8-16.6-16.8c-6.4-4.5-13.4-9.3-20.7-12.8c0.3-0.1,0.5-0.2,0.8-0.2c8.1,1.8,16,4,23.9,6.1
		c0.4,0.1,0.9,0.3,1.3,0.3l0,0c0.5,0.3,1.2,0.8,2.2,1.4c2.2,1.3,4.2,2.5,6.2,3.9l0,0c2.6,2.2,4.9,4.6,7.2,7c3.5,3.3,6.9,6.7,10.4,10
		c3.3,3.1,9.2,10,14.5,7.8c3.8-1.6-1.6-9.3-3.1-11.1c-5.2-5.7-12-10-18.7-14c1.9,0.5,3.7,0.9,5.6,1.4c3.2,0.8,6.5,1.6,9.5,2.2
		c0.4,0.3,1.2,0.8,2.8,1.4c8.7,3.5,16.5,8.5,24.5,13.2c1.7,0.9,12.7,7.9,14.4,5.1c2.7-4.1-16.2-12.1-27.4-16.5
		c7.5,1.6,14.8,3,21.5,4.3c0.8,0.1,1.5,0.3,2.3,0.4l0,0l0.1,0c2.3,1.1,4.4,2.7,6.5,4.1c2.4,1.6,5.1,3.1,7.5,4.6
		c2.5,1.6,5.2,3.2,7.7,4.8c1.2,0.7,2.4,1.7,3.9,1.6c0.2,0,0.3-0.2,0.3-0.3c1.1-2.6-4-5.8-6.1-7.3c-4.3-2.9-9.3-4.7-14.2-6.7
		c3.6,0.5,7,1.1,10.2,1.3c5.4,0.5,10.2,0.6,14.1,0.5C161.6,337.1,164.5,336.7,166.5,336.2c1.1-0.1,1.9-0.4,2.5-0.4
		C168.4,335.8,167.7,336,166.5,336.2z M-44.6,317.4L-44.6,317.4C-44.5,317.5-44.5,317.5-44.6,317.4
		C-44.5,317.5-44.5,317.5-44.6,317.4z M-7.8,304.8c0.2,0.2,0.5,0.3,0.7,0.4C-7.4,305-7.6,304.9-7.8,304.8z M57.3,316.9
		c0.2-0.1,0.4-0.1,0.5-0.2C57.8,316.9,57.5,316.9,57.3,316.9z"/>
	<path fill="#FFFFFF" d="M-7.1,305.1c-0.2-0.1-0.5-0.3-0.7-0.4C-7.6,304.9-7.4,305-7.1,305.1z"/>
	<path fill="#FFFFFF" d="M-7.1,305.1c-0.2-0.1-0.5-0.3-0.7-0.4C-7.6,304.9-7.4,305-7.1,305.1z"/>
</g>
<path opacity="0.61" fill="#FFFFFF" enable-background="new    " d="M10.3,360.2L10.3,360.2L10.3,360.2L10.3,360.2z"/>
<path opacity="0.61" fill="#FFFFFF" enable-background="new    " d="M145.3,307c-0.2,0.2-0.3,0.3-0.6,0.5
	C145,307.4,145.1,307.2,145.3,307z"/>
<g opacity="0.61">
	<path fill="#FFFFFF" d="M481.2,513L481.2,513l2.3-2.4c5.5,5.1,5,14.7-1.3,21.5c-6.1,6.6-15.9,7.9-21.3,2.7l2.3-2.4l0,0l-3.2,3.5
		c6.1,5.6,16.5,4.3,23.3-2.9c6.8-7.2,7.2-17.8,1.3-23.4L481.2,513z"/>
	<path fill="#FFFFFF" d="M482.9,511.3c5.1,4.7,4.5,13.8-1.4,20.1c-5.8,6.3-14.9,7.6-19.9,2.9L482.9,511.3z"/>
</g>
<circle opacity="0.61" fill="#FFFFFF" enable-background="new    " cx="26.5" cy="395.3" r="2.7"/>
<circle opacity="0.61" fill="#FFFFFF" enable-background="new    " cx="-9" cy="367.7" r="2.7"/>
<circle opacity="0.61" fill="#FFFFFF" enable-background="new    " cx="119.7" cy="302.1" r="2.7"/>
<circle opacity="0.61" fill="#FFFFFF" enable-background="new    " cx="11.6" cy="418.4" r="1.6"/>
<circle opacity="0.61" fill="#FFFFFF" enable-background="new    " cx="-23.7" cy="372.4" r="1.1"/>
<circle opacity="0.61" fill="#FFFFFF" enable-background="new    " cx="502.7" cy="552" r="1.1"/>
<circle opacity="0.61" fill="#FFFFFF" enable-background="new    " cx="568" cy="488.3" r="1.1"/>
<circle opacity="0.61" fill="#FFFFFF" enable-background="new    " cx="516.4" cy="452.3" r="1.1"/>
<circle opacity="0.61" fill="#FFFFFF" enable-background="new    " cx="567.8" cy="459.4" r="1"/>
<circle opacity="0.61" fill="#FFFFFF" enable-background="new    " cx="531.5" cy="402" r="1"/>
<circle opacity="0.61" fill="#FFFFFF" enable-background="new    " cx="484.5" cy="572.1" r="1"/>
<circle opacity="0.61" fill="#FFFFFF" enable-background="new    " cx="514" cy="567.1" r="2.1"/>
<circle opacity="0.61" fill="#FFFFFF" enable-background="new    " cx="552.3" cy="475.8" r="2.1"/>
<circle opacity="0.61" fill="#FFFFFF" enable-background="new    " cx="547.7" cy="409.9" r="2.1"/>
<circle opacity="0.61" fill="#FFFFFF" enable-background="new    " cx="82.4" cy="362.9" r="1.1"/>
<circle opacity="0.61" fill="#FFFFFF" enable-background="new    " cx="32.4" cy="372.7" r="1.1"/>
<circle opacity="0.61" fill="#FFFFFF" enable-background="new    " cx="66" cy="366.8" r="1.1"/>
<circle opacity="0.61" fill="#FFFFFF" enable-background="new    " cx="78.9" cy="382.7" r="1.1"/>
<circle opacity="0.61" fill="#FFFFFF" enable-background="new    " cx="137.5" cy="303.2" r="1.1"/>
<circle opacity="0.61" fill="#FFFFFF" enable-background="new    " cx="33.5" cy="348.5" r="1.1"/>
<g id="New_Symbol_8">
</g>
<path opacity="0.61" fill="#FFFFFF" enable-background="new    " d="M511.8,420.2c2.4,0.2,4,1.8,4.2,3.5c0,0.2,0,0.2-0.2,0.2
	c0,0.2,0,0.2,0,0.3c-1.3,1.3-3.1,1.8-5,1.6c-2.4-0.2-4.2-2.4-5.8-3.5c-0.2-0.2-0.2-0.3,0-0.5C507.1,420.6,509.2,420,511.8,420.2z"/>
<path opacity="0.61" fill="#FFFFFF" enable-background="new    " d="M540.2,445.8c-1.3-2.7-0.6-5.6,1.1-7.1c0.2-0.2,0.2-0.2,0.3,0
	c0.2-0.2,0.2-0.2,0.3-0.2c2.3,0.5,4,2.1,5.1,4.5c1.4,2.9,0.2,6.1-0.2,8.7c0,0.3-0.3,0.5-0.6,0.3
	C543.7,450.7,541.5,448.9,540.2,445.8z"/>
<g opacity="0.61">
	<path fill="#FFFFFF" d="M94.4,379.7c0.5,1.4-1.8,2.1-2.3,0.6C91.9,378.9,94.1,378.2,94.4,379.7L94.4,379.7z"/>
</g>
<path opacity="0.61" fill="#FFFFFF" enable-background="new    " d="M542.8,427.6c-1.3-2.1-4.7-3.1-6.8-3.7c1-1,2.9-2.9,3.4-4.3
	c0.5-1.8-0.5-3.9-1.9-5c-3.2-2.4-5.6,1.8-7.1,5.6c-2.4-2.9-5.8-5.5-8-1.3c-1.3,2.4,0,4.8,2.3,6.6c-1.4,0.8-2.9,1.8-4.2,3.1
	c-1,0.8-0.6,2.4,0.2,3.1c2.6,2.4,5.5,1.4,7.9-0.3c-0.3,1.8-0.2,2.7,0.2,4.7c0.3,1.8,3.2,3.1,4.7,1.3c2.1-2.7,1.4-4.3,1.3-7.4
	c2.4,1.3,5,1.9,7.6,0.5C543.2,430,543.4,428.5,542.8,427.6z M532.1,426.9c0.8,0.6,1.8,1.8,0.8,2.3c-0.3,0.3-1,0.3-1.4,0
	c-0.3-0.2-0.6-1-0.8-1.3c-0.3,0.5-1,1.3-1.6,1.4c-0.3,0-0.6-0.2-0.6-0.5c-0.2-0.8,0.3-1.4,0.8-1.9c-0.8-0.3-1.3-0.2-1.8-1
	c-0.3-0.5,0.3-1.1,0.8-1.1c0.5,0.2,0.8,0.2,1.1,0.5c-0.2-0.8-0.2-1.6,0.6-2.1c0.3-0.2,0.6,0,0.8,0.3c0.2,0.5,0.3,1,0.3,1.3
	c0.6-0.3,1.4-0.5,1.9,0C534.1,425.9,533.1,426.6,532.1,426.9z"/>
<g opacity="0.61">
	<path fill="#FFFFFF" d="M531.6,426.1c0.5,1.4-1.8,2.1-2.3,0.6C529.1,425.3,531.3,424.7,531.6,426.1L531.6,426.1z"/>
</g>
<g opacity="0.61">
	<path fill="#FFFFFF" d="M74.9,348.5c0.8,0.2,0.6,1.4-0.2,1.3C74,349.7,74.1,348.3,74.9,348.5L74.9,348.5z"/>
</g>
<g id="New_Symbol_15">
</g>
<g id="New_Symbol_16_2_">
</g>
<g id="New_Symbol_16_1_">
</g>
<g id="New_Symbol_16">
</g>
<g opacity="0.61">
	<path fill="#FFFFFF" d="M23.5,364.3c-0.5-0.6-1-1.1-1.4-1.6c0.2-0.2,0.3-0.3,0.5-0.5c1.6-1.3,3.2-5,0.5-6.3c-1.6-0.6-3.2-0.6-4.7,0
		c-0.5-1.3-1.3-2.6-2.4-3.1c-1.4-0.8-3.7-0.3-4.2,1.4c-0.2,1-0.2,1.9,0,2.9h-0.2c-1.9-0.2-4.8,0.5-5.8,2.3c-1,1.8,0.8,3.9,2.1,4.8
		c0.8,0.6,1.9,1,2.9,1.1c-1.3,2.6-1.9,5.8,0.8,7.1c1.4,0.6,2.6,0.6,4-0.3c0.6-0.3,1.1-1.1,1.4-1.6c0.3-0.5,0.5-1.4,0.8-2.3
		c1.1,1,2.6,1.4,4,1.6C25.3,370.3,24.6,366.1,23.5,364.3z M18.8,365.6c-0.5-0.3-1-0.8-1.4-1.1c-0.3-0.3-0.8-0.5-1.1-0.8
		c-0.2,0.5-0.5,0.8-0.6,1.3c-0.3,0.6-0.6,1.4-1,2.1c-0.6,0.8-2.1,0-1.4-1c0.5-0.6,0.6-1.4,1-2.1c0.3-0.5,0.5-1,0.8-1.4
		c-1.1,0-2.3,0.3-3.4,0.3c-1.1,0.2-1-1.6,0-1.8c1.1-0.2,2.4-0.3,3.5-0.3c-0.3-0.8-0.6-1.6-0.8-2.6c-0.2-1.1,1.4-1.4,1.6-0.3
		c0.2,1,0.6,1.9,1,2.7c0.8-0.5,1.4-1,2.1-1.6c0.8-0.8,1.9,0.5,1.1,1.3s-1.8,1.4-2.7,1.9c0.2,0.2,0.5,0.3,0.6,0.5
		c0.5,0.5,1,1,1.6,1.3C20.8,364.8,19.7,366.2,18.8,365.6z"/>
	<path fill="#FFFFFF" d="M17.8,363.5c0.2-0.2,0.3-0.5,0.5-0.6c0.3-0.3,0.3-0.8,0.2-1.3c-0.2-0.3-0.2-0.6-0.3-0.8
		c-0.2-0.5-0.6-0.6-1.1-0.8c-0.2,0-0.3,0-0.5,0l0,0c-0.2,0-0.3,0-0.5,0.2l0,0c-0.3,0-0.6,0.2-1,0.3c-0.8,0.5-1,1.4-0.8,2.3
		c0.2,0.8,0.6,1.4,1.4,1.6C16.3,364.3,17.1,364.1,17.8,363.5z"/>
</g>
<g opacity="0.61">
	<path fill="#FFFFFF" d="M-0.4,394.3c0.5-0.2,0.8-0.5,1.1-0.8c0.2,0.2,0.2,0.3,0.3,0.3c0.8,1.1,3.1,2.4,4,0.6c0.5-1,0.6-2.1,0.3-3.1
		c1-0.3,1.8-0.6,2.3-1.4c0.6-1,0.5-2.4-0.6-2.7C6.4,387,5.7,387,5.2,387l0,0c0.2-1.3,0-3.2-1.1-3.9c-1.1-0.8-2.6,0.3-3.2,1.1
		c-0.5,0.5-0.8,1.1-1,1.8c-1.6-1-3.5-1.6-4.7,0.2c-0.5,1-0.5,1.6,0,2.6c0.2,0.5,0.6,0.8,1,1.1c0.3,0.2,1,0.5,1.4,0.6
		c-0.6,0.6-1.1,1.6-1.3,2.4C-4.4,395-1.7,395-0.4,394.3z M-1,391.1c0.2-0.3,0.5-0.5,0.8-0.8c0.2-0.2,0.3-0.5,0.5-0.6
		c-0.3-0.2-0.5-0.3-0.8-0.5c-0.5-0.3-1-0.5-1.3-0.8c-0.5-0.5,0.2-1.4,0.6-1c0.3,0.3,0.8,0.5,1.3,0.8c0.3,0.2,0.6,0.5,0.8,0.6
		c0-0.8,0-1.4,0-2.3c0-0.6,1.1-0.6,1.1,0.2s0.2,1.6,0,2.3c0.6-0.2,1.1-0.3,1.8-0.5c0.6-0.2,0.8,1,0.2,1.1c-0.6,0-1.3,0.3-1.9,0.5
		c0.2,0.5,0.5,1,0.8,1.4c0.5,0.6-0.5,1.3-1,0.6c-0.5-0.6-0.8-1.1-1.1-1.8c-0.2,0.2-0.2,0.3-0.3,0.3c-0.3,0.3-0.6,0.6-1,1
		C-0.6,392.4-1.4,391.8-1,391.1z"/>
	<path fill="#FFFFFF" d="M0.4,390.6c0.2,0.2,0.3,0.2,0.5,0.3c0.2,0.2,0.5,0.3,0.8,0.2c0.2,0,0.3-0.2,0.6-0.2
		c0.3-0.2,0.5-0.3,0.6-0.6c0-0.2,0-0.2,0-0.3l0,0c0-0.2,0-0.2,0-0.3l0,0c0-0.2,0-0.5-0.2-0.6c-0.3-0.5-0.8-0.6-1.4-0.6
		c-0.5,0-1,0.3-1.1,0.8C0.1,389.7,0.1,390.2,0.4,390.6z"/>
</g>
<g opacity="0.61">
	<path fill="#FFFFFF" d="M40.1,358.5c0.2,0.5,0.5,0.8,0.8,1.1c-0.2,0-0.3,0.2-0.3,0.2c-1.1,0.6-2.7,2.7-1.1,4c1,0.6,1.9,0.8,3.1,0.6
		c0.2,1,0.5,1.8,1.1,2.3c0.8,0.6,2.4,0.6,2.9-0.5c0.3-0.6,0.3-1.1,0.3-1.8l0,0c1.3,0.3,3.1,0.3,4-0.8c0.8-1.1,0-2.6-0.8-3.4
		c-0.5-0.5-1.1-1-1.8-1.1c1.1-1.4,1.9-3.4,0.3-4.7c-0.8-0.6-1.6-0.6-2.6-0.3c-0.5,0.2-0.8,0.5-1.1,0.8c-0.3,0.3-0.5,1-0.8,1.3
		c-0.6-0.8-1.4-1.3-2.4-1.4C39.8,354.5,39.6,357.2,40.1,358.5z M43.3,358.2c0.3,0.3,0.5,0.6,0.8,1c0.2,0.2,0.5,0.5,0.6,0.6
		c0.2-0.2,0.3-0.5,0.6-0.6c0.3-0.3,0.6-0.8,1-1.1c0.5-0.5,1.3,0.3,0.8,0.8c-0.3,0.3-0.6,0.8-1,1.1c-0.2,0.3-0.5,0.5-0.6,0.8
		c0.6,0.2,1.4,0.2,2.3,0.2c0.6,0.2,0.5,1.1-0.3,1.1c-0.8-0.2-1.6,0-2.3-0.2c0,0.6,0.2,1.1,0.2,1.8c0,0.6-1.1,0.8-1.1,0
		c0-0.6-0.2-1.3-0.3-1.9c-0.5,0.2-1,0.5-1.4,0.6c-0.6,0.3-1.1-0.6-0.6-1c0.6-0.3,1.3-0.6,1.9-1c-0.2-0.2-0.3-0.2-0.3-0.3
		c-0.3-0.3-0.5-0.8-0.8-1C42,358.5,42.8,357.7,43.3,358.2z"/>
	<path fill="#FFFFFF" d="M43.6,359.8c-0.2,0.2-0.3,0.2-0.3,0.3c-0.2,0.2-0.3,0.5-0.3,0.8c0,0.2,0,0.5,0.2,0.6
		c0.2,0.3,0.3,0.5,0.6,0.6c0.2,0,0.2,0,0.3,0.2l0,0c0.2,0,0.2,0,0.3,0l0,0c0.2,0,0.5,0,0.6-0.2c0.5-0.2,0.8-0.8,0.8-1.3
		s-0.2-1-0.6-1.3C44.6,359.5,44.1,359.5,43.6,359.8z"/>
</g>
<g opacity="0.61">
	<path fill="#FFFFFF" d="M473.1,486c-0.8,0-1.4,0.2-2.1,0.5c0-0.3,0-0.5-0.2-0.6c-0.3-2.1-2.4-5.5-5-3.7c-1.4,1-2.3,2.4-2.4,4
		c-1.4-0.3-2.9-0.3-3.9,0.3c-1.4,0.8-2.3,3.1-1,4.3c0.6,0.6,1.4,1.1,2.4,1.4c0,0,0,0-0.2,0.2c-1.1,1.6-2.3,4.3-1.1,6.1
		c1,1.8,3.7,1.4,5.1,0.8c1-0.3,1.9-1,2.6-1.8c1.4,2.4,3.7,4.7,6.4,3.1c1.4-0.8,1.9-1.9,1.9-3.5c0-0.6-0.3-1.4-0.6-2.1
		c-0.3-0.5-1-1.3-1.4-1.9c1.4-0.5,2.7-1.3,3.5-2.4C478.9,487.8,475.2,486,473.1,486z M471.7,490.7c-0.5,0.3-1.1,0.3-1.8,0.5
		c-0.5,0.2-0.8,0.3-1.3,0.5c0.2,0.5,0.5,0.8,0.6,1.3c0.3,0.6,1,1.3,1.1,1.9c0.3,1-1.1,1.8-1.6,0.8c-0.3-0.6-0.8-1.3-1.1-1.9
		c-0.3-0.5-0.5-1-0.8-1.4c-0.6,1-1,2.1-1.4,3.1c-0.5,1-1.9,0-1.4-1c0.5-1,1-2.1,1.6-3.2c-0.8-0.2-1.8-0.3-2.6-0.6
		c-1-0.3-0.5-1.9,0.6-1.6c1,0.3,1.9,0.5,2.9,0.6c0-0.8,0-1.6-0.2-2.6c-0.2-1.1,1.4-1.4,1.6-0.3s0.3,2.3,0.2,3.2
		c0.2-0.2,0.5-0.2,0.6-0.3c0.6-0.3,1.3-0.3,1.9-0.6C472,488.6,472.6,490.2,471.7,490.7z"/>
	<path fill="#FFFFFF" d="M469.3,490.4c0-0.3-0.2-0.5-0.3-0.6c-0.2-0.3-0.5-0.8-1-0.8c-0.3-0.2-0.6-0.2-1-0.2c-0.5,0-1,0.2-1.3,0.5
		c-0.2,0.2-0.2,0.2-0.3,0.3l0,0c-0.2,0.2-0.2,0.3-0.2,0.5l0,0c-0.2,0.3-0.2,0.6-0.2,1c0,1,0.6,1.6,1.4,1.9s1.6,0.3,2.1-0.3
		C469.3,492,469.4,491.2,469.3,490.4z"/>
</g>
<g opacity="0.61">
	<path fill="#FFFFFF" d="M449.2,513.6c0,0.5,0.2,0.8,0.3,1.3c-0.2,0-0.3,0-0.3,0.2c-1.1,0.3-3.1,1.8-1.9,3.2
		c0.6,0.8,1.6,1.1,2.4,1.3c-0.2,0.8,0,1.8,0.5,2.3c0.5,0.8,1.9,1.1,2.6,0.3c0.3-0.5,0.6-1,0.8-1.4l0,0c1,0.6,2.6,1.1,3.7,0.3
		c1-0.6,0.6-2.3,0.2-3.1c-0.3-0.6-0.6-1-1.1-1.4c1.3-1,2.6-2.4,1.4-3.9c-0.6-0.8-1.3-1-2.1-1c-0.5,0-0.8,0.3-1.3,0.5
		c-0.3,0.2-0.6,0.6-1,1c-0.3-0.8-1-1.4-1.6-1.9C449.9,510,449,512.2,449.2,513.6z M451.9,514.1c0.2,0.3,0.3,0.6,0.5,1
		c0.2,0.2,0.3,0.5,0.3,0.6c0.2-0.2,0.5-0.3,0.6-0.5c0.3-0.3,0.6-0.6,1.1-0.8c0.6-0.3,1.1,0.6,0.5,0.8c-0.3,0.2-0.8,0.5-1.1,0.8
		c-0.3,0.2-0.5,0.3-0.8,0.5c0.6,0.3,1.3,0.5,1.8,0.6c0.6,0.3,0.2,1.1-0.5,0.8c-0.6-0.3-1.3-0.5-1.9-0.8c-0.2,0.5-0.2,1.1-0.2,1.6
		c-0.2,0.6-1.1,0.3-1-0.3c0.2-0.5,0.2-1.1,0.3-1.8c-0.5,0-1,0.2-1.4,0.3c-0.6,0.2-1-0.8-0.3-1c0.6-0.2,1.3-0.3,1.9-0.3
		c-0.2-0.2-0.2-0.3-0.2-0.3c-0.2-0.3-0.3-0.8-0.5-1.1C450.8,514.1,451.6,513.6,451.9,514.1z"/>
	<path fill="#FFFFFF" d="M451.9,515.6c-0.2,0-0.3,0.2-0.3,0.2c-0.2,0.2-0.3,0.3-0.5,0.6c0,0.2,0,0.3,0,0.5c0,0.3,0.2,0.5,0.3,0.8
		l0.2,0.2l0,0c0,0,0.2,0,0.3,0.2l0,0c0.2,0,0.3,0.2,0.6,0c0.5,0,0.8-0.5,1-1s0-1-0.3-1.3C452.7,515.6,452.4,515.4,451.9,515.6z"/>
</g>
<path opacity="0.61" fill="#FFFFFF" enable-background="new    " d="M456.5,460.2c-1.6-0.3-3.1-1-4.5-1.4c-0.6-0.2-1.1-0.3-1.8-0.3
	c1.6-1.9,3.1-4,4-6.4c1.1-2.3-2.6-4-3.5-1.6c-0.8,1.8-1.8,3.4-3.1,5c-1.4-1.8-3.1-3.2-4.3-5.1c-1.4-2.1-4.7,0.2-3.2,2.3
	c1.1,1.8,2.7,3.2,4,4.8c-2.6,1-4.8,2.6-7.2,3.9c-2.3,1.1-1,4.8,1.3,3.7c2.3-1.1,4.5-2.6,6.8-3.7c0,1.3-0.3,2.4-0.5,3.7
	c-0.3,1.8,0,3.7-0.5,5.3c-0.6,2.4,3.2,3.1,3.9,0.6c0.5-1.6,0.2-3.5,0.5-5.3c0.2-1.1,0.3-2.1,0.3-3.2c1,0.2,2.1,0.3,3.1,0.6
	c1.3,0.3,2.6,1,3.9,1.3C458.3,464.5,459,460.6,456.5,460.2z"/>
<path opacity="0.61" fill="#FFFFFF" enable-background="new    " d="M439.7,560.1c0-1.1,0.2-2.3,0.3-3.4c0-0.5,0-0.8,0-1.3
	c1.6,0.8,3.4,1.4,5.1,1.8c1.8,0.3,2.4-2.4,0.6-2.7c-1.4-0.3-2.7-0.8-3.9-1.3c1-1.3,1.8-2.7,2.9-3.9c1.3-1.3-0.8-3.2-2.1-1.9
	c-1,1.1-1.8,2.4-2.7,3.5c-1.1-1.6-2.6-2.9-3.7-4.3c-1.1-1.4-3.5,0.2-2.4,1.4c1.1,1.4,2.6,2.7,3.5,4.2c-0.8,0.2-1.8,0.2-2.7,0.3
	c-1.3,0.2-2.6,0.5-3.7,0.5c-1.8,0-1.6,2.7,0.2,2.7c1.3,0,2.6-0.5,3.7-0.5c0.8,0,1.6-0.2,2.3-0.2c0,0.8,0.2,1.4,0,2.3
	c0,1-0.3,1.9-0.3,2.9C437,562,439.7,561.8,439.7,560.1z"/>
<path opacity="0.61" fill="#FFFFFF" enable-background="new    " d="M414.5,526.3c1.3,0,2.7,0.3,4,0.5c0.5,0,1,0,1.4,0
	c-1,1.9-1.8,4-2.3,6.1c-0.5,2.1,2.7,2.9,3.4,0.8c0.3-1.6,1-3.2,1.8-4.7c1.4,1.3,3.2,2.3,4.7,3.5c1.6,1.6,3.9-1,2.4-2.4
	c-1.3-1.3-2.9-2.3-4.3-3.4c1.9-1.3,3.5-3.1,5.5-4.5c1.8-1.3,0-4.2-1.8-2.9c-1.8,1.3-3.4,3.1-5.1,4.2c-0.2-1.1-0.2-2.1-0.3-3.2
	c0-1.4-0.6-3.1-0.5-4.5c0.2-2.3-3.2-2.1-3.4,0.2c-0.2,1.4,0.5,3.1,0.5,4.5c0,1,0.2,1.9,0.2,2.7c-0.8,0-1.8,0-2.7,0
	c-1.1,0-2.3-0.5-3.5-0.3C412.3,523,412.4,526.3,414.5,526.3z"/>
<path opacity="0.61" fill="#FFFFFF" enable-background="new    " d="M582.4,622.5L582.4,622.5c0,1.6-1.3,2.7-2.7,2.7h-3.5
	c-1.4,0-2.7-1.3-2.7-2.7l0,0c0-1.8,0.3-4.7,0-7.7c0-1.6,0-3.4-0.2-5.5c-0.2-1.9-0.3-4.2-0.5-6.4c-0.2-1.1-0.3-2.3-0.5-3.4
	c-0.2-1.3-0.3-2.6-0.5-4c-0.5-2.6-1-5.3-1.6-8c0,0,0-0.2,0-0.3c2.1,1,4,2.1,5.8,3.1c0.8,0.5,1.3,1.1,1.4,1.9c0.6,0.2,1,0.6,1.3,1
	c0.2-0.2,0.3-0.3,0.5-0.6c0.2,0.5,0.2,1.1,0.3,1.6c0.5,2.7,1,5.3,1.3,7.7c0.2,0.8,0.2,1.4,0.3,2.1c0.2,1.6,0.3,3.2,0.5,4.7
	c0.3,2.1,0.3,4.2,0.5,6C582.4,618,582.3,620.6,582.4,622.5z"/>
<path opacity="0.61" fill="#FFFFFF" enable-background="new    " d="M455.6,430.8c-0.2-0.2-0.3-0.2-0.3-0.3c0,0,0,0,0.2,0
	C455.4,430.7,455.4,430.7,455.6,430.8z"/>
<path opacity="0.61" fill="#FFFFFF" enable-background="new    " d="M586,570.3c-2.9,2.7-6.6,6.3-10.6,7.4c0.8,2.6,1.4,5.1,2.3,7.7
	c0.6,2.4,1.1,4.7,1.6,6.8c-0.2,0.2-0.3,0.3-0.5,0.6c-0.3-0.5-0.8-0.8-1.3-1c-0.2-0.8-0.5-1.4-1.4-1.9c-1.8-1-3.7-2.1-5.8-3.1
	c-1.3-5.5-2.7-11.4-5-17.8c-0.3-0.8-0.5-1.6-0.8-2.3c0,0-0.2,0-0.2,0.2c-7.1,2.9-14.7,5.6-22.5,6c-4.3,0.2-13.2-2.3-11.6-8.4
	c2.9-11.9,20.4-9.3,31-5.8c-1.1-2.9-2.4-5.8-3.9-8.8c-2.1-4.5-4.3-9-6.8-13.5c-6.3,2.4-12.5,4.8-19.2,6c-4.7,0.8-12.7-0.6-13-6.6
	c-0.8-12.5,18.1-9.2,27.9-6.9c-3.7-6.1-7.7-12.1-11.9-18.1l0,0c-5.8,1.8-20.2,11.4-23.1,1c-1.3-4.5,1.9-8.4,6-9.7
	c3.1-1,6.6-0.8,10.1-0.2c-2.3-2.7-4.5-5.5-6.8-8.2c-4.8,2.1-17.6,7.6-17.8-0.6c-0.2-3.2,3.2-4.8,6-5.1c2.3-0.3,4.8-0.2,7.1,0.5
	c-3.4-3.9-6.9-7.6-10.3-11.1c-2.1,2.3-4.8,5-7.9,5.8c-2.6,0.8-5.1-1-6.1-3.2c-1-2.1,0.5-5,2.6-5.8c2.7-1,5.1-1.1,7.7-0.3
	c-3.5-3.5-6.9-6.9-10.3-10c0,0-0.2,0-0.2,0.2c-3.2,0.8-12.7,6.1-14.6,1.1c-0.8-2.4,2.6-4,4.3-4.7c2.1-0.6,4.5-0.5,6.6,0
	c-2.7-2.6-5.3-5-7.9-7.2c-0.2,0.3-0.3,0.6-0.8,0.8c-1.9,0.5-3.4,2.3-5.3,3.1c-1.6,0.6-3.9,0.5-4.7-1.4c-0.8-1.8,0.6-3.4,2.3-4
	c2.1-0.8,4.2-0.6,6.3-0.2l0,0c-0.8-0.8-1.6-1.4-2.4-2.3c-1.4-1.3-2.7-2.4-4-3.5c-1.6,1.8-3.9,3.1-6.3,3.4c-1.8,0.3-4-0.2-4.3-2.3
	c-0.3-2.1,1.8-3.5,3.5-4c1.1-0.2,2.6-0.2,3.9,0.2c-1.9-1.6-3.7-3.2-5.3-4.7l-0.2,0.2c-1.1,0.8-2.4,1.4-3.7,1.9h-0.2
	c-0.5,0.3-1,0.5-1.4,0.8c-1.4,0.6-2.6-0.3-3.1-1.6c-0.5-1.4,0.3-2.7,1.6-3.2c0.8-0.3,1.6-0.5,2.6-0.5c0.8,0,1.4,0.3,2.3,0.3
	c-1-0.8-1.9-1.6-2.7-2.4l-0.2-0.2l0,0c-0.6-0.5-1.3-1.1-1.8-1.6c0,0.2-0.2,0.3-0.3,0.5c-1.1,0.3-2.6,1.1-3.9,1.1
	c-1,0-1.9-0.8-1.8-1.8c0.2-1.1,1.1-1.6,2.1-1.9c0.5-0.2,0.8,0,1.3,0c0,0,0,0,0-0.2c-1.3-1.1-2.4-2.1-3.2-2.7c0,0,0,0-0.2,0
	c-3.1,0.6-7.4,1.6-10.6,1c-1.4-0.3-5.3-1.6-4.7-3.7c1.4-4.8,9.3-1.8,12.4,0.2l0,0c0,0,0.2,0.2,0.3,0.3l0,0l0,0
	c0.3,0.3,0.8,0.6,1.6,1.1l0.2,0.2c0.2,0,0.2,0.2,0.3,0.3c0,0,0.2,0,0.2,0.2c0.8,0.6,1.8,1.3,2.9,2.3c0,0,0-0.2-0.2-0.2
	c-0.2-0.2-0.2-0.5-0.3-0.6c-1.6-3.2-3.7-7.7,0.2-9.3c3.5-1.6,3.1,10.5,3.1,11.9c0,0.2,0,0.3-0.2,0.3c0,0,0,0,0,0.2l0,0l0.2,0.2l0,0
	c0.2,0.2,0.3,0.2,0.3,0.3c0.5,0.3,1,0.8,1.4,1.3c-0.3-1.4-0.2-2.7,0.2-4.2c0.3-1.1,1.3-3.4,2.9-3.1c1.8,0.3,1.9,2.1,1.6,3.7
	s-1,4.2-2.6,5h-0.2c1.8,1.4,3.9,3.1,6,4.8c-0.5-1.4,0-3.2,0.3-4.8c0.3-1.8,1.4-4,3.4-4.2c1.8-0.2,1.9,2.9,1.8,4
	c-0.3,2.3-1.8,4.8-3.7,6.1c0,0-0.2,0-0.3,0.2c2.3,1.8,4.5,3.5,6.9,5.6c-0.5-1.6-0.3-3.2,0.2-4.8c0.8-2.1,2.9-5,5.5-4.5
	c2.1,0.3,1.6,4,1.3,5.5c-0.6,2.4-2.1,4.8-4.2,6.1c2.1,1.8,4.2,3.5,6.4,5.3c-0.2-2.7,1.3-5.3,2.9-7.6c0.8-1,2.4-1.3,3.4-0.5
	c1.1,1,1.1,2.4,1,3.9c-0.3,1.8-1.1,3.5-1.9,5c-0.5,0.8-1,1.8-1.6,2.3c2.4,2.1,4.8,4.2,7.4,6.4c0-0.2,0-0.3,0-0.6
	c-0.3-1.4-0.3-2.7,0.2-4.2c0.6-2.1,2.6-3.7,4.8-3.4c2.3,0.3,3.2,3.1,3.2,5c0,2.9-1,6-2.1,8.5c2.1,1.9,4.3,4,6.6,6.1
	c1.1,1,2.1,2.1,3.2,3.1c-0.2-1.8,0.2-3.4,1-5.1c0.8-2.1,3.1-5,5.6-3.7c2.6,1.3,1.9,5.3,1.6,7.6c-0.3,1.6-1,5.1-2.4,6.9
	c2.4,2.4,4.8,4.8,7.1,7.4c0.3,0.3,0.6,0.6,1,1.1c0.2-1.9,0.6-3.9,1.6-6c1-2.1,2.6-5.1,5-6.1c1-0.6,2.4-0.6,3.4,0.3
	c0.2,0.2,0.2,0.3,0.3,0.5c1.4,1.3,1.9,3.5,1.6,5.5c-0.6,4-4.5,8.2-6.9,11.4c3.2,3.7,6.3,7.4,9.3,11.3c0.6,0.8,1.3,1.6,1.8,2.4
	c0.5-3.2,1.8-6.3,3.7-9.2c2.1-3.2,4.7-7.6,8.5-8.5c3.7-1,6,2.9,6.8,5.8c1.1,4.2-0.6,8.5-2.6,12.1c-1.8,3.4-4.8,9.2-8.7,10.3l0,0
	c1.4,2.1,2.9,4.2,4.3,6.3c2.3,3.5,4.3,7.1,6.3,10.5c3.1-9.8,10.6-23.6,20.5-18.9c12.7,6.1-6.8,25-14.1,31.2c2.4,5,4.7,9.8,6.4,14.7
	c2.6-4.2,5.5-8,9-11.4c2.7-2.7,6.6-6.1,10.9-5.1C603.8,550.7,590.3,566.2,586,570.3z"/>
<path opacity="0.61" fill="#FFFFFF" enable-background="new    " d="M593.2,595.4c-1.8,2.6-4,4.7-6.8,6.3c-1.3,0.8-3.2,1.8-5.1,2.1
	c-1.3,0.3-2.4,0.3-3.4-0.2c-0.5-0.2-0.8-0.5-1-0.6c-1.1-0.5-1.9-1.6-1.6-3.1c0-0.5,0.2-1.1,0.3-1.6c-1,0.5-2.1,0.8-3.2,1
	c-2.7,0.6-5.6,0.5-8.4,0c-4-0.6-10.6-1.8-10.8-6.8c-0.2-4.2,6.1-6.8,9.3-7.2c2.6-0.3,5.3,0.5,7.7,1.6c2.1,1,4,2.1,5.8,3.1
	c0.8,0.5,1.3,1.1,1.4,1.9c0.6,0.2,1,0.6,1.3,1c0.2-0.2,0.3-0.3,0.5-0.6c0.2-0.3,0.5-0.5,0.6-0.8c2.4-2.7,4.8-5.8,8.2-7.2
	c2.6-1.1,5.1,0.5,6.6,2.3C596.9,589.1,594.5,593.3,593.2,595.4z"/>
</svg>
