<?xml version="1.0" encoding="utf-8"?>
<!-- Generator: Adobe Illustrator 18.1.0, SVG Export Plug-In . SVG Version: 6.00 Build 0)  -->
<!DOCTYPE svg PUBLIC "-//W3C//DTD SVG 1.1//EN" "http://www.w3.org/Graphics/SVG/1.1/DTD/svg11.dtd">
<svg version="1.1" id="Layer_1" xmlns="http://www.w3.org/2000/svg" xmlns:xlink="http://www.w3.org/1999/xlink" x="0px" y="0px"
	 viewBox="2.1 142.9 573.9 284.1" enable-background="new 2.1 142.9 573.9 284.1" xml:space="preserve">
<g id="Layer_1_1_">
	<rect x="2.1" y="138.9" fill="#4F5462" width="926.7" height="291.9"/>
</g>
<g id="New_Symbol_19_1_">
</g>
<g id="New_Symbol_36_1_">
</g>
<g id="New_Symbol_8_1_">
</g>
<g id="New_Symbol_15_11_">
</g>
<g id="New_Symbol_15_10_">
</g>
<g id="New_Symbol_15_9_">
</g>
<g id="New_Symbol_15_8_">
</g>
<g id="New_Symbol_15_7_">
</g>
<g id="New_Symbol_16_13_">
</g>
<g id="New_Symbol_16_12_">
</g>
<g id="New_Symbol_16_11_">
</g>
<g id="New_Symbol_16_10_">
</g>
<g id="New_Symbol_37_3_">
</g>
<g id="New_Symbol_37_2_">
</g>
<g id="New_Symbol_15_6_">
</g>
<g id="New_Symbol_16_9_">
</g>
<g id="New_Symbol_16_8_">
</g>
<g id="New_Symbol_16_7_">
</g>
<g id="New_Symbol_22_3_">
</g>
<g id="New_Symbol_22_2_">
</g>
<g id="New_Symbol_1_">
</g>
<g opacity="0.61">
	<path fill="#FFFFFF" d="M10.3,214.5L10.3,214.5L10.3,214.5L10.3,214.5z"/>
	<path fill="#FFFFFF" d="M266.6,148.7c-0.6,0.6-1.3,1.1-2.4,1.4c-0.2,0-0.3,0-0.6,0c-0.5,0.2-1,0-1.1-0.5c1.3-0.3,2.4-0.5,3.5-0.8
		C266.1,148.7,266.3,148.7,266.6,148.7z"/>
	<path fill="#FFFFFF" d="M296.2,137.2c-2.6,1.4-6.3,3.5-11.4,5.6c-5,2.1-11.1,4-18.3,5.8c0.6-0.6,1.3-1.4,1.8-2.4
		c2.1-3.2,4-6.6,6-9.8c2.1-3.7,5.8-11.9,1.8-15.6c-3.5-3.2-6.3,0.6-6.9,4.2c-1.6,8.2-3.7,16.3-6.4,24.1c0,0.2,0,0.3,0,0.5
		c1.3-0.3,2.4-0.5,3.5-0.8c0.2,0,0.3,0,0.5-0.2c-0.6,0.6-1.3,1.1-2.4,1.4c-0.2,0-0.3,0-0.6,0c-0.5,0.2-1,0-1.1-0.5
		c-6.6,1.3-13.8,2.4-21.7,3.5c-3.4,0.5-6.8,0.8-10.3,1.3c1.3-1.8,7.1-9.7,8.8-12.7c3.1-5.3,7.6-13,2.4-18.3
		c-4.5-4.7-8.2,4.5-9.2,7.4c-2.9,8.4-4.2,17.2-9.7,24.5l-0.2,0.2c-10.1,1.1-20.9,2.1-32.2,2.9c1.3-1,2.3-2.1,3.2-3.5
		c3.1-4.2,6-8.5,8.8-12.9c3.2-4.8,8.7-15.6,2.6-20.4c-5.3-4.3-9.5,0.8-10.5,5.5c-2.6,10.8-5.6,21.2-9.8,31.5c0,0.2,0,0.2,0,0.3
		c-2.6,0.2-5.3,0.3-7.9,0.5c-9.7,0.6-19.6,1-29.9,1.3c3.7-2.7,7.6-6,10.9-9.7c1.6-1.6,3.1-3.2,4.8-4.7c2.4-2.1,4.7-4.2,6.8-6.9
		c3.9-5.3,8.7-16.6,3.1-22.4c-6.3-6.3-12.7,3.1-14.8,8c-5.3,10.6-8.8,25.1-16.9,34.4c-0.3,0.3-0.5,0.6-0.6,1l0,0
		c-9.3,0.3-18.8,0.5-28.3,1.1c15-15.9,30.7-38.5,23.3-59c-0.6-1.6-2.9-3.1-4.5-1.8c-8.2,6.3-10.6,16.7-14.2,25.9
		c-4.8,12.7-10.5,24.9-18,36.2c-4.8,0.5-9.8,1.1-14.6,2.1c-6.3,1.1-12.4,2.6-18.5,4.5c-0.5,0.2-0.8,0.3-1.3,0.3
		c0.8-1.1,1.4-2.4,2.3-3.7c4.5-8.4,8.8-17.1,13-25.6c4.7-9.5,12.4-30.7,1.9-39.4c-9.3-7.7-15.3,2.6-16.6,11.4
		c-2.9,20.6-6.9,41-12.4,61.3c0,0.2,0,0.3,0,0.5c-1.4,0.6-2.7,1.3-4.2,1.9c-3.5,1.8-6.9,3.7-10.3,5.8c4.2-10.9,7.2-22.5,7.1-34.1
		c-0.2-11.7-3.1-26.1-14.5-32c-4-2.1-8.2-1-10.8,2.4c-3.1,4-1,10.8-0.3,15.1c2.9,18.3,6.8,39.7,5.6,58.4c-3.2,2.7-6.1,5.6-8.8,8.5
		c-1.1-15.1-5.6-29.6-13.2-43.1c-1.4-2.4-4.7-1.9-6.4-0.3c-6,5.5-2.6,16.9-1.1,23.8c2.6,12.2,6.3,24.1,6.9,36.7
		c-1.4,1.9-2.7,4-4,6.1c-2.7,4.3-5.3,8.7-7.6,13c-0.3,0.5-0.5,1-0.8,1.4c-3.4-10.9-6.8-22.8-15.8-29.9c-7.9-6.3-22.7-13.8-32.8-7.7
		c-10.3,6.1,5.6,15.1,10.3,18.7c12.4,9.2,22.8,20.4,31.5,33c-1.3,2.9-2.4,5.6-3.4,8.2c-2.9,7.2-5.1,13.5-6.9,18.8
		c-1.8,5.3-3.1,9.5-4,12.2c0,0.2-0.2,0.3-0.2,0.5c-0.6,2.1,0.5,4.3,2.7,5l2.3,0.6c2.1,0.6,4.3-0.6,5-2.7c0-0.2,0.2-0.3,0.2-0.5
		c0.8-2.7,1.9-6.9,3.5-12.1c1-3.1,2.1-6.6,3.4-10.3c11.6,0.3,23,0.6,34.6,0.6c6,0,11.9,0.5,17.9-0.2c2.6-0.3,4.3-2.3,4.3-4.8
		c0-7.4-15.8-7.7-20.4-8.4c-10.6-1.1-21.6,0-32.2,1.4c2.1-5.5,4.5-11.4,7.6-17.7c0.6,0.2,1.3,0.2,1.9-0.2c17.4-4.7,35.1-5,52.9-5.6
		c5.3-0.2,30.1-0.2,27-10.8c-1.1-4.2-5.5-4.5-9.2-5c-8.4-1-16.7-0.8-25.1-0.2c-14.8,1.3-29,5.5-42.3,11.4c0,0-0.2,0-0.2,0.2
		c1-1.6,1.9-3.2,2.9-5c2.6-4.2,5.3-8.5,8.5-12.7c0.3-0.5,0.8-1,1.1-1.4c10.9-1.4,23.3-1.6,33.5-1.9c10.9-0.3,23,0.8,33.1-4.3
		c1.6-0.8,2.1-3.2,0.8-4.5c-7.1-7.7-19.8-6.4-29.3-5.8c-6.4,0.5-20.6,3.5-28.3,5.5c3.7-3.9,7.7-7.6,12.1-10.9
		c4.5-3.5,9.3-6.8,14.5-9.5c1.3-0.6,2.7-1.4,4-2.1c0,0,0.2,0,0.2-0.2c4,1.4,7.7,3.9,11.6,6c5.5,2.9,11.3,5.1,16.9,7.7
		c5.8,2.6,11.4,5.1,17.2,7.9c2.6,1.1,5.5,3.2,8,1.3c0.3-0.3,0.5-1,0.5-1.4c0.3-10.1-10.9-15.4-15.8-18c-9.3-5-19.6-5.6-29.4-7.2
		c1-0.3,1.9-0.8,3.1-1.1c4.2-1.4,8.5-2.7,13-3.7l0,0c4.5,1.3,8.8,2.6,13.4,3.5c4.8,2.1,9.3,5.1,13.8,7.6c6.1,3.2,12.4,5.8,18.7,8.4
		c12.1,4.8,25.3,10.9,38.6,8.8c1.6-0.3,2.6-2.3,2.1-3.7c-3.4-10.3-19.6-14.8-29-18.2c-10.3-3.9-21.6-8-32.7-9.8
		c0.3-0.3,0.6-0.6,1-0.8c11.4-1.3,22.8-1.8,34.1-2.4c0.6,0,1.3,0,1.9-0.2l0,0c0.8,0.3,1.9,0.6,3.5,1.1c3.4,1,6.6,1.9,9.8,3.1l0,0
		c4.3,2.1,8.4,4.8,12.5,7.4c6,3.5,11.9,7.1,17.9,10.6c5.6,3.2,16.4,11.1,22.4,5c4.3-4.5-6-14-8.8-15.9c-9.3-6.4-20-9.8-30.6-12.7
		c2.7-0.2,5.3-0.5,8-0.6c4.5-0.3,9.2-0.8,13.5-1.3c0.6,0.3,1.9,0.6,4.3,0.8c13,1.1,25.3,5.1,37.8,8.4c2.7,0.6,20.1,6,21.2,0.8
		c1.8-7.9-26.4-10.9-43.1-12.2c10.6-1.3,20.8-2.7,30.1-4c1.1-0.2,2.1-0.3,3.2-0.5l0,0h0.2c3.5,0.5,6.9,2.1,10.3,3.2
		c3.9,1.3,8,2.4,11.9,3.5c4,1.3,8.2,2.4,12.2,3.7c1.9,0.5,3.9,1.4,5.8,0.6c0.3-0.2,0.3-0.5,0.3-0.6c0.3-4.7-7.7-7.2-11.1-8.4
		c-6.9-2.4-14.3-2.7-21.6-3.4c5-1,9.7-1.9,14-3.1c7.4-1.9,13.7-4.2,18.8-6.4C290.1,141.1,293.8,138.9,296.2,137.2
		c1.4-0.8,2.4-1.6,3.1-1.9C298.6,135.6,297.7,136.3,296.2,137.2z M10.1,214.5L10.1,214.5C10.3,214.5,10.3,214.5,10.1,214.5
		C10.3,214.5,10.3,214.5,10.1,214.5z M53.3,175.9c0.3,0.2,0.8,0.2,1.1,0.3C53.9,176,53.6,176,53.3,175.9z M144.2,162
		c0.2-0.2,0.5-0.3,0.6-0.5C144.8,161.7,144.5,161.9,144.2,162z"/>
	<path fill="#FFFFFF" d="M54.4,176c-0.3,0-0.8-0.2-1.1-0.3C53.6,175.9,53.9,176,54.4,176z"/>
	<path fill="#FFFFFF" d="M54.4,176c-0.3,0-0.8-0.2-1.1-0.3C53.6,175.9,53.9,176,54.4,176z"/>
</g>
<g opacity="0.61">
	<path fill="#FFFFFF" d="M427.7,512.1L427.7,512.1L427.7,512.1L427.7,512.1z"/>
	<path fill="#FFFFFF" d="M229,380c0.3,0.6,0.8,1.3,1.6,1.9c0.2,0.2,0.3,0.2,0.5,0.2c0.3,0.3,0.8,0.3,1.1,0c-1-0.6-1.9-1.1-2.7-1.8
		C229.3,380.2,229.1,380.2,229,380z"/>
	<path fill="#FFFFFF" d="M205,359c0.3,0.5,1.1,1.4,1.9,2.7c1.6,2.1,4.2,5,7.7,8.4c3.7,3.4,8.4,7.2,14.2,10.9
		c3.4,2.3,6.9,4.5,10.9,6.8c-6.4-1.4-12.9-3.5-19.5-3.5c-3.2,0-10.8-0.2-11.9,3.9c0,0.2,0,0.5,0.2,0.6c1.3,1.3,3.4,1.1,5,1.3
		c3.9,0.2,7.7,0.3,11.4,0.5c3.7,0.2,7.6,0.5,11.3,0.5c3.2,0,6.6-0.3,9.8,0.3h0.2l0,0c0.8,0.5,1.6,1,2.6,1.3
		c7.6,4,15.6,8.2,24.5,12.4c-14.8-3.9-39.6-9.5-40.4-2.4c-0.6,4.8,15.9,5.5,18.3,5.6c11.6,1,23.3,1.1,34.8,4c2.1,0.6,3.4,0.6,4,0.5
		c3.7,1.6,7.4,3.4,11.1,5.1c2.3,1,4.3,1.9,6.6,2.9c-10-0.6-20.1-1-29.9,1.8c-3.1,0.8-14.8,6-12.4,10.9c3.4,6.9,14.8,3.5,20.4,2.3
		c6.1-1.3,12.2-2.6,18.3-3.7c4.2-0.8,8.5-2.1,12.9-2.6l0,0c3.1,0.2,6.1,0.2,9.3,0.3c1.4,0.2,2.4,0.2,3.2,0.2l0,0
		c0.5,0.2,1,0.5,1.6,0.6c9.5,3.9,19,7.7,28.3,12.2c0.2,0.3,0.3,0.6,0.5,1c-10.1-1.8-20.8-1.6-30.7-1.3c-8.8,0.2-24-0.8-30.1,6.9
		c-0.8,1.1-0.6,3.2,0.6,3.9c10.6,5.6,23.8,4.5,35.6,3.9c6.1-0.3,12.4-0.6,18.5-1.6c4.7-0.6,9.3-1.9,14-2.3c4.2,0.5,8.4,0.8,12.5,1
		l0,0c3.4,2.3,6.8,4.5,10,7.1c0.8,0.6,1.4,1.1,2.3,1.8c-8.8-1.6-17.7-4-27.2-2.6c-4.8,0.8-16.1,1.9-18.7,10.6
		c-0.2,0.5-0.2,1.1,0,1.4c1.6,2.4,4.7,1.6,7.2,1.3c5.6-0.5,11.4-1.1,17.1-1.6c5.5-0.5,11.1-0.8,16.6-1.6c3.9-0.6,7.7-1.6,11.6-1.6
		l0.2,0.2c1,1,1.9,1.9,2.7,2.9c3.5,3.9,6.8,8,9.5,12.4c2.7,4.2,5,8.5,7.1,12.9c-6.1-3.9-17.2-10.6-22.5-13
		c-7.9-3.4-18.3-8.2-26.7-3.9c-1.4,0.8-1.9,2.9-0.6,4c7.1,7.4,17.7,10,26.9,13.5c8.5,3.4,19,7.1,27.8,11.6c0.2,0.5,0.3,1.1,0.5,1.6
		c1.4,4.5,2.6,9,3.5,13.4c0.3,1.8,0.6,3.4,1,5c0,0,0-0.2-0.2-0.2c-9.7-9.2-20.4-16.9-32.7-22.2c-6.9-3.1-14-5.6-21.4-7.2
		c-3.2-0.6-7.1-1.8-9.3,1.4c-5.6,8.2,15.4,15.4,20,17.2c15,5.8,30.1,11.3,43.4,20.4c0.6,0.3,1.1,0.6,1.6,0.6
		c0.6,6.1,1,11.9,1.1,17.2c-8.7-4.3-17.5-8.5-27-10.6c-4.2-1-17.7-5.3-20,1c-0.8,2.3,0.2,4.5,2.3,5.5c4.8,2.3,10.1,3.7,15.1,5.3
		c9.8,3.4,19.8,6.6,29.6,9.7c0,3.5-0.2,6.9-0.2,9.8c-0.2,4.8-0.5,8.7-0.5,11.4c0,0.2,0,0.3,0,0.5c-0.2,1.9,1.4,3.7,3.4,3.7l2.3,0.2
		c1.9,0.2,3.7-1.4,3.7-3.4c0-0.2,0-0.3,0-0.5c0-2.7,0.2-6.6,0.3-11.6c0-5,0-11.1-0.3-18c-0.2-2.6-0.3-5.3-0.5-8
		c11.1-8.2,23.5-14.6,36.7-18.8c5.1-1.6,21.2-4.5,14.3-12.9c-6.8-8.2-21.7-6.3-30.2-3.2c-9.8,3.4-16.1,12.5-22.2,20.9
		c0-0.5-0.2-1-0.2-1.4c-0.6-4.3-1.4-8.7-2.6-13.4c-0.5-2.1-1.1-4.2-1.6-6.4c4.2-10.6,10.9-19.6,16.7-29.3c3.2-5.5,9.5-14.2,6.1-20.8
		c-1-1.9-3.7-3.2-5.5-1.6c-10.5,9.2-18.7,20.3-24,33c-1.4-3.4-3.2-6.6-5.1-10c4.5-16.3,14.3-33.3,22.2-48.1c1.9-3.5,5.6-8.7,4.2-13
		c-1.3-3.7-4.5-5.8-8.5-5.3c-11.4,1.6-18.2,13-21.7,23c-3.5,10-4.3,20.6-4.2,31.2c-2.1-2.7-4.5-5.5-6.9-8c-1-1-1.9-1.9-2.9-2.9
		c0-0.2,0-0.3,0.2-0.5c1.3-18.8,4-37.5,7.6-56.2c1.6-7.9-0.5-18.5-10.8-14.6c-11.6,4.3-11.3,24.8-10,34.3c1.1,8.5,2.1,17.2,3.5,25.7
		c0.2,1.3,0.5,2.6,0.8,3.9c-0.3-0.3-0.6-0.5-1-0.8c-4.5-3.5-9.5-6.4-14.5-9.3c-3.9-2.3-7.9-4.2-11.7-6.1c-3.2-11.7-4.3-24-4.7-36.2
		c-0.3-8.8,0.8-18.5-4.3-26.2c-1.1-1.6-3.4-1-4.3,0.2c-12.4,15.4-5.6,39.4,2.4,57.3c-7.9-3.4-15.9-6.4-23.8-9.3l0,0
		c0-0.2-0.2-0.5-0.3-1c-4-10.3-2.7-23.7-3.7-34.6c-0.5-4.8-3.1-14.6-10.3-11.3c-6.6,3.2-6,14.3-4,20c1,2.9,2.3,5.5,3.7,7.9
		c1,1.8,1.9,3.5,2.7,5.5c1.8,4.2,4,8,6.4,11.4c-8.5-3.2-16.9-6.6-25.1-10c-2.3-1-4.5-1.8-6.6-2.7v-0.2c-0.5-10,0-20,1-29.8
		c0.5-4.2-1.4-9.8-7.4-7.7c-6.6,2.4-5.1,13.2-3.9,18.2c1.1,4.5,2.4,9.2,3.7,13.7c0.5,1.4,1,2.7,1.8,4c-9.3-4-18.3-8-26.5-12.1v-0.2
		c-2.6-7.7-1-15.8-1-23.7c0-2.7-0.5-11.6-5.6-9c-6,3.1-4.5,10.9-3.4,16.4c0.6,3.1,3.2,11.6,3.7,13.4c-2.9-1.4-5.6-2.7-8.4-4.2
		c-6.4-3.2-12.4-6.3-17.5-9.3c-0.3,0.3-0.8,0.3-1.1,0c-0.2,0-0.3,0-0.5-0.2c-0.8-0.6-1.3-1.1-1.6-1.9c0.2,0.2,0.3,0.2,0.5,0.3
		c1,0.6,1.8,1.1,2.7,1.8c0.2-0.2,0.2-0.3,0.2-0.5c0-7.6,0.6-15,1.6-22.5c0.5-3.2-0.6-7.4-4.7-5.6c-4.5,1.9-3.9,10.1-3.2,13.8
		c0.6,3.4,1.3,6.8,2.1,10.1c0.2,1,0.5,1.8,0.8,2.6c-5.6-3.5-10.3-7.1-13.8-10.3c-3.7-3.2-6.3-6.1-8-8.2
		C206.1,360.4,205.5,359.4,205,359z M427.7,512.1L427.7,512.1L427.7,512.1L427.7,512.1z M401.6,466.3c0.3,0,0.6,0,1,0
		C402.2,466.4,401.9,466.4,401.6,466.3z M328.7,427.2c0.2,0.2,0.3,0.3,0.5,0.5C328.9,427.5,328.9,427.3,328.7,427.2z"/>
	<path fill="#FFFFFF" d="M401.6,466.3c0.3,0.2,0.6,0.2,1,0C402.2,466.4,401.9,466.3,401.6,466.3z"/>
	<path fill="#FFFFFF" d="M401.6,466.3c0.3,0.2,0.6,0.2,1,0C402.2,466.4,401.9,466.3,401.6,466.3z"/>
</g>
<path opacity="0.61" fill="#FFFFFF" enable-background="new    " d="M10.3,214.5L10.3,214.5L10.3,214.5L10.3,214.5z"/>
<path opacity="0.61" fill="#FFFFFF" enable-background="new    " d="M54.4,176c-0.3,0-0.8-0.2-1.1-0.3C53.6,175.9,53.9,176,54.4,176
	z"/>
<path opacity="0.61" fill="#FFFFFF" enable-background="new    " d="M144.8,161.5c-0.2,0.2-0.3,0.3-0.6,0.5
	C144.5,161.9,144.6,161.7,144.8,161.5z"/>
<path opacity="0.61" fill="#FFFFFF" enable-background="new    " d="M266.6,148.7c-0.6,0.6-1.3,1.1-2.4,1.4c-0.2,0-0.3,0-0.6,0
	c-0.5,0.2-1,0-1.1-0.5c1.3-0.3,2.4-0.5,3.5-0.8C266.1,148.7,266.3,148.7,266.6,148.7z"/>
<g opacity="0.61">
	<path fill="#FFFFFF" d="M49.2,348.3L49.2,348.3l1,6.3c-14.3,2.3-28.3-10.1-30.9-27.5c-2.7-17.4,6.9-33.3,21.2-35.4l1,6.3l0,0
		l-1.3-9.2c-15.8,2.4-26.2,19.8-23.3,38.8c2.9,19,18.2,32.3,33.9,29.9L49.2,348.3z"/>
	<path fill="#FFFFFF" d="M50,352.8c-13.4,2.1-26.1-9.7-28.6-26.1c-2.6-16.4,6.3-31.4,19.5-33.5L50,352.8z"/>
</g>
<g opacity="0.61">
	<path fill="#FFFFFF" d="M479.5,366.8L479.5,366.8l2.3-2.4c5.5,5.1,5,14.6-1.3,21.4c-6.1,6.6-15.8,7.9-21.2,2.7l2.3-2.4l0,0
		l-3.2,3.5c6.1,5.6,16.4,4.3,23.2-2.9c6.8-7.2,7.2-17.7,1.3-23.3L479.5,366.8z"/>
	<path fill="#FFFFFF" d="M481.1,365.1c5.1,4.7,4.5,13.7-1.4,20c-5.8,6.3-14.8,7.6-19.8,2.9L481.1,365.1z"/>
</g>
<circle opacity="0.61" fill="#FFFFFF" enable-background="new    " cx="31.7" cy="367.5" r="2.7"/>
<circle opacity="0.61" fill="#FFFFFF" enable-background="new    " cx="83.2" cy="318.1" r="2.7"/>
<circle opacity="0.61" fill="#FFFFFF" enable-background="new    " cx="252.1" cy="192.8" r="2.7"/>
<circle opacity="0.61" fill="#FFFFFF" enable-background="new    " cx="35.4" cy="415.7" r="2.7"/>
<circle opacity="0.61" fill="#FFFFFF" enable-background="new    " cx="27.5" cy="391.3" r="1.1"/>
<circle opacity="0.61" fill="#FFFFFF" enable-background="new    " cx="47.8" cy="382.6" r="1.1"/>
<circle opacity="0.61" fill="#FFFFFF" enable-background="new    " cx="11.6" cy="380.7" r="1.6"/>
<circle opacity="0.61" fill="#FFFFFF" enable-background="new    " cx="68.5" cy="322.8" r="1.1"/>
<circle opacity="0.61" fill="#FFFFFF" enable-background="new    " cx="15.1" cy="409" r="1.1"/>
<circle opacity="0.61" fill="#FFFFFF" enable-background="new    " cx="182.5" cy="380.4" r="1.1"/>
<circle opacity="0.61" fill="#FFFFFF" enable-background="new    " cx="162.7" cy="418.3" r="1.1"/>
<circle opacity="0.61" fill="#FFFFFF" enable-background="new    " cx="500.9" cy="405.6" r="1.1"/>
<circle opacity="0.61" fill="#FFFFFF" enable-background="new    " cx="565.9" cy="342.1" r="1.1"/>
<circle opacity="0.61" fill="#FFFFFF" enable-background="new    " cx="487" cy="282.4" r="1.1"/>
<circle opacity="0.61" fill="#FFFFFF" enable-background="new    " cx="565.7" cy="313.3" r="1"/>
<circle opacity="0.61" fill="#FFFFFF" enable-background="new    " cx="502" cy="232.3" r="1"/>
<circle opacity="0.61" fill="#FFFFFF" enable-background="new    " cx="482.7" cy="425.6" r="1"/>
<circle opacity="0.61" fill="#FFFFFF" enable-background="new    " cx="512.1" cy="420.7" r="2.1"/>
<circle opacity="0.61" fill="#FFFFFF" enable-background="new    " cx="550.3" cy="329.7" r="2.1"/>
<circle opacity="0.61" fill="#FFFFFF" enable-background="new    " cx="518.2" cy="240.1" r="2.1"/>
<circle opacity="0.61" fill="#FFFFFF" enable-background="new    " cx="100.4" cy="220.7" r="1.1"/>
<circle opacity="0.61" fill="#FFFFFF" enable-background="new    " cx="20.9" cy="286.1" r="1.1"/>
<circle opacity="0.61" fill="#FFFFFF" enable-background="new    " cx="132.3" cy="268.2" r="1.1"/>
<circle opacity="0.61" fill="#FFFFFF" enable-background="new    " cx="67.3" cy="296" r="1.1"/>
<circle opacity="0.61" fill="#FFFFFF" enable-background="new    " cx="274.6" cy="182.5" r="1.1"/>
<circle opacity="0.61" fill="#FFFFFF" enable-background="new    " cx="314.2" cy="157.7" r="1.1"/>
<g id="New_Symbol_8">
</g>
<path opacity="0.61" fill="#FFFFFF" enable-background="new    " d="M111.8,264.7c-0.5,0-0.8-0.2-1.3,0c-1.1,0.2-1.9,1-2.3,2.1
	c-0.6,1.9,0.2,4,1.3,5.8c0.3,0.5,0.5,0.8,1,1.3c2.9,3.1,7.4,4.5,10.9,6.1c0.2,0.2,0.5,0,0.5-0.3c-0.3-4,0-7.9-2.9-11.3
	C117.3,266.1,114.6,264.3,111.8,264.7z"/>
<path opacity="0.61" fill="#FFFFFF" enable-background="new    " d="M103.8,270.1c-0.2-0.2-0.3-0.3-0.6-0.5
	c-0.6-0.3-1.3-0.2-1.9,0.3c-1,0.8-1.4,2.1-1.4,3.5c0,0.3,0,0.6,0,1c0.3,2.6,2.1,5,3.4,7.2c0,0.2,0.3,0.2,0.3,0
	c1.3-2.1,2.9-4,2.6-6.9C106,273,105.2,271.1,103.8,270.1z"/>
<path opacity="0.61" fill="#FFFFFF" enable-background="new    " d="M111.2,235.9c0,0.3,0,0.8,0,1.1c0.3,1.1,1.1,1.6,2.3,1.9
	c1.9,0.3,3.9-0.5,5.3-1.8c0.5-0.3,0.8-0.6,1.1-1c2.6-3.1,3.5-7.4,4.7-11.1c0-0.2,0-0.5-0.3-0.5c-3.7,0.6-7.4,0.8-10.3,3.9
	C112,230.6,110.7,233.5,111.2,235.9z"/>
<path opacity="0.61" fill="#FFFFFF" enable-background="new    " d="M77.4,266.8c0.3-0.2,0.5-0.3,0.8-0.6c0.6-0.6,0.5-1.6,0.2-2.3
	c-0.6-1.4-2.1-2.3-3.7-2.7c-0.3-0.2-0.8-0.2-1.1-0.3c-3.1-0.3-6.4,1.1-9.3,2.1c-0.2,0-0.3,0.3-0.2,0.3c2.1,2.1,4,4.5,7.4,5
	C73.5,268.7,75.9,268.4,77.4,266.8z"/>
<path opacity="0.61" fill="#FFFFFF" enable-background="new    " d="M73.2,276.9c0.2-0.3,0.3-0.6,0.5-1c0.3-1-0.2-1.9-1-2.6
	c-1.4-1.1-3.4-1.3-5.1-1c-0.5,0-1,0.2-1.3,0.3c-3.4,1.3-6.1,4.5-8.7,7.1c-0.2,0.2-0.2,0.5,0,0.5c3.4,1.1,6.6,2.6,10.3,1.3
	C70.1,280.9,72.6,279.2,73.2,276.9z"/>
<path opacity="0.61" fill="#FFFFFF" enable-background="new    " d="M83.5,247c2.4,0.2,4,1.8,4.2,3.5c0,0.2,0,0.2-0.2,0.2
	c0,0.2,0,0.2,0,0.3c-1.3,1.3-3.1,1.8-5,1.6c-2.4-0.2-4.2-2.4-5.8-3.5c-0.2-0.2-0.2-0.3,0-0.5C78.8,247.3,80.9,246.7,83.5,247z"/>
<path opacity="0.61" fill="#FFFFFF" enable-background="new    " d="M482.4,250.4c2.4,0.2,4,1.8,4.2,3.5c0,0.2,0,0.2-0.2,0.2
	c0,0.2,0,0.2,0,0.3c-1.3,1.3-3.1,1.8-5,1.6c-2.4-0.2-4.2-2.4-5.8-3.5c-0.2-0.2-0.2-0.3,0-0.5C477.7,250.8,479.8,250.2,482.4,250.4z"
	/>
<path opacity="0.61" fill="#FFFFFF" enable-background="new    " d="M108.8,286.6c-1.3-2.7-0.6-5.6,1.1-7.1c0.2-0.2,0.2-0.2,0.3,0
	c0.2-0.2,0.2-0.2,0.3-0.2c2.3,0.5,4,2.1,5.1,4.5c1.4,2.9,0.2,6.1-0.2,8.7c0,0.3-0.3,0.5-0.6,0.3
	C112.5,291.4,110.2,289.4,108.8,286.6z"/>
<path opacity="0.61" fill="#FFFFFF" enable-background="new    " d="M510.7,275.9c-1.3-2.7-0.6-5.6,1.1-7.1c0.2-0.2,0.2-0.2,0.3,0
	c0.2-0.2,0.2-0.2,0.3-0.2c2.3,0.5,4,2.1,5.1,4.5c1.4,2.9,0.2,6.1-0.2,8.7c0,0.3-0.3,0.5-0.6,0.3C514.2,280.8,512,279,510.7,275.9z"
	/>
<path opacity="0.61" fill="#FFFFFF" enable-background="new    " d="M77.1,280.3c0.5-2.3,2.1-3.7,3.9-3.9c0.2,0,0.2,0,0.2,0.2
	c0.2,0,0.2,0,0.3,0.2c1.1,1.3,1.4,3.1,1.1,5.1c-0.5,2.4-2.7,3.9-4,5.3c-0.2,0.2-0.3,0.2-0.5-0.2C77.1,284.9,76.6,282.7,77.1,280.3z"
	/>
<path opacity="0.61" fill="#FFFFFF" enable-background="new    " d="M120.5,256.3c-2.3-0.3-3.9-1.9-3.9-3.7c0-0.2,0-0.2,0.2-0.2
	c0-0.2,0-0.2,0.2-0.3c1.3-1.1,3.1-1.6,5-1.3c2.4,0.3,3.9,2.6,5.5,3.9c0.2,0.2,0.2,0.3-0.2,0.5C125.2,256.1,123.1,256.6,120.5,256.3z
	"/>
<path opacity="0.61" fill="#FFFFFF" enable-background="new    " d="M112.6,252.1c-1.3-2.1-4.7-3.1-6.8-3.7c1-1,2.9-2.9,3.4-4.3
	c0.5-1.8-0.5-3.9-1.9-5c-3.2-2.4-5.6,1.8-7.1,5.6c-2.4-2.9-5.8-5.5-8-1.3c-1.3,2.4,0,4.8,2.3,6.6c-1.4,0.8-2.9,1.8-4.2,3.1
	c-1,0.8-0.6,2.4,0.2,3.1c2.6,2.4,5.5,1.4,7.9-0.3c-0.3,1.8-0.2,2.7,0.2,4.7c0.3,1.8,3.2,3.1,4.7,1.3c2.1-2.7,1.4-4.3,1.3-7.4
	c2.4,1.3,5,1.9,7.6,0.5C112.9,254.5,113.3,253.1,112.6,252.1z M101.8,251.6c0.8,0.6,1.8,1.8,0.8,2.3c-0.3,0.3-1,0.3-1.4,0
	c-0.3-0.2-0.6-1-0.8-1.3c-0.3,0.5-1,1.3-1.6,1.4c-0.3,0-0.6-0.2-0.6-0.5c-0.2-0.8,0.3-1.4,0.8-1.9c-0.8-0.2-1.3-0.2-1.8-1
	c-0.3-0.5,0.3-1.1,0.8-1.1c0.5,0.2,0.8,0.2,1.1,0.5c-0.2-0.8-0.2-1.6,0.6-2.1c0.3-0.2,0.6,0,0.8,0.3c0.2,0.5,0.3,1,0.3,1.3
	c0.6-0.3,1.4-0.5,1.9,0C103.8,250.7,102.8,251.3,101.8,251.6z"/>
<g opacity="0.61">
	<path fill="#FFFFFF" d="M101.4,250.7c0.5,1.4-1.8,2.1-2.3,0.6C98.8,249.9,101,249.2,101.4,250.7L101.4,250.7z"/>
</g>
<path opacity="0.61" fill="#FFFFFF" enable-background="new    " d="M513.3,257.8c-1.3-2.1-4.7-3.1-6.8-3.7c1-1,2.9-2.9,3.4-4.3
	c0.5-1.8-0.5-3.9-1.9-5c-3.2-2.4-5.6,1.8-7.1,5.6c-2.4-2.9-5.8-5.5-8-1.3c-1.3,2.4,0,4.8,2.3,6.6c-1.4,0.8-2.9,1.8-4.2,3.1
	c-1,0.8-0.6,2.4,0.2,3.1c2.6,2.4,5.5,1.4,7.9-0.3c-0.3,1.8-0.2,2.7,0.2,4.7c0.3,1.8,3.2,3.1,4.7,1.3c2.1-2.7,1.4-4.3,1.3-7.4
	c2.4,1.3,5,1.9,7.6,0.5C513.7,260.2,513.9,258.7,513.3,257.8z M502.6,257.1c0.8,0.6,1.8,1.8,0.8,2.3c-0.3,0.3-1,0.3-1.4,0
	c-0.3-0.2-0.6-1-0.8-1.3c-0.3,0.5-1,1.3-1.6,1.4c-0.3,0-0.6-0.2-0.6-0.5c-0.2-0.8,0.3-1.4,0.8-1.9c-0.8-0.3-1.3-0.2-1.8-1
	c-0.3-0.5,0.3-1.1,0.8-1.1c0.5,0.2,0.8,0.2,1.1,0.5c-0.2-0.8-0.2-1.6,0.6-2.1c0.3-0.2,0.6,0,0.8,0.3c0.2,0.5,0.3,1,0.3,1.3
	c0.6-0.3,1.4-0.5,1.9,0C504.6,256.1,503.6,256.8,502.6,257.1z"/>
<g opacity="0.61">
	<path fill="#FFFFFF" d="M502.1,256.3c0.5,1.4-1.8,2.1-2.3,0.6C499.6,255.5,501.8,254.9,502.1,256.3L502.1,256.3z"/>
</g>
<path opacity="0.61" fill="#FFFFFF" enable-background="new    " d="M94.6,270.1c-1-1.8-1.9-1.8-3.7-2.6c1.3-1,2.3-2.3,2.1-3.9
	c0-0.6-0.8-1.1-1.4-1.1c-1.4,0.2-2.7,1.8-3.5,2.7c-0.3-0.8-0.8-2.3-1.4-2.7c-0.8-0.6-2.3-0.6-3.1-0.2c-2.1,1.1-0.3,3.4,1.3,5.1
	c-2.1,0.6-4.3,1.8-2.6,4c1,1.3,2.6,1.1,4,0.5c0.2,1,0.3,1.9,0.6,2.9c0.2,0.6,1.1,1,1.8,0.6c1.9-0.8,2.1-2.6,1.8-4.3
	c1,0.6,1.4,0.8,2.6,1.1C94,272.6,95.2,271.3,94.6,270.1z M89.9,269c-0.3,0.2-0.6,0.2-1,0.2c0.2,0.3,0.5,0.8,0.3,1.1
	c0,0.2-0.2,0.3-0.5,0.3c-0.5-0.2-0.6-0.5-0.8-1c-0.3,0.3-0.5,0.6-1,0.6c-0.3,0-0.5-0.5-0.3-0.6c0.2-0.3,0.3-0.3,0.5-0.5
	c-0.5,0-1-0.3-1-0.8c0-0.2,0.2-0.3,0.3-0.3c0.3,0,0.5,0,0.8,0.2c0-0.5,0-0.8,0.5-1c0.8-0.2,0.8,0.5,0.8,1c0.6-0.3,1.3-0.5,1.4,0.2
	C90.3,268.5,90.1,268.9,89.9,269z"/>
<g opacity="0.61">
	<path fill="#FFFFFF" d="M88.2,268.2c0.8,0.2,0.6,1.4-0.2,1.3S87.4,268,88.2,268.2L88.2,268.2z"/>
</g>
<g id="New_Symbol_15">
</g>
<g id="New_Symbol_16_2_">
</g>
<g id="New_Symbol_16_1_">
</g>
<g id="New_Symbol_16">
</g>
<path opacity="0.61" fill="#FFFFFF" d="M202.4,421.9c-0.2,0.3-0.3,0.6-0.3,1l0,0c0,0.2,0,0.2,0,0.3c0,1,0.6,1.9,1.3,2.6
	c1,0.8,2.1,1.1,3.2,1.1c0.3,0,0.6,0.2,1,0.2c3.2,0.2,6.6-2.1,9.2-3.5c0.5-0.3,0.3-1,0-1.1c-1.8-0.8-2.7-2.6-4.2-3.9
	c-1.1-1-2.7-1.1-4.2-1.1C205.5,417,203.2,419.3,202.4,421.9z"/>
<path opacity="0.61" fill="#FFFFFF" enable-background="new    " d="M199,425.1c-0.6-0.8-1.6-1.4-2.4-1.9c0.2-0.3,0.5-0.5,0.6-0.6
	c1.9-2.3,3.7-7.7-0.6-9c-2.4-0.6-4.7-0.2-6.6,1c-1-1.8-2.4-3.4-4-4c-2.3-0.8-5.5,0.2-5.6,2.9c-0.2,1.4,0.2,2.7,0.6,4h-0.2
	c-2.7,0.2-6.8,1.4-7.9,4.3c-1,2.7,1.9,5.1,4,6.4c1.3,0.8,2.9,1.1,4.3,1.1c-1.3,3.9-1.6,8.5,2.6,10c2.3,0.8,3.9,0.3,5.6-1.3
	c0.8-0.6,1.4-1.8,1.8-2.6c0.3-0.8,0.5-2.3,0.8-3.4c1.8,1.1,3.9,1.6,6,1.4C202.4,433,201,427.3,199,425.1z M192.6,427.7
	c-0.8-0.3-1.4-1-2.1-1.3c-0.5-0.3-1.1-0.6-1.8-0.8c-0.2,0.6-0.5,1.3-0.8,1.9c-0.5,1-0.5,2.3-1.1,3.1c-0.8,1.4-3.1,0.3-2.3-1
	c0.5-1,0.6-2.1,1.1-3.1c0.3-0.8,0.6-1.4,0.8-2.3c-1.6,0.3-3.1,0.8-4.7,1.1c-1.6,0.3-1.8-2.1-0.3-2.4c1.6-0.3,3.2-1,5-1.3
	c-0.6-1.1-1.3-2.3-1.8-3.5c-0.5-1.4,1.8-2.4,2.3-0.8c0.5,1.3,1.3,2.6,1.9,3.7c1-0.8,1.8-1.6,2.6-2.6c1-1.3,2.9,0.3,1.9,1.6
	c-1,1.3-2.1,2.3-3.4,3.2c0.3,0.2,0.6,0.3,1,0.5c0.8,0.5,1.6,1.1,2.6,1.6C195,426.2,194,428.3,192.6,427.7z"/>
<path opacity="0.61" fill="#FFFFFF" enable-background="new    " d="M190.7,424.9c0.2-0.3,0.3-0.6,0.5-1c0.3-0.5,0.3-1.1,0-1.8
	c-0.2-0.5-0.5-0.8-0.6-1.1c-0.5-0.6-1.1-1-1.8-1c-0.2,0-0.5,0-0.6,0c0,0,0,0-0.2,0s-0.5,0.2-0.6,0.2l0,0c-0.5,0.2-0.8,0.3-1.3,0.6
	c-1,1-1.1,2.1-0.8,3.4c0.3,1.1,1.1,1.9,2.4,2.1C188.9,426.2,190,425.9,190.7,424.9z"/>
<path opacity="0.61" fill="#FFFFFF" enable-background="new    " d="M177,394.7c-0.5-1.1-1.1-1.8-2.4-1.9c-0.5-0.2-1.1,0-1.8,0.2
	c-0.5,0.2-1.1,0.5-1.6,0.8c-0.2-1.1-0.6-2.3-1.3-3.1c-1.8-1.9-3.7,0.6-4,2.3c-0.2,0.6-0.2,1.1,0,1.8c-0.2,0-0.3,0-0.5,0
	c-1.6-0.2-4.5,1-3.7,3.2c0.5,1.3,1.4,2.1,2.6,2.6c-0.5,1-0.6,2.1-0.3,3.1c0.3,1.3,1.9,2.3,3.2,1.4c0.6-0.5,1.1-1,1.6-1.6l0,0
	c1,1.1,2.9,2.4,4.5,1.9c1.6-0.5,1.6-2.6,1.4-3.9c-0.2-0.8-0.5-1.6-1-2.3C175.7,398.4,177.8,396.9,177,394.7z M172.5,397.4
	c-0.6,0.2-1.1,0.5-1.8,0.6c-0.5,0.2-0.8,0.2-1.3,0.3c0.6,0.6,1.4,1.1,2.1,1.6c0.6,0.5-0.3,1.4-1,1c-0.6-0.6-1.4-1.1-2.1-1.8
	c-0.3,0.6-0.5,1.3-1,1.9c-0.5,0.8-1.6,0-1.1-0.6c0.5-0.6,0.6-1.4,1-2.1c-0.6-0.2-1.3-0.3-1.9-0.3c-0.8,0-0.8-1.3,0-1.3
	c0.8,0,1.8,0.2,2.6,0.3c0-0.2-0.2-0.3-0.2-0.6c-0.2-0.5,0-1.1-0.2-1.6c-0.2-0.8,1.1-1.1,1.3-0.3c0.2,0.5,0,1,0.2,1.4
	c0,0.3,0.2,0.6,0.2,1c0.3-0.2,0.6-0.2,1.1-0.3c0.6-0.2,1.1-0.5,1.8-0.6C173.1,396,173.4,397.2,172.5,397.4z"/>
<path opacity="0.61" fill="#FFFFFF" enable-background="new    " d="M168.5,396.3c-0.2,0-0.5,0-0.6,0.2c-0.3,0-0.6,0.3-0.8,0.6
	c-0.2,0.2-0.2,0.5-0.3,0.6c-0.2,0.3,0,0.8,0.2,1.1c0,0.2,0.2,0.2,0.3,0.3l0,0c0,0.2,0.2,0.2,0.3,0.2l0,0c0.2,0.2,0.5,0.3,0.6,0.3
	c0.6,0.2,1.3-0.2,1.6-0.8c0.3-0.5,0.5-1.1,0.2-1.8C169.7,396.6,169.1,396.3,168.5,396.3z"/>
<g opacity="0.61">
	<path fill="#FFFFFF" d="M197.9,392.3c-0.8,0-1.4,0.2-2.1,0.5c0-0.3,0-0.5-0.2-0.6c-0.3-2.1-2.4-5.5-5-3.7c-1.4,1-2.3,2.4-2.4,4
		c-1.4-0.3-2.9-0.3-3.9,0.3c-1.4,0.8-2.3,3.1-1,4.3c0.6,0.6,1.4,1.1,2.4,1.4c0,0,0,0-0.2,0.2c-1.1,1.6-2.3,4.3-1.1,6.1
		c1,1.8,3.7,1.4,5.1,0.8c1-0.3,1.9-1,2.6-1.8c1.4,2.4,3.7,4.7,6.4,3.1c1.4-0.8,1.9-1.9,1.9-3.5c0-0.6-0.3-1.4-0.6-2.1
		c-0.3-0.5-1-1.3-1.4-1.9c1.4-0.5,2.7-1.3,3.5-2.4C203.9,394,200.2,392.1,197.9,392.3z M196.5,396.8c-0.5,0.3-1.1,0.3-1.8,0.5
		c-0.5,0.2-0.8,0.3-1.3,0.5c0.2,0.5,0.5,0.8,0.6,1.3c0.3,0.6,1,1.3,1.1,1.9c0.3,1-1.1,1.8-1.6,0.8c-0.3-0.6-0.8-1.3-1.1-1.9
		c-0.3-0.5-0.5-1-0.8-1.4c-0.6,1-1,2.1-1.4,3.1c-0.5,1-1.9,0-1.4-1c0.5-1,1-2.1,1.6-3.2c-0.8-0.2-1.8-0.3-2.6-0.6
		c-1-0.3-0.5-1.9,0.6-1.6c1,0.3,1.9,0.5,2.9,0.6c0-0.8,0-1.6-0.2-2.6c-0.2-1.1,1.4-1.4,1.6-0.3c0.2,1.1,0.3,2.3,0.2,3.2
		c0.2-0.2,0.5-0.2,0.6-0.3c0.6-0.3,1.3-0.3,1.9-0.6C196.8,394.8,197.4,396.3,196.5,396.8z"/>
	<path fill="#FFFFFF" d="M194.2,396.4c0-0.3-0.2-0.5-0.3-0.6c-0.2-0.3-0.5-0.8-1-0.8c-0.3-0.2-0.6-0.2-1-0.2c-0.5,0-1,0.2-1.3,0.5
		c-0.2,0.2-0.2,0.2-0.3,0.3l0,0c-0.2,0.2-0.2,0.3-0.2,0.5l0,0c-0.2,0.3-0.2,0.6-0.2,1c0,1,0.6,1.6,1.4,1.9c0.8,0.3,1.6,0.3,2.1-0.3
		C194,398.1,194.4,397.4,194.2,396.4z"/>
</g>
<g opacity="0.61">
	<path fill="#FFFFFF" d="M115.5,314.7c-0.5-0.6-1-1.1-1.4-1.6c0.2-0.2,0.3-0.3,0.5-0.5c1.6-1.3,3.2-5,0.5-6.3
		c-1.6-0.6-3.2-0.6-4.7,0c-0.5-1.3-1.3-2.6-2.4-3.1c-1.4-0.8-3.7-0.3-4.2,1.4c-0.2,1-0.2,1.9,0,2.9h-0.2c-1.9-0.2-4.8,0.5-5.8,2.3
		c-1,1.8,0.8,3.9,2.1,4.8c0.8,0.6,1.9,1,2.9,1.1c-1.3,2.6-1.9,5.8,0.8,7.1c1.4,0.6,2.6,0.6,4-0.3c0.6-0.3,1.1-1.1,1.4-1.6
		c0.3-0.5,0.5-1.4,0.8-2.3c1.1,1,2.6,1.4,4,1.6C117.3,320.7,116.6,316.5,115.5,314.7z M110.9,316c-0.5-0.3-1-0.8-1.4-1.1
		c-0.3-0.3-0.8-0.5-1.1-0.8c-0.2,0.5-0.5,0.8-0.6,1.3c-0.3,0.6-0.6,1.4-1,2.1c-0.6,0.8-2.1,0-1.4-1c0.5-0.6,0.6-1.4,1-2.1
		c0.3-0.5,0.5-1,0.8-1.4c-1.1,0-2.3,0.3-3.4,0.3c-1.1,0.2-1-1.6,0-1.8c1.1-0.2,2.4-0.3,3.5-0.3c-0.3-0.8-0.6-1.6-0.8-2.6
		c-0.2-1.1,1.4-1.4,1.6-0.3c0.2,1,0.6,1.9,1,2.7c0.8-0.5,1.4-1,2.1-1.6c0.8-0.8,1.9,0.5,1.1,1.3s-1.8,1.4-2.7,1.9
		c0.2,0.2,0.5,0.3,0.6,0.5c0.5,0.5,1,1,1.6,1.3C112.8,315.2,111.8,316.6,110.9,316z"/>
	<path fill="#FFFFFF" d="M109.9,313.9c0.2-0.2,0.3-0.5,0.5-0.6c0.3-0.3,0.3-0.8,0.2-1.3c-0.2-0.3-0.2-0.6-0.3-0.8
		c-0.2-0.5-0.6-0.6-1.1-0.8c-0.2,0-0.3,0-0.5,0l0,0c-0.2,0-0.3,0-0.5,0.2l0,0c-0.3,0-0.6,0.2-1,0.3c-0.8,0.5-1,1.4-0.8,2.3
		c0.2,0.8,0.6,1.4,1.4,1.6C108.4,314.7,109.2,314.5,109.9,313.9z"/>
</g>
<g opacity="0.61">
	<path fill="#FFFFFF" d="M91.7,344.6c0.5-0.2,0.8-0.5,1.1-0.8c0.2,0.2,0.2,0.3,0.3,0.3c0.8,1.1,3.1,2.4,4,0.6c0.5-1,0.6-2.1,0.3-3.1
		c1-0.3,1.8-0.6,2.3-1.4c0.6-1,0.5-2.4-0.6-2.7c-0.6-0.2-1.3-0.2-1.8-0.2l0,0c0.2-1.3,0-3.2-1.1-3.9c-1.1-0.8-2.6,0.3-3.2,1.1
		c-0.5,0.5-0.8,1.1-1,1.8c-1.6-1-3.5-1.6-4.7,0.2c-0.5,1-0.5,1.6,0,2.6c0.2,0.5,0.6,0.8,1,1.1c0.3,0.2,1,0.5,1.4,0.6
		c-0.6,0.6-1.1,1.6-1.3,2.4C87.7,345.3,90.4,345.3,91.7,344.6z M91.1,341.4c0.2-0.3,0.5-0.5,0.8-0.8c0.2-0.2,0.3-0.5,0.5-0.6
		c-0.3-0.2-0.5-0.3-0.8-0.5c-0.5-0.3-1-0.5-1.3-0.8c-0.5-0.5,0.2-1.4,0.6-1c0.3,0.3,0.8,0.5,1.3,0.8c0.3,0.2,0.6,0.5,0.8,0.6
		c0-0.8,0-1.4,0-2.3c0-0.6,1.1-0.6,1.1,0.2s0.2,1.6,0,2.3c0.6-0.2,1.1-0.3,1.8-0.5c0.6-0.2,0.8,1,0.2,1.1c-0.6,0-1.3,0.3-1.9,0.5
		c0.2,0.5,0.5,1,0.8,1.4c0.5,0.6-0.5,1.3-1,0.6c-0.5-0.6-0.8-1.1-1.1-1.8c-0.2,0.2-0.2,0.3-0.3,0.3c-0.3,0.3-0.6,0.6-1,1
		C91.5,342.7,90.7,342.1,91.1,341.4z"/>
	<path fill="#FFFFFF" d="M92.5,340.9c0.2,0.2,0.3,0.2,0.5,0.3c0.2,0.2,0.5,0.3,0.8,0.2c0.2,0,0.3-0.2,0.6-0.2
		c0.3-0.2,0.5-0.3,0.6-0.6c0-0.2,0-0.2,0-0.3l0,0c0-0.2,0-0.2,0-0.3l0,0c0-0.2,0-0.5-0.2-0.6c-0.3-0.5-0.8-0.6-1.4-0.6
		c-0.5,0-1,0.3-1.1,0.8C92.2,340,92.2,340.5,92.5,340.9z"/>
</g>
<g opacity="0.61">
	<path fill="#FFFFFF" d="M132.1,308.9c0.2,0.5,0.5,0.8,0.8,1.1c-0.2,0-0.3,0.2-0.3,0.2c-1.1,0.6-2.7,2.7-1.1,4
		c1,0.6,1.9,0.8,3.1,0.6c0.2,1,0.5,1.8,1.1,2.3c0.8,0.6,2.4,0.6,2.9-0.5c0.3-0.6,0.3-1.1,0.3-1.8l0,0c1.3,0.3,3.1,0.3,4-0.8
		c0.8-1.1,0-2.6-0.8-3.4c-0.5-0.5-1.1-1-1.8-1.1c1.1-1.4,1.9-3.4,0.3-4.7c-0.8-0.6-1.6-0.6-2.6-0.3c-0.5,0.2-0.8,0.5-1.1,0.8
		c-0.3,0.3-0.5,1-0.8,1.3c-0.6-0.8-1.4-1.3-2.4-1.4C131.8,304.9,131.6,307.6,132.1,308.9z M135.3,308.6c0.3,0.3,0.5,0.6,0.8,1
		c0.2,0.2,0.5,0.5,0.6,0.6c0.2-0.2,0.3-0.5,0.6-0.6c0.3-0.3,0.6-0.8,1-1.1c0.5-0.5,1.3,0.3,0.8,0.8c-0.3,0.3-0.6,0.8-1,1.1
		c-0.2,0.3-0.5,0.5-0.6,0.8c0.6,0.2,1.4,0.2,2.3,0.2c0.6,0.2,0.5,1.1-0.3,1.1c-0.8-0.2-1.6,0-2.3-0.2c0,0.6,0.2,1.1,0.2,1.8
		c0,0.6-1.1,0.8-1.1,0c0-0.6-0.2-1.3-0.3-1.9c-0.5,0.2-1,0.5-1.4,0.6c-0.6,0.3-1.1-0.6-0.6-1c0.6-0.3,1.3-0.6,1.9-1
		c-0.2-0.2-0.3-0.2-0.3-0.3c-0.3-0.3-0.5-0.8-0.8-1C134,308.9,134.8,308.1,135.3,308.6z"/>
	<path fill="#FFFFFF" d="M135.6,310.2c-0.2,0.2-0.3,0.2-0.3,0.3c-0.2,0.2-0.3,0.5-0.3,0.8c0,0.2,0,0.5,0.2,0.6
		c0.2,0.3,0.3,0.5,0.6,0.6c0.2,0,0.2,0,0.3,0.2l0,0c0.2,0,0.2,0,0.3,0l0,0c0.2,0,0.5,0,0.6-0.2c0.5-0.2,0.8-0.8,0.8-1.3
		c0-0.5-0.2-1-0.6-1.3C136.6,309.9,136.1,309.9,135.6,310.2z"/>
</g>
<g opacity="0.61">
	<path fill="#FFFFFF" d="M471.4,339.8c-0.8,0-1.4,0.2-2.1,0.5c0-0.3,0-0.5-0.2-0.6c-0.3-2.1-2.4-5.5-5-3.7c-1.4,1-2.3,2.4-2.4,4
		c-1.4-0.3-2.9-0.3-3.9,0.3c-1.4,0.8-2.3,3.1-1,4.3c0.6,0.6,1.4,1.1,2.4,1.4c0,0,0,0-0.2,0.2c-1.1,1.6-2.3,4.3-1.1,6.1
		c1,1.8,3.7,1.4,5.1,0.8c1-0.3,1.9-1,2.6-1.8c1.4,2.4,3.7,4.7,6.4,3.1c1.4-0.8,1.9-1.9,1.9-3.5c0-0.6-0.3-1.4-0.6-2.1
		c-0.3-0.5-1-1.3-1.4-1.9c1.4-0.5,2.7-1.3,3.5-2.4C477.2,341.6,473.5,339.8,471.4,339.8z M470,344.5c-0.5,0.3-1.1,0.3-1.8,0.5
		c-0.5,0.2-0.8,0.3-1.3,0.5c0.2,0.5,0.5,0.8,0.6,1.3c0.3,0.6,1,1.3,1.1,1.9c0.3,1-1.1,1.8-1.6,0.8c-0.3-0.6-0.8-1.3-1.1-1.9
		c-0.3-0.5-0.5-1-0.8-1.4c-0.6,1-1,2.1-1.4,3.1c-0.5,1-1.9,0-1.4-1c0.5-1,1-2.1,1.6-3.2c-0.8-0.2-1.8-0.3-2.6-0.6
		c-1-0.3-0.5-1.9,0.6-1.6c1,0.3,1.9,0.5,2.9,0.6c0-0.8,0-1.6-0.2-2.6c-0.2-1.1,1.4-1.4,1.6-0.3c0.2,1.1,0.3,2.3,0.2,3.2
		c0.2-0.2,0.5-0.2,0.6-0.3c0.6-0.3,1.3-0.3,1.9-0.6C470.3,342.4,470.9,344,470,344.5z"/>
	<path fill="#FFFFFF" d="M467.6,344.2c0-0.3-0.2-0.5-0.3-0.6c-0.2-0.3-0.5-0.8-1-0.8c-0.3-0.2-0.6-0.2-1-0.2c-0.5,0-1,0.2-1.3,0.5
		c-0.2,0.2-0.2,0.2-0.3,0.3l0,0c-0.2,0.2-0.2,0.3-0.2,0.5l0,0c-0.2,0.3-0.2,0.6-0.2,1c0,1,0.6,1.6,1.4,1.9s1.6,0.3,2.1-0.3
		C467.6,345.8,467.7,345,467.6,344.2z"/>
</g>
<g opacity="0.61">
	<path fill="#FFFFFF" d="M447.6,367.3c0,0.5,0.2,0.8,0.3,1.3c-0.2,0-0.3,0-0.3,0.2c-1.1,0.3-3.1,1.8-1.9,3.2
		c0.6,0.8,1.6,1.1,2.4,1.3c-0.2,0.8,0,1.8,0.5,2.3c0.5,0.8,1.9,1.1,2.6,0.3c0.3-0.5,0.6-1,0.8-1.4l0,0c1,0.6,2.6,1.1,3.7,0.3
		c1-0.6,0.6-2.3,0.2-3.1c-0.3-0.6-0.6-1-1.1-1.4c1.3-1,2.6-2.4,1.4-3.9c-0.6-0.8-1.3-1-2.1-1c-0.5,0-0.8,0.3-1.3,0.5
		c-0.3,0.2-0.6,0.6-1,1c-0.3-0.8-1-1.4-1.6-1.9C448.3,363.8,447.4,366,447.6,367.3z M450.3,367.8c0.2,0.3,0.3,0.6,0.5,1
		c0.2,0.2,0.3,0.5,0.3,0.6c0.2-0.2,0.5-0.3,0.6-0.5c0.3-0.3,0.6-0.6,1.1-0.8c0.6-0.3,1.1,0.6,0.5,0.8c-0.3,0.2-0.8,0.5-1.1,0.8
		c-0.3,0.2-0.5,0.3-0.8,0.5c0.6,0.3,1.3,0.5,1.8,0.6c0.6,0.3,0.2,1.1-0.5,0.8c-0.6-0.3-1.3-0.5-1.9-0.8c-0.2,0.5-0.2,1.1-0.2,1.6
		c-0.2,0.6-1.1,0.3-1-0.3c0.2-0.5,0.2-1.1,0.3-1.8c-0.5,0-1,0.2-1.4,0.3c-0.6,0.2-1-0.8-0.3-1c0.6-0.2,1.3-0.3,1.9-0.3
		c-0.2-0.2-0.2-0.3-0.2-0.3c-0.2-0.3-0.3-0.8-0.5-1.1C449.2,367.8,450,367.3,450.3,367.8z"/>
	<path fill="#FFFFFF" d="M450.3,369.3c-0.2,0-0.3,0.2-0.3,0.2c-0.2,0.2-0.3,0.3-0.5,0.6c0,0.2,0,0.3,0,0.5c0,0.3,0.2,0.5,0.3,0.8
		l0.2,0.2l0,0c0,0,0.2,0,0.3,0.2l0,0c0.2,0,0.3,0.2,0.6,0c0.5,0,0.8-0.5,1-1c0.2-0.5,0-1-0.3-1.3
		C451.1,369.3,450.8,369.1,450.3,369.3z"/>
</g>
<g opacity="0.61">
	<path fill="#FFFFFF" d="M645.8,140.1l-1.6,5.1c-0.6,2.1-2.9,3.4-5.1,2.6l0,0c-1.3-0.5-2.9-1-4.7-1.4s-3.9-1.1-6.3-1.6
		c-4.7-1.1-10.5-2.4-17.2-3.4c-6.1-0.8-13.2-1.6-20.8-1.6c1.4,3.7,2.1,7.2,2.1,11.1c0.3,1,0.5,1.8,0.5,2.6c0.2,3.9,0.5,7.7-0.3,11.6
		c-2.1,10-6.4,19.6-11.4,29.3c-1.4,2.9-7.9,3.7-8.4,0.3c-1.9-16.7-9.2-37.6,2.9-54.7c-4.7,0.3-9.5,0.8-14.5,1.6
		c-2.4,0.3-4.8,0.8-7.2,1.3c-1.1,0.3-2.4,0.5-3.5,0.8c-1.3,0.3-2.6,0.6-3.7,1c-5.1,1.1-10,2.7-15,4.2c-1.8,0.6-3.7,1.3-5.5,1.9
		c12.5,5,20.4,17.9,23.3,31.1c1.6,7.2,2.6,14.6,0.2,21.9c-2.9,8.2-6.6,15.9-5.1,24.8c0.5,3.2-4.7,4-5.5,1
		c-6.8-22.8-32.7-51.3-19-76.4c-6.3,2.4-12.5,5-18.8,7.7c-3.2,1.4-6.6,2.9-10,4.5c5.3,11.4,8.7,22.2,6.1,35.1
		c-2.6,12.7-10.3,21.9-17.7,32.3c-0.6,1-2.4,0.6-2.6-0.6c-0.5-19.6-7.7-43.6,2.3-61.3c-3.2,1.4-6.3,2.9-9.5,4.3
		c-5.8,2.6-11.4,5.1-17.4,7.7c1.8,9.2,2.6,18.8,0.6,28.2c-2.4,10.9-8,19.1-15.9,27c-0.6,0.6-2.1,0.5-2.4-0.6
		c-3.9-18-5.1-36.2,6-49.9c-10.3,4-20.8,7.4-31.1,9.8c5.3,6.3,6.4,13,4.8,18c-1.8,5.3-6.4,9.3-10.9,13c-3.9,3.4-7.9,6.8-10,11.1
		c-0.2,0.5-1,0.3-1-0.2c-0.3-3.4-0.6-6.9-1-10.3c-0.6-6.9-1.3-13.8,0.6-19.8c1.1-3.9,3.4-7.2,7.1-9.7c-8.5,1.4-16.9,2.3-24.9,2.4
		c-2.1,0-4.3,0.2-6.4,0.2c0.2,0.2,0.3,0.3,0.3,0.6c1.1,6,2.6,12.5,1.3,18.5c-1.6,7.7-9.3,13.5-8.7,21.7c0,1.3-1.6,1.3-2.1,0.3
		c-6.1-13.4-8.7-32.2,5.1-41.2c-6.3-0.2-12.2-0.5-17.7-1c-0.3,0-0.6,0-1-0.2c-1.6,2.9-3.2,5.8-4.8,8.8c-0.8,1.4-1.6,2.9-2.7,4.2
		c-1.4,1.6-3.2,3.1-5,4.3s-3.5,2.6-5.3,3.7c-0.3,0.3-0.8,0.5-1.3,0.5c-0.3-5.3,2.3-10.6,6.1-14.5c3.1-3.1,6.8-5.3,10.5-7.4
		c-7.2-0.8-14-1.8-20.1-2.9c-0.5,0-0.8-0.2-1.3-0.2c-0.2,2.6-1.8,5-3.9,6.6c-2.3,1.6-4.8,2.7-7.4,3.7s-5.1,1.9-7.4,3.7
		c1.1-1.4,2.3-2.9,3.4-4.3c1.9-2.4,3.7-4.8,6.1-6.8c1.9-1.6,4.5-2.9,6.9-3.2c-5.6-0.8-10.8-1-14.8-1.9c-5-1.1-8.8-2.9-11.4-3.5
		c-2.6-0.6-3.5-1.6-3.5-1.6s1.3,0,4,0.6c2.7,0.6,6.6,1.1,11.6,2.1c0.6,0.2,1.3,0.3,1.9,0.3l-0.2-0.2c-1.4-1.3-2.7-2.7-3.9-4.3
		c-1.1-1.6-2.4-3.2-3.1-5.1c-0.8-2.3-1-4.8-1.1-7.2c-0.2-2.3-0.2-4.5-0.3-6.8c0.5,2.4,2.4,4.3,4.2,6.1c3.9,4,7.1,8.7,9.2,13.8
		c0.6,1.6,1.3,3.2,1.3,5c3.1,0.6,6.3,1.1,9.8,1.6c2.4,0.3,5,0.6,7.6,1.1c-8.8-5.6-9.7-18.3-7.6-28.2c0.2-0.8,1.4-1,1.6,0
		c0.8,6.1,7.6,9,10,14.6c1.9,4.3,1.9,9.3,2.1,13.8c0,0.2,0,0.3-0.2,0.5c3.2,0.3,6.4,0.6,9.8,0.8c8.5,0.5,18,0.6,27.8,0
		c1.9-0.2,4-0.3,6.1-0.5c-2.4-1.3-4.3-3.4-5.6-5.6c-1.9-3.4-3.1-7.1-4.2-10.8c-2.6-8.2-5.6-16.1-9.5-23.8c0.6-0.3,1.3,0,1.9,0.3
		c4,2.3,8,4.5,11.6,7.4c3.5,3.1,6.4,6.8,8,10.9c2.4,6.6,1.1,14.2,3.5,20.8c6.1-0.8,12.4-1.9,18.8-3.5c7.1-1.8,14.3-4,21.4-6.8
		c-9.7-3.1-17.9-6.9-24-15.4c-6-8.4-7.1-17.7-9-27.5c-0.2-0.8,1-1.8,1.8-1.1c13.5,12.1,35.4,21.7,35.2,42.6
		c8.4-3.4,16.7-7.1,25.1-11.1c-6.3-1.6-11.6-4.5-16.1-9.7c-6.1-7.1-9.3-16.1-15.1-23.5c-0.5-0.6,0-1.6,0.8-1.6
		c13.5-0.6,24.9,5.5,31.4,17.4c1.9,3.4,3.5,6.9,5,10.6c0.3,0.8,1,1.9,1.4,3.2c1.4-0.6,2.9-1.4,4.5-2.3c8.4-4.2,16.6-8.5,24.9-12.5
		c-6.9-1-14-3.2-18.7-8.4c-8.8-9.5-14.6-21.9-22.5-32.2c-0.5-0.6,0-1.6,0.6-1.9c9-2.7,22.7-1.1,29.1,6.4c8.2,9.3,14,20.9,19.1,32.2
		c9.7-4.7,19.5-9,29.1-12.5c1.6-0.5,3.2-1.1,4.8-1.6c-32.7-3.2-41.8-37.5-53.4-59.5c-1.3-2.4,2.1-5.6,5.1-5
		c15.1,3.4,28.8,9.8,37.5,20.4c9.3,11.4,12.2,26.4,20.4,38.5c1,0.3,1.3,1.3,1.1,2.3l0,0c1.3-0.3,2.4-0.8,3.7-1.1
		c1.3-0.3,2.6-0.6,4-1c2.6-0.6,5.1-1.1,7.6-1.6c1-0.2,1.9-0.3,2.9-0.5c-13.5-9.8-16.3-29-23.7-43.4c-1.3-2.4,1.9-5.1,4.2-4
		c10.3,5,18.7,10.3,24.5,20.4c4.5,7.7,7.2,16.4,9.2,25.1c4-0.3,7.9-0.6,11.6-0.6c9-0.3,17.2,0.2,24.5,1c7.2,0.8,13.5,1.8,18.7,2.9
		c2.6,0.5,4.8,1.1,6.9,1.6s3.7,1,5,1.3l0,0C645.3,135.6,646.5,137.9,645.8,140.1z"/>
</g>
<g opacity="0.61">
	<path fill="#FFFFFF" d="M10.8,549.8L9,546.4c-0.8-1.4-0.2-3.2,1.3-3.9l0,0c1-0.5,1.9-1,3.1-1.6c1.1-0.6,2.4-1.4,4-2.3
		c2.9-1.8,6.6-4,10.3-6.9c3.5-2.6,7.4-5.8,11.3-9.5c-2.6-1.1-4.7-2.7-6.6-4.5c-0.6-0.3-1.1-0.6-1.6-1.1c-2.1-1.8-4-3.5-5.6-6
		c-4-6.1-6.6-13-9-20.4c-0.6-2.3,2.1-5.8,4-4.3c9.5,7.4,23.5,14.3,26.1,29c2.3-2.6,4.3-5.1,6.4-8c1-1.4,2.1-2.7,3.1-4.3
		c0.5-0.6,1-1.4,1.4-2.1c0.5-0.8,1-1.6,1.4-2.4c1.9-3.2,3.7-6.4,5.5-9.7c0.6-1.3,1.3-2.4,1.8-3.7c-8.8,3.9-19.3,1.3-27.4-3.9
		c-4.5-2.7-8.7-6.1-11.1-10.9c-2.7-5.6-4.7-11.4-9.8-15.1c-1.9-1.3,0.3-4.3,2.3-3.2c14.8,8,42.3,9.3,47.9,28.8
		c1.9-4.3,3.9-8.8,5.6-13.4c1-2.4,1.8-4.8,2.7-7.2c-8.5-3.1-15.6-6.8-20.8-14.6c-5.1-7.7-5.8-16.3-7.2-25.1c-0.2-0.8,1-1.6,1.6-1
		c10.1,9.7,25.9,18,29.8,32c0.8-2.3,1.8-4.7,2.6-6.9c1.6-4.2,3.2-8.4,4.8-12.5c-5.5-3.7-10.8-8.2-14.5-13.8
		c-4.3-6.8-5.5-13.7-5.6-21.6c0-0.6,0.8-1.3,1.4-1c10.9,7.1,20.8,15.6,22,28c3.2-7.2,6.8-14.2,10.8-20.6c-6-0.5-9.8-3.2-11.4-6.6
		c-1.8-3.5-1.4-7.9-1-12.1c0.3-3.7,0.6-7.4-0.5-10.6c-0.2-0.3,0.3-0.6,0.6-0.5c1.9,1.6,3.7,3.2,5.6,4.7c3.7,3.2,7.6,6.4,9.7,10.3
		c1.3,2.6,1.9,5.5,1.3,8.4c3.5-5,7.4-9.7,11.3-13.8c1.1-1.1,2.1-2.3,3.2-3.2c-0.2,0-0.3,0-0.5-0.2c-3.5-2.4-7.6-5-10-8.7
		c-3.1-4.7-2.1-11.4-6.4-15.3c-0.6-0.6,0.2-1.4,0.8-1.3c9.8,3.7,20.6,11.7,18.2,23.3c3.2-3.1,6.4-6,9.5-8.4c0.2-0.2,0.3-0.3,0.5-0.5
		c-0.6-2.3-1.3-4.5-1.9-6.8c-0.3-1.1-0.6-2.3-0.8-3.5c-0.2-1.6,0.2-3.2,0.3-4.7c0.3-1.4,0.5-3.1,0.8-4.5c0-0.3,0.2-0.6,0.3-1
		c2.9,2.6,4.2,6.4,4.2,10.3c0,3.1-0.6,6.1-1.6,9c4-3.2,8-6.1,11.6-8.7c0.3-0.2,0.5-0.3,0.8-0.5c-1.3-1.4-1.6-3.4-1.3-5.3
		s1.1-3.7,1.9-5.5c0.8-1.8,1.6-3.5,1.9-5.5c0.2,1.3,0.3,2.6,0.5,3.9c0.3,2.1,0.5,4.3,0.3,6.4c-0.2,1.8-0.8,3.7-1.9,5.1
		c3.2-2.4,6-4.8,8.5-6.4c3.1-1.9,5.8-3.1,7.6-4c1.6-1,2.6-1,2.6-1s-0.6,0.6-2.3,1.8s-3.9,2.7-6.9,4.7c-0.3,0.3-0.8,0.5-1.1,0.8h0.2
		c1.3-0.2,2.7,0,4,0.3c1.4,0.2,2.9,0.5,4.2,1.1c1.6,0.8,2.9,1.9,4.2,3.1c1.1,1.1,2.4,2.1,3.5,3.2c-1.4-1-3.4-1-5.1-1
		c-4,0-7.9-0.8-11.6-2.3c-1.1-0.5-2.3-1-3.2-1.9c-1.8,1.3-3.7,2.6-5.8,4c-1.4,1.1-2.9,2.1-4.3,3.2c7.2-1.6,14,4.3,17.9,10.3
		c0.3,0.5-0.2,1.3-0.8,0.8c-3.5-2.6-8.4-0.8-12.4-2.3c-3.1-1.1-5.6-3.7-8-6c-0.2-0.2-0.2-0.2-0.2-0.3c-1.8,1.4-3.5,2.9-5.5,4.5
		c-4.7,4-9.3,8.7-14,14c-1,1.1-1.9,2.1-2.7,3.2c1.8-0.6,3.9-0.5,5.8,0c2.7,0.6,5.1,2.1,7.6,3.4c5.3,2.9,10.9,5.3,16.7,7.2
		c-0.2,0.5-0.6,0.6-1.1,0.8c-3.1,1-6.3,1.8-9.5,2.1c-3.2,0.3-6.6-0.2-9.5-1.4c-4.5-2.1-7.7-6.6-12.2-8.7c-2.7,3.5-5.3,7.2-7.6,11.3
		c-2.7,4.5-5.1,9.2-7.4,14.2c6.4-3.4,12.4-5.5,19.8-4.3c7.2,1.1,12.4,5.3,18.3,9.3c0.5,0.3,0.3,1.4-0.3,1.4
		c-12.9,0.8-28.8,6.9-39.1-3.7c-2.6,6-4.8,12.1-7.1,18.2c4-2.3,8-3.5,13-3.2c6.6,0.5,12.9,3.4,19.5,4.2c0.6,0,0.8,0.8,0.3,1.3
		c-6.4,7.1-15.3,9.8-24.6,7.1c-2.7-0.8-5.3-1.8-7.7-2.9c-0.5-0.2-1.4-0.5-2.4-0.8c-0.3,1.1-0.8,2.3-1.1,3.4
		c-2.1,6.3-4,12.5-6.3,18.8c4-3.1,8.7-5.3,13.7-5.1c9.2,0.3,18.3,3.7,27.5,4.8c0.6,0,0.8,0.8,0.6,1.3c-3.2,6-10.8,11.9-17.9,11.4
		c-8.8-0.6-17.5-3.5-25.9-6.6c-2.6,7.2-5.3,14.3-8.4,21.1c-0.5,1.1-1.1,2.3-1.6,3.2c18-14.8,39.9-2.3,56.8,3.1
		c1.8,0.6,1.8,3.9-0.2,5.1c-9.3,6-19.5,9.5-29.1,8.5c-10.5-1-19.5-7.1-29.6-9.2c-0.6,0.3-1.3,0-1.8-0.6l0,0c-0.5,0.8-1,1.6-1.3,2.4
		c-0.5,0.8-1,1.6-1.4,2.4c-1,1.6-1.9,3.1-3.1,4.7c-0.3,0.6-0.8,1.1-1.1,1.6c11.6-1.9,22.7,6.4,33.8,10c1.9,0.6,1.6,3.5-0.2,4.2
		c-7.7,2.6-14.6,4.2-22.5,2.1c-6.1-1.6-11.9-4.7-17.2-8c-1.8,2.3-3.7,4.2-5.5,6.3c-4.3,4.7-8.7,8.5-12.7,11.7c-4,3.2-7.7,6-10.8,7.9
		c-1.6,1-3.1,1.9-4.3,2.6c-1.3,0.8-2.4,1.4-3.2,1.8l0,0C13.2,551.7,11.6,551.2,10.8,549.8z"/>
</g>
<path opacity="0.61" fill="#FFFFFF" enable-background="new    " d="M454.8,314.1c-1.6-0.3-3.1-1-4.5-1.4c-0.6-0.2-1.1-0.3-1.8-0.3
	c1.6-1.9,3.1-4,4-6.4c1.1-2.3-2.6-4-3.5-1.6c-0.8,1.8-1.8,3.4-3.1,5c-1.4-1.8-3.1-3.2-4.3-5.1c-1.4-2.1-4.7,0.2-3.2,2.3
	c1.1,1.8,2.7,3.2,4,4.8c-2.6,1-4.8,2.6-7.2,3.9c-2.3,1.1-1,4.8,1.3,3.7s4.5-2.6,6.8-3.7c0,1.3-0.3,2.4-0.5,3.7
	c-0.3,1.8,0,3.7-0.5,5.3c-0.6,2.4,3.2,3.1,3.9,0.6c0.5-1.6,0.2-3.5,0.5-5.3c0.2-1.1,0.3-2.1,0.3-3.2c1,0.2,2.1,0.3,3.1,0.6
	c1.3,0.3,2.6,1,3.9,1.3C456.6,318.4,457.3,314.5,454.8,314.1z"/>
<path opacity="0.61" fill="#FFFFFF" enable-background="new    " d="M438.1,413.7c0-1.1,0.2-2.3,0.3-3.4c0-0.5,0-0.8,0-1.3
	c1.6,0.8,3.4,1.4,5.1,1.8c1.8,0.3,2.4-2.4,0.6-2.7c-1.4-0.3-2.7-0.8-3.9-1.3c1-1.3,1.8-2.7,2.9-3.9c1.3-1.3-0.8-3.2-2.1-1.9
	c-1,1.1-1.8,2.4-2.7,3.5c-1.1-1.6-2.6-2.9-3.7-4.3c-1.1-1.4-3.5,0.2-2.4,1.4c1.1,1.4,2.6,2.7,3.5,4.2c-0.8,0.2-1.8,0.2-2.7,0.3
	c-1.3,0.2-2.6,0.5-3.7,0.5c-1.8,0-1.6,2.7,0.2,2.7c1.3,0,2.6-0.5,3.7-0.5c0.8,0,1.6-0.2,2.3-0.2c0,0.8,0.2,1.4,0,2.3
	c0,1-0.3,1.9-0.3,2.9C435.4,415.6,438.1,415.4,438.1,413.7z"/>
<path opacity="0.61" fill="#FFFFFF" enable-background="new    " d="M413,380c1.3,0,2.7,0.3,4,0.5c0.5,0,1,0,1.4,0
	c-1,1.9-1.8,4-2.3,6.1c-0.5,2.1,2.7,2.9,3.4,0.8c0.3-1.6,1-3.2,1.8-4.7c1.4,1.3,3.2,2.3,4.7,3.5c1.6,1.6,3.9-1,2.4-2.4
	c-1.3-1.3-2.9-2.3-4.3-3.4c1.9-1.3,3.5-3.1,5.5-4.5c1.8-1.3,0-4.2-1.8-2.9c-1.8,1.3-3.4,3.1-5.1,4.2c-0.2-1.1-0.2-2.1-0.3-3.2
	c0-1.4-0.6-3.1-0.5-4.5c0.2-2.3-3.2-2.1-3.4,0.2c-0.2,1.4,0.5,3.1,0.5,4.5c0,1,0.2,1.9,0.2,2.7c-0.8,0-1.8,0-2.7,0
	c-1.1,0-2.3-0.5-3.5-0.3C410.8,376.7,410.9,380,413,380z"/>
<path opacity="0.61" fill="#FFFFFF" enable-background="new    " d="M580.3,475.9L580.3,475.9c0,1.6-1.3,2.7-2.7,2.7h-3.5
	c-1.4,0-2.7-1.3-2.7-2.7l0,0c0-1.8,0.3-4.7,0-7.7c0-1.6,0-3.4-0.2-5.5c-0.2-1.9-0.3-4.2-0.5-6.4c-0.2-1.1-0.3-2.3-0.5-3.4
	c-0.2-1.3-0.3-2.6-0.5-4c-0.5-2.6-1-5.3-1.6-8c0,0,0-0.2,0-0.3c2.1,1,4,2.1,5.8,3.1c0.8,0.5,1.3,1.1,1.4,1.9c0.6,0.2,1,0.6,1.3,1
	c0.2-0.2,0.3-0.3,0.5-0.6c0.2,0.5,0.2,1.1,0.3,1.6c0.5,2.7,1,5.3,1.3,7.7c0.2,0.8,0.2,1.4,0.3,2.1c0.2,1.6,0.3,3.2,0.5,4.7
	c0.3,2.1,0.3,4.2,0.5,6C580.3,471.4,580.2,474,580.3,475.9z"/>
<path opacity="0.61" fill="#FFFFFF" enable-background="new    " d="M453.9,284.9c-0.2-0.2-0.3-0.2-0.3-0.3c0,0,0,0,0.2,0
	C453.7,284.8,453.7,284.8,453.9,284.9z"/>
<path opacity="0.61" fill="#FFFFFF" enable-background="new    " d="M583.9,423.8c-2.9,2.7-6.6,6.3-10.6,7.4
	c0.8,2.6,1.4,5.1,2.3,7.7c0.6,2.4,1.1,4.7,1.6,6.8c-0.2,0.2-0.3,0.3-0.5,0.6c-0.3-0.5-0.8-0.8-1.3-1c-0.2-0.8-0.5-1.4-1.4-1.9
	c-1.8-1-3.7-2.1-5.8-3.1c-1.3-5.5-2.7-11.4-5-17.7c-0.3-0.8-0.5-1.6-0.8-2.3c0,0-0.2,0-0.2,0.2c-7.1,2.9-14.6,5.6-22.4,6
	c-4.3,0.2-13.2-2.3-11.6-8.4c2.9-11.9,20.3-9.3,30.9-5.8c-1.1-2.9-2.4-5.8-3.9-8.8c-2.1-4.5-4.3-9-6.8-13.5
	c-6.3,2.4-12.5,4.8-19.1,6c-4.7,0.8-12.7-0.6-13-6.6c-0.8-12.5,18-9.2,27.8-6.9c-3.7-6.1-7.7-12.1-11.9-18l0,0
	c-5.8,1.8-20.1,11.4-23,1c-1.3-4.5,1.9-8.4,6-9.7c3.1-1,6.6-0.8,10.1-0.2c-2.3-2.7-4.5-5.5-6.8-8.2c-4.8,2.1-17.5,7.6-17.7-0.6
	c-0.2-3.2,3.2-4.8,6-5.1c2.3-0.3,4.8-0.2,7.1,0.5c-3.4-3.9-6.9-7.6-10.3-11.1c-2.1,2.3-4.8,5-7.9,5.8c-2.6,0.8-5.1-1-6.1-3.2
	c-1-2.1,0.5-5,2.6-5.8c2.7-1,5.1-1.1,7.7-0.3c-3.5-3.5-6.9-6.9-10.3-10c0,0-0.2,0-0.2,0.2c-3.2,0.8-12.7,6.1-14.5,1.1
	c-0.8-2.4,2.6-4,4.3-4.7c2.1-0.6,4.5-0.5,6.6,0c-2.7-2.6-5.3-5-7.9-7.2c-0.2,0.3-0.3,0.6-0.8,0.8c-1.9,0.5-3.4,2.3-5.3,3.1
	c-1.6,0.6-3.9,0.5-4.7-1.4c-0.8-1.8,0.6-3.4,2.3-4c2.1-0.8,4.2-0.6,6.3-0.2l0,0c-0.8-0.8-1.6-1.4-2.4-2.3c-1.4-1.3-2.7-2.4-4-3.5
	c-1.6,1.8-3.9,3.1-6.3,3.4c-1.8,0.3-4-0.2-4.3-2.3c-0.3-2.1,1.8-3.5,3.5-4c1.1-0.2,2.6-0.2,3.9,0.2c-1.9-1.6-3.7-3.2-5.3-4.7
	l-0.2,0.2c-1.1,0.8-2.4,1.4-3.7,1.9h-0.2c-0.5,0.3-1,0.5-1.4,0.8c-1.4,0.6-2.6-0.3-3.1-1.6c-0.5-1.4,0.3-2.7,1.6-3.2
	c0.8-0.3,1.6-0.5,2.6-0.5c0.8,0,1.4,0.3,2.3,0.3c-1-0.8-1.9-1.6-2.7-2.4l-0.2-0.2l0,0c-0.6-0.5-1.3-1.1-1.8-1.6
	c0,0.2-0.2,0.3-0.3,0.5c-1.1,0.3-2.6,1.1-3.9,1.1c-1,0-1.9-0.8-1.8-1.8c0.2-1.1,1.1-1.6,2.1-1.9c0.5-0.2,0.8,0,1.3,0c0,0,0,0,0-0.2
	c-1.3-1.1-2.4-2.1-3.2-2.7c0,0,0,0-0.2,0c-3.1,0.6-7.4,1.6-10.6,1c-1.4-0.3-5.3-1.6-4.7-3.7c1.4-4.8,9.3-1.8,12.4,0.2l0,0
	c0,0,0.2,0.2,0.3,0.3l0,0l0,0c0.3,0.3,0.8,0.6,1.6,1.1l0.2,0.2c0.2,0,0.2,0.2,0.3,0.3c0,0,0.2,0,0.2,0.2c0.8,0.6,1.8,1.3,2.9,2.3
	c0,0,0-0.2-0.2-0.2c-0.2-0.2-0.2-0.5-0.3-0.6c-1.6-3.2-3.7-7.7,0.2-9.3c3.5-1.6,3.1,10.5,3.1,11.9c0,0.2,0,0.3-0.2,0.3
	c0,0,0,0,0,0.2l0,0l0.2,0.2l0,0c0.2,0.2,0.3,0.2,0.3,0.3c0.5,0.3,1,0.8,1.4,1.3c-0.3-1.4-0.2-2.7,0.2-4.2c0.3-1.1,1.3-3.4,2.9-3.1
	c1.8,0.3,1.9,2.1,1.6,3.7c-0.3,1.6-1,4.2-2.6,5h-0.2c1.8,1.4,3.9,3.1,6,4.8c-0.5-1.4,0-3.2,0.3-4.8c0.3-1.8,1.4-4,3.4-4.2
	c1.8-0.2,1.9,2.9,1.8,4c-0.3,2.3-1.8,4.8-3.7,6.1c0,0-0.2,0-0.3,0.2c2.3,1.8,4.5,3.5,6.9,5.6c-0.5-1.6-0.3-3.2,0.2-4.8
	c0.8-2.1,2.9-5,5.5-4.5c2.1,0.3,1.6,4,1.3,5.5c-0.6,2.4-2.1,4.8-4.2,6.1c2.1,1.8,4.2,3.5,6.4,5.3c-0.2-2.7,1.3-5.3,2.9-7.6
	c0.8-1,2.4-1.3,3.4-0.5c1.1,1,1.1,2.4,1,3.9c-0.3,1.8-1.1,3.5-1.9,5c-0.5,0.8-1,1.8-1.6,2.3c2.4,2.1,4.8,4.2,7.4,6.4
	c0-0.2,0-0.3,0-0.6c-0.3-1.4-0.3-2.7,0.2-4.2c0.6-2.1,2.6-3.7,4.8-3.4c2.3,0.3,3.2,3.1,3.2,5c0,2.9-1,6-2.1,8.5
	c2.1,1.9,4.3,4,6.6,6.1c1.1,1,2.1,2.1,3.2,3.1c-0.2-1.8,0.2-3.4,1-5.1c0.8-2.1,3.1-5,5.6-3.7c2.6,1.3,1.9,5.3,1.6,7.6
	c-0.3,1.6-1,5.1-2.4,6.9c2.4,2.4,4.8,4.8,7.1,7.4c0.3,0.3,0.6,0.6,1,1.1c0.2-1.9,0.6-3.9,1.6-6c1-2.1,2.6-5.1,5-6.1
	c1-0.6,2.4-0.6,3.4,0.3c0.2,0.2,0.2,0.3,0.3,0.5c1.4,1.3,1.9,3.5,1.6,5.5c-0.6,4-4.5,8.2-6.9,11.4c3.2,3.7,6.3,7.4,9.3,11.3
	c0.6,0.8,1.3,1.6,1.8,2.4c0.5-3.2,1.8-6.3,3.7-9.2c2.1-3.2,4.7-7.6,8.5-8.5c3.7-1,6,2.9,6.8,5.8c1.1,4.2-0.6,8.5-2.6,12.1
	c-1.8,3.4-4.8,9.2-8.7,10.3l0,0c1.4,2.1,2.9,4.2,4.3,6.3c2.3,3.5,4.3,7.1,6.3,10.5c3.1-9.8,10.6-23.5,20.4-18.8
	c12.7,6.1-6.8,24.9-14,31.1c2.4,5,4.7,9.8,6.4,14.6c2.6-4.2,5.5-8,9-11.4c2.7-2.7,6.6-6.1,10.9-5.1
	C601.6,404.3,588.2,419.8,583.9,423.8z"/>
<path opacity="0.61" fill="#FFFFFF" enable-background="new    " d="M591,448.9c-1.8,2.6-4,4.7-6.8,6.3c-1.3,0.8-3.2,1.8-5.1,2.1
	c-1.3,0.3-2.4,0.3-3.4-0.2c-0.5-0.2-0.8-0.5-1-0.6c-1.1-0.5-1.9-1.6-1.6-3.1c0-0.5,0.2-1.1,0.3-1.6c-1,0.5-2.1,0.8-3.2,1
	c-2.7,0.6-5.6,0.5-8.4,0c-4-0.6-10.6-1.8-10.8-6.8c-0.2-4.2,6.1-6.8,9.3-7.2c2.6-0.3,5.3,0.5,7.7,1.6c2.1,1,4,2.1,5.8,3.1
	c0.8,0.5,1.3,1.1,1.4,1.9c0.6,0.2,1,0.6,1.3,1c0.2-0.2,0.3-0.3,0.5-0.6c0.2-0.3,0.5-0.5,0.6-0.8c2.4-2.7,4.8-5.8,8.2-7.2
	c2.6-1.1,5.1,0.5,6.6,2.3C594.7,442.6,592.3,446.8,591,448.9z"/>
</svg>
