<?xml version="1.0" encoding="utf-8"?>
<!-- Generator: Adobe Illustrator 18.1.0, SVG Export Plug-In . SVG Version: 6.00 Build 0)  -->
<!DOCTYPE svg PUBLIC "-//W3C//DTD SVG 1.1//EN" "http://www.w3.org/Graphics/SVG/1.1/DTD/svg11.dtd">
<svg version="1.1" id="Layer_1" xmlns="http://www.w3.org/2000/svg" xmlns:xlink="http://www.w3.org/1999/xlink" x="0px" y="0px"
	 viewBox="0 0 935.7 720" enable-background="new 0 0 935.7 720" xml:space="preserve">
<g>
	<g>
		<path fill="#50535F" d="M716.1,420.7l-66.6-92.4l-37.5,107c-2.9,13.8,11.2,14.8,15.1,11.1l9.7-7.9
			c-23.2,121.4-115.6,111-116.8,110.9L498.3,204l40.9-3.8c6,5.5,13.9,8.4,22.2,8.1c15.9-0.6,28.9-13.6,29.6-29.5
			c0.4-8.5-4.1-31.9-30.9-32.3c-8.5-0.1-16.6,3.6-22.4,9.7l-42.7-5.2l-2-32.5c16.4-9.9,26.2-28,25.4-47.4
			C517.1,44.7,494.4,21,465.8,21c-29,0-52.5,23.6-52.5,52.5c0,18.3,9.4,35,24.8,44.6l-2.1,33l-41.6,5.1c-6.1-6.4-14.7-10-23.7-9.6
			c-15.9,0.6-29.6,13.5-29.6,29.4c-0.1,26.3,21.4,32.7,30.9,32.4c7.8-0.3,15.2-2.9,20.9-8.1l39.8,3.7L411,549.2
			c-0.4,0-93.7,7-116.1-115.2l15.1,11.3l0.6,0.4c10.3,4.9,17.1-5.7,14-12.4l-45.7-104.4l-59.5,97.3c-5.6,12,8,16.5,12.2,13.8
			l17.2-10.4C244,564.9,352.5,624.6,422.6,650.8c34.1,23.9,43.1,47.7,43.1,47.7s10.2-25.1,42.5-47.7
			c70.8-26.5,179.1-85.9,173.8-224.3l22.9,9.2C711.4,438.4,721.8,431.4,716.1,420.7z M443,73.5c0-12.6,10.2-22.8,22.8-22.8
			c12.6,0,22.8,10.2,22.8,22.8c0,12.6-10.2,22.8-22.8,22.8C453.2,96.3,443,86.1,443,73.5z M667.8,407.5L667.8,407.5
			C694,583.2,502.5,640,502.5,640s-18.1,13.2-30.9,27.3V108c16.6-2.8,29.2-17.2,29.2-34.6c0-19.3-15.7-35-35-35
			c-19.3,0-35,15.7-35,35c0,17.1,12.4,31.4,28.6,34.4v559.4c-12.8-14.2-30.9-27.4-30.9-27.4s-190-58.4-165.2-233.5l0,0l-27.9,16.9
			l41.7-68.1l32.7,74.6l-31.1-23.3l0,0c15.4,173.9,144,154,144,154l23.1-367.6l-57.6-5.3c0,0-5.7,8.6-16.1,8.6
			c-5.2,0-18.6-3.6-18.7-19.6c-0.1-9.6,9.4-17.4,17.9-17.8c12-0.5,17.9,10.4,17.9,10.4l58.4-7.1l3.2-50.9c0,0-25.8-10.9-25.2-37.6
			c0.5-22.2,18.1-40.7,40.3-40.3c23.8,0.4,39.6,18.2,40.3,38.4c1,30.1-25.9,39.7-25.9,39.7l3.2,50.5l59.6,7.3
			c0,0,6.1-10.4,17.1-10.4c15,0,18.9,14.4,18.7,19.6c-0.4,9.6-8.3,17.4-17.9,17.8c-11.3,0.5-16.8-8.6-16.8-8.6l-58.7,5.4l23.1,367.4
			c0,0,129.2,22.5,145-151.2l0,0l-27.1,22.1l26.9-76.8l48.1,66.7L667.8,407.5z"/>
	</g>
</g>
</svg>
