<?xml version="1.0" encoding="utf-8"?>
<!-- Generator: Adobe Illustrator 18.1.0, SVG Export Plug-In . SVG Version: 6.00 Build 0)  -->
<!DOCTYPE svg PUBLIC "-//W3C//DTD SVG 1.1//EN" "http://www.w3.org/Graphics/SVG/1.1/DTD/svg11.dtd">
<svg version="1.1" id="Layer_1" xmlns="http://www.w3.org/2000/svg" xmlns:xlink="http://www.w3.org/1999/xlink" x="0px" y="0px"
	 viewBox="0 0 935.7 720" enable-background="new 0 0 935.7 720" xml:space="preserve">
<g>
	<path fill="#50535F" d="M259.4,103c-4.4,0-8-3.6-8-8c0-3.2,1.9-6,4.7-7.3c-2.6-1.5-5.7-2.4-8.9-2.4c-9.8,0-17.7,7.9-17.7,17.7
		c0,9.8,7.9,17.7,17.7,17.7c9.8,0,17.7-7.9,17.7-17.7c0-0.7-0.1-1.4-0.1-2C263.3,102.2,261.5,103,259.4,103z"/>
	<g>
		<g>
			<path fill="#50535F" d="M843.2,458.6c-0.8-5-4.9-8.5-9.9-8.6c-40.6-0.8-83.2-18.6-97.4-34.8l-0.3-0.3
				C665.2,344.6,595,303.6,545.7,290.8c-94.8-24.6-177.1-47.6-179.2-91c24-47,17.6-90.8-3.6-122.8c-21.7-32.7-59.2-53.5-97.9-54.3
				c-0.5,0-1.1,0-1.6,0c-23,0-43.9,9.8-62,29c-14.5,15.4-24.9,35.3-30.5,45.9c-0.4,0.8,0.4-0.7,0,0c-9.2,1.8-38.3,7.3-42.9,7.9
				c-2.2,0.3-12.7,3-21.9,13c-12,12.9-6.4,43.8-6.4,43.8s67.6-15.6,85.7-15.6h0.1c26.4,9.5,40.2,18.8,46,30.9
				c5.7,12,4.4,28.5-4.7,55.2c-22.9,67.9-35.6,105.3-4.9,166.2c23,45.6,57.4,79.2,102.1,99.6c27.8,12.7,59.3,20.5,95.5,23.7
				c0.3,0,109.6,7.2,210.6-18.7c31.9-8.2,60.3-11.1,78.4-11.1c4.2,0,61.1,10.9,87.9,5.1c4.4-0.9,7.5-4.4,7.6-8.9
				c0.1-4.5-2.9-8.2-7.3-9.1c-2.5-0.5-5-1.2-7.4-1.8c20.7-1.4,36.5-4,47.3-7.9C841.3,468.1,844,463.5,843.2,458.6z M110.3,147.3
				c-1.8-26.6,18.9-29.7,19.3-29.7c4.2-0.5,24.1-4.3,36.6-6.7c3.4,3.9,9.2,12.3,9.3,24.2C155.9,137.4,124.2,144.2,110.3,147.3z
				 M252.7,425.9l71.9-44.8c2,3.5,4.2,7,6.5,10.5c2.5,3.9,5.1,7.6,7.8,11.3l-70.4,41l0.9,1.6C263.5,439.5,257.9,433,252.7,425.9z
				 M277.1,453.2l69.3-40.3c5.5,6.9,11.4,13.6,17.6,20L299,470.6C291.3,465.3,284,459.5,277.1,453.2z M310.7,477.9l62.3-36.3
				c5.4,5.1,11.1,10,17,14.8l-57.1,32.7C325.1,485.8,317.7,482.1,310.7,477.9z M347.4,494.9l53-30.4c0.7,0.8,11.1,7.7,16.4,11.1
				L370,501.7C362.2,499.7,354.7,497.4,347.4,494.9z M417.7,509.8c-10.3-1-20.2-2.4-29.8-4.2l41-22.8c6.1,3.4,12.4,6.7,18.8,9.8
				L417.7,509.8z M439.6,511.2l21.7-12.4l0-0.1c10.1,4.3,20.6,8.2,31.4,11.7C466.4,512.4,445.6,511.5,439.6,511.2z M760.4,466.6
				l-23,0.3c0,0,26.6,15.7,41.2,20.1c-19.5,0.3-36.9-1.9-57-5.8c-3.7-0.7-18.1-2.7-48.2,2.3l-120-74.8l-6.4,10.3L655,486.6
				c-8.6,1.5-49,8.9-60.7,10.9l-119.8-74.7l-6.4,10.3l108.1,67.4c-15.8,2.5-32.1,4.9-48.9,6.8c-45.5-10.6-85.6-27.8-118.6-52
				c-90.1-65.9-103-157.2-103.1-157.6l-12.1,1.6c0.2,1.5,4.4,32.2,25.1,71.2l-72.9,45.4c-4.6-7.1-9-14.6-12.9-22.5
				c-28.4-56.3-17-89.9,5.6-156.8c19.4-57.5,6.7-81.7-50.8-102.2l0,0c-0.2-11.5-4.4-20.4-8.4-26.5c0,0,29.6-72.9,85.6-73.1
				c34.8-0.1,126.3,34,96.9,144.1c-0.3,0.9-8.1,15.7-7.3,20.8c11.3,76.7,137.2,83.8,187.6,102.6c46.5,17.4,116.3,52.5,185,121.1
				c16.5,18.5,56.7,34.5,94,38C808.9,464,790,466.2,760.4,466.6z"/>
		</g>
		<path fill="#50535F" d="M423.8,652.8h-45.6c-3.4,0-6.4-1.9-7.9-5c-1.5-3.1-1.1-6.6,1-9.3l23.7-29.9c1.7-2.2,4.5-3.4,7.3-3.3
			c2.8,0.1,5.4,1.6,7,4l11.2,17v-91.6h12.2V644C432.6,648.9,428.7,652.8,423.8,652.8z M385.2,640.7h30L401.6,620L385.2,640.7z"/>
		<path fill="#50535F" d="M455.6,695.3c-2.5-2.1-3.7-5.4-3-8.6l8.9-40.7V534.8h12.2v108.3l35.3,18.9c3,1.6,4.7,4.7,4.6,8
			c-0.1,3.4-2.1,6.3-5.2,7.6l-43.8,18.9C460.2,698,457.2,696.6,455.6,695.3z M471.9,655.9l-5.9,26.8l30.9-13.4L471.9,655.9z"/>
	</g>
</g>
</svg>
