<?xml version="1.0" encoding="utf-8"?>
<!-- Generator: Adobe Illustrator 18.1.0, SVG Export Plug-In . SVG Version: 6.00 Build 0)  -->
<!DOCTYPE svg PUBLIC "-//W3C//DTD SVG 1.1//EN" "http://www.w3.org/Graphics/SVG/1.1/DTD/svg11.dtd">
<svg version="1.1" id="Layer_1" xmlns="http://www.w3.org/2000/svg" xmlns:xlink="http://www.w3.org/1999/xlink" x="0px" y="0px"
	 viewBox="0 0 935.7 720" enable-background="new 0 0 935.7 720" xml:space="preserve">
<g>
	<g>
		<path fill="#50535F" d="M386.7,564.8h-150c-7,0-26.3-6.7-19.1-28.8l160.6-381.5c8.2-12.1,17.9-2.9,17.9,3.6v397.4
			C396,560.6,391.9,564.8,386.7,564.8z M383.7,172.9L228.9,540.8c-2.9,8.1,4.6,12.1,7.8,11.7h147V172.9z"/>
	</g>
	<g>
		<path fill="#50535F" d="M770.3,675.2l-3.9-3.5c-1.4-1.2-3.6-1.3-5-0.1c-12.7,10.3-28.6,15.7-44.6,16.1l15.9-62.1
			c0.8-3.2,0.3-12.3-10.2-13.1H415.7v-47.5h210.6c21.6-1.3,23.1-21.6,18.9-29L421.7,26.1c-2.2-4.8-15.8-11.1-18.3,3.8v582.5H201.2
			c-13.3,1.3-10.7,13.2-8.4,16.3l41.4,57.9c-20.8,3.5-43-1.6-59.7-15.1c-1.4-1.2-3.7-1.1-5,0.1l-4,3.5c-1.5,1.3-1.5,3.6,0.1,4.8
			c44.2,33.6,88.8,14.9,102.9,6.1c1.3-0.8,3-0.8,4.3,0c42.3,25,80.2,8.8,94.3,0c1.3-0.8,3-0.8,4.3,0c42.1,25.1,80.2,8.8,94.3,0
			c1.3-0.8,3-0.8,4.3,0c41.4,25,80.3,8.8,94.4,0c1.3-0.8,3-0.8,4.3,0c41.7,25.1,80.3,8.8,94.4,0c1.3-0.8,3-0.8,4.3,0
			c45.7,27,87.1,6.8,102.9-6.1C771.7,678.7,771.8,676.5,770.3,675.2z M415.7,42.9l218.3,497.9c1.2,2.6,1.8,10.2-7.7,11.8H415.7V42.9
			z M205,624.6h515.1l-2.3,9.1H211.5L205,624.6z M666.8,670.8c-0.6-0.5-1.1-0.9-1.7-1.4c-0.6,0.5-1.1,1-1.7,1.4
			c-27.3,22.9-70.3,22.4-96.9-1.5l0,0l0,0c-26.7,23.9-69.7,24.4-97,1.5c-0.6-0.5-1.1-0.9-1.7-1.4c-0.6,0.5-1.1,1-1.7,1.4
			c-26.5,22.2-70.3,21.5-97.1-0.1l0,0c-26.8,21.6-70.3,22.3-96.7,0.1c-0.6-0.5-1.1-0.9-1.7-1.4c-0.6,0.5-1.1,1-1.7,1.4
			c-6.6,5.5-14.1,9.7-22,12.5l-26.6-37.3h494.4l-10.4,41C690.6,685.2,677.5,679.8,666.8,670.8z"/>
	</g>
</g>
</svg>
