<?xml version="1.0" encoding="utf-8"?>
<!-- Generator: Adobe Illustrator 18.1.0, SVG Export Plug-In . SVG Version: 6.00 Build 0)  -->
<!DOCTYPE svg PUBLIC "-//W3C//DTD SVG 1.1//EN" "http://www.w3.org/Graphics/SVG/1.1/DTD/svg11.dtd">
<svg version="1.1" id="Layer_1" xmlns="http://www.w3.org/2000/svg" xmlns:xlink="http://www.w3.org/1999/xlink" x="0px" y="0px"
	 viewBox="0 0 935.7 720" enable-background="new 0 0 935.7 720" xml:space="preserve">
<path fill="#50535F" d="M624.2,179.7c0-86.2-70.1-156.3-156.3-156.3S311.5,93.5,311.5,179.7c0,20.3,3.9,39.7,10.9,57.5
	c-5.4,6.6-8.9,14.9-9.5,23.9c-0.8,12,3.8,42.1,40.3,45.6L454,688.2c1.9,7,8,11.7,15.2,11.7s13.4-4.7,15.2-11.7l101.9-385.8
	c18-2.4,32.4-17.5,33.5-35.9c0.6-9.5-2.2-18.6-7.9-26C619.8,221.9,624.2,201.3,624.2,179.7z M323.7,179.7c0-67,46-123.5,108-139.6
	C363,92.3,384.9,217.6,388,236.5c-16.5-16.6-26-14.8-32.5-15c-6.8-0.2-17.5,3.1-23.3,7C326.7,213.2,323.7,196.8,323.7,179.7z
	 M365.8,305.5c3.1-0.8,6.1-1.9,9-3.3c6.1,11.1,17,18.4,29.5,19.8l51.2,322.9L365.8,305.5z M473.5,681.1l-57-359.7
	c7.6-1.6,14.6-5.4,20-11.1c30.2,24.5,57.9,5.5,66.5-8.1c26.9,21.5,49.8,4.1,57.1-5.8c4.1,2.7,8.7,4.6,13.5,5.6L473.5,681.1z
	 M607.7,265.8c0.6,13.4-19.4,34.3-41.6,19.9c-7-4.6-13.3-0.2-15.3,2.7c-4.9,7.2-22,19.6-40.3,4.1c-2.2-1.9-10.7-7.2-17.1,2.1
	c-6.3,9.1-26.3,25.4-49.6,5.9c-2.1-1.8-8-6-15.4,0.6c-5.7,5-25,20.1-43.6-5.8c-4.9-6.9-10-6.9-14.4-4.6c-20.7,11-45.3-2.7-45.3-28.7
	c0-14.9,14-28.5,30.4-28.3c12.8,0.2,24.2,8,28.6,20c1.5,4,6.6,9,13.7,5.8c11.5-5.2,21.6-0.3,26.3,2.8c7.4,4.8,13.3,0.2,15.6-2.6
	c21.9-26,44.6-9.3,51.3-2.3c7.3,7.6,15,2.5,17.1-0.2c5-6.3,19.3-15.9,35.9-5.2c7,4.5,12.8,0.4,15.4-2.8
	C575.6,229.1,606.4,236.2,607.7,265.8z M602.3,231.7c-25.1-14.6-44.9-0.4-52.2,9.6c-6.3-4.2-29.4-15.3-50.6,7.2
	c-31.7-29.8-60.8-8.3-69.2,3.3c-6.4-4.4-13.9-6.7-21.8-6.7c-2.2,0-4.4,0.2-6.6,0.6c-2.8-14.5-35.7-179.5,66.7-210
	C547.8,36,612,100.5,612,179.7C612,198,608.6,215.6,602.3,231.7z"/>
</svg>
