<?xml version="1.0" encoding="utf-8"?>
<!-- Generator: Adobe Illustrator 18.1.0, SVG Export Plug-In . SVG Version: 6.00 Build 0)  -->
<!DOCTYPE svg PUBLIC "-//W3C//DTD SVG 1.1//EN" "http://www.w3.org/Graphics/SVG/1.1/DTD/svg11.dtd">
<svg version="1.1" id="Layer_1" xmlns="http://www.w3.org/2000/svg" xmlns:xlink="http://www.w3.org/1999/xlink" x="0px" y="0px"
	 viewBox="0 0 935.7 720" enable-background="new 0 0 935.7 720" xml:space="preserve">
<g>
	<path fill="#50535F" d="M887,389.8c-12.2-25.3-31.9-43.1-55.6-50.2c-21.8-6.5-117.8-21.6-211.8,174.8c-6,12.6-12.3,24.3-18.6,35.1
		l-14.4-43.1L552,575.9l41.7-13.9c-22.8,36.9-46.1,62.2-69.9,76l18.9-37.1l-73.8,24l39.7,20.2c-8.2,3-51.6,20.8-103.5-34.8L447,618
		l-44.2-63.8l-8,44.2c-7.9-9.9-12.8-17.7-13.9-19.7L329.4,98.4L113.6,19.7L34.8,235.6l334.3,348.7l0,0l0.3,0.5
		c0.3,0.6,5.7,9.9,15.4,21.9l-45.8-8.3l44.2,63.8l8.6-47.2c59.4,67.1,112.6,45.6,122.4,41.8l-21.3,41.8l73.8-24l-43.1-22
		c28.7-14.3,56.4-43.3,83-86.9l14.9,44.8l34.7-69.4l-43.7,14.6c6.3-11,12.6-22.9,18.8-35.6C702.6,374.2,779.5,337.6,827.7,352
		c20.4,6.1,36.9,21.1,47.6,43.4c11.3,23.4,15.1,52.5,11.1,84.3l2.8,18.4c0.2,1.4,2.1,1.6,2.6,0.3l7.4-17.1
		C903.6,447.1,899.4,415.5,887,389.8z M307.8,103.6l-121.7,56.6L129.4,38.5L307.8,103.6z M117.7,44l56.6,121.7L52.7,222.3L117.7,44z
		 M52.2,236l127.3-59.3l173.6,373.2L52.2,236z M191.2,171.3L318.6,112l46.3,432.4L191.2,171.3z"/>
</g>
</svg>
