<?xml version="1.0" encoding="utf-8"?>
<!-- Generator: Adobe Illustrator 18.1.0, SVG Export Plug-In . SVG Version: 6.00 Build 0)  -->
<!DOCTYPE svg PUBLIC "-//W3C//DTD SVG 1.1//EN" "http://www.w3.org/Graphics/SVG/1.1/DTD/svg11.dtd">
<svg version="1.1" id="Layer_1" xmlns="http://www.w3.org/2000/svg" xmlns:xlink="http://www.w3.org/1999/xlink" x="0px" y="0px"
	 viewBox="0 0 935.7 720" enable-background="new 0 0 935.7 720" xml:space="preserve">
<g>
	<g>
		<g>
			<rect x="347.8" y="203.7" fill="#50535F" width="231" height="12.7"/>
		</g>
	</g>
	<g>
		<path fill="#50535F" d="M568.9,158.6h-17.3l0-32.7h7.9v-29l-74.9-36.8V44.9l-7.5-6.3v-3.8l-6.3-8.8c-2.8-4.5-13.8-10.3-22,0.1
			l-6.2,8.8v4l-7.2,6.2v15.2L360.9,97v29h10v32.7h-12.3c-6.3,0-11.4,5.1-11.4,11.4v23.1h233.1v-23.2
			C580.2,163.7,575.1,158.6,568.9,158.6z M567.9,180.9H359.4v-10h23.8v-57.2h-10v-9.1l74.5-36.8V50.6l7.2-6.2v-5.7l4-5.6
			c0.4-0.6,1.6-0.6,2.1,0l4,5.6v5.6l7.5,6.3v17.2l74.9,36.8v9.1h-7.9l0,57.2h28.6V180.9z"/>
	</g>
	<g>
		<path fill="#50535F" d="M595.9,685.5l-50.2-404.9c-0.2-1.7-1-17.2,20.1-23.7c7.7-2.4,12.9-9.3,12.9-17.3v-13.4H348.3v12.3
			c0,8.4,5.8,15.6,14.1,17.5c13,2.9,20.2,11.4,21.5,25.1l-44.1,404.5c-0.7,10.3,8.2,13.7,12.1,13.5h231.9
			C594.3,698.8,596.5,689.5,595.9,685.5z M365.1,244.1c-2.7-0.6-4.5-2.9-4.5-5.6v-0.1h206c0,0,1,5.1-4.2,6.7
			c-25.2,7.7-29.8,27.4-28.7,36.8l6.3,50.6H390.6l5.5-50.1C395.6,254.1,375.6,246.5,365.1,244.1z M543.5,362.3l0.6,5.2H386.8
			l0.6-5.2H543.5z M388.7,350l0.6-5.2h152.1l0.6,5.2H388.7z M385.5,379.7h160.2l7.5,60.4H378.9L385.5,379.7z M377.5,452.4h177.1
			l0.6,5.2H377L377.5,452.4z M375.6,469.8h181.2l0.6,5.2H375.1L375.6,469.8z M373.7,487.3H559l8.9,71.9h-202L373.7,487.3z
			 M364.6,571.5h204.9l0.6,5.2H364L364.6,571.5z M362.7,588.9h208.9l0.6,5.2H362.1L362.7,588.9z M352,686.9l8.8-80.5h213l10,80.5
			H352z"/>
	</g>
	<g>
		<path fill="#50535F" d="M395.2,113.9V171h132.6v-57.1H395.2z M407.4,126.2h47.9v32.6h-47.9V126.2z M515.5,158.8h-47.9v-32.6h47.9
			V158.8z"/>
	</g>
</g>
</svg>
