<?xml version="1.0" encoding="utf-8"?>
<!-- Generator: Adobe Illustrator 18.1.0, SVG Export Plug-In . SVG Version: 6.00 Build 0)  -->
<!DOCTYPE svg PUBLIC "-//W3C//DTD SVG 1.1//EN" "http://www.w3.org/Graphics/SVG/1.1/DTD/svg11.dtd">
<svg version="1.1" id="Layer_1" xmlns="http://www.w3.org/2000/svg" xmlns:xlink="http://www.w3.org/1999/xlink" x="0px" y="0px"
	 viewBox="0 0 935.7 720" enable-background="new 0 0 935.7 720" xml:space="preserve">
<g>
	<g>
		<path fill="#50535F" d="M680.9,228.5c-11-20.4-54.7-74.4-106.3-74.4c-19.9,0-38.7,8.6-54.3,24.9c-15.8,16.4-28.4,40.7-36.5,70.2
			c-7.9,28.6-11.5,62.3-10.6,97.8c-10.4,31.3-11.1,67.4-2,108c-1.7,56.1-33.8,131.6-35.2,138.1c-10,48.2,18.7,95.1,64,104.4
			c5.3,1.1,42.7,7.1,69.9-18.7c14.3-13.6,26-30.8,30.3-51.7c0.7-3.6,22.8-76.5,44.9-138.2c20.8-22.6,43.3-57.1,37.2-96.6
			C712,317.5,691.5,248.3,680.9,228.5z M502.4,685.5c-36.5-4.4-59.7-43-55.8-81.5l135,39.8C569.1,669.6,543.1,690.4,502.4,685.5z
			 M586.1,632.3l-137.4-40.4c1.2-4.6,5.2-14.6,5.4-15.1l135.1,40.7C589,619.8,586.9,629.7,586.1,632.3z M592.3,605.6l-133.4-40.2
			c1.8-4.6,3.5-9.3,5.2-14.2l132.9,40C595,597.1,593.4,602,592.3,605.6z M600.8,579.7l-133-40.1c5-16.7,8.9-34.7,11.9-54.1
			c11,14,22.4,6.9,25.8,2.3c2.8-3.8,3.5-8.5,2.1-13c-11-34.3-26.8-120.4,65.1-179.3c0.4-0.3,1.3-0.8,2.6,0.2
			c13.9,10,66.5,56.6,67.8,110.7c0.7,30.2-14.3,59-44.8,85.6c-4.2,3.7-6.7,9.6-4.5,14.7c7.3,16.7,20.5,9.9,23,8c2-1.5,5-3.8,8.5-6.8
			C615.7,535.1,607.1,560.6,600.8,579.7z M609.5,504.7c-2.3,1.8-6.2-1-3.1-3.6c33.4-29,49.8-61.1,49-95.1
			c-0.6-25.6-11-51.7-30.8-77.7c-15.5-20.4-32.8-35.3-41.7-42.3c-2.6-2-5.8-3.1-9-3.1c-2.8,0-5.5,0.8-7.8,2.3
			c-42.9,27.5-68.7,63.7-76.7,107.4c-6.6,36.5,1.4,69.5,6.5,85.9c1.1,3.6-4.2,4.8-5.4,1.2c-20.3-63.1-17.7-115.8,6.8-156.4
			c19.6-32.5,48.8-48.4,61.1-55.5c15.7-9.1,28.4-0.6,29.3,0.1c1.5,1.1,36.9,26.9,74.6,102.1C695.2,435.7,623.9,493.5,609.5,504.7z
			 M594.8,257.9c-0.4-0.3-10.7-9.2-20.6-9c-9.1,0.2-19.6,7.1-21.7,8.2c-13.2,7.4-41.9,23.1-66.9,62.1c2.5-57.4,18-105.4,43.4-131.8
			c13.5-14,28.8-21.5,45.5-21.1c40.1,0.9,80.6,40.5,95.3,67.5c11,20.3,28.5,73.4,6.7,138.2C675.6,369.5,641.6,294.6,594.8,257.9z"/>
	</g>
	<g>
		<path fill="#50535F" d="M244.4,229.5c-14.8,37.1-0.7,75.8,14.4,102.5c7.7,65.1,12.7,141.1,12.6,144.8c-0.5,21.3,7,40.8,17.8,57.2
			c20.7,31.3,58.5,33.9,63.9,34c46.2,1.1,84.7-38.1,85.9-87.3c0.2-6.7-14.1-87.5-3.2-142.5c18-37.5,25.5-72.9,22.4-105.7
			c8.9-34.4,13-68,11.8-97.6c-1.2-30.6-8.1-57-19.8-76.6c-11.6-19.4-27.9-32-47.3-36.5c-50.3-11.6-105.1,31.1-120.4,48.5
			C267.7,87.1,232.2,150,244.4,229.5z M285.6,497.2l140.5-8.3c-4.9,38.4-36.2,70.8-72.8,66.9C312.6,551.4,292,525.2,285.6,497.2z
			 M284.1,469.9l140.8-9.2c0.1,0.5,1.8,11.1,1.9,15.9L283.8,485C283.6,482.4,283.8,472.2,284.1,469.9z M282.5,442.7l138.5-9
			c0.5,5.1,1.1,10.1,1.9,15l-139,9.1C283.5,453.9,283.1,448.8,282.5,442.7z M273.7,354.8c2.8,3.8,5.2,6.7,6.8,8.6
			c2,2.4,13.4,12,24.2-2.6c3.3-4.5,2.2-10.8-1.1-15.3c-23.7-32.8-31.9-64.2-24.4-93.5c13.5-52.4,75.3-86,91.1-92.6
			c1.5-0.6,2.2,0.1,2.6,0.4c76.2,78.1,41.5,158.5,23,189.4c-2.4,4-2.7,8.8-0.9,13.1c2.2,5.2,11.7,14.7,25.6,3.6
			c-1.5,19.6-1.7,38-0.6,55.4l-138.6,9C279.5,410.5,276.9,383.7,273.7,354.8z M268.8,212.3c53.7-64.8,94-82,95.7-82.7
			c1-0.4,15.3-5.8,28.5,6.5c10.4,9.7,35.2,31.8,47,67.9c14.8,45.1,5.4,97-28.6,153.9c-2,3.3-6.9,0.9-5-2.4
			c8.8-14.9,24-45.2,25.7-82.3c2.1-44.4-14.8-85.5-50.5-121.9c-1.9-2-4.4-3.4-7.1-4c-3.2-0.7-6.5-0.4-9.5,1
			c-10.3,4.9-30.5,15.4-50.2,31.8c-25.1,20.8-41.1,44-47.5,68.8c-8.5,33,0.3,67.9,26.3,103.7c2.4,3.3-2,5.1-3.9,2.8
			C278.3,341.3,221.9,268.9,268.8,212.3z M254.4,211.1c-6.6-68,22.4-115.8,37.7-133.1c20.4-23.1,68.8-52.5,108.1-44.3
			c16.4,3.4,29.6,14.1,39.6,30.8c18.8,31.4,23.1,81.7,12.6,138.2c-15.5-43.6-39.9-65.4-51.2-75.6c-1.7-1.6-10.4-10.6-19.3-12.9
			c-9.7-2.4-21.7,3.9-22.1,4.1C305.9,143.5,255.9,208.9,254.4,211.1z"/>
	</g>
</g>
</svg>
