<?xml version="1.0" encoding="utf-8"?>
<!-- Generator: Adobe Illustrator 18.1.0, SVG Export Plug-In . SVG Version: 6.00 Build 0)  -->
<!DOCTYPE svg PUBLIC "-//W3C//DTD SVG 1.1//EN" "http://www.w3.org/Graphics/SVG/1.1/DTD/svg11.dtd">
<svg version="1.1" id="Layer_1" xmlns="http://www.w3.org/2000/svg" xmlns:xlink="http://www.w3.org/1999/xlink" x="0px" y="0px"
	 viewBox="0 0 935.7 720" enable-background="new 0 0 935.7 720" xml:space="preserve">
<g>
	<path fill="#50535F" d="M244.5,605.9L244.5,605.9c-7.4,0-14.4-4-18.3-10.5c-3.9-6.5-4.1-14.1-0.5-20.9l65.6-124.2
		c2.6-4.9,7.6-7.9,13.2-7.9c5.4,0,10.2,2.8,12.9,7.5c6.9,12.4,15.5,23.8,25.6,33.9c10.9,10.9,23.3,20.1,36.8,27.2
		c4.9,2.6,7.9,7.6,7.9,13.1c0,5.5-3,10.5-7.9,13l-125.3,66.2C251.3,605,247.9,605.9,244.5,605.9z M304.4,454.6
		c-0.5,0-1.7,0.1-2.4,1.4l-65.6,124.2c-3.1,15.9,10.9,13.1,12.4,12.4l125.3-66.2c1.2-0.6,1.3-1.7,1.3-2.2c0-0.5-0.1-1.6-1.4-2.3
		c-14.6-7.7-28-17.6-39.8-29.4c-10.9-10.9-20.2-23.2-27.7-36.6C306,454.7,305,454.6,304.4,454.6z"/>
	<path fill="#50535F" d="M135.1,375.5L135.1,375.5c-5.2-5.2-7.3-13-5.5-20.4c1.8-7.3,7.1-12.9,14.4-15.1l134.2-41.4
		c5.3-1.6,11-0.2,14.9,3.7c3.8,3.8,5.2,9.2,3.8,14.4c-3.9,13.6-5.8,27.8-5.8,42.1c0,15.4,2.3,30.7,6.8,45.3c1.6,5.3,0.2,11-3.7,14.9
		c-3.9,3.9-9.5,5.3-14.8,3.7L144,380.8C140.5,379.7,137.5,377.9,135.1,375.5z M284.5,310.9c-0.3-0.3-1.3-1.1-2.7-0.7l-134.2,41.4
		c-13.4,9.1-1.5,17,0,17.5L283,410.9c1.3,0.4,2.1-0.2,2.5-0.6c0.3-0.3,1.1-1.3,0.6-2.6c-4.9-15.8-7.3-32.2-7.3-48.9
		c0-15.4,2.1-30.7,6.3-45.4C285.5,312.1,284.9,311.3,284.5,310.9z"/>
	<path fill="#50535F" d="M220.6,135.2L220.6,135.2c0-7.4,4-14.4,10.5-18.3c6.5-3.9,14.1-4.1,20.9-0.5L376.3,182
		c4.9,2.6,7.9,7.6,7.9,13.2c0,5.4-2.8,10.2-7.5,12.9c-12.4,6.9-23.8,15.5-33.9,25.6c-10.9,10.9-20.1,23.3-27.2,36.8
		c-2.6,4.9-7.6,7.9-13.1,7.9c-5.5,0-10.5-3-13-7.9l-66.2-125.3C221.5,142.1,220.6,138.7,220.6,135.2z M372,195.2
		c0-0.5-0.1-1.7-1.4-2.4l-124.2-65.6c-15.9-3.1-13.1,10.9-12.4,12.4l66.2,125.3c0.6,1.2,1.7,1.3,2.2,1.3c0.5,0,1.6-0.1,2.3-1.4
		c7.7-14.6,17.6-28,29.4-39.8c10.9-10.9,23.2-20.2,36.6-27.7C371.8,196.8,372,195.7,372,195.2z"/>
	<path fill="#50535F" d="M451,25.9L451,25.9c5.2-5.2,13-7.3,20.4-5.5c7.3,1.8,12.9,7.1,15.1,14.4L528,169c1.6,5.3,0.2,11-3.7,14.9
		c-3.8,3.8-9.2,5.2-14.4,3.8c-13.6-3.9-27.8-5.8-42.1-5.8c-15.4,0-30.7,2.3-45.3,6.8c-5.3,1.6-11,0.2-14.9-3.7
		c-3.9-3.9-5.3-9.5-3.7-14.8l41.8-135.4C446.8,31.3,448.6,28.3,451,25.9z M515.6,175.2c0.3-0.3,1.1-1.3,0.7-2.7L474.9,38.4
		c-9.1-13.4-17-1.5-17.5,0l-41.8,135.4c-0.4,1.3,0.2,2.1,0.6,2.5c0.3,0.3,1.3,1.1,2.6,0.6c15.8-4.9,32.2-7.3,48.9-7.3
		c15.4,0,30.7,2.1,45.4,6.3C514.4,176.2,515.2,175.6,515.6,175.2z"/>
	<path fill="#50535F" d="M691.3,111.4L691.3,111.4c7.4,0,14.4,4,18.3,10.5c3.9,6.5,4.1,14.1,0.5,20.9L644.5,267
		c-2.6,4.9-7.6,7.9-13.2,7.9c-5.4,0-10.2-2.8-12.9-7.5c-6.9-12.4-15.5-23.8-25.6-33.9c-10.9-10.9-23.3-20.1-36.8-27.2
		c-4.9-2.6-7.9-7.6-7.9-13.1c0-5.5,3-10.5,7.9-13L681.2,114C684.4,112.3,687.8,111.4,691.3,111.4z M631.3,262.7
		c0.5,0,1.7-0.1,2.4-1.4l65.6-124.2c3.1-15.9-10.9-13.1-12.4-12.4L561.7,191c-1.2,0.6-1.3,1.7-1.3,2.2c0,0.5,0.1,1.6,1.4,2.3
		c14.6,7.7,28,17.6,39.8,29.4c10.9,10.9,20.2,23.2,27.7,36.6C629.7,262.6,630.8,262.7,631.3,262.7z"/>
	<path fill="#50535F" d="M800.7,341.8L800.7,341.8c5.2,5.2,7.3,13,5.5,20.4c-1.8,7.3-7.1,12.9-14.4,15.1l-134.2,41.4
		c-5.3,1.6-11,0.2-14.9-3.7c-3.8-3.8-5.2-9.2-3.8-14.4c3.9-13.6,5.8-27.8,5.8-42.1c0-15.4-2.3-30.7-6.8-45.3
		c-1.6-5.3-0.2-11,3.7-14.9c3.9-3.9,9.5-5.3,14.8-3.7l135.4,41.8C795.2,337.6,798.2,339.4,800.7,341.8z M651.3,406.4
		c0.3,0.3,1.3,1.1,2.7,0.7l134.2-41.4c13.4-9.1,1.5-17,0-17.5l-135.4-41.8c-1.3-0.4-2.1,0.2-2.5,0.6c-0.3,0.3-1.1,1.3-0.6,2.6
		c4.9,15.8,7.3,32.2,7.3,48.9c0,15.4-2.1,30.7-6.3,45.4C650.3,405.2,650.9,406,651.3,406.4z"/>
	<path fill="#50535F" d="M715.1,582.1L715.1,582.1c0,7.4-4,14.4-10.5,18.3c-6.5,3.9-14.1,4.1-20.9,0.5l-124.2-65.6
		c-4.9-2.6-7.9-7.6-7.9-13.2c0-5.4,2.8-10.2,7.5-12.9c12.4-6.9,23.8-15.5,33.9-25.6c10.9-10.9,20.1-23.3,27.2-36.8
		c2.6-4.9,7.6-7.9,13.1-7.9c5.5,0,10.5,3,13,7.9L712.5,572C714.2,575.2,715.1,578.6,715.1,582.1z M563.8,522.1
		c0,0.5,0.1,1.7,1.4,2.4l124.2,65.6c15.9,3.1,13.1-10.9,12.4-12.4l-66.2-125.3c-0.6-1.2-1.7-1.3-2.2-1.3c-0.5,0-1.6,0.1-2.3,1.4
		c-7.7,14.6-17.6,28-29.4,39.8c-10.9,10.9-23.2,20.2-36.6,27.7C563.9,520.5,563.8,521.5,563.8,522.1z"/>
	<path fill="#50535F" d="M484.7,691.4L484.7,691.4c-5.2,5.2-13,7.3-20.4,5.5c-7.3-1.8-12.9-7.1-15.1-14.4l-41.4-134.2
		c-1.6-5.3-0.2-11,3.7-14.9c3.8-3.8,9.2-5.2,14.4-3.8c13.6,3.9,27.8,5.8,42.1,5.8c15.4,0,30.7-2.3,45.3-6.8c5.3-1.6,11-0.2,14.9,3.7
		c3.9,3.9,5.3,9.5,3.7,14.8L490,682.5C488.9,686,487.2,689,484.7,691.4z M420.1,542c-0.3,0.3-1.1,1.3-0.7,2.7l41.4,134.2
		c9.1,13.4,17,1.5,17.5,0l41.8-135.4c0.4-1.3-0.2-2.1-0.6-2.5c-0.3-0.3-1.3-1.1-2.6-0.6c-15.8,4.9-32.2,7.3-48.9,7.3
		c-15.4,0-30.7-2.1-45.4-6.3C421.3,541,420.5,541.7,420.1,542z"/>
	<path fill="#50535F" d="M467.6,521.9c-89.8,0-162.8-73-162.8-162.8c0-89.8,73-162.8,162.8-162.8s162.8,73,162.8,162.8
		C630.4,448.8,557.4,521.9,467.6,521.9z M467.6,208.5c-83,0-150.6,67.5-150.6,150.6c0,83,67.5,150.6,150.6,150.6
		s150.6-67.5,150.6-150.6C618.2,276,550.6,208.5,467.6,208.5z"/>
</g>
</svg>
