<?xml version="1.0" encoding="utf-8"?>
<!-- Generator: Adobe Illustrator 18.1.0, SVG Export Plug-In . SVG Version: 6.00 Build 0)  -->
<!DOCTYPE svg PUBLIC "-//W3C//DTD SVG 1.1//EN" "http://www.w3.org/Graphics/SVG/1.1/DTD/svg11.dtd">
<svg version="1.1" id="Layer_1" xmlns="http://www.w3.org/2000/svg" xmlns:xlink="http://www.w3.org/1999/xlink" x="0px" y="0px"
	 viewBox="0 0 935.7 720" enable-background="new 0 0 935.7 720" xml:space="preserve">
<g>
	<path fill="#50535F" d="M797.5,681.3l-289-292.1c44.6-44.1,131.1-131.3,131.1-131.3L621.9,240c-8.2-9.4-6.4-13.4-6-13.8
		c0.2-0.2,5.1-1.6,13.3,5.8l17.9,18.1c0,0,136.3-139.3,148.9-157.3c7.9-11.2,14.1-16.9,9.1-22c-31.3-31.6-86-49.2-154.1-49.6
		C592.1,21,528.8,33.6,467.8,57.9C400.4,84.7,338,125.4,287.2,175.5c-0.1,0.1-0.1,0.1-0.2,0.2c-120.1,124.8-143.1,239.7-151.7,290
		c-16.7,97.3-0.9,184.3,41.4,227c1.2,1.2,3.7,1.7,4.6,1.9c12.4,3.5,161.5-143.8,161.5-143.8l-17.3-17.5c-8-9-6.4-13.4-6-13.8
		c0.2-0.2,4.3-2.2,13.3,5.8l17.8,18c0,0,97.8-94.8,147.5-143.9l288.8,291.9c0.5,0.5,0,0,0,0c12.3,8.2,17.4,0.4,10.8-9.7L797.5,681.3
		z M472.4,69.3c59.5-23.7,121.3-36,178.6-35.7c61.7,0.3,113.3,16,142.5,43.1c-8.8,12.4-50.9,58.8-146.4,156.2l-8.8-8.9
		c-0.2-0.2-14.4-15-28.1-8.4c-13-8.4-61.7-38.3-121.8-58.4c-40.8-13.7-78.5-19-112-15.8c-15.3,1.5-29.7,4.6-43.2,9.6
		C374.8,117,422.2,89.2,472.4,69.3z M325.4,550.6C236.9,635.2,194.2,672.9,182.5,681c-37.3-41-50.8-122.1-35.1-213.3
		c8.4-49.1,25.2-99.4,48.5-145.7c12.9-25.7,27.8-50,44.4-73c-3.1,10.3-5.3,21.1-6.5,32.5c-3.5,33.6,1.4,71.3,14.6,112.2
		c19.5,60.3,50.8,108.7,59.5,121.7c-1.3,3.2-3.3,13.6,8.9,26.5L325.4,550.6z M350.8,526.2l-8.9-9c-12.9-12.6-23.4-10.1-24.6-9.8
		c-9.4-14-39.1-61.1-57.3-117.6c-12.6-39.2-16-75.1-14-107c3.2-51.1,35.6-83.8,36.1-84.3c25.6-26.2,57.6-41.4,95.3-45
		c31.8-3,67.8,2,106.9,15.1c57.4,19.2,106,48.6,119.2,57c-0.3,2.4-0.2,5.1,0.6,7.9c1.4,5.3,4.7,10.7,9.2,15.2l9.1,9.2
		C582.5,298.3,473.8,406.3,350.8,526.2z"/>
</g>
</svg>
