<?xml version="1.0" encoding="utf-8"?>
<!-- Generator: Adobe Illustrator 18.1.0, SVG Export Plug-In . SVG Version: 6.00 Build 0)  -->
<!DOCTYPE svg PUBLIC "-//W3C//DTD SVG 1.1//EN" "http://www.w3.org/Graphics/SVG/1.1/DTD/svg11.dtd">
<svg version="1.1" id="Layer_1" xmlns="http://www.w3.org/2000/svg" xmlns:xlink="http://www.w3.org/1999/xlink" x="0px" y="0px"
	 viewBox="0 0 935.7 720" enable-background="new 0 0 935.7 720" xml:space="preserve">
<g>
	<path fill="#50535F" d="M467.9,180c-98,0-177.7,79.7-177.7,177.7S370,535.3,467.9,535.3s177.7-79.7,177.7-177.7
		S565.9,180,467.9,180z M633.2,352.3h-94.9c-1.7-5-5.8-8.7-10.7-9.3c-1.5-6.2-3.9-12-7.2-17.3c3.1-3.9,3.3-9.5,0.9-14.3l67-67
		C615.1,272.9,631.9,310.7,633.2,352.3z M473.1,192.3c41.6,1.3,79.4,18,107.9,44.7l-67.1,67.1c-4.8-2.3-10.2-2.1-14.1,1
		c-5.3-3.2-11.1-5.7-17.3-7.2c-0.6-4.9-4.3-9-9.4-10.7V192.3z M462.5,192.3v94.9c-5,1.7-8.7,5.8-9.2,10.6c-6.2,1.5-12,3.9-17.3,7.2
		c-3.9-3.1-9.4-3.3-14.3-0.9l-67-67C383.1,210.5,420.9,193.7,462.5,192.3z M347.3,244.6l67.1,67.1c-2.3,4.8-2,10.2,1,14.1
		c-3.2,5.3-5.7,11.1-7.2,17.3c-4.9,0.6-9,4.3-10.7,9.4h-94.9C303.9,310.8,320.6,273,347.3,244.6z M302.6,363h94.9
		c1.7,5,5.8,8.7,10.7,9.3c1.5,6.2,3.9,12,7.2,17.3c-3.1,3.9-3.3,9.4-1,14.2l-67,67C320.7,442.4,303.9,404.6,302.6,363z M462.6,523
		c-41.6-1.3-79.4-18.1-107.8-44.7l67-67c4.8,2.4,10.3,2.1,14.2-1c5.3,3.2,11.1,5.7,17.3,7.2c0.6,4.9,4.3,9,9.3,10.7V523z
		 M418.7,357.7c0-27.2,22.1-49.2,49.2-49.2c27.2,0,49.2,22.1,49.2,49.2c0,27.2-22.1,49.2-49.2,49.2
		C440.8,406.9,418.7,384.8,418.7,357.7z M473.2,523v-94.9c5.1-1.7,8.8-5.8,9.3-10.7c6.2-1.5,12-3.9,17.3-7.2
		c3.9,3.1,9.4,3.3,14.2,0.9l67,67C552.6,504.9,514.8,521.7,473.2,523z M588.5,470.8l-67-67c2.4-4.8,2.1-10.3-1-14.2
		c3.2-5.3,5.7-11.1,7.2-17.3c4.9-0.6,9-4.3,10.7-9.4h94.9C631.9,404.5,615.2,442.3,588.5,470.8z"/>
	<path fill="#50535F" d="M805.3,353.1c0,0-1.4-0.9-2.7-0.8h-83.7c-2.1-11.6-11.1-20.5-22-21.4c-5.1-43.6-22.3-83.5-48.2-116.2
		c4-4.5,10.8-18.7,0.5-30.9l59.2-59.2c1-0.7,1.4-2.5,1.4-2.5c1-3.9-2.5-7.4-6.4-6.4c0,0-1.6,0.3-2.5,1.4l-59.2,59.2
		c-4.6-3.2-18.9-9.7-30.7,0.6c-32.9-26.1-73.2-43.4-117.1-48.3c-0.9-10.5-9.5-19-20.7-21.1V23c0.1-1.3-0.8-2.7-0.8-2.7
		c-2-3.4-7-3.4-9,0c0,0-0.8,1.3-0.8,2.7v84.6c-11.1,2.1-19.6,10.6-20.5,21C398.2,133.6,358,150.9,325,177
		c-4.1-3.6-16.7-10.3-30.9-0.4l-59.2-59.2c-0.8-1-2.5-1.4-2.5-1.4c-3.9-1-7.4,2.5-6.4,6.4c0,0,0.4,1.7,1.4,2.5l59.2,59.2
		c-9.6,13.5-3.4,26.2,0.6,30.7C261.3,247.5,244,287.4,239,331c-11,0.8-19.9,9.8-22,21.5h-83.8c-1.3-0.1-2.7,0.8-2.7,0.8
		c-3.4,2-3.4,7,0,9c0,0,1.4,0.8,2.7,0.8H217c2.1,11.6,11.1,20.5,22,21.4c5.1,43.6,22.3,83.5,48.2,116.2c-7.2,8.3-7.3,21.1-0.5,30.8
		l-59.2,59.2c-1,0.9-1.4,2.5-1.4,2.5c-1,3.9,2.5,7.4,6.4,6.4c0,0,1.6-0.4,2.5-1.4l59.2-59.2c11.5,10.2,26.6,4.2,30.8-0.5
		c32.7,25.9,72.6,43.2,116.2,48.2c0.8,11,9.8,19.9,21.4,22v83.7c-0.1,1.3,0.8,2.7,0.8,2.7c2,3.4,7,3.4,9,0c0,0,0.8-1.3,0.8-2.7
		v-83.7c11.6-2.1,20.6-11.1,21.4-22c43.6-5.1,83.5-22.3,116.2-48.2c12.4,10.4,26.1,3.7,30.8,0.5l59.2,59.2c0.9,1,2.5,1.4,2.5,1.4
		c3.9,1,7.4-2.5,6.4-6.4c0,0-0.3-1.5-1.4-2.5l-59.2-59.2c6.8-9.7,6.7-22.5-0.5-30.8c25.9-32.7,43.2-72.6,48.2-116.2
		c11-0.8,19.9-9.8,22-21.5h83.7c1.3,0.1,2.7-0.8,2.7-0.8C808.7,360.1,808.7,355.1,805.3,353.1z M236.6,371.3
		c-4.6-2-7.8-7.4-7.8-13.6c0-6.2,3.3-11.6,7.8-13.6c-0.4,4.5-0.6,9.1-0.6,13.6C236,362.2,236.2,366.7,236.6,371.3z M626,183.7
		c3.9,0,7.9,1.8,11,4.8c2.8,2.8,4.5,6.4,4.8,10.1c0.1,1.8-0.1,3.5-0.7,5c-2.9-3.5-6-6.9-9.2-10.1c-3.2-3.2-6.6-6.3-10.1-9.2
		C623.4,183.9,624.8,183.7,626,183.7z M467.9,117.6c7.2,0,13.2,4.1,14.9,9.7c-9.9-1-19.9-1-29.8,0
		C454.7,121.8,460.7,117.6,467.9,117.6z M298.8,188.5c7.3-6.8,13.7-4.7,15.2-4.1c-3.5,2.9-6.9,6-10.1,9.2c-3.2,3.2-6.3,6.6-9.2,10.1
		C292.9,199.1,294.3,192.8,298.8,188.5z M298.8,526.8c-4.4-4.4-5.9-10.5-4.1-15.2c2.9,3.5,6,6.9,9.2,10.1c3.2,3.2,6.6,6.3,10.1,9.2
		C306.3,532.7,301.9,529.8,298.8,526.8z M467.9,596.8c-6.2,0-11.6-3.3-13.6-7.8c9.1,0.9,18.2,0.9,27.2,0
		C479.5,593.6,474.2,596.8,467.9,596.8z M637,526.8c-3.1,3.1-9.8,6.6-15.2,4.1c3.5-2.9,6.9-6,10.1-9.2c3.2-3.2,6.3-6.6,9.2-10.1
		C642.9,516.3,641.4,522.4,637,526.8z M467.9,575.9c-120.3,0-218.2-97.9-218.2-218.2c0-120.3,97.9-218.2,218.2-218.2
		c120.3,0,218.2,97.9,218.2,218.2C686.1,478,588.2,575.9,467.9,575.9z M699.2,371.3c0.4-4.5,0.6-9.1,0.6-13.6
		c0-4.5-0.2-9.1-0.6-13.6c4.6,2,7.8,7.4,7.8,13.6C707.1,363.9,703.8,369.2,699.2,371.3z"/>
</g>
</svg>
