<?xml version="1.0" encoding="utf-8"?>
<!-- Generator: Adobe Illustrator 18.1.0, SVG Export Plug-In . SVG Version: 6.00 Build 0)  -->
<!DOCTYPE svg PUBLIC "-//W3C//DTD SVG 1.1//EN" "http://www.w3.org/Graphics/SVG/1.1/DTD/svg11.dtd">
<svg version="1.1" id="Layer_1" xmlns="http://www.w3.org/2000/svg" xmlns:xlink="http://www.w3.org/1999/xlink" x="0px" y="0px"
	 viewBox="0 0 576 576" enable-background="new 0 0 576 576" xml:space="preserve">
<path fill="#FFFFFF" d="M187.4,138.3c14.1,0,26.9,1.2,38.6,3.8c11.6,2.5,21.5,6.6,29.9,12.2c8.2,5.6,14.7,13.1,19.3,22.6
	c4.5,9.3,6.8,20.9,6.8,34.7c0,14.9-3.4,27.3-10.1,37.3c-6.8,9.9-16.8,18.1-30.2,24.4c18.2,5.2,31.7,14.4,40.6,27.5
	c9,13.2,13.4,29,13.4,47.5c0,15-2.9,27.9-8.6,38.8c-5.8,11-13.7,19.9-23.4,26.8c-9.8,6.9-21,12-33.6,15.3c-12.5,3.3-25.4,5-38.6,5
	H47.9V138.3H187.4z M178.9,257.8c11.5,0,21.1-2.7,28.7-8.3c7.5-5.5,11.1-14.5,11.1-26.9c0-6.9-1.2-12.6-3.6-17
	c-2.5-4.4-5.8-7.9-10-10.3c-4.2-2.5-8.9-4.3-14.3-5.2c-5.4-1.1-11-1.5-16.7-1.5h-60.9v69.1H178.9z M182.5,383.7
	c6.4,0,12.5-0.6,18.3-1.9c5.8-1.3,11-3.3,15.3-6.3c4.4-2.9,8-6.8,10.6-11.8c2.6-5,3.9-11.4,3.9-19.2c0-15.2-4.3-26.1-12.8-32.6
	c-8.5-6.5-19.9-9.7-34-9.7h-70.8v81.4H182.5z"/>
<path fill="#FFFFFF" d="M388.4,382.7c8.8,8.6,21.5,12.9,38,12.9c11.9,0,22.1-3,30.7-9c8.5-6,13.7-12.3,15.7-19h51.8
	c-8.3,25.8-21,44.2-38.2,55.3c-17,11.1-37.8,16.7-62,16.7c-16.9,0-32-2.7-45.7-8.1c-13.6-5.4-25-13.1-34.6-23
	c-9.3-10-16.6-21.8-21.7-35.7c-5.1-13.8-7.7-29.1-7.7-45.6c0-16,2.7-31,7.9-44.8c5.3-13.9,12.7-25.8,22.4-35.9
	c9.7-10.1,21.3-18.1,34.7-23.9c13.4-5.8,28.3-8.7,44.7-8.7c18.1,0,34,3.5,47.6,10.6c13.6,7,24.7,16.5,33.4,28.4
	c8.7,11.9,14.9,25.4,18.8,40.6c3.8,15.2,5.2,31.1,4.1,47.7H373.8C373.8,358,379.6,374.1,388.4,382.7z M456,270.2
	c-7-7.7-18.8-11.9-33.3-11.9c-9.4,0-17.2,1.6-23.4,4.8c-6.1,3.2-11.1,7.1-14.9,11.8c-3.8,4.7-6.4,9.7-7.9,15.1
	c-1.5,5.2-2.4,9.9-2.7,14.1h95.7C468.1,289,463,278,456,270.2z"/>
<rect x="361.8" y="158.1" fill="#FFFFFF" width="119.9" height="29.2"/>
</svg>
