<?xml version="1.0" encoding="utf-8"?>
<!-- Generator: Adobe Illustrator 18.1.0, SVG Export Plug-In . SVG Version: 6.00 Build 0)  -->
<!DOCTYPE svg PUBLIC "-//W3C//DTD SVG 1.1//EN" "http://www.w3.org/Graphics/SVG/1.1/DTD/svg11.dtd">
<svg version="1.1" id="Layer_1" xmlns="http://www.w3.org/2000/svg" xmlns:xlink="http://www.w3.org/1999/xlink" x="0px" y="0px"
	 viewBox="0 0 720 450" enable-background="new 0 0 720 450" xml:space="preserve">
<g>
	<g>
		<path fill="#FFFFFF" d="M664.9,438.4H55.2c-11.4,0-20.7-9.3-20.7-20.7V111.5c0-11.4,9.3-20.7,20.7-20.7h609.8
			c11.4,0,20.7,9.3,20.7,20.7v306.2C685.6,429.1,676.3,438.4,664.9,438.4z M55.2,101.6c-5.5,0-9.9,4.4-9.9,9.9v306.2
			c0,5.5,4.4,9.9,9.9,9.9h609.8c5.5,0,9.9-4.4,9.9-9.9V111.5c0-5.5-4.4-9.9-9.9-9.9H55.2z"/>
	</g>
	<g>
		<path fill="#FFFFFF" d="M159.9,378.4c-42,0-76.2-34.2-76.2-76.2s34.2-76.2,76.2-76.2c42,0,76.2,34.2,76.2,76.2
			S201.9,378.4,159.9,378.4z M159.9,236.7c-36.1,0-65.4,29.4-65.4,65.4c0,36.1,29.4,65.4,65.4,65.4c36.1,0,65.4-29.4,65.4-65.4
			C225.3,266.1,196,236.7,159.9,236.7z"/>
	</g>
	<g>
		<path fill="#FFFFFF" d="M159.9,323.3c-11.7,0-21.2-9.5-21.2-21.2c0-11.7,9.5-21.2,21.2-21.2c11.7,0,21.2,9.5,21.2,21.2
			C181.1,313.8,171.6,323.3,159.9,323.3z M159.9,286.2c-8.8,0-16,7.2-16,16c0,8.8,7.2,16,16,16s16-7.2,16-16
			C175.9,293.3,168.7,286.2,159.9,286.2z"/>
	</g>
	<g>
		<path fill="#FFFFFF" d="M159.9,392.8c-50,0-90.7-40.7-90.7-90.7c0-50,40.7-90.7,90.7-90.7s90.7,40.7,90.7,90.7
			C250.6,352.2,209.9,392.8,159.9,392.8z M159.9,216.6c-47.1,0-85.5,38.4-85.5,85.5s38.4,85.5,85.5,85.5s85.5-38.4,85.5-85.5
			S207,216.6,159.9,216.6z"/>
	</g>
	<g>
		<path fill="#FFFFFF" d="M441.8,438.4H277.4V168.9h164.4V438.4z M288.2,427.6H431V179.7H288.2V427.6z"/>
	</g>
	<g>
		<path fill="#FFFFFF" d="M441.8,356H277.4v-79.6h164.4V356z M288.2,345.2H431v-58H288.2V345.2z"/>
	</g>
	<g>
		<rect x="39.9" y="168.9" fill="#FFFFFF" width="640.3" height="10.8"/>
	</g>
	<g>
		<path fill="#FFFFFF" d="M653.8,101.6H71V39.3c0-14.4,11.7-26.2,26.2-26.2h530.5c14.4,0,26.2,11.7,26.2,26.2V101.6z M81.8,90.8H643
			V39.3c0-8.5-6.9-15.4-15.4-15.4H97.2c-8.5,0-15.4,6.9-15.4,15.4V90.8z"/>
	</g>
	<g>
		<rect x="303.9" y="350.6" fill="#FFFFFF" width="10.8" height="39.7"/>
	</g>
	<g>
		<rect x="329.1" y="350.6" fill="#FFFFFF" width="10.8" height="39.7"/>
	</g>
	<g>
		<rect x="354.3" y="350.6" fill="#FFFFFF" width="10.8" height="39.7"/>
	</g>
	<g>
		<rect x="379.5" y="350.6" fill="#FFFFFF" width="10.8" height="39.7"/>
	</g>
	<g>
		<rect x="404.7" y="350.6" fill="#FFFFFF" width="10.8" height="39.7"/>
	</g>
	<g>
		<rect x="297" y="281.8" fill="#FFFFFF" width="10.8" height="66.8"/>
	</g>
	<g>
		<rect x="411.4" y="281.8" fill="#FFFFFF" width="10.8" height="66.8"/>
	</g>
	<g>
		<path fill="#FFFFFF" d="M380.2,333.6c-9.5,0-17.2-7.7-17.2-17.2s7.7-17.2,17.2-17.2s17.2,7.7,17.2,17.2S389.7,333.6,380.2,333.6z
			 M380.2,304.4c-6.6,0-12,5.4-12,12c0,6.6,5.4,12,12,12s12-5.4,12-12C392.2,309.7,386.9,304.4,380.2,304.4z"/>
	</g>
	<g>
		<path fill="#FFFFFF" d="M337.3,333.6c-9.5,0-17.2-7.7-17.2-17.2s7.7-17.2,17.2-17.2c9.5,0,17.2,7.7,17.2,17.2
			S346.8,333.6,337.3,333.6z M337.3,304.4c-6.6,0-12,5.4-12,12c0,6.6,5.4,12,12,12s12-5.4,12-12C349.3,309.7,344,304.4,337.3,304.4z
			"/>
	</g>
	<g>
		<path fill="#FFFFFF" d="M76.4,153.8c-9.5,0-17.2-7.7-17.2-17.2s7.7-17.2,17.2-17.2c9.5,0,17.2,7.7,17.2,17.2
			S85.9,153.8,76.4,153.8z M76.4,124.6c-6.6,0-12,5.4-12,12c0,6.6,5.4,12,12,12s12-5.4,12-12C88.4,130,83.1,124.6,76.4,124.6z"/>
	</g>
	<g>
		<path fill="#FFFFFF" d="M121.9,153.8c-9.5,0-17.2-7.7-17.2-17.2s7.7-17.2,17.2-17.2s17.2,7.7,17.2,17.2S131.3,153.8,121.9,153.8z
			 M121.9,124.6c-6.6,0-12,5.4-12,12c0,6.6,5.4,12,12,12c6.6,0,12-5.4,12-12C133.9,130,128.5,124.6,121.9,124.6z"/>
	</g>
	<g>
		<rect x="304.2" y="252" fill="#FFFFFF" width="9.2" height="17.4"/>
	</g>
	<g>
		<rect x="335.6" y="252" fill="#FFFFFF" width="8.6" height="17.4"/>
	</g>
	<g>
		<path fill="#FFFFFF" d="M416.7,269.5h-53.3v-17.4h53.3V269.5z M368.6,264.3h42.9v-7h-42.9V264.3z"/>
	</g>
	<g>
		<path fill="#FFFFFF" d="M420.7,236.4H300.2v-42.2h120.4V236.4z M311,225.6h98.8V205H311V225.6z"/>
	</g>
	<g>
		<path fill="#FFFFFF" d="M524.5,159H193c-8.6,0-15.6-7-15.6-15.6v-16.2c0-8.6,7-15.6,15.6-15.6h331.6c8.6,0,15.6,7,15.6,15.6v16.2
			C540.2,152,533.1,159,524.5,159z M193,122.3c-2.7,0-4.8,2.2-4.8,4.8v16.2c0,2.7,2.2,4.8,4.8,4.8h331.6c2.7,0,4.8-2.2,4.8-4.8
			v-16.2c0-2.7-2.2-4.8-4.8-4.8H193z"/>
	</g>
	<g>
		<g>
			<g>
				<path fill="#FFFFFF" d="M159.9,283.7L159.9,283.7c-2.4,0-4.3-1.9-4.3-4.3v-10.8c0-2.4,1.9-4.3,4.3-4.3h0c2.4,0,4.3,1.9,4.3,4.3
					v10.8C164.2,281.8,162.3,283.7,159.9,283.7z"/>
			</g>
		</g>
		<g>
			<g>
				<path fill="#FFFFFF" d="M159.9,339.2L159.9,339.2c-2.4,0-4.3-1.9-4.3-4.3V324c0-2.4,1.9-4.3,4.3-4.3h0c2.4,0,4.3,1.9,4.3,4.3
					v10.8C164.2,337.2,162.3,339.2,159.9,339.2z"/>
			</g>
		</g>
		<g>
			<g>
				<path fill="#FFFFFF" d="M197.9,303.3L197.9,303.3c0,2.4-1.9,4.3-4.3,4.3h-10.8c-2.4,0-4.3-1.9-4.3-4.3l0,0
					c0-2.4,1.9-4.3,4.3-4.3h10.8C196,299,197.9,301,197.9,303.3z"/>
			</g>
		</g>
		<g>
			<g>
				<path fill="#FFFFFF" d="M141.3,303.3L141.3,303.3c0,2.4-1.9,4.3-4.3,4.3h-10.8c-2.4,0-4.3-1.9-4.3-4.3l0,0
					c0-2.4,1.9-4.3,4.3-4.3H137C139.4,299,141.3,301,141.3,303.3z"/>
			</g>
		</g>
	</g>
	<g>
		<path fill="#FFFFFF" d="M558.1,378.4c-42,0-76.2-34.2-76.2-76.2s34.2-76.2,76.2-76.2c42,0,76.2,34.2,76.2,76.2
			S600.1,378.4,558.1,378.4z M558.1,236.7c-36.1,0-65.4,29.4-65.4,65.4c0,36.1,29.4,65.4,65.4,65.4c36.1,0,65.4-29.4,65.4-65.4
			C623.5,266.1,594.1,236.7,558.1,236.7z"/>
	</g>
	<g>
		<path fill="#FFFFFF" d="M558.1,323.3c-11.7,0-21.2-9.5-21.2-21.2c0-11.7,9.5-21.2,21.2-21.2s21.2,9.5,21.2,21.2
			C579.2,313.8,569.7,323.3,558.1,323.3z M558.1,286.2c-8.8,0-16,7.2-16,16c0,8.8,7.2,16,16,16s16-7.2,16-16
			C574,293.3,566.9,286.2,558.1,286.2z"/>
	</g>
	<g>
		<path fill="#FFFFFF" d="M558.1,392.8c-50,0-90.7-40.7-90.7-90.7c0-50,40.7-90.7,90.7-90.7s90.7,40.7,90.7,90.7
			C648.7,352.2,608.1,392.8,558.1,392.8z M558.1,216.6c-47.1,0-85.5,38.4-85.5,85.5s38.4,85.5,85.5,85.5s85.5-38.4,85.5-85.5
			S605.2,216.6,558.1,216.6z"/>
	</g>
	<g>
		<g>
			<g>
				<path fill="#FFFFFF" d="M558.1,283.7L558.1,283.7c-2.4,0-4.3-1.9-4.3-4.3v-10.8c0-2.4,1.9-4.3,4.3-4.3l0,0
					c2.4,0,4.3,1.9,4.3,4.3v10.8C562.4,281.8,560.4,283.7,558.1,283.7z"/>
			</g>
		</g>
		<g>
			<g>
				<path fill="#FFFFFF" d="M558.1,339.2L558.1,339.2c-2.4,0-4.3-1.9-4.3-4.3V324c0-2.4,1.9-4.3,4.3-4.3l0,0c2.4,0,4.3,1.9,4.3,4.3
					v10.8C562.4,337.2,560.4,339.2,558.1,339.2z"/>
			</g>
		</g>
		<g>
			<g>
				<path fill="#FFFFFF" d="M596.1,303.3L596.1,303.3c0,2.4-1.9,4.3-4.3,4.3h-10.8c-2.4,0-4.3-1.9-4.3-4.3l0,0
					c0-2.4,1.9-4.3,4.3-4.3h10.8C594.2,299,596.1,301,596.1,303.3z"/>
			</g>
		</g>
		<g>
			<g>
				<path fill="#FFFFFF" d="M539.5,303.3L539.5,303.3c0,2.4-1.9,4.3-4.3,4.3h-10.8c-2.4,0-4.3-1.9-4.3-4.3l0,0
					c0-2.4,1.9-4.3,4.3-4.3h10.8C537.5,299,539.5,301,539.5,303.3z"/>
			</g>
		</g>
	</g>
	<g>
		<rect x="154.5" y="96.2" fill="#FFFFFF" width="10.8" height="78.2"/>
	</g>
	<g>
		<rect x="552.7" y="96.2" fill="#FFFFFF" width="10.8" height="78.2"/>
	</g>
	<g>
		
			<rect x="61.8" y="134" transform="matrix(0.2428 0.9701 -0.9701 0.2428 190.4116 29.2955)" fill="#FFFFFF" width="29.2" height="5.2"/>
	</g>
	<g>
		
			<rect x="119.3" y="122" transform="matrix(0.8779 0.4789 -0.4789 0.8779 80.3141 -41.6765)" fill="#FFFFFF" width="5.2" height="29.2"/>
	</g>
	<g>
		<path fill="#FFFFFF" d="M614.3,153.8c-9.5,0-17.2-7.7-17.2-17.2s7.7-17.2,17.2-17.2s17.2,7.7,17.2,17.2S623.8,153.8,614.3,153.8z
			 M614.3,124.6c-6.6,0-12,5.4-12,12c0,6.6,5.4,12,12,12c6.6,0,12-5.4,12-12C626.3,130,620.9,124.6,614.3,124.6z"/>
	</g>
	<g>
		
			<rect x="599.7" y="134" transform="matrix(0.9983 5.809036e-02 -5.809036e-02 0.9983 8.9733 -35.4533)" fill="#FFFFFF" width="29.2" height="5.2"/>
	</g>
	<g>
		<rect x="282.8" y="384.9" fill="#FFFFFF" width="153.6" height="10.8"/>
	</g>
	<g>
		<g>
			<path fill="#FFFFFF" d="M398.4,417.6h-77.6c-3,0-5.4-2.4-5.4-5.4l0,0c0-3,2.4-5.4,5.4-5.4h77.6c3,0,5.4,2.4,5.4,5.4l0,0
				C403.8,415.1,401.4,417.6,398.4,417.6z"/>
		</g>
	</g>
</g>
</svg>
