<?xml version="1.0" encoding="utf-8"?>
<!-- Generator: Adobe Illustrator 18.1.0, SVG Export Plug-In . SVG Version: 6.00 Build 0)  -->
<!DOCTYPE svg PUBLIC "-//W3C//DTD SVG 1.1//EN" "http://www.w3.org/Graphics/SVG/1.1/DTD/svg11.dtd">
<svg version="1.1" id="Layer_1" xmlns="http://www.w3.org/2000/svg" xmlns:xlink="http://www.w3.org/1999/xlink" x="0px" y="0px"
	 viewBox="0 0 576 576" enable-background="new 0 0 576 576" xml:space="preserve">
<path fill="#2E2E2E" d="M470.3,422.1c13.5,13.5,13.5,35.3,0,48.8c-13.5,13.5-35.3,13.5-48.8,0l-135-135.1L151.4,470.8
	c-13.5,13.5-35.3,13.5-48.8,0c-13.5-13.5-13.5-35.3,0-48.8L237.7,287L102.7,151.9c-13.5-13.5-13.5-35.3,0-48.8
	C109.4,96.4,118.2,93,127,93c8.8,0,17.7,3.4,24.4,10.1l135.1,135.1l135-135.1c13.5-13.5,35.3-13.5,48.8,0
	c6.7,6.7,10.1,15.6,10.1,24.4c0,8.8-3.4,17.7-10.1,24.4L335.3,287L470.3,422.1z"/>
</svg>
