<?xml version="1.0" encoding="utf-8"?>
<!-- Generator: Adobe Illustrator 18.0.0, SVG Export Plug-In . SVG Version: 6.00 Build 0)  -->
<!DOCTYPE svg PUBLIC "-//W3C//DTD SVG 1.1//EN" "http://www.w3.org/Graphics/SVG/1.1/DTD/svg11.dtd">
<svg version="1.1" id="Layer_1" xmlns="http://www.w3.org/2000/svg" xmlns:xlink="http://www.w3.org/1999/xlink" x="0px" y="0px"
	 viewBox="0 0 357 252" enable-background="new 0 0 357 252" xml:space="preserve">
<g>
	<path fill="#D9F0F4" d="M209.8,97.7c-24.4,0.9-18.8-29.3-16-39.9c0.5-1.8-0.9-3.6-2.8-3.6h-0.1c-1.4,0-2.6,0.7-3.3,1.9
		c-2.4,4.3-6,7.4-8.6,9.4c1.4-6.5,2.8-14.2,4.1-23.2c0.6-6.8,1.2-10.4-4.2-13.2c-0.8-0.4-1.8,0.1-1.9,1c-1.2,8.4-6.4,44.9-10.3,54.1
		c-3.2,7.7-6.6,9.4-8.4,6.6c0.1-0.5,0.1-1,0.1-1.5c0-7.5,1.9-18.2,2.8-23.8c0.5-3-1.9-2-4.2-0.4c-0.9-2.4-8.4-10.5-18.1,0.9
		c-6.3,7.4-9.2,18-8.5,26.4c-0.3,0.5-0.6,1-0.9,1.6c-0.2,0.3-11.4,20-4.6-15.6c1.7-9.2,3.4-12.9-6.3-7.7s-9.8,6-10.9,12.3
		c-1,5.8-7.4,32.7-11.5,22.5c0.1-7.5,2-17.6,2.8-23c0.5-3-1.9-2-4.2-0.4C94,79.6,88.2,70.3,76.8,83c-17,18.9-7,57.7,14.3,30.9
		l0.7-0.7c2,3.8,5.9,6.9,13,0c0.6-0.6,1.6-2,2-2.8c2.6-4.8,8.1-21.8,8.4-29.1c0-0.4,0.2-0.7,0.5-0.9l0.1-0.1c0.5-0.3,1.1,0,1,0.6
		c-1.1,8.6-5.3,49.3,15.8,19.8c3.5,7,10.9,8.5,20.7-3.7l0.1-0.1c3.1,4.2,13,13.9,22.4-18.5v0c2.6-1.6,5.2-4,6.4-5
		c0.2-0.2,0.5,0,0.5,0.2c-0.5,38.9,21.1,28.8,27.3,25.2C210.5,98.4,210.3,97.7,209.8,97.7z M90.7,91.7c-0.8,6.2-2.5,11.5-3.7,14.5
		c-0.9,2.4-1.7,5.4-3.9,6.9c-2.8,1.9-6.6,2.3-7.6-2.4c-2.2-10.6,5.4-28.7,12.6-24.4C90,87.5,91,89.6,90.7,91.7z M152.9,74.8
		c-0.8,6.2-2.5,11.4-3.7,14.5c-0.9,2.4-1.7,5.4-3.9,6.9c-2.8,1.9-6.7,2.3-7.6-2.4c-2.1-11.1,5.1-28.1,12.1-24.7
		C152.1,70.1,153.2,72.4,152.9,74.8z"/>
	<path fill="#D9F0F4" d="M160.4,133.1c0,0.6-0.1,1.2-0.2,1.9C160.3,134.3,160.3,133.7,160.4,133.1z"/>
	<g>
		<path fill="#D9F0F4" d="M55.1,144.7L55.1,144.7c2.6-2.1,3.4-6.8,3.7-10.1c0-0.3-0.3-0.6-0.6-0.4c-22,9.8-47.9,27.2-26.4,49.4
			c0.1,0.1,0.4,0.2,0.5,0.1l9.1-6c0.3-0.2,0.3-0.5,0-0.7C38.1,174.5,19.4,160.2,55.1,144.7z"/>
		<path fill="#D9F0F4" d="M100.4,132.3l-5.4-5.8c-0.4-0.4-1.1-0.2-1.2,0.3c-2.7,14.3-3.9,25.8-4.1,35.1c0,0.3-0.2,0.6-0.6,0.7
			c-1.8,0.4-4.6,1.1-7.9,2.3c-0.5,0.2-1-0.2-0.9-0.7c1.3-17.2,2-33.7,2.2-37.8c0-0.5-0.4-0.8-0.9-0.7c-1.5,0.4-4.5,1.3-8.5,2.7
			c-0.3,0.1-0.5,0.4-0.5,0.7c0.1,2.6-0.2,5.9-0.6,8.5c-0.1,0.5,0.4,0.9,0.9,0.8c0,0,0,0,0,0c0.5-0.1,0.9,0.2,0.9,0.7
			c-0.5,6.8-1.3,18.4-2.3,29.9c0,0.2-0.1,0.4-0.3,0.5c-6.5,3.7-13.6,9.3-20,17.5c-17.5,22.6-4.5,35.8,5.3,36.2
			c15.7,0.7,19.6-9.4,21.3-25.5c0.7-6.9,1-15,1.7-24.2c0-0.2,0.2-0.5,0.4-0.6c2.8-1.3,5.7-2.4,8.9-3.4c0.4-0.1,0.9,0.2,0.9,0.6
			c1.1,22.5,8.9,28,10.8,29c0.2,0.1,0.5,0.1,0.8-0.1l5.8-4.6c0.4-0.3,0.3-0.9-0.1-1.2c-16.7-8.4-7.5-55.9-6.6-60.5
			C100.7,132.6,100.6,132.4,100.4,132.3z M69.2,195.8c0,0.1,0,0.2,0,0.4c-0.2,1.6-0.4,5.1-1.2,8.6c-1.5,6.4-4.8,13.1-12.7,9.2
			c-6.6-3.3-5.6-20,14.5-34.9c0.5-0.4,1.2,0,1.1,0.6C70.3,185.8,69.7,191.4,69.2,195.8z"/>
	</g>
	<g>
		<path fill="#D9F0F4" d="M26.2,152.9c1.1-1.4,3-3.7,5.9-6.1c0.1-0.1,0.2-0.3,0.1-0.4c-0.2-0.4-1-1.5-1.2-2
			c-4.8-9.6-3.9-21.8,5.1-31.8c0.1-0.2,0.1-0.4,0-0.5l-6.1-6.1c-0.2-0.2-0.4-0.2-0.6,0c-2.5,2.8-19.5,24.9-3.8,46.7
			c0,0,0,0.1,0.1,0.1C25.8,153,26,153,26.2,152.9z"/>
		<path fill="#D9F0F4" d="M63.7,84.4c0.6,0.6,1.5,0.5,2.1-0.1c2.5-2.8,9.4-10.5,9.4-19.1c0-15.3-18-17-25.9-9
			c-7.5,7.7-10.2,23.8-1.7,38.1c22.5,37.9,13.8,49.3,5.2,55.3c-1.7,1.2-4.2,2.2-5.5,2.5c-0.2,0-0.5,0.2-0.7,0.3
			c-1.5,1.4-3.7,2.7-5.7,5.7c-0.6,0.9,0,2.1,1,2.2c5.5,0.7,10.8-0.7,17.7-5.4c15.4-10.5,10.2-32.4,6.2-42.1
			c-5.6-13.9-23.4-34.7-12.2-49.2c3.6-4.7,7.7-4.4,10.9-2.5c4.7,2.9-0.6,13.3-4.5,17.9c-0.5,0.6-0.5,1.4,0.1,2L63.7,84.4z"/>
	</g>
	<path fill="#D9F0F4" d="M329.3,126c-11.5,2.9-125.9,34.4-130.3,35.7c1.4-5.9,2.6-12.1,3.7-18.1c9.3,0.3,19.9-19.2,22.6-25.1
		c0.2-0.5,0.9-0.4,1.1,0c1.3,3.5,6.3,8.7,6.8,12.2c1.6,9.5-14.5,11.1-20,11.4c-0.9,0-1.2,1.1-0.6,1.7c2,1.8,5.7,3.4,7,4
		c0.3,0.1,0.7,0.2,1,0.1c26.6-3.3,25.9-18.5,17.5-28.4c-6.7-7.9-5.1-19.3-4.1-23.7c0.1-0.5-0.5-0.8-0.8-0.5c-2.2,2-5.1,3-6.3,3.4
		c-0.4,0.1-0.8,0.4-0.9,0.8c-11.4,28.1-18.3,34-21.5,34.8c1.6-9.7,2.7-17.6,3.1-20.7c0.1-0.6-0.5-1.2-1.1-1l-2.1,0.6
		c-0.7-1.8-8-17.8-22.3,1.9c-6.9,9.5-8.6,20.2-6.8,27.7c-1,1.2-6.8,7.6-6.5-2.3c0.3-10.4,5.2-33.3,8.8-43.7c0.2-0.5-0.3-1-0.8-0.8
		c-2,0.9-6.3,4.5-8.4,6.3c-0.1,0.1-0.1,0.2-0.2,0.3c-0.4,1.2-2.4,6.8-4.6,16c-4-3.2-12.7-7.1-21.3,8.3c0,0,0,0.1,0,0.1c0,0,0,0,0,0
		c-3.5,2.4-6.5,4.3-9.1,5.6l-7,2.8l0,0c0,0,0,0,0,0c-6.6,1.7-8.9-1.2-9.8-3.9c1.3-0.8,2.6-1.2,3.9-1.1c0.1,0,0.3,0,0.4,0
		c1.9,0.3,3.3,1.6,4.3,2.9l6.9-3.3c-2.5-3.9-6-6.5-10.1-7.1c-0.3-0.1-0.7-0.1-1-0.1c-4.5-0.3-9,1.8-12.6,5.8
		c-3.3,3.7-5.3,8.9-6.1,14.5c-0.9,5.8-0.5,11.5,1.8,16.1c2.4,5,6.5,8.3,11.1,9c0.3,0.1,0.7,0.1,1,0.1c4.5,0.3,9-1.8,12.6-5.8
		c3.3-3.7,5.1-8.9,6-14.4c0.2-1.6,0.4-3.2,0.4-4.8l-8.3,3.1c0,0.3-0.1,0.6-0.1,0.9c-0.6,4.2-1.2,7.6-3.6,10.2
		c-2.1,2.4-4.6,3-6.8,2.6c-2.9-0.4-4.7-2.6-5.5-4.2c-1.5-3.2-1.1-7.6-0.5-11.8c0.3-1.8,0.6-3.5,1-5.1c3.5,5.7,9.2,6.3,14.8,5
		l9.5-3.7c0.8-0.4,1.5-0.8,2.2-1.2c-2.7,13.5,4.8,21.3,10.3,21.2c5.7-0.1,9.5-3.9,13-10c0.3,1.3,0.7,2.6,1.3,3.6c0,0,0,0.1,0.1,0.1
		c0.4,0.6,5.5,7.2,16.5-4.7c3.4,3.8,8.8,4.2,15.1-1.6l0.2-0.2c-0.9,6.4-2,11.9-3.3,16.6c-28.5,8.1-32.8,21.2-28.7,28.3
		c4.5,7.8,13.7,9.8,20.8,4.3c2-1.5,8.2-6,14.6-26.9c4.6-1.5,105.2-29.4,128.5-35.7c2.7-0.7,4.6-3.2,4.6-6v-1.7
		C330.1,126.2,329.7,125.9,329.3,126z M160.4,133.1c0,0.6-0.1,1.2-0.2,1.9c-0.3,1.8-1,3.9-2.1,6.4c-1.9,4.3-8.8,12.2-12.1,8.8
		c-4.4-4.4,4.6-33.9,13.8-22.6c0,0,0,0,0,0C159.8,127.9,160.7,129.8,160.4,133.1z M176.8,190c-1.5,1.4-3.8,1.7-5.6,0.6
		c-0.1-0.1-0.2-0.1-0.2-0.2c-2.6-1.8-2.6-5.7-0.2-7.7c4.1-3.4,9.7-6.4,16.3-9.2C183.5,182.6,179.3,187.6,176.8,190z M198.6,122.2
		c-0.9,5-5.3,13.9-5.3,13.9s-10.7,14.9-11,1.6c-0.3-13.4,7.5-22,11.7-22.2C197.4,115.4,198.7,119.3,198.6,122.2
		C198.6,122.2,198.6,122.2,198.6,122.2z"/>
	<path fill="#D9F0F4" d="M263.3,123c-2.1,2.4-4.6,3-6.8,2.6c-2.9-0.4-4.7-2.6-5.5-4.2c-1.5-3.2-1.1-7.6-0.5-11.8
		c0.4-2.6,0.8-5,1.6-7.1c2.8,8.4,8.8,10.1,14.9,9.2l0,0l8.3-2.6c0,0,0,0,0,0c2.7-1.2,5.1-2.7,6.8-3.8c-1.7,8.5-4.3,18.1-8.1,24.4
		c-0.2,0.3,0.1,0.7,0.4,0.6l10.2-2.4c0.1,0,0.2-0.1,0.3-0.3c0.6-1.7,4.7-14,6.9-26.3v0c2.8-1.5,6-4.3,7.2-5.5c0.2-0.2,0.5,0,0.5,0.2
		c-0.5,38.9,21.1,28.8,27.3,25.2c0.4-0.3,0.2-0.9-0.3-0.9c-24.4,0.9-18.8-29.3-16-39.9c0.5-1.8-0.9-3.6-2.8-3.6h-0.1
		c-1.4,0-2.6,0.7-3.3,1.9c-3.4,6-9.1,9.8-11.3,11.2c0.1-2.1,0-4.1-0.2-5.9c0-0.2-0.3-0.4-0.5-0.3l-7.3,3.2c-0.2,0-0.3,0.2-0.3,0.3
		c-0.1,0.9-0.4,3.7-1,7.7c-3.7,2.5-6.8,4.3-9.5,5.6c0,0,0,0,0,0l-7.1,2.4l-0.1,0c-7.4,1.1-8.4-4.5-8.5-6.9c0.6-0.2,1.3-0.2,1.9-0.2
		c0.1,0,0.3,0,0.4,0c2.9,0.4,4.7,3.2,5.4,4.8c0,0,0,0,0,0l7-2.8c-0.1-0.2-0.1-0.3-0.2-0.5c-2.4-5-6.5-8.3-11.1-9
		c-0.3-0.1-0.7-0.1-1-0.1c-4.5-0.3-9,1.8-12.6,5.8c-3.3,3.7-5.3,8.9-6.1,14.5c-0.9,5.8-0.5,11.5,1.8,16.1c2.4,5,6.5,8.3,11.1,9
		c0.3,0.1,0.7,0.1,1,0.1c4.5,0.3,9-1.8,12.6-5.8c3.3-3.7,5.1-8.9,6-14.4c0.1-0.6,0.2-1.1,0.2-1.7l-8.3,2.5"/>
</g>
</svg>
