<?xml version="1.0" encoding="utf-8"?>
<!-- Generator: Adobe Illustrator 18.1.0, SVG Export Plug-In . SVG Version: 6.00 Build 0)  -->
<!DOCTYPE svg PUBLIC "-//W3C//DTD SVG 1.1//EN" "http://www.w3.org/Graphics/SVG/1.1/DTD/svg11.dtd">
<svg version="1.1" xmlns="http://www.w3.org/2000/svg" xmlns:xlink="http://www.w3.org/1999/xlink" x="0px" y="0px"
	 viewBox="0 0 358 138.6" enable-background="new 0 0 358 138.6" xml:space="preserve">
<g id="Layer_1">
	<rect x="1.3" y="-2" fill="#4F5462" width="576" height="181.4"/>
</g>
<g id="Shapes">
	<g id="New_Symbol_19_1_">
	</g>
	<g id="New_Symbol_36_1_">
	</g>
	<g id="New_Symbol_8_1_">
	</g>
	<g id="New_Symbol_15_11_">
	</g>
	<g id="New_Symbol_15_10_">
	</g>
	<g id="New_Symbol_15_9_">
	</g>
	<g id="New_Symbol_15_8_">
	</g>
	<g id="New_Symbol_15_7_">
	</g>
	<g id="New_Symbol_16_13_">
	</g>
	<g id="New_Symbol_16_12_">
	</g>
	<g id="New_Symbol_16_11_">
	</g>
	<g id="New_Symbol_16_10_">
	</g>
	<g id="New_Symbol_37_3_">
	</g>
	<g id="New_Symbol_37_2_">
	</g>
	<g id="New_Symbol_15_6_">
	</g>
	<g id="New_Symbol_16_9_">
	</g>
	<g id="New_Symbol_16_8_">
	</g>
	<g id="New_Symbol_16_7_">
	</g>
	<g id="New_Symbol_22_3_">
	</g>
	<g id="New_Symbol_22_2_">
	</g>
	<g id="New_Symbol_1_">
	</g>
	<g id="New_Symbol_19">
		<g opacity="0.61">
			<path fill="#FFFFFF" d="M-2.6,23.8C-2.6,23.8-2.6,23.8-2.6,23.8L-2.6,23.8C-2.6,23.8-2.6,23.8-2.6,23.8z"/>
			<path fill="#FFFFFF" d="M78.1,33c-0.2,0.1-0.5,0.2-0.8,0.1c-0.1,0-0.1,0-0.2-0.1c-0.1,0-0.3-0.1-0.3-0.2c0.4,0.1,0.7,0.1,1.1,0.2
				C77.9,33,78,33,78.1,33z"/>
			<path fill="#FFFFFF" d="M87.8,33c-0.9,0.2-2.2,0.3-3.9,0.4c-1.6,0-3.6,0-5.9-0.4c0.3-0.1,0.5-0.3,0.8-0.5
				c0.9-0.7,1.9-1.4,2.8-2.2c1-0.8,3-2.8,2.2-4.3c-0.7-1.3-1.9-0.5-2.5,0.4c-1.4,2.2-2.9,4.2-4.5,6.2c0,0-0.1,0.1-0.1,0.1
				c0.4,0.1,0.7,0.1,1.1,0.2c0.1,0,0.1,0,0.2,0c-0.2,0.1-0.5,0.2-0.8,0.1c-0.1,0-0.1,0-0.2-0.1c-0.1,0-0.3-0.1-0.3-0.2
				c-2-0.3-4.2-0.8-6.6-1.4c-1-0.2-2-0.5-3.1-0.8c0.5-0.4,3.1-2,3.9-2.7c1.4-1.2,3.6-2.9,2.7-5c-0.8-1.8-2.8,0.4-3.4,1.1
				c-1.8,2.1-3.1,4.5-5.4,5.9c0,0,0,0-0.1,0c-3-0.8-6.2-1.7-9.6-2.7c0.5-0.1,0.9-0.4,1.3-0.7c1.3-0.9,2.6-1.8,3.9-2.7
				c1.4-1,4.2-3.5,3-5.6c-1.1-1.8-2.8-0.8-3.6,0.4c-1.9,2.8-4,5.5-6.3,8c0,0,0,0,0,0.1c-0.8-0.2-1.5-0.5-2.3-0.7
				c-2.8-0.9-5.8-1.9-8.7-2.9c1.4-0.4,2.8-0.9,4.2-1.6c0.6-0.3,1.2-0.6,1.9-0.8c0.9-0.3,1.8-0.7,2.7-1.3c1.7-1.1,4.3-3.8,3.3-6.1
				c-1.1-2.5-4-0.5-5.1,0.7c-2.6,2.6-5.2,6.4-8.5,8.2c-0.1,0.1-0.2,0.1-0.3,0.2l0,0c-2.7-1-5.5-1.9-8.3-2.8c6-2.9,13-7.6,13.2-14.4
				c0-0.5-0.5-1.2-1.1-1c-3,0.9-4.9,3.6-6.9,5.9c-2.8,3.1-5.7,6-9.1,8.4c-1.5-0.4-2.9-0.7-4.4-1c-1.9-0.3-3.8-0.6-5.8-0.7
				c-0.1,0-0.3,0-0.4,0c0.3-0.2,0.7-0.5,1-0.8c2.2-1.9,4.4-3.9,6.5-5.9c2.4-2.2,6.9-7.4,4.9-11.1c-1.8-3.2-4.7-1-6,1.4
				c-3.1,5.6-6.5,11.1-10.3,16.3c0,0.1-0.1,0.1-0.1,0.1c-0.5,0-0.9,0.1-1.4,0.1c-1.2,0.1-2.4,0.3-3.6,0.6c2.4-2.7,4.5-5.7,5.8-9
				c1.3-3.4,2-7.8-0.6-10.8c-0.9-1-2.2-1.2-3.4-0.5c-1.3,0.8-1.5,3-1.8,4.3C7.7,7.2,6.5,13.7,4.1,19c-1.2,0.4-2.4,0.9-3.5,1.5
				C2,16,2.3,11.3,1.6,6.6C1.5,5.8,0.5,5.5-0.2,5.8c-2.3,0.9-2.6,4.6-3,6.7c-0.6,3.8-0.8,7.6-2.1,11.3c-0.6,0.4-1.2,0.9-1.8,1.3
				C-8.3,26-9.5,27-10.6,28c-0.1,0.1-0.3,0.2-0.4,0.3c0.2-3.5,0.6-7.3-1.2-10.3c-1.6-2.7-5-6.4-8.6-5.8c-3.6,0.7-0.1,5,0.9,6.5
				c2.5,4,4.3,8.4,5.4,12.9c-0.7,0.7-1.3,1.3-1.9,2c-1.6,1.8-2.9,3.3-4,4.6c-1.1,1.3-1.9,2.4-2.5,3.1c0,0-0.1,0.1-0.1,0.1
				c-0.4,0.5-0.3,1.3,0.2,1.7l0.6,0.4c0.5,0.4,1.3,0.3,1.7-0.2c0,0,0.1-0.1,0.1-0.1c0.5-0.7,1.3-1.8,2.3-3.1
				c0.6-0.8,1.3-1.7,2.1-2.6c3.3,1.4,6.5,2.7,9.8,4c1.7,0.7,3.4,1.4,5.1,1.9c0.8,0.2,1.5-0.2,1.8-0.9c0.8-2.1-3.7-4-5-4.6
				c-2.9-1.5-6.2-2.4-9.4-3.1c1.2-1.4,2.6-2.8,4.1-4.2c0.2,0.1,0.3,0.2,0.6,0.2c5.5,0.5,10.6,2.4,15.8,4.2c1.5,0.5,8.6,3.2,9-0.1
				c0.1-1.3-1.1-1.9-2.1-2.4c-2.3-1.2-4.7-2.1-7.2-2.8C2.3,28.3-2.2,28-6.7,28.2c0,0,0,0-0.1,0c0.4-0.4,0.9-0.7,1.4-1.1
				c1.2-0.9,2.5-1.8,3.8-2.7c0.2-0.1,0.3-0.2,0.5-0.3c3.3,0.8,6.9,2.1,9.8,3.1c3.2,1.1,6.5,2.8,10,2.4c0.6-0.1,0.9-0.7,0.7-1.2
				c-1.2-3-5-4-7.8-4.9C9.6,23,5.3,22.3,2.8,22c1.5-0.7,3-1.3,4.7-1.8c1.7-0.5,3.4-0.9,5.2-1.1c0.5-0.1,0.9-0.1,1.4-0.2
				c0,0,0,0,0.1,0c1,0.9,1.8,2,2.7,3c1.3,1.4,2.6,2.7,4,4.1c1.4,1.4,2.7,2.8,4.1,4.1c0.6,0.6,1.2,1.5,2.2,1.2c0.1,0,0.3-0.2,0.3-0.4
				c1.2-2.8-1.4-5.6-2.5-6.9c-2.1-2.5-5-3.8-7.6-5.3c0.3,0,0.7,0,1,0c1.4,0,2.8,0.2,4.1,0.4l0,0c1.1,0.9,2.3,1.7,3.5,2.5
				c1.2,1.1,2.1,2.5,3.1,3.7c1.4,1.6,2.9,3,4.4,4.5c2.9,2.7,6.1,5.9,10.1,6.8c0.5,0.1,1-0.4,1-0.8c0.1-3.3-4-6.4-6.3-8.4
				c-2.5-2.2-5.3-4.7-8.3-6.4c0.1-0.1,0.2-0.1,0.4-0.2c3.4,0.9,6.7,2,10.1,3.1c0.2,0.1,0.4,0.1,0.5,0.2l0,0c0.2,0.2,0.5,0.4,0.9,0.7
				c0.9,0.6,1.7,1.3,2.5,1.9l0,0c1,1.1,1.9,2.3,2.8,3.5c1.3,1.7,2.6,3.3,3.9,5c1.2,1.6,3.5,5,5.8,3.9c1.7-0.8-0.2-4.7-0.8-5.6
				c-2-2.8-4.6-5-7.4-7c0.8,0.2,1.6,0.5,2.4,0.7c1.4,0.4,2.7,0.8,4,1.1c0.1,0.2,0.5,0.4,1.2,0.7c3.6,1.7,6.7,4.3,9.9,6.6
				c0.7,0.5,5.1,3.9,6,2.5c1.3-2.1-6.3-6-11-8.2c3.2,0.8,6.2,1.5,9.1,2.1c0.3,0.1,0.6,0.1,1,0.2l0,0c0,0,0,0,0,0
				c1,0.6,1.8,1.3,2.6,2.1c1,0.8,2,1.6,3,2.3c1,0.8,2.1,1.6,3.1,2.4c0.5,0.4,1,0.9,1.6,0.8c0.1,0,0.2-0.1,0.2-0.2
				c0.6-1.3-1.4-2.9-2.3-3.6c-1.7-1.4-3.8-2.3-5.8-3.4c1.5,0.3,3,0.5,4.3,0.7c2.3,0.3,4.4,0.3,6.1,0.2C85.6,33.4,86.9,33.2,87.8,33
				c0.5-0.1,0.9-0.2,1.1-0.2C88.7,32.8,88.3,32.9,87.8,33z M-2.6,23.8L-2.6,23.8C-2.6,23.8-2.6,23.8-2.6,23.8
				C-2.6,23.8-2.6,23.8-2.6,23.8z M13.9,17.4c0.1,0.1,0.2,0.1,0.3,0.2C14.1,17.6,14,17.5,13.9,17.4z M41.5,23.4c0.1,0,0.2,0,0.2,0
				C41.7,23.4,41.6,23.4,41.5,23.4z"/>
			<path fill="#FFFFFF" d="M14.2,17.6c-0.1,0-0.2-0.1-0.3-0.2C14,17.5,14.1,17.6,14.2,17.6z"/>
			<path fill="#FFFFFF" d="M14.2,17.6c-0.1,0-0.2-0.1-0.3-0.2C14,17.5,14.1,17.6,14.2,17.6z"/>
		</g>
		<path opacity="0.61" fill="#FFFFFF" d="M6.4,45C6.4,45,6.4,45,6.4,45L6.4,45C6.4,45,6.4,45,6.4,45z"/>
		<path opacity="0.61" fill="#FFFFFF" d="M33.8,21.1c-0.2,0-0.5-0.1-0.7-0.2C33.3,21,33.5,21.1,33.8,21.1z"/>
		<path opacity="0.61" fill="#FFFFFF" d="M90,12.1c-0.1,0.1-0.2,0.2-0.4,0.3C89.8,12.3,89.9,12.2,90,12.1z"/>
	</g>
	<g id="New_Symbol_36">
		<g opacity="0.61">
			<path fill="#FFFFFF" d="M300,132.1C300,132.1,300,132.1,300,132.1l1.4-1.5c3.4,3.2,3.1,9.1-0.8,13.3c-3.8,4.1-9.8,4.9-13.2,1.7
				l1.4-1.5c0,0,0,0,0,0l-2,2.2c3.8,3.5,10.2,2.7,14.4-1.8c4.2-4.5,4.5-11,0.8-14.5L300,132.1z"/>
			<path fill="#FFFFFF" d="M301,131c3.2,2.9,2.8,8.5-0.9,12.4c-3.6,3.9-9.2,4.7-12.3,1.8L301,131z"/>
		</g>
		<circle opacity="0.61" fill="#FFFFFF" cx="15.7" cy="86.9" r="1"/>
		<circle opacity="0.61" fill="#FFFFFF" cx="11.4" cy="69.3" r="1.7"/>
		<circle opacity="0.61" fill="#FFFFFF" cx="33.8" cy="49.7" r="1.7"/>
		<circle opacity="0.61" fill="#FFFFFF" cx="333.4" cy="59.6" r="1.7"/>
		<circle opacity="0.61" fill="#FFFFFF" cx="88" cy="7.3" r="1.7"/>
		<circle opacity="0.61" fill="#FFFFFF" cx="72.5" cy="6.4" r="0.7"/>
		<circle opacity="0.61" fill="#FFFFFF" cx="26.4" cy="97" r="0.7"/>
		<circle opacity="0.61" fill="#FFFFFF" cx="3.9" cy="95.8" r="1"/>
		<circle opacity="0.61" fill="#FFFFFF" cx="2.9" cy="68.1" r="0.7"/>
		<circle opacity="0.61" fill="#FFFFFF" cx="96.7" cy="19.1" r="0.7"/>
		<circle opacity="0.61" fill="#FFFFFF" cx="103.1" cy="164" r="0.7"/>
		<circle opacity="0.61" fill="#FFFFFF" cx="313.3" cy="156.1" r="0.7"/>
		<circle opacity="0.61" fill="#FFFFFF" cx="353.7" cy="116.6" r="0.7"/>
		<circle opacity="0.61" fill="#FFFFFF" cx="302.7" cy="87.2" r="0.7"/>
		<circle opacity="0.61" fill="#FFFFFF" cx="353.6" cy="98.7" r="0.6"/>
		<circle opacity="0.61" fill="#FFFFFF" cx="312" cy="56.1" r="0.6"/>
		<circle opacity="0.61" fill="#FFFFFF" cx="302" cy="168.6" r="0.6"/>
		<circle opacity="0.61" fill="#FFFFFF" cx="320.3" cy="165.5" r="1.3"/>
		<circle opacity="0.61" fill="#FFFFFF" cx="344" cy="108.9" r="1.3"/>
		<circle opacity="0.61" fill="#FFFFFF" cx="300.2" cy="44.5" r="1.3"/>
		<circle opacity="0.61" fill="#FFFFFF" cx="322.1" cy="60.9" r="1.3"/>
		<circle opacity="0.61" fill="#FFFFFF" cx="62.4" cy="48.9" r="0.7"/>
		<circle opacity="0.61" fill="#FFFFFF" cx="21.7" cy="48.7" r="0.7"/>
		<circle opacity="0.61" fill="#FFFFFF" cx="256" cy="105.5" r="0.7"/>
		<circle opacity="0.61" fill="#FFFFFF" cx="16.5" cy="54" r="0.7"/>
		<circle opacity="0.61" fill="#FFFFFF" cx="10.7" cy="48.7" r="0.7"/>
		<circle opacity="0.61" fill="#FFFFFF" cx="342.7" cy="42.5" r="0.7"/>
	</g>
	<g id="New_Symbol_8">
	</g>
	<g id="New_Symbol_15_5_">
	</g>
	<g id="New_Symbol_15_4_">
	</g>
	<g id="New_Symbol_15_3_">
	</g>
	<g id="New_Symbol_15_2_">
	</g>
	<g id="New_Symbol_15_1_">
	</g>
	<g id="New_Symbol_16_6_">
		<path opacity="0.61" fill="#FFFFFF" d="M299.8,67.3c1.5,0.1,2.5,1.1,2.6,2.2c0,0.1,0,0.1-0.1,0.1c0,0.1,0,0.1,0,0.2
			c-0.8,0.8-1.9,1.1-3.1,1c-1.5-0.1-2.6-1.5-3.6-2.2c-0.1-0.1-0.1-0.2,0-0.3C296.9,67.6,298.2,67.2,299.8,67.3z"/>
	</g>
	<g id="New_Symbol_16_5_">
		<path opacity="0.61" fill="#FFFFFF" d="M317.4,83.2c-0.8-1.7-0.4-3.5,0.7-4.4c0.1-0.1,0.1-0.1,0.2,0c0.1-0.1,0.1-0.1,0.2-0.1
			c1.4,0.3,2.5,1.3,3.2,2.8c0.9,1.8,0.1,3.8-0.1,5.4c0,0.2-0.2,0.3-0.4,0.2C319.6,86.2,318.2,85.1,317.4,83.2z"/>
	</g>
	<g id="New_Symbol_16_4_">
	</g>
	<g id="New_Symbol_16_3_">
	</g>
	<g id="New_Symbol_37_1_">
		<path opacity="0.61" fill="#FFFFFF" d="M319,71.9c-0.8-1.3-2.9-1.9-4.2-2.3c0.6-0.6,1.8-1.8,2.1-2.7c0.3-1.1-0.3-2.4-1.2-3.1
			c-2-1.5-3.5,1.1-4.4,3.5c-1.5-1.8-3.6-3.4-5-0.8c-0.8,1.5,0,3,1.4,4.1c-0.9,0.5-1.8,1.1-2.6,1.9c-0.6,0.5-0.4,1.5,0.1,1.9
			c1.6,1.5,3.4,0.9,4.9-0.2c-0.2,1.1-0.1,1.7,0.1,2.9c0.2,1.1,2,1.9,2.9,0.8c1.3-1.7,0.9-2.7,0.8-4.6c1.5,0.8,3.1,1.2,4.7,0.3
			C319.3,73.4,319.4,72.5,319,71.9z M312.4,71.5c0.5,0.4,1.1,1.1,0.5,1.4c-0.2,0.2-0.6,0.2-0.9,0c-0.2-0.1-0.4-0.6-0.5-0.8
			c-0.2,0.3-0.6,0.8-1,0.9c-0.2,0-0.4-0.1-0.4-0.3c-0.1-0.5,0.2-0.9,0.5-1.2c-0.5-0.2-0.8-0.1-1.1-0.6c-0.2-0.3,0.2-0.7,0.5-0.7
			c0.3,0.1,0.5,0.1,0.7,0.3c-0.1-0.5-0.1-1,0.4-1.3c0.2-0.1,0.4,0,0.5,0.2c0.1,0.3,0.2,0.6,0.2,0.8c0.4-0.2,0.9-0.3,1.2,0
			C313.6,70.9,313,71.3,312.4,71.5z"/>
		<g opacity="0.61">
			<path fill="#FFFFFF" d="M312.1,71c0.3,0.9-1.1,1.3-1.4,0.4C310.5,70.5,311.9,70.1,312.1,71L312.1,71z"/>
		</g>
	</g>
	<g id="New_Symbol_37">
	</g>
	<g id="New_Symbol_15">
	</g>
	<g id="New_Symbol_16_2_">
	</g>
	<g id="New_Symbol_16_1_">
	</g>
	<g id="New_Symbol_16">
	</g>
	<g id="New_Symbol_22_1_">
	</g>
	<g id="New_Symbol_22">
		<g opacity="0.61">
			<path fill="#FFFFFF" d="M48.7,66.6c-0.3-0.4-0.6-0.7-0.9-1c0.1-0.1,0.2-0.2,0.3-0.3c1-0.8,2-3.1,0.3-3.9c-1-0.4-2-0.4-2.9,0
				c-0.3-0.8-0.8-1.6-1.5-1.9c-0.9-0.5-2.3-0.2-2.6,0.9c-0.1,0.6-0.1,1.2,0,1.8c0,0-0.1,0-0.1,0c-1.2-0.1-3,0.3-3.6,1.4
				c-0.6,1.1,0.5,2.4,1.3,3c0.5,0.4,1.2,0.6,1.8,0.7c-0.8,1.6-1.2,3.6,0.5,4.4c0.9,0.4,1.6,0.4,2.5-0.2c0.4-0.2,0.7-0.7,0.9-1
				c0.2-0.3,0.3-0.9,0.5-1.4c0.7,0.6,1.6,0.9,2.5,1C49.7,70.2,49.4,67.7,48.7,66.6z M45.8,67.4c-0.3-0.2-0.6-0.5-0.9-0.7
				c-0.2-0.2-0.5-0.3-0.7-0.5c-0.1,0.3-0.3,0.5-0.4,0.8c-0.2,0.4-0.4,0.9-0.6,1.3c-0.4,0.5-1.3,0-0.9-0.6c0.3-0.4,0.4-0.9,0.6-1.3
				c0.2-0.3,0.3-0.6,0.5-0.9c-0.7,0-1.4,0.2-2.1,0.2c-0.7,0.1-0.6-1,0-1.1c0.7-0.1,1.5-0.2,2.2-0.2c-0.2-0.5-0.4-1-0.5-1.6
				c-0.1-0.7,0.9-0.9,1-0.2c0.1,0.6,0.4,1.2,0.6,1.7c0.5-0.3,0.9-0.6,1.3-1c0.5-0.5,1.2,0.3,0.7,0.8c-0.5,0.5-1.1,0.9-1.7,1.2
				c0.1,0.1,0.3,0.2,0.4,0.3c0.3,0.3,0.6,0.6,1,0.8C46.9,66.8,46.3,67.7,45.8,67.4z"/>
			<path fill="#FFFFFF" d="M45.1,66.1c0.1-0.1,0.2-0.3,0.3-0.4c0.2-0.2,0.2-0.5,0.1-0.8c-0.1-0.2-0.1-0.4-0.2-0.5
				c-0.1-0.3-0.4-0.4-0.7-0.5c-0.1,0-0.2,0-0.3,0c0,0,0,0,0,0c-0.1,0-0.2,0-0.3,0.1c0,0,0,0,0,0c-0.2,0-0.4,0.1-0.6,0.2
				c-0.5,0.3-0.6,0.9-0.5,1.4c0.1,0.5,0.4,0.9,0.9,1C44.3,66.5,44.7,66.4,45.1,66.1z"/>
		</g>
		<g opacity="0.61">
			<path fill="#FFFFFF" d="M26.4,72.1c0.3-0.1,0.5-0.3,0.7-0.5c0.1,0.1,0.1,0.2,0.2,0.2c0.5,0.7,1.9,1.5,2.5,0.4
				c0.3-0.6,0.4-1.3,0.2-1.9c0.6-0.2,1.1-0.4,1.4-0.9c0.4-0.6,0.3-1.5-0.4-1.7c-0.4-0.1-0.8-0.1-1.1-0.1c0,0,0,0,0,0
				c0.1-0.8,0-2-0.7-2.4c-0.7-0.5-1.6,0.2-2,0.7c-0.3,0.3-0.5,0.7-0.6,1.1c-1-0.6-2.2-1-2.9,0.1c-0.3,0.6-0.3,1,0,1.6
				c0.1,0.3,0.4,0.5,0.6,0.7c0.2,0.1,0.6,0.3,0.9,0.4c-0.4,0.4-0.7,1-0.8,1.5C24,72.5,25.7,72.5,26.4,72.1z M26.1,70.2
				c0.1-0.2,0.3-0.3,0.5-0.5c0.1-0.1,0.2-0.3,0.3-0.4c-0.2-0.1-0.3-0.2-0.5-0.3c-0.3-0.2-0.6-0.3-0.8-0.5c-0.3-0.3,0.1-0.9,0.4-0.6
				c0.2,0.2,0.5,0.3,0.8,0.5c0.2,0.1,0.4,0.3,0.5,0.4c0-0.5,0-0.9,0-1.4c0-0.4,0.7-0.4,0.7,0.1c0,0.5,0.1,1,0,1.4
				c0.4-0.1,0.7-0.2,1.1-0.3c0.4-0.1,0.5,0.6,0.1,0.7c-0.4,0-0.8,0.2-1.2,0.3c0.1,0.3,0.3,0.6,0.5,0.9c0.3,0.4-0.3,0.8-0.6,0.4
				c-0.3-0.4-0.5-0.7-0.7-1.1c-0.1,0.1-0.1,0.2-0.2,0.2c-0.2,0.2-0.4,0.4-0.6,0.6C26.4,70.9,25.8,70.5,26.1,70.2z"/>
			<path fill="#FFFFFF" d="M27,69.8c0.1,0.1,0.2,0.1,0.3,0.2c0.1,0.1,0.3,0.2,0.5,0.1c0.1,0,0.2-0.1,0.4-0.1
				c0.2-0.1,0.3-0.2,0.4-0.4c0-0.1,0-0.1,0-0.2c0,0,0,0,0,0c0-0.1,0-0.1,0-0.2c0,0,0,0,0,0c0-0.1,0-0.3-0.1-0.4
				c-0.2-0.3-0.5-0.4-0.9-0.4c-0.3,0-0.6,0.2-0.7,0.5C26.7,69.2,26.8,69.6,27,69.8z"/>
		</g>
		<g opacity="0.61">
			<path fill="#FFFFFF" d="M295,115.2c-0.5,0-0.9,0.1-1.3,0.3c0-0.2,0-0.3-0.1-0.4c-0.2-1.3-1.5-3.4-3.1-2.3
				c-0.9,0.6-1.4,1.5-1.5,2.5c-0.9-0.2-1.8-0.2-2.4,0.2c-0.9,0.5-1.4,1.9-0.6,2.7c0.4,0.4,0.9,0.7,1.5,0.9c0,0,0,0-0.1,0.1
				c-0.7,1-1.4,2.7-0.7,3.8c0.6,1.1,2.3,0.9,3.2,0.5c0.6-0.2,1.2-0.6,1.6-1.1c0.9,1.5,2.3,2.9,4,1.9c0.9-0.5,1.2-1.2,1.2-2.2
				c0-0.4-0.2-0.9-0.4-1.3c-0.2-0.3-0.6-0.8-0.9-1.2c0.9-0.3,1.7-0.8,2.2-1.5C298.6,116.3,296.3,115.2,295,115.2z M294.1,118.1
				c-0.3,0.2-0.7,0.2-1.1,0.3c-0.3,0.1-0.5,0.2-0.8,0.3c0.1,0.3,0.3,0.5,0.4,0.8c0.2,0.4,0.6,0.8,0.7,1.2c0.2,0.6-0.7,1.1-1,0.5
				c-0.2-0.4-0.5-0.8-0.7-1.2c-0.2-0.3-0.3-0.6-0.5-0.9c-0.4,0.6-0.6,1.3-0.9,1.9c-0.3,0.6-1.2,0-0.9-0.6c0.3-0.6,0.6-1.3,1-2
				c-0.5-0.1-1.1-0.2-1.6-0.4c-0.6-0.2-0.3-1.2,0.4-1c0.6,0.2,1.2,0.3,1.8,0.4c0-0.5,0-1-0.1-1.6c-0.1-0.7,0.9-0.9,1-0.2
				c0.1,0.7,0.2,1.4,0.1,2c0.1-0.1,0.3-0.1,0.4-0.2c0.4-0.2,0.8-0.2,1.2-0.4C294.3,116.8,294.7,117.8,294.1,118.1z"/>
			<path fill="#FFFFFF" d="M292.6,117.9c0-0.2-0.1-0.3-0.2-0.4c-0.1-0.2-0.3-0.5-0.6-0.5c-0.2-0.1-0.4-0.1-0.6-0.1
				c-0.3,0-0.6,0.1-0.8,0.3c-0.1,0.1-0.1,0.1-0.2,0.2c0,0,0,0,0,0c-0.1,0.1-0.1,0.2-0.1,0.3c0,0,0,0,0,0c-0.1,0.2-0.1,0.4-0.1,0.6
				c0,0.6,0.4,1,0.9,1.2c0.5,0.2,1,0.2,1.3-0.2C292.6,118.9,292.7,118.4,292.6,117.9z"/>
		</g>
		<g opacity="0.61">
			<path fill="#FFFFFF" d="M280.2,132.3c0,0.3,0.1,0.5,0.2,0.8c-0.1,0-0.2,0-0.2,0.1c-0.7,0.2-1.9,1.1-1.2,2c0.4,0.5,1,0.7,1.5,0.8
				c-0.1,0.5,0,1.1,0.3,1.4c0.3,0.5,1.2,0.7,1.6,0.2c0.2-0.3,0.4-0.6,0.5-0.9c0,0,0,0,0,0c0.6,0.4,1.6,0.7,2.3,0.2
				c0.6-0.4,0.4-1.4,0.1-1.9c-0.2-0.4-0.4-0.6-0.7-0.9c0.8-0.6,1.6-1.5,0.9-2.4c-0.4-0.5-0.8-0.6-1.3-0.6c-0.3,0-0.5,0.2-0.8,0.3
				c-0.2,0.1-0.4,0.4-0.6,0.6c-0.2-0.5-0.6-0.9-1-1.2C280.6,130.1,280.1,131.5,280.2,132.3z M281.9,132.7c0.1,0.2,0.2,0.4,0.3,0.6
				c0.1,0.1,0.2,0.3,0.2,0.4c0.1-0.1,0.3-0.2,0.4-0.3c0.2-0.2,0.4-0.4,0.7-0.5c0.4-0.2,0.7,0.4,0.3,0.5c-0.2,0.1-0.5,0.3-0.7,0.5
				c-0.2,0.1-0.3,0.2-0.5,0.3c0.4,0.2,0.8,0.3,1.1,0.4c0.4,0.2,0.1,0.7-0.3,0.5c-0.4-0.2-0.8-0.3-1.2-0.5c-0.1,0.3-0.1,0.7-0.1,1
				c-0.1,0.4-0.7,0.2-0.6-0.2c0.1-0.3,0.1-0.7,0.2-1.1c-0.3,0-0.6,0.1-0.9,0.2c-0.4,0.1-0.6-0.5-0.2-0.6c0.4-0.1,0.8-0.2,1.2-0.2
				c-0.1-0.1-0.1-0.2-0.1-0.2c-0.1-0.2-0.2-0.5-0.3-0.7C281.2,132.6,281.7,132.3,281.9,132.7z"/>
			<path fill="#FFFFFF" d="M281.9,133.5c-0.1,0-0.2,0.1-0.2,0.1c-0.1,0.1-0.2,0.2-0.3,0.4c0,0.1,0,0.2,0,0.3c0,0.2,0.1,0.3,0.2,0.5
				c0,0,0.1,0.1,0.1,0.1c0,0,0,0,0,0c0,0,0.1,0,0.2,0.1c0,0,0,0,0,0c0.1,0,0.2,0.1,0.4,0c0.3,0,0.5-0.3,0.6-0.6
				c0.1-0.3,0-0.6-0.2-0.8C282.4,133.5,282.2,133.4,281.9,133.5z"/>
		</g>
		<g opacity="0.61">
			<path fill="#FFFFFF" d="M348.3,61.1c0.3,0.1,0.5,0.1,0.8,0.1c0,0.1,0,0.2,0,0.2c-0.1,0.8,0.2,2.2,1.3,1.9
				c0.6-0.2,1.1-0.6,1.3-1.1c0.5,0.3,1,0.4,1.4,0.3c0.6-0.1,1.1-0.8,0.8-1.4c-0.2-0.3-0.4-0.6-0.7-0.8c0,0,0,0,0,0
				c0.6-0.4,1.3-1.2,1.1-2c-0.1-0.7-1.1-0.9-1.7-0.9c-0.4,0-0.8,0.1-1.1,0.3c-0.2-1-0.8-2.1-1.9-1.8c-0.6,0.1-0.9,0.4-1.1,1
				c-0.1,0.2-0.1,0.6,0,0.8c0,0.2,0.2,0.6,0.3,0.8c-0.5,0-1.1,0.2-1.5,0.5C346.5,59.8,347.6,60.8,348.3,61.1z M349.4,59.6
				c0.2,0,0.4,0,0.7,0c0.2,0,0.3,0,0.5-0.1c0-0.2-0.1-0.3-0.1-0.5c0-0.3-0.2-0.6-0.2-0.8c0-0.4,0.6-0.5,0.6-0.1
				c0,0.3,0.1,0.6,0.2,0.8c0,0.2,0.1,0.4,0.1,0.6c0.3-0.3,0.6-0.6,0.9-0.9c0.3-0.3,0.7,0.2,0.4,0.5c-0.3,0.3-0.6,0.6-0.9,0.9
				c0.3,0.2,0.6,0.3,0.8,0.5c0.3,0.3-0.1,0.7-0.4,0.5c-0.3-0.2-0.6-0.4-0.9-0.6c-0.1,0.3-0.2,0.6-0.2,0.9c-0.1,0.4-0.7,0.3-0.6-0.1
				c0.1-0.4,0.2-0.8,0.3-1.2c-0.1,0-0.2,0-0.3,0c-0.2,0-0.5,0-0.8,0C349,60.3,349,59.7,349.4,59.6z"/>
			<path fill="#FFFFFF" d="M350.1,60c0,0.1,0,0.2,0,0.3c0,0.2,0.1,0.3,0.2,0.4c0.1,0.1,0.2,0.1,0.3,0.2c0.2,0.1,0.3,0.1,0.5,0
				c0.1,0,0.1-0.1,0.1-0.1c0,0,0,0,0,0c0,0,0.1-0.1,0.1-0.1c0,0,0,0,0,0c0.1-0.1,0.1-0.2,0.2-0.3c0.1-0.3,0-0.6-0.3-0.8
				c-0.2-0.2-0.5-0.3-0.8-0.1C350.3,59.5,350.2,59.7,350.1,60z"/>
		</g>
		<g id="New_Symbol_8_2_">
		</g>
		<g id="New_Symbol_25">
			<path opacity="0.61" fill="#FFFFFF" d="M284.7,99.2c-1-0.2-1.9-0.6-2.8-0.9c-0.4-0.1-0.7-0.2-1.1-0.2c1-1.2,1.9-2.5,2.5-4
				c0.7-1.4-1.6-2.5-2.2-1c-0.5,1.1-1.1,2.1-1.9,3.1c-0.9-1.1-1.9-2-2.7-3.2c-0.9-1.3-2.9,0.1-2,1.4c0.7,1.1,1.7,2,2.5,3
				c-1.6,0.6-3,1.6-4.5,2.4c-1.4,0.7-0.6,3,0.8,2.3c1.4-0.7,2.8-1.6,4.2-2.3c0,0.8-0.2,1.5-0.3,2.3c-0.2,1.1,0,2.3-0.3,3.3
				c-0.4,1.5,2,1.9,2.4,0.4c0.3-1,0.1-2.2,0.3-3.3c0.1-0.7,0.2-1.3,0.2-2c0.6,0.1,1.3,0.2,1.9,0.4c0.8,0.2,1.6,0.6,2.4,0.8
				C285.8,101.9,286.2,99.5,284.7,99.2z"/>
			<path opacity="0.61" fill="#FFFFFF" d="M340.8,83.2c-0.1-0.6,0.1-1.2,0.1-1.8c0-0.2,0-0.5-0.1-0.7c0.9,0.4,1.8,0.7,2.8,0.8
				c1,0.2,1.2-1.4,0.3-1.5c-0.8-0.1-1.5-0.3-2.2-0.6c0.5-0.7,0.9-1.5,1.5-2.2c0.6-0.7-0.5-1.7-1.2-1c-0.5,0.6-0.9,1.4-1.4,2
				c-0.6-0.8-1.5-1.5-2.2-2.3c-0.7-0.7-1.9,0.2-1.2,0.9c0.7,0.7,1.4,1.4,2.1,2.2c-0.5,0.1-1,0.2-1.4,0.2c-0.7,0.1-1.4,0.4-2,0.4
				c-1,0-0.8,1.5,0.2,1.5c0.7,0,1.4-0.3,2-0.4c0.4-0.1,0.8-0.1,1.2-0.2c0.1,0.4,0.1,0.8,0.1,1.2c0,0.5-0.1,1.1-0.1,1.6
				C339.3,84.4,340.8,84.2,340.8,83.2z"/>
			<path opacity="0.61" fill="#FFFFFF" d="M274.3,161.1c0-0.7,0.1-1.4,0.2-2.1c0-0.3,0-0.5,0-0.8c1,0.5,2.1,0.9,3.2,1.1
				c1.1,0.2,1.5-1.5,0.4-1.7c-0.9-0.2-1.7-0.5-2.4-0.8c0.6-0.8,1.1-1.7,1.8-2.4c0.8-0.8-0.5-2-1.3-1.2c-0.6,0.7-1.1,1.5-1.7,2.2
				c-0.7-1-1.6-1.8-2.3-2.7c-0.7-0.9-2.2,0.1-1.5,0.9c0.7,0.9,1.6,1.7,2.2,2.6c-0.5,0.1-1.1,0.1-1.7,0.2c-0.8,0.1-1.6,0.3-2.3,0.3
				c-1.1,0-1,1.7,0.1,1.7c0.8,0,1.6-0.3,2.3-0.3c0.5,0,1-0.1,1.4-0.1c0,0.5,0.1,0.9,0,1.4c0,0.6-0.2,1.2-0.2,1.8
				C272.6,162.3,274.3,162.2,274.3,161.1z"/>
			<path opacity="0.61" fill="#FFFFFF" d="M80.3,46.5c0,0.5-0.2,1-0.3,1.5c0,0.2,0,0.4-0.1,0.6c-0.7-0.4-1.4-0.8-2.1-1.1
				c-0.8-0.3-1.2,0.9-0.4,1.2c0.6,0.2,1.1,0.5,1.6,0.8c-0.5,0.5-0.9,1.1-1.5,1.5c-0.6,0.5,0.2,1.4,0.8,0.9c0.5-0.4,0.9-0.9,1.4-1.4
				c0.4,0.8,1,1.4,1.4,2.1c0.4,0.7,1.5,0.1,1.1-0.5c-0.4-0.7-1-1.3-1.3-2c0.4,0,0.8,0,1.2,0c0.5,0,1.1-0.1,1.7,0
				c0.8,0.1,0.9-1.1,0.1-1.2c-0.5-0.1-1.1,0-1.7,0c-0.3,0-0.7,0-1,0c0-0.3,0-0.6,0.1-1c0.1-0.4,0.2-0.8,0.3-1.3
				C81.6,45.8,80.4,45.8,80.3,46.5z"/>
		</g>
	</g>
	<g id="New_Symbol">
		<path opacity="0.61" fill="#FFFFFF" d="M362.7,199.8L362.7,199.8c0,1-0.8,1.7-1.7,1.7l-2.2,0c-0.9,0-1.7-0.8-1.7-1.7v0
			c0-1.1,0.2-2.9,0-4.8c0-1,0-2.1-0.1-3.4c-0.1-1.2-0.2-2.6-0.3-4c-0.1-0.7-0.2-1.4-0.3-2.1c-0.1-0.8-0.2-1.6-0.3-2.5
			c-0.3-1.6-0.6-3.3-1-5c0,0,0-0.1,0-0.2c1.3,0.6,2.5,1.3,3.6,1.9c0.5,0.3,0.8,0.7,0.9,1.2c0.4,0.1,0.6,0.4,0.8,0.6
			c0.1-0.1,0.2-0.2,0.3-0.4c0.1,0.3,0.1,0.7,0.2,1c0.3,1.7,0.6,3.3,0.8,4.8c0.1,0.5,0.1,0.9,0.2,1.3c0.1,1,0.2,2,0.3,2.9
			c0.2,1.3,0.2,2.6,0.3,3.7C362.7,197,362.6,198.6,362.7,199.8z"/>
		<path opacity="0.61" fill="#FFFFFF" d="M282.1,88.8c-0.1-0.1-0.2-0.1-0.2-0.2c0,0,0,0,0.1,0C282,88.7,282,88.7,282.1,88.8z"/>
		<path opacity="0.61" fill="#FFFFFF" d="M364.9,167.4c-1.8,1.7-4.1,3.9-6.6,4.6c0.5,1.6,0.9,3.2,1.4,4.8c0.4,1.5,0.7,2.9,1,4.2
			c-0.1,0.1-0.2,0.2-0.3,0.4c-0.2-0.3-0.5-0.5-0.8-0.6c-0.1-0.5-0.3-0.9-0.9-1.2c-1.1-0.6-2.3-1.3-3.6-1.9c-0.8-3.4-1.7-7.1-3.1-11
			c-0.2-0.5-0.3-1-0.5-1.4c0,0-0.1,0-0.1,0.1c-4.4,1.8-9.1,3.5-13.9,3.7c-2.7,0.1-8.2-1.4-7.2-5.2c1.8-7.4,12.6-5.8,19.2-3.6
			c-0.7-1.8-1.5-3.6-2.4-5.5c-1.3-2.8-2.7-5.6-4.2-8.4c-3.9,1.5-7.8,3-11.9,3.7c-2.9,0.5-7.9-0.4-8.1-4.1
			c-0.5-7.8,11.2-5.7,17.3-4.3c-2.3-3.8-4.8-7.5-7.4-11.2c0,0,0,0,0,0c-3.6,1.1-12.5,7.1-14.3,0.6c-0.8-2.8,1.2-5.2,3.7-6
			c1.9-0.6,4.1-0.5,6.3-0.1c-1.4-1.7-2.8-3.4-4.2-5.1c-3,1.3-10.9,4.7-11-0.4c-0.1-2,2-3,3.7-3.2c1.4-0.2,3-0.1,4.4,0.3
			c-2.1-2.4-4.3-4.7-6.4-6.9c-1.3,1.4-3,3.1-4.9,3.6c-1.6,0.5-3.2-0.6-3.8-2c-0.6-1.3,0.3-3.1,1.6-3.6c1.7-0.6,3.2-0.7,4.8-0.2
			c-2.2-2.2-4.3-4.3-6.4-6.2c0,0-0.1,0-0.1,0.1c-2,0.5-7.9,3.8-9,0.7c-0.5-1.5,1.6-2.5,2.7-2.9c1.3-0.4,2.8-0.3,4.1,0
			c-1.7-1.6-3.3-3.1-4.9-4.5c-0.1,0.2-0.2,0.4-0.5,0.5c-1.2,0.3-2.1,1.4-3.3,1.9c-1,0.4-2.4,0.3-2.9-0.9c-0.5-1.1,0.4-2.1,1.4-2.5
			c1.3-0.5,2.6-0.4,3.9-0.1c0,0,0,0,0,0c-0.5-0.5-1-0.9-1.5-1.4c-0.9-0.8-1.7-1.5-2.5-2.2c-1,1.1-2.4,1.9-3.9,2.1
			c-1.1,0.2-2.5-0.1-2.7-1.4c-0.2-1.3,1.1-2.2,2.2-2.5c0.7-0.1,1.6-0.1,2.4,0.1c-1.2-1-2.3-2-3.3-2.9c0,0-0.1,0.1-0.1,0.1
			c-0.7,0.5-1.5,0.9-2.3,1.2c0,0-0.1,0-0.1,0c-0.3,0.2-0.6,0.3-0.9,0.5c-0.9,0.4-1.6-0.2-1.9-1c-0.3-0.9,0.2-1.7,1-2
			c0.5-0.2,1-0.3,1.6-0.3c0.5,0,0.9,0.2,1.4,0.2c-0.6-0.5-1.2-1-1.7-1.5c0,0-0.1-0.1-0.1-0.1v0c-0.4-0.3-0.8-0.7-1.1-1
			c0,0.1-0.1,0.2-0.2,0.3c-0.7,0.2-1.6,0.7-2.4,0.7c-0.6,0-1.2-0.5-1.1-1.1c0.1-0.7,0.7-1,1.3-1.2c0.3-0.1,0.5,0,0.8,0
			c0,0,0,0,0-0.1c-0.8-0.7-1.5-1.3-2-1.7c0,0,0,0-0.1,0c-1.9,0.4-4.6,1-6.6,0.6c-0.9-0.2-3.3-1-2.9-2.3c0.9-3,5.8-1.1,7.7,0.1
			c0,0,0,0,0,0c0,0,0.1,0.1,0.2,0.2c0,0,0,0,0,0c0,0,0,0,0,0c0.2,0.2,0.5,0.4,1,0.7c0,0,0.1,0.1,0.1,0.1c0.1,0,0.1,0.1,0.2,0.2
			c0,0,0.1,0,0.1,0.1c0.5,0.4,1.1,0.8,1.8,1.4c0,0,0-0.1-0.1-0.1c-0.1-0.1-0.1-0.3-0.2-0.4c-1-2-2.3-4.8,0.1-5.8
			c2.2-1,1.9,6.5,1.9,7.4c0,0.1,0,0.2-0.1,0.2c0,0,0,0,0,0.1h0c0,0,0.1,0.1,0.1,0.1c0,0,0,0,0,0c0.1,0.1,0.2,0.1,0.2,0.2
			c0.3,0.2,0.6,0.5,0.9,0.8c-0.2-0.9-0.1-1.7,0.1-2.6c0.2-0.7,0.8-2.1,1.8-1.9c1.1,0.2,1.2,1.3,1,2.3c-0.2,1-0.6,2.6-1.6,3.1
			c0,0-0.1,0-0.1,0c1.1,0.9,2.4,1.9,3.7,3c-0.3-0.9,0-2,0.2-3c0.2-1.1,0.9-2.5,2.1-2.6c1.1-0.1,1.2,1.8,1.1,2.5
			c-0.2,1.4-1.1,3-2.3,3.8c0,0-0.1,0-0.2,0.1c1.4,1.1,2.8,2.2,4.3,3.5c-0.3-1-0.2-2,0.1-3c0.5-1.3,1.8-3.1,3.4-2.8
			c1.3,0.2,1,2.5,0.8,3.4c-0.4,1.5-1.3,3-2.6,3.8c1.3,1.1,2.6,2.2,4,3.3c-0.1-1.7,0.8-3.3,1.8-4.7c0.5-0.6,1.5-0.8,2.1-0.3
			c0.7,0.6,0.7,1.5,0.6,2.4c-0.2,1.1-0.7,2.2-1.2,3.1c-0.3,0.5-0.6,1.1-1,1.4c1.5,1.3,3,2.6,4.6,4c0-0.1,0-0.2,0-0.4
			c-0.2-0.9-0.2-1.7,0.1-2.6c0.4-1.3,1.6-2.3,3-2.1c1.4,0.2,2,1.9,2,3.1c0,1.8-0.6,3.7-1.3,5.3c1.3,1.2,2.7,2.5,4.1,3.8
			c0.7,0.6,1.3,1.3,2,1.9c-0.1-1.1,0.1-2.1,0.6-3.2c0.5-1.3,1.9-3.1,3.5-2.3c1.6,0.8,1.2,3.3,1,4.7c-0.2,1-0.6,3.2-1.5,4.3
			c1.5,1.5,3,3,4.4,4.6c0.2,0.2,0.4,0.4,0.6,0.7c0.1-1.2,0.4-2.4,1-3.7c0.6-1.3,1.6-3.2,3.1-3.8c0.6-0.4,1.5-0.4,2.1,0.2
			c0.1,0.1,0.1,0.2,0.2,0.3c0.9,0.8,1.2,2.2,1,3.4c-0.4,2.5-2.8,5.1-4.3,7.1c2,2.3,3.9,4.6,5.8,7c0.4,0.5,0.8,1,1.1,1.5
			c0.3-2,1.1-3.9,2.3-5.7c1.3-2,2.9-4.7,5.3-5.3c2.3-0.6,3.7,1.8,4.2,3.6c0.7,2.6-0.4,5.3-1.6,7.5c-1.1,2.1-3,5.7-5.4,6.4
			c0,0,0,0,0,0c0.9,1.3,1.8,2.6,2.7,3.9c1.4,2.2,2.7,4.4,3.9,6.5c1.9-6.1,6.6-14.6,12.7-11.7c7.9,3.8-4.2,15.5-8.7,19.3
			c1.5,3.1,2.9,6.1,4,9.1c1.6-2.6,3.4-5,5.6-7.1c1.7-1.7,4.1-3.8,6.8-3.2C375.9,155.3,367.6,165,364.9,167.4z"/>
		<path opacity="0.61" fill="#FFFFFF" d="M369.3,183c-1.1,1.6-2.5,2.9-4.2,3.9c-0.8,0.5-2,1.1-3.2,1.3c-0.8,0.2-1.5,0.2-2.1-0.1
			c-0.3-0.1-0.5-0.3-0.6-0.4c-0.7-0.3-1.2-1-1-1.9c0-0.3,0.1-0.7,0.2-1c-0.6,0.3-1.3,0.5-2,0.6c-1.7,0.4-3.5,0.3-5.2,0
			c-2.5-0.4-6.6-1.1-6.7-4.2c-0.1-2.6,3.8-4.2,5.8-4.5c1.6-0.2,3.3,0.3,4.8,1c1.3,0.6,2.5,1.3,3.6,1.9c0.5,0.3,0.8,0.7,0.9,1.2
			c0.4,0.1,0.6,0.4,0.8,0.6c0.1-0.1,0.2-0.2,0.3-0.4c0.1-0.2,0.3-0.3,0.4-0.5c1.5-1.7,3-3.6,5.1-4.5c1.6-0.7,3.2,0.3,4.1,1.4
			C371.6,179.1,370.1,181.7,369.3,183z"/>
	</g>
</g>
</svg>
