<?xml version="1.0" encoding="utf-8"?>
<!-- Generator: Adobe Illustrator 18.1.0, SVG Export Plug-In . SVG Version: 6.00 Build 0)  -->
<!DOCTYPE svg PUBLIC "-//W3C//DTD SVG 1.1//EN" "http://www.w3.org/Graphics/SVG/1.1/DTD/svg11.dtd">
<svg version="1.1" xmlns="http://www.w3.org/2000/svg" xmlns:xlink="http://www.w3.org/1999/xlink" x="0px" y="0px"
	 viewBox="0 0 358 138.6" enable-background="new 0 0 358 138.6" xml:space="preserve">
<g id="Layer_1">
	<rect x="1.3" y="-2" fill="#4F5462" width="576" height="181.4"/>
</g>
<g id="Shapes">
	<g id="New_Symbol_19_1_">
	</g>
	<g id="New_Symbol_36_1_">
	</g>
	<g id="New_Symbol_8_1_">
	</g>
	<g id="New_Symbol_15_11_">
	</g>
	<g id="New_Symbol_15_10_">
	</g>
	<g id="New_Symbol_15_9_">
	</g>
	<g id="New_Symbol_15_8_">
	</g>
	<g id="New_Symbol_15_7_">
	</g>
	<g id="New_Symbol_16_13_">
	</g>
	<g id="New_Symbol_16_12_">
	</g>
	<g id="New_Symbol_16_11_">
	</g>
	<g id="New_Symbol_16_10_">
	</g>
	<g id="New_Symbol_37_3_">
	</g>
	<g id="New_Symbol_37_2_">
	</g>
	<g id="New_Symbol_15_6_">
	</g>
	<g id="New_Symbol_16_9_">
	</g>
	<g id="New_Symbol_16_8_">
	</g>
	<g id="New_Symbol_16_7_">
	</g>
	<g id="New_Symbol_22_3_">
	</g>
	<g id="New_Symbol_22_2_">
	</g>
	<g id="New_Symbol_1_">
	</g>
	<g id="New_Symbol_19">
		<g opacity="0.61">
			<path fill="#FFFFFF" d="M5.1,41.8C5.1,41.8,5,41.8,5.1,41.8L5.1,41.8C5,41.7,5.1,41.8,5.1,41.8z"/>
			<path fill="#FFFFFF" d="M164.3,0.8c-0.4,0.4-0.8,0.7-1.5,0.9c-0.1,0-0.2,0-0.4,0c-0.3,0.1-0.6,0-0.7-0.3c0.8-0.2,1.5-0.3,2.2-0.5
				C164.1,0.9,164.2,0.9,164.3,0.8z"/>
			<path fill="#FFFFFF" d="M182.7-6.3c-1.6,0.9-3.9,2.2-7.1,3.5c-3.1,1.3-6.9,2.5-11.4,3.6c0.4-0.4,0.8-0.9,1.1-1.5
				c1.3-2,2.5-4.1,3.7-6.1c1.3-2.3,3.6-7.4,1.1-9.7c-2.2-2-3.9,0.4-4.3,2.6c-1,5.1-2.3,10.1-4,15c0,0.1,0,0.2,0,0.3
				c0.8-0.2,1.5-0.3,2.2-0.5c0.1,0,0.2,0,0.3-0.1c-0.4,0.4-0.8,0.7-1.5,0.9c-0.1,0-0.2,0-0.4,0c-0.3,0.1-0.6,0-0.7-0.3
				c-4.1,0.8-8.6,1.5-13.5,2.2c-2.1,0.3-4.2,0.5-6.4,0.8c0.8-1.1,4.4-6,5.5-7.9c1.9-3.3,4.7-8.1,1.5-11.4c-2.8-2.9-5.1,2.8-5.7,4.6
				c-1.8,5.2-2.6,10.7-6,15.2c0,0-0.1,0.1-0.1,0.1c-6.3,0.7-13,1.3-20,1.8c0.8-0.6,1.4-1.3,2-2.2c1.9-2.6,3.7-5.3,5.5-8
				c2-3,5.4-9.7,1.6-12.7c-3.3-2.7-5.9,0.5-6.5,3.4C118-6.2,116,0.3,113.5,6.7c0,0.1,0,0.1,0,0.2c-1.6,0.1-3.3,0.2-4.9,0.3
				c-6,0.4-12.2,0.6-18.6,0.8c2.3-1.7,4.7-3.7,6.8-6c1-1,1.9-2,3-2.9c1.5-1.3,2.9-2.6,4.2-4.3c2.4-3.3,5.4-10.3,1.9-13.9
				c-3.9-3.9-7.9,1.9-9.2,5C93.4-7.3,91.3,1.8,86.3,7.6C86.1,7.8,86,8,85.9,8.1h0c-5.8,0.2-11.7,0.3-17.6,0.7
				C77.5-1,87.4-15.1,82.8-27.9c-0.4-1-1.8-1.9-2.8-1.1c-5.1,3.9-6.6,10.4-8.8,16.1C68.2-5.1,64.8,2.6,60,9.5
				c-3,0.3-6.1,0.7-9.1,1.3c-3.9,0.7-7.7,1.6-11.5,2.8c-0.3,0.1-0.5,0.2-0.8,0.2c0.5-0.7,0.9-1.5,1.4-2.3C42.8,6.3,45.5,1,48.1-4.4
				c2.9-5.9,7.7-19.1,1.2-24.5c-5.8-4.8-9.5,1.6-10.3,7.1c-1.8,12.9-4.3,25.7-7.8,38.2c0,0.1,0,0.2,0,0.3c-0.9,0.4-1.7,0.8-2.6,1.2
				c-2.2,1.1-4.3,2.3-6.4,3.6c2.6-6.8,4.5-14,4.4-21.2c-0.1-7.3-1.9-16.2-9-19.9c-2.5-1.3-5.1-0.6-6.7,1.5c-1.9,2.5-0.6,6.7-0.2,9.4
				c1.8,11.4,4.2,24.7,3.5,36.3c-2,1.7-3.8,3.5-5.5,5.3C8.1,23.6,5.3,14.5,0.5,6.2c-0.9-1.5-2.9-1.3-4-0.2
				c-3.7,3.5-1.6,10.6-0.8,14.8c1.6,7.6,3.9,15,4.3,22.8c-0.9,1.2-1.7,2.5-2.5,3.8c-1.7,2.7-3.3,5.4-4.7,8.1
				c-0.2,0.3-0.3,0.6-0.5,0.9c-2.1-6.8-4.2-14.2-9.7-18.6c-4.9-3.9-14.1-8.6-20.4-4.8c-6.4,3.8,3.5,9.4,6.4,11.6
				c7.7,5.7,14.2,12.7,19.6,20.5c-0.8,1.8-1.5,3.5-2.1,5.1c-1.8,4.5-3.2,8.4-4.3,11.7c-1.1,3.3-1.9,5.9-2.5,7.6
				c0,0.1-0.1,0.2-0.1,0.3c-0.4,1.3,0.3,2.7,1.7,3.1l1.4,0.4c1.3,0.4,2.7-0.4,3.1-1.7c0-0.1,0.1-0.2,0.1-0.3
				c0.5-1.7,1.2-4.3,2.2-7.5c0.6-1.9,1.3-4.1,2.1-6.4c7.2,0.2,14.3,0.4,21.5,0.4c3.7,0,7.4,0.3,11.1-0.1c1.6-0.2,2.7-1.4,2.7-3
				c0-4.6-9.8-4.8-12.7-5.2c-6.6-0.7-13.4,0-20,0.9c1.3-3.4,2.8-7.1,4.7-11c0.4,0.1,0.8,0.1,1.2-0.1c10.8-2.9,21.8-3.1,32.9-3.5
				c3.3-0.1,18.7-0.1,16.8-6.7c-0.7-2.6-3.4-2.8-5.7-3.1c-5.2-0.6-10.4-0.5-15.6-0.1c-9.2,0.8-18,3.4-26.3,7.1c0,0-0.1,0-0.1,0.1
				c0.6-1,1.2-2,1.8-3.1c1.6-2.6,3.3-5.3,5.3-7.9c0.2-0.3,0.5-0.6,0.7-0.9c6.8-0.9,14.5-1,20.8-1.2c6.8-0.2,14.3,0.5,20.6-2.7
				c1-0.5,1.3-2,0.5-2.8c-4.4-4.8-12.3-4-18.2-3.6c-4,0.3-12.8,2.2-17.6,3.4c2.3-2.4,4.8-4.7,7.5-6.8c2.8-2.2,5.8-4.2,9-5.9
				c0.8-0.4,1.7-0.9,2.5-1.3c0,0,0.1,0,0.1-0.1c2.5,0.9,4.8,2.4,7.2,3.7c3.4,1.8,7,3.2,10.5,4.8c3.6,1.6,7.1,3.2,10.7,4.9
				c1.6,0.7,3.4,2,5,0.8c0.2-0.2,0.3-0.6,0.3-0.9c0.2-6.3-6.8-9.6-9.8-11.2c-5.8-3.1-12.2-3.5-18.3-4.5c0.6-0.2,1.2-0.5,1.9-0.7
				c2.6-0.9,5.3-1.7,8.1-2.3h0c2.8,0.8,5.5,1.6,8.3,2.2c3,1.3,5.8,3.2,8.6,4.7c3.8,2,7.7,3.6,11.6,5.2c7.5,3,15.7,6.8,24,5.5
				c1-0.2,1.6-1.4,1.3-2.3c-2.1-6.4-12.2-9.2-18-11.3c-6.4-2.4-13.4-5-20.3-6.1c0.2-0.2,0.4-0.4,0.6-0.5c7.1-0.8,14.2-1.1,21.2-1.5
				c0.4,0,0.8,0,1.2-0.1h0c0.5,0.2,1.2,0.4,2.2,0.7c2.1,0.6,4.1,1.2,6.1,1.9h0c2.7,1.3,5.2,3,7.8,4.6c3.7,2.2,7.4,4.4,11.1,6.6
				c3.5,2,10.2,6.9,13.9,3.1c2.7-2.8-3.7-8.7-5.5-9.9c-5.8-4-12.4-6.1-19-7.9c1.7-0.1,3.3-0.3,5-0.4c2.8-0.2,5.7-0.5,8.4-0.8
				c0.4,0.2,1.2,0.4,2.7,0.5c8.1,0.7,15.7,3.2,23.5,5.2c1.7,0.4,12.5,3.7,13.2,0.5c1.1-4.9-16.4-6.8-26.8-7.6
				c6.6-0.8,12.9-1.7,18.7-2.5c0.7-0.1,1.3-0.2,2-0.3h0c0,0,0.1,0,0.1,0c2.2,0.3,4.3,1.3,6.4,2c2.4,0.8,5,1.5,7.4,2.2
				c2.5,0.8,5.1,1.5,7.6,2.3c1.2,0.3,2.4,0.9,3.6,0.4c0.2-0.1,0.2-0.3,0.2-0.4c0.2-2.9-4.8-4.5-6.9-5.2c-4.3-1.5-8.9-1.7-13.4-2.1
				c3.1-0.6,6-1.2,8.7-1.9c4.6-1.2,8.5-2.6,11.7-4C178.9-3.9,181.2-5.2,182.7-6.3c0.9-0.5,1.5-1,1.9-1.2
				C184.3-7.2,183.6-6.8,182.7-6.3z M5,41.8L5,41.8C5,41.7,5.1,41.8,5,41.8C5.1,41.8,5,41.8,5,41.8z M31.7,17.7
				c0.2,0.1,0.5,0.1,0.7,0.2C32.2,17.9,31.9,17.8,31.7,17.7z M88.3,9.1c0.1-0.1,0.3-0.2,0.4-0.3C88.6,9,88.5,9.1,88.3,9.1z"/>
			<path fill="#FFFFFF" d="M32.4,17.9c-0.2,0-0.5-0.1-0.7-0.2C32,17.8,32.2,17.8,32.4,17.9z"/>
			<path fill="#FFFFFF" d="M32.4,17.9c-0.2,0-0.5-0.1-0.7-0.2C32,17.8,32.2,17.8,32.4,17.9z"/>
		</g>
		<g opacity="0.61">
			<path fill="#FFFFFF" d="M208.9,179.3C208.9,179.3,208.9,179.3,208.9,179.3L208.9,179.3C209,179.3,208.9,179.3,208.9,179.3z"/>
			<path fill="#FFFFFF" d="M115.3,96.3c0.1,0.4,0.3,0.7,0.7,1.1c0.1,0.1,0.2,0.1,0.3,0.1c0.1,0.2,0.4,0.2,0.6,0.1
				c-0.5-0.4-0.9-0.7-1.3-1.1C115.4,96.5,115.4,96.4,115.3,96.3z"/>
			<path fill="#FFFFFF" d="M104.4,83.6c0.2,0.3,0.4,0.8,0.8,1.5c0.7,1.2,1.8,2.9,3.4,5c1.6,2,3.8,4.3,6.5,6.7
				c1.6,1.4,3.3,2.8,5.2,4.3c-3.2-1.2-6.4-2.7-9.8-3.2c-1.7-0.2-5.6-0.9-6.5,1.1c-0.1,0.1-0.1,0.3,0,0.4c0.6,0.8,1.6,0.8,2.5,1
				c2,0.4,4,0.7,5.9,1.1c1.9,0.4,3.9,0.8,5.8,1.1c1.7,0.2,3.4,0.3,5.1,0.9c0,0,0.1,0,0.1,0l0,0c0.4,0.3,0.8,0.6,1.2,0.9
				c3.6,2.6,7.5,5.4,11.8,8.2c-7.4-3.1-19.8-7.8-20.8-4.2c-0.7,2.5,7.8,4,9.1,4.3c6,1.4,12.1,2.3,17.8,4.6c1.1,0.5,1.7,0.6,2,0.6
				c1.8,1.1,3.6,2.3,5.4,3.4c1.1,0.7,2.1,1.3,3.2,2c-5.2-1.1-10.3-1.9-15.6-1.2c-1.7,0.2-8.1,2-7.2,4.8c1.2,3.8,7.4,2.9,10.5,2.7
				c3.3-0.2,6.5-0.4,9.8-0.6c2.2-0.1,4.6-0.4,6.9-0.4l0,0c1.6,0.3,3.2,0.5,4.8,0.8c0.7,0.2,1.3,0.3,1.7,0.3l0,0
				c0.3,0.1,0.5,0.3,0.8,0.4c4.6,2.7,9.3,5.4,13.9,8.4c0.1,0.2,0.1,0.4,0.2,0.6c-5.1-1.7-10.7-2.3-15.9-2.9
				c-4.6-0.5-12.4-2.2-16.1,1.4c-0.5,0.5-0.5,1.6,0.1,2c5.1,3.7,12,4,18.1,4.6c3.2,0.3,6.5,0.5,9.7,0.5c2.4,0,5-0.3,7.4-0.2
				c2.1,0.5,4.3,1,6.4,1.4l0,0c1.6,1.4,3.2,2.8,4.7,4.4c0.4,0.4,0.7,0.7,1,1.1c-4.5-1.5-8.9-3.4-14-3.3c-2.5,0-8.5-0.1-10.5,4.2
				c-0.1,0.2-0.2,0.6-0.1,0.8c0.7,1.4,2.3,1.2,3.7,1.2c3,0.1,6,0.3,9,0.4c2.9,0.1,5.8,0.4,8.8,0.4c2.1,0,4.2-0.2,6.1,0
				c0,0,0,0.1,0.1,0.1c0.4,0.5,0.8,1.2,1.2,1.7c1.6,2.2,2.9,4.7,4.1,7.1c1.1,2.4,2,4.8,2.7,7.2c-2.9-2.5-8.2-6.8-10.8-8.4
				c-3.8-2.4-8.9-5.6-13.6-3.9c-0.8,0.3-1.2,1.3-0.7,2.1c3.1,4.3,8.5,6.4,13,9c4.2,2.3,9.3,5.1,13.7,8c0.1,0.3,0.1,0.6,0.2,0.9
				c0.4,2.4,0.7,4.9,0.8,7.2c0.1,0.9,0.1,1.8,0.1,2.7c0,0,0-0.1-0.1-0.1c-4.3-5.4-9.4-10.2-15.4-13.9c-3.4-2.1-6.9-4-10.6-5.3
				c-1.6-0.6-3.5-1.4-4.9,0.1c-3.5,3.8,6.9,9.2,9.1,10.4c7.4,4.1,14.8,8,21.1,13.8c0.3,0.2,0.5,0.4,0.8,0.5
				c-0.1,3.3-0.3,6.3-0.6,9.1c-4.2-2.9-8.5-5.7-13.2-7.5c-2.1-0.8-8.8-4-10.4-0.9c-0.6,1.1-0.3,2.3,0.8,3c2.3,1.5,5,2.6,7.5,3.9
				c4.9,2.5,9.8,4.8,14.7,7.2c-0.3,1.9-0.6,3.6-0.8,5.1c-0.4,2.5-0.8,4.5-1.1,5.9c0,0.1,0,0.2,0,0.2c-0.2,1,0.5,2,1.5,2.2l1.1,0.2
				c1,0.2,2-0.5,2.2-1.5c0-0.1,0-0.2,0-0.2c0.2-1.4,0.6-3.4,1-6c0.4-2.6,0.8-5.8,1.2-9.4c0.1-1.3,0.2-2.7,0.3-4.2
				c6.4-3.5,13.2-5.9,20.4-7.1c2.8-0.5,11.3-0.8,8.4-5.6c-2.9-4.8-10.8-4.8-15.5-3.9c-5.3,1.1-9.3,5.4-13.1,9.3c0-0.3,0-0.5,0-0.8
				c0-2.3-0.1-4.7-0.4-7.1c-0.1-1.1-0.2-2.3-0.4-3.4c2.9-5.2,7.1-9.4,10.8-14c2.1-2.6,6-6.7,4.6-10.3c-0.4-1.1-1.7-1.9-2.8-1.2
				c-6.1,4-11.2,9.2-14.9,15.4c-0.5-1.8-1.2-3.7-1.9-5.5c3.6-8.1,9.8-16.3,15-23.4c1.2-1.7,3.6-4.1,3.1-6.5c-0.4-2-1.9-3.4-4-3.4
				c-6.1,0-10.4,5.4-13,10.4c-2.6,4.9-3.8,10.4-4.4,15.9c-0.9-1.6-1.9-3.2-3-4.7c-0.4-0.6-0.8-1.2-1.3-1.7c0-0.1,0.1-0.1,0.1-0.2
				c2-9.7,4.8-19.2,8-28.6c1.4-4,1.1-9.7-4.5-8.4c-6.3,1.4-7.6,12-7.7,17c-0.1,4.5-0.1,9.1,0,13.6c0,0.7,0,1.4,0.1,2
				c-0.2-0.2-0.3-0.3-0.5-0.5c-2.1-2.1-4.4-4-6.8-5.9c-1.8-1.4-3.8-2.7-5.7-4c-0.8-6.4-0.5-12.7,0.2-19.1c0.5-4.7,1.8-9.6-0.4-14
				c-0.4-0.9-1.7-0.8-2.3-0.2c-7.6,7.1-5.8,20-2.9,29.9c-3.9-2.3-7.8-4.5-11.7-6.6l0,0c0-0.1,0-0.3-0.1-0.5
				c-1.4-5.7,0.3-12.5,0.6-18.2c0.1-2.5-0.5-7.8-4.5-6.6c-3.6,1.2-4.1,7-3.6,10.1c0.3,1.6,0.7,3,1.3,4.4c0.4,1,0.7,2,1,3
				c0.6,2.3,1.5,4.5,2.5,6.4c-4.2-2.3-8.3-4.6-12.3-7c-1.1-0.6-2.2-1.3-3.2-1.9c0,0,0-0.1,0-0.1c0.5-5.2,1.5-10.3,2.7-15.4
				c0.5-2.2-0.1-5.2-3.3-4.6c-3.6,0.7-3.6,6.5-3.3,9.2c0.3,2.4,0.6,4.9,0.9,7.3c0.1,0.8,0.3,1.5,0.6,2.2c-4.6-2.8-8.9-5.5-12.9-8.2
				c0,0,0-0.1,0-0.1c-0.8-4.2,0.6-8.2,1.2-12.4c0.2-1.4,0.6-6-2.3-5.1c-3.4,1.1-3.1,5.4-3,8.2c0.1,1.6,0.8,6.2,1,7.2
				c-1.4-0.9-2.8-1.8-4.1-2.7c-3.1-2.1-5.9-4.2-8.4-6.1c-0.2,0.2-0.4,0.1-0.6-0.1c-0.1,0-0.2,0-0.3-0.1c-0.3-0.3-0.6-0.7-0.7-1.1
				c0.1,0.1,0.1,0.1,0.2,0.2c0.4,0.4,0.9,0.7,1.3,1.1c0.1-0.1,0.1-0.1,0.1-0.2c0.6-3.9,1.4-7.7,2.5-11.6c0.5-1.6,0.2-3.9-2-3.3
				c-2.5,0.7-2.7,4.9-2.6,6.9c0.1,1.8,0.2,3.6,0.3,5.4c0,0.5,0.1,1,0.2,1.4c-2.7-2.2-4.8-4.4-6.5-6.4c-1.7-2-2.8-3.7-3.6-4.8
				C104.9,84.5,104.6,84,104.4,83.6z M208.9,179.3C208.9,179.3,209,179.3,208.9,179.3L208.9,179.3
				C208.9,179.3,208.9,179.3,208.9,179.3z M198.7,153.7c0.2,0,0.3,0.1,0.5,0.1C199,153.8,198.9,153.8,198.7,153.7z M163.7,128
				c0.1,0.1,0.1,0.2,0.2,0.3C163.8,128.2,163.7,128.1,163.7,128z"/>
			<path fill="#FFFFFF" d="M198.7,153.7c0.2,0.1,0.3,0.1,0.5,0.1C199,153.7,198.9,153.7,198.7,153.7z"/>
			<path fill="#FFFFFF" d="M198.7,153.7c0.2,0.1,0.3,0.1,0.5,0.1C199,153.7,198.9,153.7,198.7,153.7z"/>
		</g>
		<path opacity="0.61" fill="#FFFFFF" d="M6.4,45C6.4,45,6.4,45,6.4,45L6.4,45C6.4,45,6.4,45,6.4,45z"/>
		<path opacity="0.61" fill="#FFFFFF" d="M33.8,21.1c-0.2,0-0.5-0.1-0.7-0.2C33.3,21,33.5,21.1,33.8,21.1z"/>
		<path opacity="0.61" fill="#FFFFFF" d="M90,12.1c-0.1,0.1-0.2,0.2-0.4,0.3C89.8,12.3,89.9,12.2,90,12.1z"/>
	</g>
	<g id="New_Symbol_36">
		<g opacity="0.61">
			<path fill="#FFFFFF" d="M32.6,120.5C32.6,120.5,32.6,120.5,32.6,120.5l0.6,3.9c-8.9,1.4-17.6-6.3-19.2-17.1
				c-1.7-10.8,4.3-20.7,13.2-22l0.6,3.9c0,0,0,0,0,0L27,83.5c-9.8,1.5-16.3,12.3-14.5,24.1c1.8,11.8,11.3,20.1,21.1,18.6L32.6,120.5
				z"/>
			<path fill="#FFFFFF" d="M33.1,123.3c-8.3,1.3-16.2-6-17.8-16.2s3.9-19.5,12.1-20.8L33.1,123.3z"/>
		</g>
		<g opacity="0.61">
			<path fill="#FFFFFF" d="M300,132.1C300,132.1,300,132.1,300,132.1l1.4-1.5c3.4,3.2,3.1,9.1-0.8,13.3c-3.8,4.1-9.8,4.9-13.2,1.7
				l1.4-1.5c0,0,0,0,0,0l-2,2.2c3.8,3.5,10.2,2.7,14.4-1.8c4.2-4.5,4.5-11,0.8-14.5L300,132.1z"/>
			<path fill="#FFFFFF" d="M301,131c3.2,2.9,2.8,8.5-0.9,12.4c-3.6,3.9-9.2,4.7-12.3,1.8L301,131z"/>
		</g>
		<circle opacity="0.61" fill="#FFFFFF" cx="21.7" cy="132.4" r="1.7"/>
		<circle opacity="0.61" fill="#FFFFFF" cx="53.7" cy="101.7" r="1.7"/>
		<circle opacity="0.61" fill="#FFFFFF" cx="171.4" cy="93.3" r="1.7"/>
		<circle opacity="0.61" fill="#FFFFFF" cx="156.7" cy="31.5" r="1.7"/>
		<circle opacity="0.61" fill="#FFFFFF" cx="333.4" cy="59.6" r="1.7"/>
		<circle opacity="0.61" fill="#FFFFFF" cx="24" cy="162.4" r="1.7"/>
		<circle opacity="0.61" fill="#FFFFFF" cx="19.1" cy="147.2" r="0.7"/>
		<circle opacity="0.61" fill="#FFFFFF" cx="31.7" cy="141.9" r="0.7"/>
		<circle opacity="0.61" fill="#FFFFFF" cx="9.2" cy="140.7" r="1"/>
		<circle opacity="0.61" fill="#FFFFFF" cx="44.6" cy="104.6" r="0.7"/>
		<circle opacity="0.61" fill="#FFFFFF" cx="11.4" cy="158.2" r="0.7"/>
		<circle opacity="0.61" fill="#FFFFFF" cx="115.4" cy="140.4" r="0.7"/>
		<circle opacity="0.61" fill="#FFFFFF" cx="103.1" cy="164" r="0.7"/>
		<circle opacity="0.61" fill="#FFFFFF" cx="313.3" cy="156.1" r="0.7"/>
		<circle opacity="0.61" fill="#FFFFFF" cx="353.7" cy="116.6" r="0.7"/>
		<circle opacity="0.61" fill="#FFFFFF" cx="302.7" cy="87.2" r="0.7"/>
		<circle opacity="0.61" fill="#FFFFFF" cx="353.6" cy="98.7" r="0.6"/>
		<circle opacity="0.61" fill="#FFFFFF" cx="312" cy="56.1" r="0.6"/>
		<circle opacity="0.61" fill="#FFFFFF" cx="302" cy="168.6" r="0.6"/>
		<circle opacity="0.61" fill="#FFFFFF" cx="320.3" cy="165.5" r="1.3"/>
		<circle opacity="0.61" fill="#FFFFFF" cx="344" cy="108.9" r="1.3"/>
		<circle opacity="0.61" fill="#FFFFFF" cx="300.2" cy="44.5" r="1.3"/>
		<circle opacity="0.61" fill="#FFFFFF" cx="322.1" cy="60.9" r="1.3"/>
		<circle opacity="0.61" fill="#FFFFFF" cx="62.4" cy="48.9" r="0.7"/>
		<circle opacity="0.61" fill="#FFFFFF" cx="13" cy="89.5" r="0.7"/>
		<circle opacity="0.61" fill="#FFFFFF" cx="82.2" cy="78.4" r="0.7"/>
		<circle opacity="0.61" fill="#FFFFFF" cx="187.5" cy="96.3" r="0.7"/>
		<circle opacity="0.61" fill="#FFFFFF" cx="242.3" cy="119.6" r="0.7"/>
		<circle opacity="0.61" fill="#FFFFFF" cx="41.8" cy="95.7" r="0.7"/>
		<circle opacity="0.61" fill="#FFFFFF" cx="170.7" cy="25.1" r="0.7"/>
		<circle opacity="0.61" fill="#FFFFFF" cx="342.7" cy="42.5" r="0.7"/>
	</g>
	<g id="New_Symbol_8">
	</g>
	<g id="New_Symbol_15_5_">
		<path opacity="0.61" fill="#FFFFFF" d="M69.5,76.2c-0.3,0-0.5-0.1-0.8,0c-0.7,0.1-1.2,0.6-1.4,1.3c-0.4,1.2,0.1,2.5,0.8,3.6
			c0.2,0.3,0.3,0.5,0.6,0.8c1.8,1.9,4.6,2.8,6.8,3.8c0.1,0.1,0.3,0,0.3-0.2c-0.2-2.5,0-4.9-1.8-7C72.9,77.1,71.2,76,69.5,76.2z"/>
	</g>
	<g id="New_Symbol_15_4_">
		<path opacity="0.61" fill="#FFFFFF" d="M64.5,79.6c-0.1-0.1-0.2-0.2-0.4-0.3c-0.4-0.2-0.8-0.1-1.2,0.2c-0.6,0.5-0.9,1.3-0.9,2.2
			c0,0.2,0,0.4,0,0.6c0.2,1.6,1.3,3.1,2.1,4.5c0,0.1,0.2,0.1,0.2,0c0.8-1.3,1.8-2.5,1.6-4.3C65.9,81.4,65.4,80.2,64.5,79.6z"/>
		<path opacity="0.61" fill="#FFFFFF" d="M231,118.8c-0.1-0.1-0.2-0.2-0.4-0.3c-0.4-0.2-0.8-0.1-1.2,0.2c-0.6,0.5-0.9,1.3-0.9,2.2
			c0,0.2,0,0.4,0,0.6c0.2,1.6,1.3,3.1,2.1,4.5c0,0.1,0.2,0.1,0.2,0c0.8-1.3,1.8-2.5,1.6-4.3C232.4,120.5,231.9,119.3,231,118.8z"/>
	</g>
	<g id="New_Symbol_15_3_">
		<path opacity="0.61" fill="#FFFFFF" d="M69.1,58.3c0,0.2,0,0.5,0,0.7c0.2,0.7,0.7,1,1.4,1.2c1.2,0.2,2.4-0.3,3.3-1.1
			c0.3-0.2,0.5-0.4,0.7-0.6c1.6-1.9,2.2-4.6,2.9-6.9c0-0.1,0-0.3-0.2-0.3c-2.3,0.4-4.6,0.5-6.4,2.4C69.6,55,68.8,56.8,69.1,58.3z"/>
		<path opacity="0.61" fill="#FFFFFF" d="M233.9,105.9c0,0.2,0,0.5,0,0.7c0.2,0.7,0.7,1,1.4,1.2c1.2,0.2,2.4-0.3,3.3-1.1
			c0.3-0.2,0.5-0.4,0.7-0.6c1.6-1.9,2.2-4.6,2.9-6.9c0-0.1,0-0.3-0.2-0.3c-2.3,0.4-4.6,0.5-6.4,2.4
			C234.5,102.6,233.6,104.3,233.9,105.9z"/>
	</g>
	<g id="New_Symbol_15_2_">
		<path opacity="0.61" fill="#FFFFFF" d="M48.1,77.5c0.2-0.1,0.3-0.2,0.5-0.4c0.4-0.4,0.3-1,0.1-1.4c-0.4-0.9-1.3-1.4-2.3-1.7
			c-0.2-0.1-0.5-0.1-0.7-0.2c-1.9-0.2-4,0.7-5.8,1.3c-0.1,0-0.2,0.2-0.1,0.2c1.3,1.3,2.5,2.8,4.6,3.1C45.7,78.7,47.2,78.5,48.1,77.5
			z"/>
	</g>
	<g id="New_Symbol_15_1_">
		<path opacity="0.61" fill="#FFFFFF" d="M45.5,83.8c0.1-0.2,0.2-0.4,0.3-0.6c0.2-0.6-0.1-1.2-0.6-1.6c-0.9-0.7-2.1-0.8-3.2-0.6
			c-0.3,0-0.6,0.1-0.8,0.2c-2.1,0.8-3.8,2.8-5.4,4.4c-0.1,0.1-0.1,0.3,0,0.3c2.1,0.7,4.1,1.6,6.4,0.8C43.6,86.3,45.1,85.2,45.5,83.8
			z"/>
	</g>
	<g id="New_Symbol_16_6_">
		<path opacity="0.61" fill="#FFFFFF" d="M51.9,65.2c1.5,0.1,2.5,1.1,2.6,2.2c0,0.1,0,0.1-0.1,0.1c0,0.1,0,0.1,0,0.2
			c-0.8,0.8-1.9,1.1-3.1,1c-1.5-0.1-2.6-1.5-3.6-2.2c-0.1-0.1-0.1-0.2,0-0.3C49,65.4,50.3,65,51.9,65.2z"/>
		<path opacity="0.61" fill="#FFFFFF" d="M240.6,112.9c-1.5-0.2-2.4-1.3-2.5-2.4c0-0.1,0-0.1,0.1-0.1c0-0.1,0-0.1,0.1-0.2
			c0.8-0.8,1.9-1,3.2-0.8c1.5,0.2,2.5,1.6,3.4,2.4c0.1,0.1,0.1,0.2-0.1,0.3C243.5,112.8,242.2,113.1,240.6,112.9z"/>
		<path opacity="0.61" fill="#FFFFFF" d="M299.8,67.3c1.5,0.1,2.5,1.1,2.6,2.2c0,0.1,0,0.1-0.1,0.1c0,0.1,0,0.1,0,0.2
			c-0.8,0.8-1.9,1.1-3.1,1c-1.5-0.1-2.6-1.5-3.6-2.2c-0.1-0.1-0.1-0.2,0-0.3C296.9,67.6,298.2,67.2,299.8,67.3z"/>
	</g>
	<g id="New_Symbol_16_5_">
		<path opacity="0.61" fill="#FFFFFF" d="M67.6,89.8c-0.8-1.7-0.4-3.5,0.7-4.4c0.1-0.1,0.1-0.1,0.2,0c0.1-0.1,0.1-0.1,0.2-0.1
			c1.4,0.3,2.5,1.3,3.2,2.8c0.9,1.8,0.1,3.8-0.1,5.4c0,0.2-0.2,0.3-0.4,0.2C69.9,92.8,68.5,91.6,67.6,89.8z"/>
		<path opacity="0.61" fill="#FFFFFF" d="M317.4,83.2c-0.8-1.7-0.4-3.5,0.7-4.4c0.1-0.1,0.1-0.1,0.2,0c0.1-0.1,0.1-0.1,0.2-0.1
			c1.4,0.3,2.5,1.3,3.2,2.8c0.9,1.8,0.1,3.8-0.1,5.4c0,0.2-0.2,0.3-0.4,0.2C319.6,86.2,318.2,85.1,317.4,83.2z"/>
	</g>
	<g id="New_Symbol_16_4_">
		<path opacity="0.61" fill="#FFFFFF" d="M47.9,85.9c0.3-1.4,1.3-2.3,2.4-2.4c0.1,0,0.1,0,0.1,0.1c0.1,0,0.1,0,0.2,0.1
			c0.7,0.8,0.9,1.9,0.7,3.2c-0.3,1.5-1.7,2.4-2.5,3.3c-0.1,0.1-0.2,0.1-0.3-0.1C47.9,88.8,47.6,87.4,47.9,85.9z"/>
	</g>
	<g id="New_Symbol_16_3_">
		<path opacity="0.61" fill="#FFFFFF" d="M74.9,71c-1.4-0.2-2.4-1.2-2.4-2.3c0-0.1,0-0.1,0.1-0.1c0-0.1,0-0.1,0.1-0.2
			c0.8-0.7,1.9-1,3.1-0.8c1.5,0.2,2.4,1.6,3.4,2.4c0.1,0.1,0.1,0.2-0.1,0.3C77.8,70.9,76.5,71.2,74.9,71z"/>
	</g>
	<g id="New_Symbol_37_1_">
		<path opacity="0.61" fill="#FFFFFF" d="M70,68.4c-0.8-1.3-2.9-1.9-4.2-2.3c0.6-0.6,1.8-1.8,2.1-2.7c0.3-1.1-0.3-2.4-1.2-3.1
			c-2-1.5-3.5,1.1-4.4,3.5c-1.5-1.8-3.6-3.4-5-0.8c-0.8,1.5,0,3,1.4,4.1c-0.9,0.5-1.8,1.1-2.6,1.9c-0.6,0.5-0.4,1.5,0.1,1.9
			c1.6,1.5,3.4,0.9,4.9-0.2c-0.2,1.1-0.1,1.7,0.1,2.9c0.2,1.1,2,1.9,2.9,0.8c1.3-1.7,0.9-2.7,0.8-4.6c1.5,0.8,3.1,1.2,4.7,0.3
			C70.2,69.9,70.4,69,70,68.4z M63.3,68.1c0.5,0.4,1.1,1.1,0.5,1.4c-0.2,0.2-0.6,0.2-0.9,0c-0.2-0.1-0.4-0.6-0.5-0.8
			c-0.2,0.3-0.6,0.8-1,0.9c-0.2,0-0.4-0.1-0.4-0.3c-0.1-0.5,0.2-0.9,0.5-1.2C61,68,60.7,68,60.4,67.5c-0.2-0.3,0.2-0.7,0.5-0.7
			c0.3,0.1,0.5,0.1,0.7,0.3c-0.1-0.5-0.1-1,0.4-1.3c0.2-0.1,0.4,0,0.5,0.2c0.1,0.3,0.2,0.6,0.2,0.8c0.4-0.2,0.9-0.3,1.2,0
			C64.5,67.5,63.9,67.9,63.3,68.1z"/>
		<g opacity="0.61">
			<path fill="#FFFFFF" d="M63,67.5c0.3,0.9-1.1,1.3-1.4,0.4C61.4,67,62.8,66.6,63,67.5L63,67.5z"/>
		</g>
		<path opacity="0.61" fill="#FFFFFF" d="M319,71.9c-0.8-1.3-2.9-1.9-4.2-2.3c0.6-0.6,1.8-1.8,2.1-2.7c0.3-1.1-0.3-2.4-1.2-3.1
			c-2-1.5-3.5,1.1-4.4,3.5c-1.5-1.8-3.6-3.4-5-0.8c-0.8,1.5,0,3,1.4,4.1c-0.9,0.5-1.8,1.1-2.6,1.9c-0.6,0.5-0.4,1.5,0.1,1.9
			c1.6,1.5,3.4,0.9,4.9-0.2c-0.2,1.1-0.1,1.7,0.1,2.9c0.2,1.1,2,1.9,2.9,0.8c1.3-1.7,0.9-2.7,0.8-4.6c1.5,0.8,3.1,1.2,4.7,0.3
			C319.3,73.4,319.4,72.5,319,71.9z M312.4,71.5c0.5,0.4,1.1,1.1,0.5,1.4c-0.2,0.2-0.6,0.2-0.9,0c-0.2-0.1-0.4-0.6-0.5-0.8
			c-0.2,0.3-0.6,0.8-1,0.9c-0.2,0-0.4-0.1-0.4-0.3c-0.1-0.5,0.2-0.9,0.5-1.2c-0.5-0.2-0.8-0.1-1.1-0.6c-0.2-0.3,0.2-0.7,0.5-0.7
			c0.3,0.1,0.5,0.1,0.7,0.3c-0.1-0.5-0.1-1,0.4-1.3c0.2-0.1,0.4,0,0.5,0.2c0.1,0.3,0.2,0.6,0.2,0.8c0.4-0.2,0.9-0.3,1.2,0
			C313.6,70.9,313,71.3,312.4,71.5z"/>
		<g opacity="0.61">
			<path fill="#FFFFFF" d="M312.1,71c0.3,0.9-1.1,1.3-1.4,0.4C310.5,70.5,311.9,70.1,312.1,71L312.1,71z"/>
		</g>
	</g>
	<g id="New_Symbol_37">
		<path opacity="0.61" fill="#FFFFFF" d="M58.8,79.6c-0.6-1.1-1.2-1.1-2.3-1.6c0.8-0.6,1.4-1.4,1.3-2.4c0-0.4-0.5-0.7-0.9-0.7
			c-0.9,0.1-1.7,1.1-2.2,1.7c-0.2-0.5-0.5-1.4-0.9-1.7c-0.5-0.4-1.4-0.4-1.9-0.1c-1.3,0.7-0.2,2.1,0.8,3.2c-1.3,0.4-2.7,1.1-1.6,2.5
			c0.6,0.8,1.6,0.7,2.5,0.3c0.1,0.6,0.2,1.2,0.4,1.8c0.1,0.4,0.7,0.6,1.1,0.4c1.2-0.5,1.3-1.6,1.1-2.7c0.6,0.4,0.9,0.5,1.6,0.7
			C58.4,81.1,59.2,80.3,58.8,79.6z M55.9,78.9C55.7,79,55.5,79,55.3,79c0.1,0.2,0.3,0.5,0.2,0.7c0,0.1-0.1,0.2-0.3,0.2
			c-0.3-0.1-0.4-0.3-0.5-0.6c-0.2,0.2-0.3,0.4-0.6,0.4c-0.2,0-0.3-0.3-0.2-0.4c0.1-0.2,0.2-0.2,0.3-0.3c-0.3,0-0.6-0.2-0.6-0.5
			c0-0.1,0.1-0.2,0.2-0.2c0.2,0,0.3,0,0.5,0.1c0-0.3,0-0.5,0.3-0.6c0.5-0.1,0.5,0.3,0.5,0.6c0.4-0.2,0.8-0.3,0.9,0.1
			C56.1,78.6,56,78.8,55.9,78.9z"/>
		<g opacity="0.61">
			<path fill="#FFFFFF" d="M54.8,78.4c0.5,0.1,0.4,0.9-0.1,0.8S54.3,78.3,54.8,78.4L54.8,78.4z"/>
		</g>
	</g>
	<g id="New_Symbol_15">
	</g>
	<g id="New_Symbol_16_2_">
	</g>
	<g id="New_Symbol_16_1_">
	</g>
	<g id="New_Symbol_16">
	</g>
	<g opacity="0.61">
		<path fill="#FFFFFF" d="M127.8,166.2c-0.1,0.2-0.2,0.4-0.2,0.6c0,0,0,0,0,0c0,0.1,0,0.1,0,0.2c0,0.6,0.4,1.2,0.8,1.6
			c0.6,0.5,1.3,0.7,2,0.7c0.2,0,0.4,0.1,0.6,0.1c2,0.1,4.1-1.3,5.7-2.2c0.3-0.2,0.2-0.6,0-0.7c-1.1-0.5-1.7-1.6-2.6-2.4
			c-0.7-0.6-1.7-0.7-2.6-0.7C129.7,163.3,128.3,164.6,127.8,166.2z"/>
	</g>
	<path opacity="0.61" fill="#FFFFFF" d="M125.7,168.2c-0.4-0.5-1-0.9-1.5-1.2c0.1-0.2,0.3-0.3,0.4-0.4c1.2-1.4,2.3-4.8-0.4-5.6
		c-1.5-0.4-2.9-0.1-4.1,0.6c-0.6-1.1-1.5-2.1-2.5-2.5c-1.4-0.5-3.4,0.1-3.5,1.8c-0.1,0.9,0.1,1.7,0.4,2.5c0,0-0.1,0-0.1,0
		c-1.7,0.1-4.2,0.9-4.9,2.7c-0.6,1.7,1.2,3.2,2.5,4c0.8,0.5,1.8,0.7,2.7,0.7c-0.8,2.4-1,5.3,1.6,6.2c1.4,0.5,2.4,0.2,3.5-0.8
		c0.5-0.4,0.9-1.1,1.1-1.6c0.2-0.5,0.3-1.4,0.5-2.1c1.1,0.7,2.4,1,3.7,0.9C127.8,173.2,126.9,169.6,125.7,168.2z M121.7,169.9
		c-0.5-0.2-0.9-0.6-1.3-0.8c-0.3-0.2-0.7-0.4-1.1-0.5c-0.1,0.4-0.3,0.8-0.5,1.2c-0.3,0.6-0.3,1.4-0.7,1.9c-0.5,0.9-1.9,0.2-1.4-0.6
		c0.3-0.6,0.4-1.3,0.7-1.9c0.2-0.5,0.4-0.9,0.5-1.4c-1,0.2-1.9,0.5-2.9,0.7c-1,0.2-1.1-1.3-0.2-1.5c1-0.2,2-0.6,3.1-0.8
		c-0.4-0.7-0.8-1.4-1.1-2.2c-0.3-0.9,1.1-1.5,1.4-0.5c0.3,0.8,0.8,1.6,1.2,2.3c0.6-0.5,1.1-1,1.6-1.6c0.6-0.8,1.8,0.2,1.2,1
		c-0.6,0.8-1.3,1.4-2.1,2c0.2,0.1,0.4,0.2,0.6,0.3c0.5,0.3,1,0.7,1.6,1C123.2,168.9,122.6,170.3,121.7,169.9z"/>
	<path opacity="0.61" fill="#FFFFFF" d="M120.5,168.1c0.1-0.2,0.2-0.4,0.3-0.6c0.2-0.3,0.2-0.7,0-1.1c-0.1-0.3-0.3-0.5-0.4-0.7
		c-0.3-0.4-0.7-0.6-1.1-0.6c-0.1,0-0.3,0-0.4,0c0,0,0,0-0.1,0c-0.1,0-0.3,0.1-0.4,0.1c0,0,0,0,0,0c-0.3,0.1-0.5,0.2-0.8,0.4
		c-0.6,0.6-0.7,1.3-0.5,2.1c0.2,0.7,0.7,1.2,1.5,1.3C119.4,169,120.1,168.7,120.5,168.1z"/>
	<g id="New_Symbol_22_1_">
		<path opacity="0.61" fill="#FFFFFF" d="M112,149.3c-0.3-0.7-0.7-1.1-1.5-1.2c-0.3-0.1-0.7,0-1.1,0.1c-0.3,0.1-0.7,0.3-1,0.5
			c-0.1-0.7-0.4-1.4-0.8-1.9c-1.1-1.2-2.3,0.4-2.5,1.4c-0.1,0.4-0.1,0.7,0,1.1c-0.1,0-0.2,0-0.3,0c-1-0.1-2.8,0.6-2.3,2
			c0.3,0.8,0.9,1.3,1.6,1.6c-0.3,0.6-0.4,1.3-0.2,1.9c0.2,0.8,1.2,1.4,2,0.9c0.4-0.3,0.7-0.6,1-1c0,0,0,0,0,0
			c0.6,0.7,1.8,1.5,2.8,1.2c1-0.3,1-1.6,0.9-2.4c-0.1-0.5-0.3-1-0.6-1.4C111.2,151.6,112.5,150.7,112,149.3z M109.2,151
			c-0.4,0.1-0.7,0.3-1.1,0.4c-0.3,0.1-0.5,0.1-0.8,0.2c0.4,0.4,0.9,0.7,1.3,1c0.4,0.3-0.2,0.9-0.6,0.6c-0.4-0.4-0.9-0.7-1.3-1.1
			c-0.2,0.4-0.3,0.8-0.6,1.2c-0.3,0.5-1,0-0.7-0.4c0.3-0.4,0.4-0.9,0.6-1.3c-0.4-0.1-0.8-0.2-1.2-0.2c-0.5,0-0.5-0.8,0-0.8
			c0.5,0,1.1,0.1,1.6,0.2c0-0.1-0.1-0.2-0.1-0.4c-0.1-0.3,0-0.7-0.1-1c-0.1-0.5,0.7-0.7,0.8-0.2c0.1,0.3,0,0.6,0.1,0.9
			c0,0.2,0.1,0.4,0.1,0.6c0.2-0.1,0.4-0.1,0.7-0.2c0.4-0.1,0.7-0.3,1.1-0.4C109.6,150.1,109.8,150.9,109.2,151z"/>
		<path opacity="0.61" fill="#FFFFFF" d="M106.7,150.3c-0.1,0-0.3,0-0.4,0.1c-0.2,0-0.4,0.2-0.5,0.4c-0.1,0.1-0.1,0.3-0.2,0.4
			c-0.1,0.2,0,0.5,0.1,0.7c0,0.1,0.1,0.1,0.2,0.2c0,0,0,0,0,0c0,0.1,0.1,0.1,0.2,0.1c0,0,0,0,0,0c0.1,0.1,0.3,0.2,0.4,0.2
			c0.4,0.1,0.8-0.1,1-0.5c0.2-0.3,0.3-0.7,0.1-1.1C107.5,150.5,107.1,150.3,106.7,150.3z"/>
	</g>
	<g id="New_Symbol_22">
		<g opacity="0.61">
			<path fill="#FFFFFF" d="M125,147.8c-0.5,0-0.9,0.1-1.3,0.3c0-0.2,0-0.3-0.1-0.4c-0.2-1.3-1.5-3.4-3.1-2.3
				c-0.9,0.6-1.4,1.5-1.5,2.5c-0.9-0.2-1.8-0.2-2.4,0.2c-0.9,0.5-1.4,1.9-0.6,2.7c0.4,0.4,0.9,0.7,1.5,0.9c0,0,0,0-0.1,0.1
				c-0.7,1-1.4,2.7-0.7,3.8c0.6,1.1,2.3,0.9,3.2,0.5c0.6-0.2,1.2-0.6,1.6-1.1c0.9,1.5,2.3,2.9,4,1.9c0.9-0.5,1.2-1.2,1.2-2.2
				c0-0.4-0.2-0.9-0.4-1.3c-0.2-0.3-0.6-0.8-0.9-1.2c0.9-0.3,1.7-0.8,2.2-1.5C128.7,148.9,126.4,147.8,125,147.8z M124.1,150.6
				c-0.3,0.2-0.7,0.2-1.1,0.3c-0.3,0.1-0.5,0.2-0.8,0.3c0.1,0.3,0.3,0.5,0.4,0.8c0.2,0.4,0.6,0.8,0.7,1.2c0.2,0.6-0.7,1.1-1,0.5
				c-0.2-0.4-0.5-0.8-0.7-1.2c-0.2-0.3-0.3-0.6-0.5-0.9c-0.4,0.6-0.6,1.3-0.9,1.9c-0.3,0.6-1.2,0-0.9-0.6c0.3-0.6,0.6-1.3,1-2
				c-0.5-0.1-1.1-0.2-1.6-0.4c-0.6-0.2-0.3-1.2,0.4-1c0.6,0.2,1.2,0.3,1.8,0.4c0-0.5,0-1-0.1-1.6c-0.1-0.7,0.9-0.9,1-0.2
				c0.1,0.7,0.2,1.4,0.1,2c0.1-0.1,0.3-0.1,0.4-0.2c0.4-0.2,0.8-0.2,1.2-0.4C124.3,149.4,124.7,150.4,124.1,150.6z"/>
			<path fill="#FFFFFF" d="M122.7,150.5c0-0.2-0.1-0.3-0.2-0.4c-0.1-0.2-0.3-0.5-0.6-0.5c-0.2-0.1-0.4-0.1-0.6-0.1
				c-0.3,0-0.6,0.1-0.8,0.3c-0.1,0.1-0.1,0.1-0.2,0.2c0,0,0,0,0,0c-0.1,0.1-0.1,0.2-0.1,0.3c0,0,0,0,0,0c-0.1,0.2-0.1,0.4-0.1,0.6
				c0,0.6,0.4,1,0.9,1.2c0.5,0.2,1,0.2,1.3-0.2C122.6,151.4,122.8,151,122.7,150.5z"/>
		</g>
		<g opacity="0.61">
			<path fill="#FFFFFF" d="M76,107.6c-0.3-0.4-0.6-0.7-0.9-1c0.1-0.1,0.2-0.2,0.3-0.3c1-0.8,2-3.1,0.3-3.9c-1-0.4-2-0.4-2.9,0
				c-0.3-0.8-0.8-1.6-1.5-1.9c-0.9-0.5-2.3-0.2-2.6,0.9c-0.1,0.6-0.1,1.2,0,1.8c0,0-0.1,0-0.1,0c-1.2-0.1-3,0.3-3.6,1.4
				c-0.6,1.1,0.5,2.4,1.3,3c0.5,0.4,1.2,0.6,1.8,0.7c-0.8,1.6-1.2,3.6,0.5,4.4c0.9,0.4,1.6,0.4,2.5-0.2c0.4-0.2,0.7-0.7,0.9-1
				c0.2-0.3,0.3-0.9,0.5-1.4c0.7,0.6,1.6,0.9,2.5,1C77.1,111.2,76.8,108.7,76,107.6z M73.1,108.4c-0.3-0.2-0.6-0.5-0.9-0.7
				c-0.2-0.2-0.5-0.3-0.7-0.5c-0.1,0.3-0.3,0.5-0.4,0.8c-0.2,0.4-0.4,0.9-0.6,1.3c-0.4,0.5-1.3,0-0.9-0.6c0.3-0.4,0.4-0.9,0.6-1.3
				c0.2-0.3,0.3-0.6,0.5-0.9c-0.7,0-1.4,0.2-2.1,0.2c-0.7,0.1-0.6-1,0-1.1c0.7-0.1,1.5-0.2,2.2-0.2c-0.2-0.5-0.4-1-0.5-1.6
				c-0.1-0.7,0.9-0.9,1-0.2c0.1,0.6,0.4,1.2,0.6,1.7c0.5-0.3,0.9-0.6,1.3-1c0.5-0.5,1.2,0.3,0.7,0.8c-0.5,0.5-1.1,0.9-1.7,1.2
				c0.1,0.1,0.3,0.2,0.4,0.3c0.3,0.3,0.6,0.6,1,0.8C74.3,107.8,73.7,108.7,73.1,108.4z"/>
			<path fill="#FFFFFF" d="M72.5,107.1c0.1-0.1,0.2-0.3,0.3-0.4c0.2-0.2,0.2-0.5,0.1-0.8c-0.1-0.2-0.1-0.4-0.2-0.5
				c-0.1-0.3-0.4-0.4-0.7-0.5c-0.1,0-0.2,0-0.3,0c0,0,0,0,0,0c-0.1,0-0.2,0-0.3,0.1c0,0,0,0,0,0c-0.2,0-0.4,0.1-0.6,0.2
				c-0.5,0.3-0.6,0.9-0.5,1.4c0.1,0.5,0.4,0.9,0.9,1C71.7,107.5,72.1,107.4,72.5,107.1z"/>
		</g>
		<g opacity="0.61">
			<path fill="#FFFFFF" d="M59,118.2c0.3-0.1,0.5-0.3,0.7-0.5c0.1,0.1,0.1,0.2,0.2,0.2c0.5,0.7,1.9,1.5,2.5,0.4
				c0.3-0.6,0.4-1.3,0.2-1.9c0.6-0.2,1.1-0.4,1.4-0.9c0.4-0.6,0.3-1.5-0.4-1.7c-0.4-0.1-0.8-0.1-1.1-0.1c0,0,0,0,0,0
				c0.1-0.8,0-2-0.7-2.4c-0.7-0.5-1.6,0.2-2,0.7c-0.3,0.3-0.5,0.7-0.6,1.1c-1-0.6-2.2-1-2.9,0.1c-0.3,0.6-0.3,1,0,1.6
				c0.1,0.3,0.4,0.5,0.6,0.7c0.2,0.1,0.6,0.3,0.9,0.4c-0.4,0.4-0.7,1-0.8,1.5C56.5,118.6,58.2,118.6,59,118.2z M58.6,116.2
				c0.1-0.2,0.3-0.3,0.5-0.5c0.1-0.1,0.2-0.3,0.3-0.4c-0.2-0.1-0.3-0.2-0.5-0.3c-0.3-0.2-0.6-0.3-0.8-0.5c-0.3-0.3,0.1-0.9,0.4-0.6
				c0.2,0.2,0.5,0.3,0.8,0.5c0.2,0.1,0.4,0.3,0.5,0.4c0-0.5,0-0.9,0-1.4c0-0.4,0.7-0.4,0.7,0.1c0,0.5,0.1,1,0,1.4
				c0.4-0.1,0.7-0.2,1.1-0.3c0.4-0.1,0.5,0.6,0.1,0.7c-0.4,0-0.8,0.2-1.2,0.3c0.1,0.3,0.3,0.6,0.5,0.9c0.3,0.4-0.3,0.8-0.6,0.4
				c-0.3-0.4-0.5-0.7-0.7-1.1c-0.1,0.1-0.1,0.2-0.2,0.2c-0.2,0.2-0.4,0.4-0.6,0.6C58.9,117,58.4,116.6,58.6,116.2z"/>
			<path fill="#FFFFFF" d="M59.5,115.9c0.1,0.1,0.2,0.1,0.3,0.2c0.1,0.1,0.3,0.2,0.5,0.1c0.1,0,0.2-0.1,0.4-0.1
				c0.2-0.1,0.3-0.2,0.4-0.4c0-0.1,0-0.1,0-0.2c0,0,0,0,0,0c0-0.1,0-0.1,0-0.2c0,0,0,0,0,0c0-0.1,0-0.3-0.1-0.4
				c-0.2-0.3-0.5-0.4-0.9-0.4c-0.3,0-0.6,0.2-0.7,0.5C59.3,115.3,59.3,115.6,59.5,115.9z"/>
		</g>
		<g opacity="0.61">
			<path fill="#FFFFFF" d="M84.1,96c0.1,0.3,0.3,0.5,0.5,0.7c-0.1,0-0.2,0.1-0.2,0.1c-0.7,0.4-1.7,1.7-0.7,2.5
				c0.6,0.4,1.2,0.5,1.9,0.4c0.1,0.6,0.3,1.1,0.7,1.4c0.5,0.4,1.5,0.4,1.8-0.3c0.2-0.4,0.2-0.7,0.2-1.1c0,0,0,0,0,0
				c0.8,0.2,1.9,0.2,2.5-0.5c0.5-0.7,0-1.6-0.5-2.1c-0.3-0.3-0.7-0.6-1.1-0.7c0.7-0.9,1.2-2.1,0.2-2.9c-0.5-0.4-1-0.4-1.6-0.2
				c-0.3,0.1-0.5,0.3-0.7,0.5c-0.2,0.2-0.3,0.6-0.5,0.8c-0.4-0.5-0.9-0.8-1.5-0.9C83.9,93.5,83.8,95.2,84.1,96z M86.1,95.9
				c0.2,0.2,0.3,0.4,0.5,0.6c0.1,0.1,0.3,0.3,0.4,0.4c0.1-0.1,0.2-0.3,0.4-0.4c0.2-0.2,0.4-0.5,0.6-0.7c0.3-0.3,0.8,0.2,0.5,0.5
				c-0.2,0.2-0.4,0.5-0.6,0.7c-0.1,0.2-0.3,0.3-0.4,0.5c0.4,0.1,0.9,0.1,1.4,0.1c0.4,0.1,0.3,0.7-0.2,0.7c-0.5-0.1-1,0-1.4-0.1
				c0,0.4,0.1,0.7,0.1,1.1c0,0.4-0.7,0.5-0.7,0c0-0.4-0.1-0.8-0.2-1.2c-0.3,0.1-0.6,0.3-0.9,0.4c-0.4,0.2-0.7-0.4-0.4-0.6
				c0.4-0.2,0.8-0.4,1.2-0.6c-0.1-0.1-0.2-0.1-0.2-0.2c-0.2-0.2-0.3-0.5-0.5-0.6C85.3,96.1,85.8,95.5,86.1,95.9z"/>
			<path fill="#FFFFFF" d="M86.3,96.8c-0.1,0.1-0.2,0.1-0.2,0.2c-0.1,0.1-0.2,0.3-0.2,0.5c0,0.1,0,0.3,0.1,0.4
				c0.1,0.2,0.2,0.3,0.4,0.4c0.1,0,0.1,0,0.2,0.1c0,0,0,0,0,0c0.1,0,0.1,0,0.2,0c0,0,0,0,0,0c0.1,0,0.3,0,0.4-0.1
				c0.3-0.1,0.5-0.5,0.5-0.8c0-0.3-0.1-0.6-0.4-0.8C86.9,96.6,86.6,96.6,86.3,96.8z"/>
		</g>
		<g opacity="0.61">
			<path fill="#FFFFFF" d="M295,115.2c-0.5,0-0.9,0.1-1.3,0.3c0-0.2,0-0.3-0.1-0.4c-0.2-1.3-1.5-3.4-3.1-2.3
				c-0.9,0.6-1.4,1.5-1.5,2.5c-0.9-0.2-1.8-0.2-2.4,0.2c-0.9,0.5-1.4,1.9-0.6,2.7c0.4,0.4,0.9,0.7,1.5,0.9c0,0,0,0-0.1,0.1
				c-0.7,1-1.4,2.7-0.7,3.8c0.6,1.1,2.3,0.9,3.2,0.5c0.6-0.2,1.2-0.6,1.6-1.1c0.9,1.5,2.3,2.9,4,1.9c0.9-0.5,1.2-1.2,1.2-2.2
				c0-0.4-0.2-0.9-0.4-1.3c-0.2-0.3-0.6-0.8-0.9-1.2c0.9-0.3,1.7-0.8,2.2-1.5C298.6,116.3,296.3,115.2,295,115.2z M294.1,118.1
				c-0.3,0.2-0.7,0.2-1.1,0.3c-0.3,0.1-0.5,0.2-0.8,0.3c0.1,0.3,0.3,0.5,0.4,0.8c0.2,0.4,0.6,0.8,0.7,1.2c0.2,0.6-0.7,1.1-1,0.5
				c-0.2-0.4-0.5-0.8-0.7-1.2c-0.2-0.3-0.3-0.6-0.5-0.9c-0.4,0.6-0.6,1.3-0.9,1.9c-0.3,0.6-1.2,0-0.9-0.6c0.3-0.6,0.6-1.3,1-2
				c-0.5-0.1-1.1-0.2-1.6-0.4c-0.6-0.2-0.3-1.2,0.4-1c0.6,0.2,1.2,0.3,1.8,0.4c0-0.5,0-1-0.1-1.6c-0.1-0.7,0.9-0.9,1-0.2
				c0.1,0.7,0.2,1.4,0.1,2c0.1-0.1,0.3-0.1,0.4-0.2c0.4-0.2,0.8-0.2,1.2-0.4C294.3,116.8,294.7,117.8,294.1,118.1z"/>
			<path fill="#FFFFFF" d="M292.6,117.9c0-0.2-0.1-0.3-0.2-0.4c-0.1-0.2-0.3-0.5-0.6-0.5c-0.2-0.1-0.4-0.1-0.6-0.1
				c-0.3,0-0.6,0.1-0.8,0.3c-0.1,0.1-0.1,0.1-0.2,0.2c0,0,0,0,0,0c-0.1,0.1-0.1,0.2-0.1,0.3c0,0,0,0,0,0c-0.1,0.2-0.1,0.4-0.1,0.6
				c0,0.6,0.4,1,0.9,1.2c0.5,0.2,1,0.2,1.3-0.2C292.6,118.9,292.7,118.4,292.6,117.9z"/>
		</g>
		<g opacity="0.61">
			<path fill="#FFFFFF" d="M280.2,132.3c0,0.3,0.1,0.5,0.2,0.8c-0.1,0-0.2,0-0.2,0.1c-0.7,0.2-1.9,1.1-1.2,2c0.4,0.5,1,0.7,1.5,0.8
				c-0.1,0.5,0,1.1,0.3,1.4c0.3,0.5,1.2,0.7,1.6,0.2c0.2-0.3,0.4-0.6,0.5-0.9c0,0,0,0,0,0c0.6,0.4,1.6,0.7,2.3,0.2
				c0.6-0.4,0.4-1.4,0.1-1.9c-0.2-0.4-0.4-0.6-0.7-0.9c0.8-0.6,1.6-1.5,0.9-2.4c-0.4-0.5-0.8-0.6-1.3-0.6c-0.3,0-0.5,0.2-0.8,0.3
				c-0.2,0.1-0.4,0.4-0.6,0.6c-0.2-0.5-0.6-0.9-1-1.2C280.6,130.1,280.1,131.5,280.2,132.3z M281.9,132.7c0.1,0.2,0.2,0.4,0.3,0.6
				c0.1,0.1,0.2,0.3,0.2,0.4c0.1-0.1,0.3-0.2,0.4-0.3c0.2-0.2,0.4-0.4,0.7-0.5c0.4-0.2,0.7,0.4,0.3,0.5c-0.2,0.1-0.5,0.3-0.7,0.5
				c-0.2,0.1-0.3,0.2-0.5,0.3c0.4,0.2,0.8,0.3,1.1,0.4c0.4,0.2,0.1,0.7-0.3,0.5c-0.4-0.2-0.8-0.3-1.2-0.5c-0.1,0.3-0.1,0.7-0.1,1
				c-0.1,0.4-0.7,0.2-0.6-0.2c0.1-0.3,0.1-0.7,0.2-1.1c-0.3,0-0.6,0.1-0.9,0.2c-0.4,0.1-0.6-0.5-0.2-0.6c0.4-0.1,0.8-0.2,1.2-0.2
				c-0.1-0.1-0.1-0.2-0.1-0.2c-0.1-0.2-0.2-0.5-0.3-0.7C281.2,132.6,281.7,132.3,281.9,132.7z"/>
			<path fill="#FFFFFF" d="M281.9,133.5c-0.1,0-0.2,0.1-0.2,0.1c-0.1,0.1-0.2,0.2-0.3,0.4c0,0.1,0,0.2,0,0.3c0,0.2,0.1,0.3,0.2,0.5
				c0,0,0.1,0.1,0.1,0.1c0,0,0,0,0,0c0,0,0.1,0,0.2,0.1c0,0,0,0,0,0c0.1,0,0.2,0.1,0.4,0c0.3,0,0.5-0.3,0.6-0.6
				c0.1-0.3,0-0.6-0.2-0.8C282.4,133.5,282.2,133.4,281.9,133.5z"/>
		</g>
		<g opacity="0.61">
			<path fill="#FFFFFF" d="M313.2,40c0.3,0.1,0.5,0.1,0.8,0.1c0,0.1,0,0.2,0,0.2c-0.1,0.8,0.2,2.2,1.3,1.9c0.6-0.2,1.1-0.6,1.3-1.1
				c0.5,0.3,1,0.4,1.4,0.3c0.6-0.1,1.1-0.8,0.8-1.4c-0.2-0.3-0.4-0.6-0.7-0.8c0,0,0,0,0,0c0.6-0.4,1.3-1.2,1.1-2
				c-0.1-0.7-1.1-0.9-1.7-0.9c-0.4,0-0.8,0.1-1.1,0.3c-0.2-1-0.8-2.1-1.9-1.8c-0.6,0.1-0.9,0.4-1.1,1c-0.1,0.2-0.1,0.6,0,0.8
				c0,0.2,0.2,0.6,0.3,0.8c-0.5,0-1.1,0.2-1.5,0.5C311.4,38.7,312.5,39.8,313.2,40z M314.2,38.6c0.2,0,0.4,0,0.7,0
				c0.2,0,0.3,0,0.5-0.1c0-0.2-0.1-0.3-0.1-0.5c0-0.3-0.2-0.6-0.2-0.8c0-0.4,0.6-0.5,0.6-0.1c0,0.3,0.1,0.6,0.2,0.8
				c0,0.2,0.1,0.4,0.1,0.6c0.3-0.3,0.6-0.6,0.9-0.9c0.3-0.3,0.7,0.2,0.4,0.5c-0.3,0.3-0.6,0.6-0.9,0.9c0.3,0.2,0.6,0.3,0.8,0.5
				c0.3,0.3-0.1,0.7-0.4,0.5c-0.3-0.2-0.6-0.4-0.9-0.6c-0.1,0.3-0.2,0.6-0.2,0.9c-0.1,0.4-0.7,0.3-0.6-0.1c0.1-0.4,0.2-0.8,0.3-1.2
				c-0.1,0-0.2,0-0.3,0c-0.2,0-0.5,0-0.8,0C313.9,39.2,313.8,38.6,314.2,38.6z"/>
			<path fill="#FFFFFF" d="M315,38.9c0,0.1,0,0.2,0,0.3c0,0.2,0.1,0.3,0.2,0.4c0.1,0.1,0.2,0.1,0.3,0.2c0.2,0.1,0.3,0.1,0.5,0
				c0.1,0,0.1-0.1,0.1-0.1c0,0,0,0,0,0c0,0,0.1-0.1,0.1-0.1c0,0,0,0,0,0c0.1-0.1,0.1-0.2,0.2-0.3c0.1-0.3,0-0.6-0.3-0.8
				c-0.2-0.2-0.5-0.3-0.8-0.1C315.2,38.4,315,38.6,315,38.9z"/>
		</g>
		<g opacity="0.61">
			<path fill="#FFFFFF" d="M228.6,116.1c0.3-0.2,0.5-0.5,0.7-0.8c0.1,0.1,0.2,0.2,0.2,0.2c0.7,0.7,2.6,1.4,3.1-0.1
				c0.3-0.8,0.1-1.6-0.2-2.3c0.6-0.3,1.2-0.8,1.4-1.3c0.3-0.7,0-1.8-0.9-2c-0.5-0.1-0.9,0-1.4,0.1c0,0,0,0,0-0.1
				c0-0.9-0.4-2.3-1.4-2.7c-0.9-0.4-1.8,0.6-2.2,1.2c-0.3,0.5-0.4,0.9-0.4,1.4c-1.3-0.5-2.9-0.7-3.4,0.7c-0.3,0.7-0.2,1.3,0.3,1.9
				c0.2,0.3,0.6,0.5,0.9,0.6c0.3,0.1,0.8,0.2,1.1,0.3c-0.4,0.6-0.6,1.3-0.6,2C225.8,117.1,227.8,116.7,228.6,116.1z M227.8,113.8
				c0.1-0.3,0.3-0.5,0.5-0.7c0.1-0.2,0.2-0.4,0.3-0.6c-0.2-0.1-0.4-0.2-0.6-0.3c-0.3-0.2-0.7-0.2-1-0.4c-0.5-0.3-0.1-1,0.4-0.7
				c0.3,0.2,0.7,0.3,1,0.4c0.2,0.1,0.5,0.2,0.7,0.3c-0.1-0.5-0.2-1.1-0.3-1.6c-0.1-0.5,0.7-0.6,0.8,0c0.1,0.6,0.3,1.1,0.3,1.7
				c0.4-0.2,0.8-0.4,1.2-0.5c0.5-0.2,0.8,0.6,0.3,0.8c-0.5,0.1-0.9,0.4-1.3,0.6c0.2,0.3,0.5,0.6,0.8,0.9c0.4,0.4-0.2,1-0.6,0.6
				c-0.4-0.4-0.8-0.8-1.1-1.2c-0.1,0.1-0.1,0.2-0.2,0.3c-0.2,0.3-0.4,0.5-0.6,0.8C228.3,114.7,227.5,114.3,227.8,113.8z"/>
			<path fill="#FFFFFF" d="M228.8,113.3c0.1,0.1,0.2,0.1,0.3,0.2c0.2,0.1,0.4,0.1,0.6,0.1c0.1-0.1,0.3-0.1,0.4-0.2
				c0.2-0.1,0.3-0.3,0.4-0.6c0-0.1,0-0.2,0-0.2c0,0,0,0,0,0c0-0.1,0-0.2-0.1-0.2c0,0,0,0,0,0c0-0.2-0.1-0.3-0.2-0.4
				c-0.3-0.4-0.7-0.4-1.1-0.3c-0.4,0.1-0.7,0.4-0.7,0.8C228.3,112.6,228.4,113,228.8,113.3z"/>
		</g>
		<g id="New_Symbol_8_2_">
			<g opacity="0.61">
				<path fill="#FFFFFF" d="M384-14.3l-0.9,2.8c-0.4,1.2-1.6,1.8-2.7,1.4c0,0,0,0,0,0c-0.7-0.3-1.5-0.5-2.5-0.8
					c-0.9-0.3-2.1-0.6-3.3-0.9c-2.5-0.6-5.7-1.3-9.3-1.8c-3.3-0.5-7.1-0.8-11.2-0.9c0.7,2,1.1,3.9,1.1,6c0.2,0.5,0.3,1,0.3,1.4
					c0.1,2.1,0.3,4.1-0.2,6.2c-1.1,5.4-3.5,10.6-6.2,15.8c-0.8,1.6-4.3,2-4.5,0.2c-1-9.1-5-20.3,1.6-29.5c-2.5,0.2-5.1,0.4-7.8,0.8
					c-1.3,0.2-2.6,0.4-3.9,0.7c-0.6,0.1-1.3,0.3-1.9,0.4c-0.7,0.2-1.4,0.3-2,0.5c-2.8,0.6-5.4,1.5-8.1,2.3c-1,0.3-2,0.7-3,1
					c6.8,2.7,11,9.6,12.6,16.7c0.9,3.9,1.4,7.9,0.1,11.8c-1.5,4.4-3.6,8.6-2.8,13.4c0.3,1.7-2.5,2.2-3,0.5
					C322.6,21.6,308.6,6.2,316-7.3c-3.4,1.3-6.8,2.7-10.2,4.2c-1.8,0.8-3.6,1.6-5.4,2.4c2.9,6.2,4.7,12,3.3,19
					c-1.4,6.9-5.6,11.8-9.6,17.4c-0.4,0.5-1.3,0.3-1.4-0.3c-0.3-10.6-4.2-23.5,1.2-33.1c-1.7,0.8-3.4,1.6-5.1,2.4
					c-3.1,1.4-6.2,2.8-9.3,4.1c0.9,5,1.4,10.2,0.3,15.1c-1.3,5.9-4.4,10.3-8.6,14.6c-0.4,0.4-1.1,0.3-1.3-0.3
					c-2.1-9.7-2.8-19.5,3.2-26.9c-5.6,2.2-11.2,4-16.8,5.3c2.9,3.4,3.5,7,2.6,9.7c-1,2.9-3.5,5-5.9,7c-2.1,1.8-4.2,3.6-5.4,6
					c-0.1,0.3-0.5,0.2-0.6-0.1c-0.2-1.8-0.3-3.7-0.5-5.6c-0.3-3.7-0.7-7.5,0.3-10.7c0.6-2.1,1.8-3.9,3.8-5.2
					c-4.6,0.8-9.2,1.2-13.5,1.3c-1.2,0-2.3,0.1-3.5,0.1c0.1,0.1,0.2,0.2,0.2,0.3c0.6,3.2,1.4,6.7,0.7,10c-0.9,4.2-5,7.3-4.7,11.7
					c0,0.7-0.9,0.7-1.1,0.2c-3.3-7.2-4.7-17.4,2.8-22.2c-3.4-0.1-6.6-0.3-9.6-0.6c-0.2,0-0.3,0-0.5-0.1c-0.9,1.6-1.7,3.1-2.6,4.7
					c-0.4,0.8-0.9,1.6-1.4,2.3c-0.8,0.9-1.8,1.6-2.7,2.3c-0.9,0.7-1.9,1.4-2.8,2c-0.2,0.1-0.4,0.3-0.7,0.3c-0.2-2.9,1.2-5.7,3.3-7.8
					c1.6-1.7,3.6-2.9,5.7-4c-3.9-0.4-7.6-1-10.8-1.6c-0.2,0-0.5-0.1-0.7-0.1c-0.1,1.4-1,2.7-2.1,3.5c-1.2,0.9-2.6,1.4-4,2
					c-1.4,0.5-2.8,1-4,2c0.6-0.8,1.2-1.6,1.8-2.3c1-1.3,2-2.6,3.3-3.6c1.1-0.9,2.4-1.5,3.8-1.7c-3-0.4-5.8-0.6-8-1.1
					c-2.7-0.6-4.8-1.5-6.2-1.9c-1.4-0.4-1.9-0.8-1.9-0.8s0.7,0,2.1,0.3c1.4,0.3,3.5,0.6,6.2,1.2c0.3,0.1,0.7,0.1,1.1,0.2
					c0,0-0.1-0.1-0.1-0.1c-0.8-0.7-1.4-1.5-2-2.3c-0.6-0.9-1.3-1.8-1.6-2.8c-0.5-1.2-0.5-2.6-0.6-3.9c-0.1-1.2-0.1-2.4-0.2-3.6
					c0.2,1.3,1.3,2.3,2.3,3.3c2.1,2.1,3.8,4.7,5,7.4c0.4,0.9,0.7,1.8,0.7,2.7c1.6,0.3,3.4,0.6,5.3,0.9c1.3,0.2,2.7,0.4,4.1,0.6
					c-4.8-3-5.2-9.9-4.1-15.2c0.1-0.4,0.8-0.5,0.9,0c0.5,3.3,4.1,4.9,5.4,7.9c1,2.3,1.1,5,1.1,7.5c0,0.1,0,0.2-0.1,0.2
					c1.7,0.2,3.5,0.4,5.3,0.5c4.6,0.3,9.7,0.3,15,0c1.1-0.1,2.2-0.2,3.3-0.3c-1.3-0.7-2.3-1.8-3.1-3c-1.1-1.8-1.6-3.8-2.2-5.8
					c-1.4-4.4-3.1-8.7-5.1-12.8c0.3-0.1,0.7,0,1,0.2c2.2,1.2,4.3,2.4,6.2,4c1.9,1.6,3.5,3.6,4.3,5.9c1.3,3.6,0.6,7.7,1.9,11.2
					c3.3-0.4,6.7-1.1,10.1-1.9c3.9-0.9,7.7-2.2,11.6-3.6c-5.2-1.7-9.6-3.7-13-8.3c-3.2-4.5-3.8-9.5-4.9-14.8c-0.1-0.5,0.5-1,0.9-0.6
					c7.3,6.5,19.1,11.7,19,23c4.5-1.8,9-3.8,13.5-6c-3.3-0.9-6.2-2.4-8.7-5.2c-3.3-3.8-5.1-8.7-8.1-12.7c-0.3-0.3,0-0.9,0.5-0.9
					c7.3-0.4,13.4,3,16.9,9.4c1,1.8,1.9,3.7,2.6,5.7c0.2,0.4,0.5,1.1,0.8,1.7c0.8-0.4,1.6-0.8,2.4-1.2c4.5-2.3,8.9-4.6,13.4-6.8
					c-3.7-0.5-7.5-1.8-10.1-4.5c-4.7-5.1-7.9-11.8-12.2-17.3c-0.3-0.3,0-0.9,0.4-1c4.9-1.4,12.2-0.6,15.7,3.4
					c4.4,5,7.6,11.3,10.4,17.4c5.2-2.5,10.5-4.9,15.7-6.8c0.9-0.3,1.7-0.6,2.6-0.9c-17.6-1.8-22.5-20.2-28.8-32.1
					c-0.7-1.3,1.2-3,2.8-2.7c8.2,1.8,15.5,5.3,20.2,11c5.1,6.2,6.6,14.2,11,20.8c0.5,0.2,0.7,0.7,0.6,1.2c0,0,0,0,0,0
					c0.7-0.2,1.3-0.4,2-0.6c0.7-0.2,1.4-0.3,2.1-0.5c1.4-0.4,2.7-0.6,4.1-0.9c0.5-0.1,1-0.2,1.5-0.3c-7.2-5.2-8.8-15.6-12.7-23.4
					c-0.7-1.3,1-2.8,2.3-2.1c5.5,2.7,10.1,5.6,13.2,11c2.4,4.1,3.9,8.9,4.9,13.5c2.2-0.2,4.2-0.3,6.3-0.4c4.8-0.1,9.3,0.1,13.2,0.5
					c3.9,0.4,7.3,1,10.1,1.6c1.4,0.3,2.6,0.6,3.7,0.9c1.1,0.3,2,0.5,2.7,0.7c0,0,0,0,0,0C383.7-16.7,384.3-15.5,384-14.3z"/>
			</g>
			<g opacity="0.61">
				<path fill="#FFFFFF" d="M8.7,245.8l-1.1-2.1c-0.5-0.9-0.1-2,0.8-2.4c0,0,0,0,0,0c0.6-0.3,1.2-0.6,1.9-1c0.7-0.4,1.5-0.9,2.5-1.4
					c1.8-1.1,4.1-2.5,6.4-4.3c2.2-1.6,4.6-3.6,7-5.9c-1.6-0.7-2.9-1.7-4.1-2.8c-0.4-0.2-0.7-0.4-1-0.7c-1.3-1.1-2.5-2.2-3.5-3.7
					c-2.5-3.8-4.1-8.1-5.6-12.7c-0.4-1.4,1.3-3.6,2.5-2.7c5.9,4.6,14.6,8.9,16.2,18c1.4-1.6,2.7-3.2,4-5c0.6-0.9,1.3-1.7,1.9-2.7
					c0.3-0.4,0.6-0.9,0.9-1.3c0.3-0.5,0.6-1,0.9-1.5c1.2-2,2.3-4,3.4-6c0.4-0.8,0.8-1.5,1.1-2.3c-5.5,2.4-12,0.8-17-2.4
					c-2.8-1.7-5.4-3.8-6.9-6.8c-1.7-3.5-2.9-7.1-6.1-9.4c-1.2-0.8,0.2-2.7,1.4-2c9.2,5,26.3,5.8,29.8,17.9c1.2-2.7,2.4-5.5,3.5-8.3
					c0.6-1.5,1.1-3,1.7-4.5c-5.3-1.9-9.7-4.2-12.9-9.1c-3.2-4.8-3.6-10.1-4.5-15.6c-0.1-0.5,0.6-1,1-0.6c6.3,6,16.1,11.2,18.5,19.9
					c0.5-1.4,1.1-2.9,1.6-4.3c1-2.6,2-5.2,3-7.8c-3.4-2.3-6.7-5.1-9-8.6c-2.7-4.2-3.4-8.5-3.5-13.4c0-0.4,0.5-0.8,0.9-0.6
					c6.8,4.4,12.9,9.7,13.7,17.4c2-4.5,4.2-8.8,6.7-12.8c-3.7-0.3-6.1-2-7.1-4.1c-1.1-2.2-0.9-4.9-0.6-7.5c0.2-2.3,0.4-4.6-0.3-6.6
					c-0.1-0.2,0.2-0.4,0.4-0.3c1.2,1,2.3,2,3.5,2.9c2.3,2,4.7,4,6,6.4c0.8,1.6,1.2,3.4,0.8,5.2c2.2-3.1,4.6-6,7-8.6
					c0.7-0.7,1.3-1.4,2-2c-0.1,0-0.2,0-0.3-0.1c-2.2-1.5-4.7-3.1-6.2-5.4c-1.9-2.9-1.3-7.1-4-9.5c-0.4-0.4,0.1-0.9,0.5-0.8
					c6.1,2.3,12.8,7.3,11.3,14.5c2-1.9,4-3.7,5.9-5.2c0.1-0.1,0.2-0.2,0.3-0.3c-0.4-1.4-0.8-2.8-1.2-4.2c-0.2-0.7-0.4-1.4-0.5-2.2
					c-0.1-1,0.1-2,0.2-2.9c0.2-0.9,0.3-1.9,0.5-2.8c0-0.2,0.1-0.4,0.2-0.6c1.8,1.6,2.6,4,2.6,6.4c0,1.9-0.4,3.8-1,5.6
					c2.5-2,5-3.8,7.2-5.4c0.2-0.1,0.3-0.2,0.5-0.3c-0.8-0.9-1-2.1-0.8-3.3c0.2-1.2,0.7-2.3,1.2-3.4c0.5-1.1,1-2.2,1.2-3.4
					c0.1,0.8,0.2,1.6,0.3,2.4c0.2,1.3,0.3,2.7,0.2,4c-0.1,1.1-0.5,2.3-1.2,3.2c2-1.5,3.7-3,5.3-4c1.9-1.2,3.6-1.9,4.7-2.5
					c1-0.6,1.6-0.6,1.6-0.6s-0.4,0.4-1.4,1.1c-1,0.6-2.4,1.7-4.3,2.9c-0.2,0.2-0.5,0.3-0.7,0.5c0,0,0.1,0,0.1,0
					c0.8-0.1,1.7,0,2.5,0.2c0.9,0.1,1.8,0.3,2.6,0.7c1,0.5,1.8,1.2,2.6,1.9c0.7,0.7,1.5,1.3,2.2,2c-0.9-0.6-2.1-0.6-3.2-0.6
					c-2.5,0-4.9-0.5-7.2-1.4c-0.7-0.3-1.4-0.6-2-1.2c-1.1,0.8-2.3,1.6-3.6,2.5c-0.9,0.7-1.8,1.3-2.7,2c4.5-1,8.7,2.7,11.1,6.4
					c0.2,0.3-0.1,0.8-0.5,0.5c-2.2-1.6-5.2-0.5-7.7-1.4c-1.9-0.7-3.5-2.3-5-3.7c-0.1-0.1-0.1-0.1-0.1-0.2c-1.1,0.9-2.2,1.8-3.4,2.8
					c-2.9,2.5-5.8,5.4-8.7,8.7c-0.6,0.7-1.2,1.3-1.7,2c1.1-0.4,2.4-0.3,3.6,0c1.7,0.4,3.2,1.3,4.7,2.1c3.3,1.8,6.8,3.3,10.4,4.5
					c-0.1,0.3-0.4,0.4-0.7,0.5c-1.9,0.6-3.9,1.1-5.9,1.3c-2,0.2-4.1-0.1-5.9-0.9c-2.8-1.3-4.8-4.1-7.6-5.4c-1.7,2.2-3.3,4.5-4.7,7
					c-1.7,2.8-3.2,5.7-4.6,8.8c4-2.1,7.7-3.4,12.3-2.7c4.5,0.7,7.7,3.3,11.4,5.8c0.3,0.2,0.2,0.9-0.2,0.9c-8,0.5-17.9,4.3-24.3-2.3
					c-1.6,3.7-3,7.5-4.4,11.3c2.5-1.4,5-2.2,8.1-2c4.1,0.3,8,2.1,12.1,2.6c0.4,0,0.5,0.5,0.2,0.8c-4,4.4-9.5,6.1-15.3,4.4
					c-1.7-0.5-3.3-1.1-4.8-1.8c-0.3-0.1-0.9-0.3-1.5-0.5c-0.2,0.7-0.5,1.4-0.7,2.1c-1.3,3.9-2.5,7.8-3.9,11.7
					c2.5-1.9,5.4-3.3,8.5-3.2c5.7,0.2,11.4,2.3,17.1,3c0.4,0,0.5,0.5,0.4,0.8c-2,3.7-6.7,7.4-11.1,7.1c-5.5-0.4-10.9-2.2-16.1-4.1
					c-1.6,4.5-3.3,8.9-5.2,13.1c-0.3,0.7-0.7,1.4-1,2c11.2-9.2,24.8-1.4,35.3,1.9c1.1,0.4,1.1,2.4-0.1,3.2
					c-5.8,3.7-12.1,5.9-18.1,5.3c-6.5-0.6-12.1-4.4-18.4-5.7c-0.4,0.2-0.8,0-1.1-0.4c0,0,0,0,0,0c-0.3,0.5-0.6,1-0.8,1.5
					c-0.3,0.5-0.6,1-0.9,1.5c-0.6,1-1.2,1.9-1.9,2.9c-0.2,0.4-0.5,0.7-0.7,1c7.2-1.2,14.1,4,21,6.2c1.2,0.4,1,2.2-0.1,2.6
					c-4.8,1.6-9.1,2.6-14,1.3c-3.8-1-7.4-2.9-10.7-5c-1.1,1.4-2.3,2.6-3.4,3.9c-2.7,2.9-5.4,5.3-7.9,7.3c-2.5,2-4.8,3.7-6.7,4.9
					c-1,0.6-1.9,1.2-2.7,1.6c-0.8,0.5-1.5,0.9-2,1.1c0,0,0,0,0,0C10.2,247,9.2,246.6,8.7,245.8z"/>
			</g>
		</g>
		<g id="New_Symbol_25">
			<path opacity="0.61" fill="#FFFFFF" d="M284.7,99.2c-1-0.2-1.9-0.6-2.8-0.9c-0.4-0.1-0.7-0.2-1.1-0.2c1-1.2,1.9-2.5,2.5-4
				c0.7-1.4-1.6-2.5-2.2-1c-0.5,1.1-1.1,2.1-1.9,3.1c-0.9-1.1-1.9-2-2.7-3.2c-0.9-1.3-2.9,0.1-2,1.4c0.7,1.1,1.7,2,2.5,3
				c-1.6,0.6-3,1.6-4.5,2.4c-1.4,0.7-0.6,3,0.8,2.3c1.4-0.7,2.8-1.6,4.2-2.3c0,0.8-0.2,1.5-0.3,2.3c-0.2,1.1,0,2.3-0.3,3.3
				c-0.4,1.5,2,1.9,2.4,0.4c0.3-1,0.1-2.2,0.3-3.3c0.1-0.7,0.2-1.3,0.2-2c0.6,0.1,1.3,0.2,1.9,0.4c0.8,0.2,1.6,0.6,2.4,0.8
				C285.8,101.9,286.2,99.5,284.7,99.2z"/>
			<path opacity="0.61" fill="#FFFFFF" d="M340.8,83.2c-0.1-0.6,0.1-1.2,0.1-1.8c0-0.2,0-0.5-0.1-0.7c0.9,0.4,1.8,0.7,2.8,0.8
				c1,0.2,1.2-1.4,0.3-1.5c-0.8-0.1-1.5-0.3-2.2-0.6c0.5-0.7,0.9-1.5,1.5-2.2c0.6-0.7-0.5-1.7-1.2-1c-0.5,0.6-0.9,1.4-1.4,2
				c-0.6-0.8-1.5-1.5-2.2-2.3c-0.7-0.7-1.9,0.2-1.2,0.9c0.7,0.7,1.4,1.4,2.1,2.2c-0.5,0.1-1,0.2-1.4,0.2c-0.7,0.1-1.4,0.4-2,0.4
				c-1,0-0.8,1.5,0.2,1.5c0.7,0,1.4-0.3,2-0.4c0.4-0.1,0.8-0.1,1.2-0.2c0.1,0.4,0.1,0.8,0.1,1.2c0,0.5-0.1,1.1-0.1,1.6
				C339.3,84.4,340.8,84.2,340.8,83.2z"/>
			<path opacity="0.61" fill="#FFFFFF" d="M274.3,161.1c0-0.7,0.1-1.4,0.2-2.1c0-0.3,0-0.5,0-0.8c1,0.5,2.1,0.9,3.2,1.1
				c1.1,0.2,1.5-1.5,0.4-1.7c-0.9-0.2-1.7-0.5-2.4-0.8c0.6-0.8,1.1-1.7,1.8-2.4c0.8-0.8-0.5-2-1.3-1.2c-0.6,0.7-1.1,1.5-1.7,2.2
				c-0.7-1-1.6-1.8-2.3-2.7c-0.7-0.9-2.2,0.1-1.5,0.9c0.7,0.9,1.6,1.7,2.2,2.6c-0.5,0.1-1.1,0.1-1.7,0.2c-0.8,0.1-1.6,0.3-2.3,0.3
				c-1.1,0-1,1.7,0.1,1.7c0.8,0,1.6-0.3,2.3-0.3c0.5,0,1-0.1,1.4-0.1c0,0.5,0.1,0.9,0,1.4c0,0.6-0.2,1.2-0.2,1.8
				C272.6,162.3,274.3,162.2,274.3,161.1z"/>
			<path opacity="0.61" fill="#FFFFFF" d="M258.7,140.2c0.8,0,1.7,0.2,2.5,0.3c0.3,0,0.6,0,0.9,0c-0.6,1.2-1.1,2.5-1.4,3.8
				c-0.3,1.3,1.7,1.8,2.1,0.5c0.2-1,0.6-2,1.1-2.9c0.9,0.8,2,1.4,2.9,2.2c1,1,2.4-0.6,1.5-1.5c-0.8-0.8-1.8-1.4-2.7-2.1
				c1.2-0.8,2.2-1.9,3.4-2.8c1.1-0.8,0-2.6-1.1-1.8c-1.1,0.8-2.1,1.9-3.2,2.6c-0.1-0.7-0.1-1.3-0.2-2c0-0.9-0.4-1.9-0.3-2.8
				c0.1-1.4-2-1.3-2.1,0.1c-0.1,0.9,0.3,1.9,0.3,2.8c0,0.6,0.1,1.2,0.1,1.7c-0.5,0-1.1,0-1.7,0c-0.7,0-1.4-0.3-2.2-0.2
				C257.3,138.1,257.4,140.2,258.7,140.2z"/>
		</g>
	</g>
	<g id="New_Symbol">
		<path opacity="0.61" fill="#FFFFFF" d="M362.7,199.8L362.7,199.8c0,1-0.8,1.7-1.7,1.7l-2.2,0c-0.9,0-1.7-0.8-1.7-1.7v0
			c0-1.1,0.2-2.9,0-4.8c0-1,0-2.1-0.1-3.4c-0.1-1.2-0.2-2.6-0.3-4c-0.1-0.7-0.2-1.4-0.3-2.1c-0.1-0.8-0.2-1.6-0.3-2.5
			c-0.3-1.6-0.6-3.3-1-5c0,0,0-0.1,0-0.2c1.3,0.6,2.5,1.3,3.6,1.9c0.5,0.3,0.8,0.7,0.9,1.2c0.4,0.1,0.6,0.4,0.8,0.6
			c0.1-0.1,0.2-0.2,0.3-0.4c0.1,0.3,0.1,0.7,0.2,1c0.3,1.7,0.6,3.3,0.8,4.8c0.1,0.5,0.1,0.9,0.2,1.3c0.1,1,0.2,2,0.3,2.9
			c0.2,1.3,0.2,2.6,0.3,3.7C362.7,197,362.6,198.6,362.7,199.8z"/>
		<path opacity="0.61" fill="#FFFFFF" d="M282.1,88.8c-0.1-0.1-0.2-0.1-0.2-0.2c0,0,0,0,0.1,0C282,88.7,282,88.7,282.1,88.8z"/>
		<path opacity="0.61" fill="#FFFFFF" d="M364.9,167.4c-1.8,1.7-4.1,3.9-6.6,4.6c0.5,1.6,0.9,3.2,1.4,4.8c0.4,1.5,0.7,2.9,1,4.2
			c-0.1,0.1-0.2,0.2-0.3,0.4c-0.2-0.3-0.5-0.5-0.8-0.6c-0.1-0.5-0.3-0.9-0.9-1.2c-1.1-0.6-2.3-1.3-3.6-1.9c-0.8-3.4-1.7-7.1-3.1-11
			c-0.2-0.5-0.3-1-0.5-1.4c0,0-0.1,0-0.1,0.1c-4.4,1.8-9.1,3.5-13.9,3.7c-2.7,0.1-8.2-1.4-7.2-5.2c1.8-7.4,12.6-5.8,19.2-3.6
			c-0.7-1.8-1.5-3.6-2.4-5.5c-1.3-2.8-2.7-5.6-4.2-8.4c-3.9,1.5-7.8,3-11.9,3.7c-2.9,0.5-7.9-0.4-8.1-4.1
			c-0.5-7.8,11.2-5.7,17.3-4.3c-2.3-3.8-4.8-7.5-7.4-11.2c0,0,0,0,0,0c-3.6,1.1-12.5,7.1-14.3,0.6c-0.8-2.8,1.2-5.2,3.7-6
			c1.9-0.6,4.1-0.5,6.3-0.1c-1.4-1.7-2.8-3.4-4.2-5.1c-3,1.3-10.9,4.7-11-0.4c-0.1-2,2-3,3.7-3.2c1.4-0.2,3-0.1,4.4,0.3
			c-2.1-2.4-4.3-4.7-6.4-6.9c-1.3,1.4-3,3.1-4.9,3.6c-1.6,0.5-3.2-0.6-3.8-2c-0.6-1.3,0.3-3.1,1.6-3.6c1.7-0.6,3.2-0.7,4.8-0.2
			c-2.2-2.2-4.3-4.3-6.4-6.2c0,0-0.1,0-0.1,0.1c-2,0.5-7.9,3.8-9,0.7c-0.5-1.5,1.6-2.5,2.7-2.9c1.3-0.4,2.8-0.3,4.1,0
			c-1.7-1.6-3.3-3.1-4.9-4.5c-0.1,0.2-0.2,0.4-0.5,0.5c-1.2,0.3-2.1,1.4-3.3,1.9c-1,0.4-2.4,0.3-2.9-0.9c-0.5-1.1,0.4-2.1,1.4-2.5
			c1.3-0.5,2.6-0.4,3.9-0.1c0,0,0,0,0,0c-0.5-0.5-1-0.9-1.5-1.4c-0.9-0.8-1.7-1.5-2.5-2.2c-1,1.1-2.4,1.9-3.9,2.1
			c-1.1,0.2-2.5-0.1-2.7-1.4c-0.2-1.3,1.1-2.2,2.2-2.5c0.7-0.1,1.6-0.1,2.4,0.1c-1.2-1-2.3-2-3.3-2.9c0,0-0.1,0.1-0.1,0.1
			c-0.7,0.5-1.5,0.9-2.3,1.2c0,0-0.1,0-0.1,0c-0.3,0.2-0.6,0.3-0.9,0.5c-0.9,0.4-1.6-0.2-1.9-1c-0.3-0.9,0.2-1.7,1-2
			c0.5-0.2,1-0.3,1.6-0.3c0.5,0,0.9,0.2,1.4,0.2c-0.6-0.5-1.2-1-1.7-1.5c0,0-0.1-0.1-0.1-0.1v0c-0.4-0.3-0.8-0.7-1.1-1
			c0,0.1-0.1,0.2-0.2,0.3c-0.7,0.2-1.6,0.7-2.4,0.7c-0.6,0-1.2-0.5-1.1-1.1c0.1-0.7,0.7-1,1.3-1.2c0.3-0.1,0.5,0,0.8,0
			c0,0,0,0,0-0.1c-0.8-0.7-1.5-1.3-2-1.7c0,0,0,0-0.1,0c-1.9,0.4-4.6,1-6.6,0.6c-0.9-0.2-3.3-1-2.9-2.3c0.9-3,5.8-1.1,7.7,0.1
			c0,0,0,0,0,0c0,0,0.1,0.1,0.2,0.2c0,0,0,0,0,0c0,0,0,0,0,0c0.2,0.2,0.5,0.4,1,0.7c0,0,0.1,0.1,0.1,0.1c0.1,0,0.1,0.1,0.2,0.2
			c0,0,0.1,0,0.1,0.1c0.5,0.4,1.1,0.8,1.8,1.4c0,0,0-0.1-0.1-0.1c-0.1-0.1-0.1-0.3-0.2-0.4c-1-2-2.3-4.8,0.1-5.8
			c2.2-1,1.9,6.5,1.9,7.4c0,0.1,0,0.2-0.1,0.2c0,0,0,0,0,0.1h0c0,0,0.1,0.1,0.1,0.1c0,0,0,0,0,0c0.1,0.1,0.2,0.1,0.2,0.2
			c0.3,0.2,0.6,0.5,0.9,0.8c-0.2-0.9-0.1-1.7,0.1-2.6c0.2-0.7,0.8-2.1,1.8-1.9c1.1,0.2,1.2,1.3,1,2.3c-0.2,1-0.6,2.6-1.6,3.1
			c0,0-0.1,0-0.1,0c1.1,0.9,2.4,1.9,3.7,3c-0.3-0.9,0-2,0.2-3c0.2-1.1,0.9-2.5,2.1-2.6c1.1-0.1,1.2,1.8,1.1,2.5
			c-0.2,1.4-1.1,3-2.3,3.8c0,0-0.1,0-0.2,0.1c1.4,1.1,2.8,2.2,4.3,3.5c-0.3-1-0.2-2,0.1-3c0.5-1.3,1.8-3.1,3.4-2.8
			c1.3,0.2,1,2.5,0.8,3.4c-0.4,1.5-1.3,3-2.6,3.8c1.3,1.1,2.6,2.2,4,3.3c-0.1-1.7,0.8-3.3,1.8-4.7c0.5-0.6,1.5-0.8,2.1-0.3
			c0.7,0.6,0.7,1.5,0.6,2.4c-0.2,1.1-0.7,2.2-1.2,3.1c-0.3,0.5-0.6,1.1-1,1.4c1.5,1.3,3,2.6,4.6,4c0-0.1,0-0.2,0-0.4
			c-0.2-0.9-0.2-1.7,0.1-2.6c0.4-1.3,1.6-2.3,3-2.1c1.4,0.2,2,1.9,2,3.1c0,1.8-0.6,3.7-1.3,5.3c1.3,1.2,2.7,2.5,4.1,3.8
			c0.7,0.6,1.3,1.3,2,1.9c-0.1-1.1,0.1-2.1,0.6-3.2c0.5-1.3,1.9-3.1,3.5-2.3c1.6,0.8,1.2,3.3,1,4.7c-0.2,1-0.6,3.2-1.5,4.3
			c1.5,1.5,3,3,4.4,4.6c0.2,0.2,0.4,0.4,0.6,0.7c0.1-1.2,0.4-2.4,1-3.7c0.6-1.3,1.6-3.2,3.1-3.8c0.6-0.4,1.5-0.4,2.1,0.2
			c0.1,0.1,0.1,0.2,0.2,0.3c0.9,0.8,1.2,2.2,1,3.4c-0.4,2.5-2.8,5.1-4.3,7.1c2,2.3,3.9,4.6,5.8,7c0.4,0.5,0.8,1,1.1,1.5
			c0.3-2,1.1-3.9,2.3-5.7c1.3-2,2.9-4.7,5.3-5.3c2.3-0.6,3.7,1.8,4.2,3.6c0.7,2.6-0.4,5.3-1.6,7.5c-1.1,2.1-3,5.7-5.4,6.4
			c0,0,0,0,0,0c0.9,1.3,1.8,2.6,2.7,3.9c1.4,2.2,2.7,4.4,3.9,6.5c1.9-6.1,6.6-14.6,12.7-11.7c7.9,3.8-4.2,15.5-8.7,19.3
			c1.5,3.1,2.9,6.1,4,9.1c1.6-2.6,3.4-5,5.6-7.1c1.7-1.7,4.1-3.8,6.8-3.2C375.9,155.3,367.6,165,364.9,167.4z"/>
		<path opacity="0.61" fill="#FFFFFF" d="M369.3,183c-1.1,1.6-2.5,2.9-4.2,3.9c-0.8,0.5-2,1.1-3.2,1.3c-0.8,0.2-1.5,0.2-2.1-0.1
			c-0.3-0.1-0.5-0.3-0.6-0.4c-0.7-0.3-1.2-1-1-1.9c0-0.3,0.1-0.7,0.2-1c-0.6,0.3-1.3,0.5-2,0.6c-1.7,0.4-3.5,0.3-5.2,0
			c-2.5-0.4-6.6-1.1-6.7-4.2c-0.1-2.6,3.8-4.2,5.8-4.5c1.6-0.2,3.3,0.3,4.8,1c1.3,0.6,2.5,1.3,3.6,1.9c0.5,0.3,0.8,0.7,0.9,1.2
			c0.4,0.1,0.6,0.4,0.8,0.6c0.1-0.1,0.2-0.2,0.3-0.4c0.1-0.2,0.3-0.3,0.4-0.5c1.5-1.7,3-3.6,5.1-4.5c1.6-0.7,3.2,0.3,4.1,1.4
			C371.6,179.1,370.1,181.7,369.3,183z"/>
	</g>
</g>
</svg>
