<?xml version="1.0" encoding="utf-8"?>
<!-- Generator: Adobe Illustrator 18.1.0, SVG Export Plug-In . SVG Version: 6.00 Build 0)  -->
<!DOCTYPE svg PUBLIC "-//W3C//DTD SVG 1.1//EN" "http://www.w3.org/Graphics/SVG/1.1/DTD/svg11.dtd">
<svg version="1.1" id="Layer_1" xmlns="http://www.w3.org/2000/svg" xmlns:xlink="http://www.w3.org/1999/xlink" x="0px" y="0px"
	 viewBox="0 0 576 576" enable-background="new 0 0 576 576" xml:space="preserve">
<path fill="#2E2E2E" d="M122.7,469.8L122.7,469.8c-7.4-7.4-7.4-19.4,0-26.8l340.9-340.9c7.4-7.4,19.4-7.4,26.8,0l0,0
	c7.4,7.4,7.4,19.4,0,26.8L149.5,469.8C142.1,477.3,130.1,477.3,122.7,469.8z"/>
<path fill="#2E2E2E" d="M490.3,469.8L490.3,469.8c-7.4,7.4-19.4,7.4-26.8,0L122.7,129c-7.4-7.4-7.4-19.4,0-26.8l0,0
	c7.4-7.4,19.4-7.4,26.8,0L490.3,443C497.8,450.4,497.8,462.4,490.3,469.8z"/>
</svg>
