<?xml version="1.0" encoding="utf-8"?>
<!-- Generator: Adobe Illustrator 18.1.0, SVG Export Plug-In . SVG Version: 6.00 Build 0)  -->
<!DOCTYPE svg PUBLIC "-//W3C//DTD SVG 1.1//EN" "http://www.w3.org/Graphics/SVG/1.1/DTD/svg11.dtd">
<svg version="1.1" id="Layer_1" xmlns="http://www.w3.org/2000/svg" xmlns:xlink="http://www.w3.org/1999/xlink" x="0px" y="0px"
	 viewBox="0 0 664 364" enable-background="new 0 0 664 364" xml:space="preserve">
<g>
	<path fill="#D8EFF4" d="M175.3,128.1v134.6h-26.9V128.1h-48.3v-24.6h123.4v24.6H175.3z"/>
	<path fill="#D8EFF4" d="M381.6,240.8c-16.1,15.7-36,23.6-59.7,23.6c-23.7,0-43.6-7.9-59.7-23.6c-16.1-15.7-24.1-35.3-24.1-58.7
		c0-23.5,8-43,24.1-58.8c16.1-15.7,36-23.6,59.7-23.6c23.7,0,43.6,7.9,59.7,23.6c16.1,15.7,24.1,35.3,24.1,58.8
		C405.8,205.5,397.7,225,381.6,240.8z M361.9,141.1c-10.9-11.2-24.2-16.9-40-16.9c-15.8,0-29.1,5.6-40,16.9
		c-10.9,11.2-16.3,24.9-16.3,40.9c0,16,5.4,29.6,16.3,40.9c10.9,11.2,24.2,16.9,40,16.9c15.8,0,29.1-5.6,40-16.9
		c10.9-11.2,16.3-24.9,16.3-40.9C378.2,166,372.8,152.4,361.9,141.1z"/>
	<path fill="#D8EFF4" d="M547.2,117.4c11.1,9.3,16.6,23.5,16.6,42.8c0,19.3-5.7,33.4-17,42.4c-11.3,9-28.7,13.4-52,13.4h-28.2v46.7
		h-26.9V103.6h54.7C518.5,103.6,536.1,108.2,547.2,117.4z M528.2,183.1c5.4-5.7,8.1-14,8.1-25c0-11-3.4-18.8-10.2-23.3
		s-17.5-6.8-32.1-6.8h-27.3v63.8h31.2C512.7,191.7,522.8,188.8,528.2,183.1z"/>
</g>
<rect x="9" y="7.8" fill="none" stroke="#D8EFF4" stroke-width="14.4" stroke-miterlimit="10" width="646" height="348.5"/>
</svg>
